<?xml version="1.0" encoding="UTF-8"?>
<svg id="Capa_2" data-name="Capa 2" xmlns="http://www.w3.org/2000/svg" viewBox="0 0 57.9 57.9">
  <defs>
    <style>
      .cls-1 {
        fill: #384472;
      }

      .cls-1, .cls-2 {
        stroke-width: 0px;
      }

      .cls-3 {
        fill: none;
        stroke: #384472;
        stroke-miterlimit: 10;
      }

      .cls-2 {
        fill: #f7f7f7;
      }
    </style>
  </defs>
  <g id="Tipografia">
    <circle class="cls-2" cx="28.95" cy="28.95" r="28.95"/>
    <g>
      <path class="cls-1" d="M4.61,14.81v21.9c0,.64,1,.64,1,0V14.81c0-.64-1-.64-1,0h0Z"/>
      <path class="cls-1" d="M4.84,37.24c6,5.65,12,11.31,18,16.96.32.3.85.09.85-.35.04-2.24.08-4.47.12-6.71l.03-1.64c0-.23.05-.5,0-.72-.1-.46-.73-.87-1.06-1.18-.49-.46-1-.91-1.52-1.34-.99-.83-2.02-1.61-3.08-2.33-2.39-1.63-4.97-2.96-7.66-4.02-.6-.23-.86.73-.27.96,4.77,1.87,9.11,4.72,12.74,8.33l-.15-.35c-.05,3-.11,6.01-.16,9.01l.85-.35c-6-5.65-12-11.31-18-16.96-.47-.44-1.18.26-.71.71h0Z"/>
      <path class="cls-1" d="M18.31,13.16c-3.85.28-7.71.57-11.56.85l-1.64.12c-.55.04-.69.81-.13.98,3.7,1.14,4.46,5.66,4.83,8.97.45,4,.28,8.03.08,12.04-.02.33.33.56.63.48,3.93-.98,7.86-1.96,11.8-2.94l1.69-.42c.22-.06.36-.26.37-.48.22-3.99,0-8.11-.91-12.01-.7-2.97-2.05-6-4.81-7.57-.56-.32-1.06.54-.5.86,2.64,1.51,3.81,4.5,4.43,7.34.81,3.71,1,7.6.79,11.39l.37-.48c-3.93.98-7.86,1.96-11.8,2.94l-1.69.42.63.48c.22-4.38.39-8.78-.21-13.13-.49-3.51-1.62-7.67-5.43-8.84l-.13.98c3.85-.28,7.71-.57,11.56-.85l1.64-.12c.64-.05.64-1.05,0-1h0Z"/>
      <polyline class="cls-3" points="23.36 44.84 39.65 39.36 39.65 47.25"/>
      <line class="cls-3" x1="39.65" y1="47.25" x2="23.2" y2="53.85"/>
      <line class="cls-3" x1="23.93" y1="32.58" x2="39.65" y2="39.36"/>
      <path class="cls-1" d="M15.19,13.26c.19.03.25-.05.15-.23,0-.12.01-.24.05-.35.06-.18.17-.35.29-.49.28-.32.7-.56,1.12-.63.94-.15,1.87.41,2.56.98,1.44,1.21,2.54,2.82,3.36,4.5,1.83,3.76,2.24,8.01,2.63,12.11.06.64,1.06.64,1,0-.4-4.2-.83-8.48-2.63-12.34-.81-1.74-1.92-3.41-3.34-4.71-1.24-1.14-3.05-2.12-4.69-1.18-.73.41-1.32,1.17-1.34,2.03-.02.67.56,1.7,1.35,1.17.53-.36.03-1.22-.5-.86h0Z"/>
      <path class="cls-1" d="M26.03,30.04c2.52.32,5.01.84,7.44,1.54,1.19.34,2.37.73,3.53,1.17,1.04.39,2.03.87,2.72,1.76.4.51,1.1-.21.71-.71-.69-.89-1.67-1.42-2.7-1.84-1.23-.5-2.5-.91-3.77-1.28-2.6-.76-5.25-1.3-7.93-1.65-.64-.08-.63.92,0,1h0Z"/>
      <path class="cls-1" d="M39.44,34.02c.41,2.61.31,5.29-.28,7.87-.14.63.82.89.96.27.63-2.76.72-5.6.28-8.4-.1-.63-1.06-.36-.96.27h0Z"/>
      <path class="cls-1" d="M39.46,47.72l9.58-3.43c1.2-.43,2.89-.72,3.68-1.81.39-.54.63-1.19.88-1.8.32-.79.6-1.6.84-2.42.18-.62-.78-.88-.96-.27-.21.71-.44,1.41-.71,2.09-.24.6-.47,1.31-.87,1.83-.43.56-1.22.72-1.85.95l-2.19.78-8.66,3.1c-.6.22-.34,1.18.27.96h0Z"/>
      <path class="cls-1" d="M40.06,43.46c4.48-1.72,8.99-3.37,13.51-4.96.6-.21.34-1.18-.27-.96-4.53,1.59-9.03,3.24-13.51,4.96-.59.23-.34,1.2.27.96h0Z"/>
      <path class="cls-1" d="M54.57,29.35c1.14,2.97.71,6.35-1.14,8.93-.38.52.49,1.02.86.5,1.99-2.77,2.47-6.52,1.24-9.71-.23-.59-1.2-.34-.96.27h0Z"/>
      <path class="cls-1" d="M40.91,25.77c2.69-.61,5.45-.2,8.05.63s4.97,1.78,6.22,4.26c.29.57,1.15.07.86-.5-1.34-2.64-3.91-3.77-6.6-4.65-2.84-.93-5.86-1.36-8.8-.7-.63.14-.36,1.11.27.96h0Z"/>
      <path class="cls-1" d="M40.52,34.48l2.17-.75,1.08-.37.5-.17.25-.09.17-.06c.14-.03.07-.06-.2-.09l-.13-.22v.03c0-.09,0-.18,0-.27v.02c.03-.07.08-.15.12-.22l-.02.02.22-.13c-.05.02-.04.02.05,0l.25.07h-.02c.08.09.15.19.23.29v-.02c-.02.13-.04.26-.06.39v-.02c.12-.25.08-.54-.17-.68-.21-.13-.57-.07-.68.18-.16.36.01.79.45.8.29,0,.56-.19.6-.49.05-.36-.27-.66-.62-.66-.3,0-.6.15-.88.25l-3.59,1.23c-.26.09-.42.34-.35.62.07.25.36.44.62.35h0Z"/>
      <path class="cls-1" d="M26.33,29.35c1.98-.9,4.13-1.4,6.3-1.47.64-.02.64-1.02,0-1-2.36.08-4.66.63-6.81,1.61-.25.11-.3.47-.18.68.14.25.44.29.68.18h0Z"/>
      <path class="cls-1" d="M15.97,11.95c2.19-1.52,4.91-2.22,7.56-1.86.27.04.53-.07.62-.35.07-.23-.08-.58-.35-.62-2.92-.4-5.91.28-8.33,1.96-.53.36-.03,1.23.5.86h0Z"/>
      <path class="cls-1" d="M23.35,10.02c3.36.28,5.31,3.88,6.33,6.69,1.25,3.43,1.62,7.09,1.79,10.71.03.64,1.03.64,1,0-.18-3.99-.6-8.06-2.14-11.79-1.24-3.02-3.42-6.31-6.98-6.61-.64-.05-.64.95,0,1h0Z"/>
      <path class="cls-1" d="M23.48,9.82c1.56-.12,3.18-.02,4.56.77,1.1.64,1.88,1.64,2.47,2.75,1.36,2.56,1.97,5.43,2.26,8.3.2,1.97.27,3.98.05,5.95-.07.64.93.63,1,0,.21-1.88.16-3.78-.02-5.66-.16-1.73-.4-3.47-.87-5.15-.68-2.49-1.82-5.34-4.04-6.84-1.58-1.07-3.55-1.27-5.41-1.12-.64.05-.64,1.05,0,1h0Z"/>
      <path class="cls-1" d="M32.64,27.91c.29.34.76.35,1.18.43.55.11,1.09.23,1.63.36,1.05.26,2.08.58,3.09.95,2.08.76,4.07,1.76,5.94,2.95.54.35,1.05-.52.5-.86-1.77-1.13-3.64-2.07-5.6-2.83-.97-.38-1.96-.7-2.97-.98-.5-.14-1.01-.26-1.52-.38-.27-.06-.54-.12-.82-.17-.17-.03-.62-.03-.73-.17-.41-.5-1.12.22-.71.71h0Z"/>
      <path class="cls-1" d="M33.41,27.78c2.48-1.2,5.18-1.9,7.92-2.06.64-.04.64-1.04,0-1-2.93.17-5.78.92-8.43,2.2-.58.28-.07,1.14.5.86h0Z"/>
      <path class="cls-1" d="M45.11,32.64c3.14-.78,6.28-1.56,9.42-2.33.62-.15.36-1.12-.27-.96l-9.42,2.33c-.62.15-.36,1.12.27.96h0Z"/>
      <path class="cls-1" d="M44.67,32.8c1.83,2.23,1.76,5.76-.14,7.93-.42.48.28,1.19.71.71,2.28-2.6,2.33-6.67.14-9.34-.41-.5-1.11.21-.71.71h0Z"/>
      <path class="cls-1" d="M44.34,32.62c.3,2.68.12,5.39-.56,8-.16.62.8.89.96.27.69-2.7.9-5.5.59-8.27-.07-.63-1.07-.64-1,0h0Z"/>
      <path class="cls-1" d="M34.44,27.47c2.4-.95,5.09-.81,7.36.43,1.81.99,2.46,2.71,2.53,4.71.02.64,1.02.64,1,0-.09-2.29-.86-4.35-2.93-5.52-2.5-1.41-5.56-1.64-8.23-.58-.59.23-.33,1.2.27.96h0Z"/>
      <path class="cls-1" d="M23,9.8c2.5-.4,5.02-.67,7.55-.84.92-.06,1.84-.13,2.76-.14.6,0,1.51-.14,2.06.12.58.27,1.09-.59.5-.86-.64-.3-1.46-.26-2.16-.26-.98,0-1.97.06-2.95.13-2.69.17-5.37.46-8.03.89-.63.1-.36,1.07.27.96h0Z"/>
      <path class="cls-1" d="M35.07,8.94c1.34.61,2.31,2.12,3.08,3.32.81,1.26,1.47,2.61,1.96,4.02.98,2.81,1.3,5.81.92,8.76-.08.64.92.63,1,0,.41-3.16.02-6.42-1.09-9.41-.55-1.48-1.27-2.9-2.15-4.21-.83-1.23-1.84-2.71-3.22-3.34-.58-.26-1.09.6-.5.86h0Z"/>
      <line class="cls-3" x1="8.07" y1="16.78" x2="20.7" y2="15.62"/>
      <line class="cls-3" x1="21.7" y1="17.82" x2="9.31" y2="19.14"/>
      <line class="cls-3" x1="10.06" y1="22.26" x2="22.87" y2="20.4"/>
      <path class="cls-3" d="M10.45,25.57s12.9-2,12.9-2"/>
      <line class="cls-3" x1="10.78" y1="28.69" x2="23.66" y2="26.29"/>
      <line class="cls-3" x1="10.58" y1="31.48" x2="23.66" y2="28.5"/>
      <line class="cls-3" x1="10.5" y1="33.87" x2="23.66" y2="30.69"/>
      <path class="cls-1" d="M14.68,34.88c-.54.42-1.12,1.17-.49,1.8.25.25.55.28.88.2.55-.14,1.1-.4,1.64-.59l-.62-.35c.02.12-.56.4-.67.49-.17.14-.32.29-.42.49-.18.39-.07.82.24,1.1.38.33.88.32,1.33.16.25-.09.49-.22.73-.34.17-.08.35-.17.53-.22.15-.05.45-.01.56-.08.14.05.16.02.08-.08-.01-.12-.06-.13-.14-.04-.1.01-.27.13-.37.18-.19.1-.37.23-.49.41-.26.39-.17.9.18,1.2.4.34.91.31,1.37.13.31-.12.59-.29.89-.42.15-.06.93-.39,1.03-.28l-.15-.35c0-.17-.04,0-.16.1-.1.09-.22.15-.34.23-.21.13-.43.27-.61.44-.31.31-.53.79-.28,1.21s.74.49,1.15.37c.66-.18,1.28-.49,1.96-.66.16-.04.37-.05.52-.11l.21-.04-.23-.22c-.16,0-.7.61-.82.72-.39.34-.87.75-.59,1.32.24.48.82.52,1.27.36.3-.11.57-.25.88-.33.2-.05.4-.09.61-.12h.21c.24.03.28,0,.13-.11l.05-.39c-.4.54-1.09.84-1.46,1.41-.26.4-.24.99.2,1.27.48.31.89-.06,1.3-.27.47-.24,1.13-.03,1.32.48.23.6,1.19.34.96-.27-.27-.72-.87-1.21-1.65-1.3-.33-.04-.65,0-.95.13-.06.03-.56.27-.54.32.09.39.63-.24.7-.3.45-.41,1.66-1.28.7-1.87-.38-.23-.9-.14-1.31-.07-.15.02-1.55.3-1.52.52l-.05.39c.33-.72,2-1.18,1.62-2.19-.33-.89-1.71-.36-2.33-.17-.17.05-1.66.46-1.45.75-.07-.1.91-.69,1-.77.55-.46.74-1.34-.19-1.45-.51-.06-1.03.09-1.5.29-.27.11-.53.25-.79.37-.16.07-.32.14-.49.2.1-.06.21-.11.32-.15.63-.3,1.23-1.22.38-1.7-.92-.51-1.84.23-2.68.51-.25.09-.62.19-.19-.07.19-.11.38-.22.54-.37.33-.31.43-.65.35-1.09-.05-.25-.38-.44-.62-.35-.34.12-.67.25-1.01.37-.15.05-.3.11-.45.16-.2.07.04,0,.19-.11.5-.39,0-1.26-.5-.86h0Z"/>
      <path class="cls-1" d="M19.31,34.59c-.72-.5-1.47.55-.86,1.14.31.3.74.29,1.11.14.27-.11.51-.27.79-.36.12-.04.85-.22.94-.14l-.15-.35c0-.08-.1.11-.18.18-.09.08-.19.14-.28.2-.19.13-.4.26-.57.42-.29.27-.57.66-.42,1.08.45,1.27,2.08.12,2.73-.28.05-.03.43-.27.41-.29,0,0-.24.14-.26.15-.17.12-.31.27-.4.46-.17.37-.06.82.31,1.01.45.23,1.09-.03,1.53-.18.64-.22,1.38-.57,2.03-.21v-.86c-.5.34-2.49,1.26-1.63,2.11.34.34.83.25,1.24.12.3-.09.59-.21.89-.31.13-.04.26-.09.4-.12.16-.04.46-.01.57-.09.11.03.14,0,.11-.12.04-.14,0-.16-.08-.04-.1.02-.28.24-.36.31-.21.18-.47.37-.61.62-.23.4-.16.88.21,1.16s.83.31,1.26.26c.2-.02,1.55-.44,1.62-.29l-.05-.39c-.06.21-.57.51-.75.65-.25.2-.52.39-.74.62-.32.34-.5.84-.25,1.27s.72.47,1.15.36c.77-.21,1.41-.35,2.22-.16.63.14.89-.82.27-.96-.72-.17-1.45-.19-2.17-.02-.17.04-.33.12-.49.15s.12-.06.21-.13c.3-.21.58-.47.86-.7.42-.34.99-.87.47-1.41-.38-.4-1.08-.29-1.56-.19-.31.07-.61.18-.93.21-.04,0-.42.04-.43.02-.01-.03.48-.43.5-.45.39-.34.94-.77.6-1.34-.3-.5-1-.47-1.5-.39-.34.05-.67.16-1,.28-.2.07-.4.15-.6.21l-.2.06c-.24,0-.27.05-.1.17l-.05.39c.12-.2.51-.38.7-.51.24-.16.47-.32.71-.48.3-.2.35-.67,0-.86-.53-.29-1.1-.35-1.69-.24-.22.04-1.81.7-1.91.58l.15.35c-.01-.12.38-.3.45-.37.15-.14.25-.32.29-.51.07-.41-.18-.8-.55-.97-.44-.21-.89-.05-1.3.16-.28.15-.56.31-.83.47-.18.1-.28.15-.39.32-.21.31.16-.06.21-.1.47-.34,1.69-1.08.98-1.77-.32-.31-.93-.24-1.34-.19-.11.01-1.54.41-1.49.52l.05.39-.37.11c.53.37,1.03-.5.5-.86h0Z"/>
      <path class="cls-1" d="M18.88,35.6c.31-.13.64-.26.86-.53.12-.15.23-.32.27-.52.02-.09.03-.19.03-.29-.01-.16-.04-.26-.11-.4s-.22-.22-.37-.24-.32.02-.42.14c-.17.19-.28.39-.36.62-.04.12-.01.28.05.39s.18.2.3.23c.13.03.27.02.39-.05s.19-.17.23-.3c0-.03.02-.05.03-.08l-.05.12c.04-.09.09-.18.15-.26l-.08.1s.04-.04.05-.06l-.79-.1s0,.02.01.03l-.05-.12s.02.07.03.11l-.02-.13s0,.09,0,.13l.02-.13c0,.05-.02.11-.04.16l.05-.12c-.02.06-.06.11-.09.16l.08-.1c-.04.05-.09.1-.15.15l.1-.08c-.14.11-.31.18-.47.25l.12-.05s-.02,0-.03.01c-.07.02-.12.05-.17.09-.05.04-.1.08-.13.14-.06.11-.09.27-.05.39s.11.24.23.3.26.1.39.05h0Z"/>
      <path class="cls-1" d="M24.23,33.11c.43-.41.69-1.02.96-1.54.17-.32.34-.63.52-.94.09-.15.18-.29.27-.44.04-.07.09-.13.14-.19.05-.08-.05.06,0,0,.02-.03.05-.06.07-.09.05-.06.1-.11.16-.17.02-.02.05-.04.07-.06.03-.04-.04.04-.05.04,0,0,.04-.03.04-.03.02-.01.05-.03.07-.04.08-.05-.09.03-.03.01.11-.04,0,.02-.03,0,0,0,.07,0,.08,0,.27.02.5-.24.5-.5,0-.29-.23-.48-.5-.5-.67-.04-1.15.67-1.47,1.16-.4.62-.72,1.29-1.08,1.93-.09.15-.17.3-.27.45-.02.03-.04.06-.06.08-.01.01-.02.03-.03.04-.04.06.03-.03.03-.04,0,.04-.09.11-.12.13-.19.19-.19.52,0,.71s.51.19.71,0h0Z"/>
      <path class="cls-1" d="M7.81,19.59c.05.1.1.21.15.32l-.05-.12c.07.18.14.36.19.54.03.12.12.24.23.3s.27.09.39.05.24-.11.3-.23.09-.25.05-.39c-.09-.34-.23-.67-.39-.98-.06-.11-.18-.2-.3-.23s-.28-.02-.39.05-.2.17-.23.3c-.03.14-.01.26.05.39h0Z"/>
      <path class="cls-1" d="M8.31,22.52l.11,1.4c.01.13.05.26.15.35.09.09.23.15.35.15.25-.01.52-.22.5-.5l-.11-1.4c-.01-.13-.05-.26-.15-.35-.09-.09-.23-.15-.35-.15-.25.01-.52.22-.5.5h0Z"/>
      <path class="cls-1" d="M8.7,25.9s.02.1.02.14l-.02-.13c.04.26.04.53.02.8-.01.12.06.27.15.35.09.09.23.15.35.15s.26-.05.35-.15l.08-.1c.05-.08.07-.16.07-.25.03-.36,0-.72-.06-1.07-.02-.12-.13-.24-.23-.3-.11-.06-.27-.09-.39-.05s-.24.11-.3.23l-.05.12c-.02.09-.02.18,0,.27h0Z"/>
      <path class="cls-1" d="M9.91,29.12c-.01-.16,0-.33.01-.49l-.02.13c.02-.14.05-.28.09-.41l-.96-.27s0,.05,0,.07c-.02.07-.02.13,0,.2,0,.07.02.13.06.19.06.1.18.2.3.23.13.03.27.02.39-.05.1-.07.21-.17.23-.3,0-.02,0-.05,0-.07.02-.07.02-.13,0-.2,0-.07-.02-.13-.06-.19-.06-.1-.18-.2-.3-.23-.13-.03-.27-.02-.39.05s-.19.17-.23.3c-.06.19-.09.38-.11.57-.02.15-.02.31-.01.47,0,.13.05.26.15.35.09.09.23.15.35.15s.26-.05.35-.15.16-.22.15-.35h0Z"/>
      <path class="cls-1" d="M10,31.82v-.84c0-.13-.06-.26-.15-.35s-.23-.15-.35-.15-.26.05-.35.15-.15.22-.15.35v.84c0,.13.06.26.15.35s.23.15.35.15.26-.05.35-.15.15-.22.15-.35h0Z"/>
      <path class="cls-1" d="M9.77,35.29v-1.65c0-.26-.23-.51-.5-.5s-.5.22-.5.5v1.65c0,.26.23.51.5.5s.5-.22.5-.5h0Z"/>
    </g>
    <path class="cls-1" d="M35.17,41.37c.68-.1,1.36-.48,1.52-1.19.14-.63-.18-1.28-.82-1.45-.35-.09-.71-.01-1.03.14-.21.1-.39.23-.58.36-.08.05-.16.11-.24.16s-.22.25-.29.28c.58-.27.75-1.18.34-1.64-.45-.5-1.16-.45-1.72-.2-.19.09-.42.26-.63.3-.3.06-.23.02-.14-.15.15-.3.26-.54.12-.88-.29-.71-1.1-.82-1.74-.58-.24.09-.83.48-.92.17-.04-.13.09-.35.08-.5s-.06-.31-.15-.45c-.54-.9-1.45-.44-2.23-.32-.08.01-.33.06-.39,0-.09-.09-.02-.06.07-.17s.23-.19.33-.3c.21-.24.31-.54.2-.85-.09-.26-.34-.42-.62-.35-.48.13-.96.26-1.44.38l-.72.19c-.15.04-.56.07-.68.16-.46.35.17.1.35,0,.23-.13.43-.28.54-.53.15-.32-.02-.77-.43-.75s-.8-.05-1.18-.25c-.57-.3-1.08.56-.5.86.53.28,1.08.41,1.69.39l-.43-.75c-.14.32-.74.36-.96.67-.26.35-.19.85.15,1.12s.84.26,1.26.17c.88-.19,1.76-.47,2.63-.7l-.62-.35c.07-.13.06-.14-.03-.04-.06.06-.13.11-.2.17-.13.11-.26.23-.35.38-.19.32-.19.71.01,1.02s.6.53.97.56c.24.02.47-.03.7-.09.21-.06.64-.3.86-.19.24.12,0,.32-.01.53-.02.18.01.35.09.5.14.27.43.47.72.55.41.12.78.02,1.16-.14.16-.07.67-.39.83-.17-.07-.1-.25.25-.28.33-.31.75.49,1.41,1.19,1.37.42-.02.72-.27,1.1-.42.12-.07.24-.11.38-.11.18.02.22.04.1.08-.04.13-.31.31-.39.44-.47.78.17,1.54,1.02,1.36.51-.11.84-.47,1.28-.7.33-.17.77-.06.43.33-.16.18-.47.22-.7.25-.63.1-.36,1.06.27.96h0Z"/>
  </g>
</svg>