<?xml version="1.0" encoding="UTF-8"?>
<svg id="Capa_2" data-name="Capa 2" xmlns="http://www.w3.org/2000/svg" viewBox="0 0 57.9 57.9">
  <defs>
    <style>
      .cls-1 {
        fill: none;
        stroke: #384472;
        stroke-miterlimit: 10;
        stroke-width: 1.1px;
      }

      .cls-2 {
        fill: #f7f7f7;
        stroke-width: 0px;
      }
    </style>
  </defs>
  <g id="Tipografia">
    <circle class="cls-2" cx="28.95" cy="28.95" r="28.95"/>
    <g>
      <path class="cls-1" d="M47.61,47.84c-12.41,0-25.04-.22-37.45-.22-.1-.5-.3-.99-.3-1.49-.02-5.81-.03-11.63,0-17.44,0-.87-.31-1.45-.89-2.1-.66-.74-1.22-1.7-1.46-2.66-.34-1.36-.07-2.75.49-4.07,1.27-2.96,2.68-5.9,2.37-9.26h36.81c.03.59.13,1.18.09,1.76-.09,1.39.19,2.68.77,3.94.62,1.36,1.26,2.72,1.71,4.14.69,2.18.82,4.38-1.07,6.08-.76.69-1,1.4-1,2.37.03,5.74.02,11.49,0,17.23,0,.5.02,1.21-.08,1.71ZM48.18,27.11c-1.9.09-5.95.08-7.17-1.36-1.14,1.2-2.42,1.98-4.05,2.01-1.68.02-2.96-.8-4.06-1.94-3.23,2.62-4.67,2.62-8.23.03-2.69,2.67-5.42,2.52-8.16-.08-1.19,1.52-4.63,2.21-6.45,2.19M35.09,45.51h7.07c0-4.62,0-9.1-.02-13.58,0-.2-.32-.58-.5-.58-2-.04-3.99-.03-5.99-.03-.3,0-.55.25-.55.55v13.65Z"/>
      <path class="cls-1" d="M31.5,29.63c0,2.65,0,5.22,0,7.79,0,1.22-.05,2.44.02,3.66.04.81-.31,1.02-1.04,1.01-3.1-.04-6.2-.07-9.29-.07-2.16,0-4.32.03-6.47.07-.76.02-1.13-.15-1.12-1.04.05-3.52.03-7.03.01-10.55,0-.59.05-.99.82-.99,5.47.02,10.93.01,16.4.02.17,0,.34.05.67.1Z"/>
      <path class="cls-1" d="M21.89,37.88c1.75-1.83,3.54-3.63,5.38-5.37"/>
    </g>
    <path class="cls-1" d="M25.9,38.21c1.75-1.83,1.74-1.84,3.59-3.58"/>
    <line class="cls-1" x1="16.5" y1="25.77" x2="16.5" y2="10.6"/>
    <line class="cls-1" x1="24.66" y1="25.84" x2="24.66" y2="10.6"/>
    <line class="cls-1" x1="32.89" y1="25.81" x2="32.89" y2="10.6"/>
    <line class="cls-1" x1="41" y1="25.75" x2="41" y2="10.6"/>
  </g>
</svg>