<?xml version="1.0" encoding="UTF-8"?>
<svg id="Capa_2" data-name="Capa 2" xmlns="http://www.w3.org/2000/svg" viewBox="0 0 57.9 57.9">
  <defs>
    <style>
      .cls-1 {
        fill: none;
        stroke: #384472;
        stroke-miterlimit: 10;
      }

      .cls-2 {
        fill: #f7f7f7;
        stroke-width: 0px;
      }
    </style>
  </defs>
  <g id="Tipografia">
    <circle class="cls-2" cx="28.95" cy="28.95" r="28.95"/>
    <path class="cls-1" d="M13.1,17.62l15.51,1.27s2.8-3.05,3.82-9.83c0,0,9.75,1.78,16.02-.93,0,0,1.36,1.61-2.29,13.69,0,0,1.17.87-.34,2.16"/>
    <line class="cls-1" x1="31.07" y1="22.02" x2="43.87" y2="21.6"/>
    <path class="cls-1" d="M39.8,36.44c1.53,3.48-13.45,8.31-13.45,8.31,3.5-8.31,5.06-19.12,5.06-19.12l14.41-1.65-6.02,12.46Z"/>
    <line class="cls-1" x1="13.35" y1="18.89" x2="30.49" y2="20.41"/>
    <path class="cls-1" d="M26.15,37.96l-1.79-.85c2.27-17.29,3.58-15.51,3.58-15.51,0,0,3.81-2.37,3.48,4.03"/>
    <path class="cls-1" d="M8.69,29.01l11.36,9.97,1.87.59,3.73-1.27-1.29,6.44-3.5,1.1h-2.08l-9.66-10.71-.42-6.13,3.31-.67s-.93-6.65-.59-11.23h1.7c.42.42,1.1,11.23,1.1,11.23,0,0,11.56-.8,10.95-.89"/>
    <path class="cls-1" d="M32.43,11.09s8.48,2.2,16.02-.51"/>
    <path class="cls-1" d="M46.67,11.5s-.93,3.91-3.18,8.91l-11.07-1.53.35-7.39"/>
    <path class="cls-1" d="M28.87,37.36s9.36-1.59,9.91-4.91c.76-4.56-7.75-5.43-7.75-5.43"/>
    <line class="cls-1" x1="38.79" y1="32.45" x2="42.26" y2="24.45"/>
    <line class="cls-1" x1="11.06" y1="29.68" x2="25.65" y2="28.62"/>
    <line class="cls-1" x1="19.2" y1="36.77" x2="24.36" y2="35.59"/>
    <line class="cls-1" x1="11.66" y1="29.68" x2="19.69" y2="36.66"/>
    <path class="cls-1" d="M27.89,40.59s8.21-1.23,9.58-4.66v-1.65"/>
    <line class="cls-1" x1="20.05" y1="38.98" x2="18.78" y2="45.85"/>
    <line class="cls-1" x1="21.92" y1="39.57" x2="20.85" y2="45.85"/>
    <line class="cls-1" x1="17.17" y1="34.36" x2="24.9" y2="33.17"/>
    <path class="cls-1" d="M29.94,33.17s1.54.47.95.59"/>
    <path class="cls-1" d="M31.03,29.01s12.57,2.51-1.37,5.35"/>
    <path class="cls-1" d="M20.39,45.85s-.98,9.41-2.61,7.25c-.71-.94,0-8.35,0-8.35"/>
    <path class="cls-1" d="M37.47,40.28l1,2.43h.79s.13-2.71-.43-3.73"/>
    <polyline class="cls-1" points="10.48 36.77 9.62 41.35 11.06 41.35"/>
    <line class="cls-1" x1="11.66" y1="37.96" x2="10.48" y2="41.79"/>
    <line class="cls-1" x1="24.36" y1="44.74" x2="26.28" y2="45.2"/>
    <polyline class="cls-1" points="31.75 22.02 31.75 20.41 36.8 21.83"/>
    <polyline class="cls-1" points="36.59 37.44 36.8 38.12 39.55 38.12"/>
  </g>
</svg>