<?xml version="1.0" encoding="UTF-8"?>
<svg id="Capa_2" data-name="Capa 2" xmlns="http://www.w3.org/2000/svg" viewBox="0 0 57.9 57.9">
  <defs>
    <style>
      .cls-1 {
        fill: #384472;
      }

      .cls-1, .cls-2 {
        stroke-width: 0px;
      }

      .cls-3 {
        fill: none;
        stroke: #384472;
        stroke-miterlimit: 10;
      }

      .cls-2 {
        fill: #f7f7f7;
      }
    </style>
  </defs>
  <g id="Tipografia">
    <circle class="cls-2" cx="28.95" cy="28.95" r="28.95"/>
    <line class="cls-3" x1="16.49" y1="55.2" x2="41.17" y2="55.2"/>
    <polyline class="cls-3" points="3.06 41.91 11.01 41.91 25.99 41.91"/>
    <line class="cls-3" x1="54.85" y1="41.91" x2="31.75" y2="41.91"/>
    <polyline class="cls-3" points="11.14 41.9 11.14 9.53 46.18 9.07 46.18 41.9"/>
    <circle class="cls-3" cx="28.66" cy="19.38" r="7.33"/>
    <line class="cls-3" x1="7.19" y1="9.07" x2="49.99" y2="9.07"/>
    <polyline class="cls-3" points="25.53 43.56 12.31 43.56 10.12 49.59 47.2 49.59 44.27 43.47 32.2 43.47"/>
    <g>
      <g>
        <rect class="cls-3" x="25.53" y="29.51" width="6.68" height="1.4"/>
        <line class="cls-3" x1="22.96" y1="36.49" x2="22.89" y2="36.63"/>
        <path class="cls-1" d="M31.32,42.16c1.21,2.15-.79,4.72-3.18,4.1-1-.26-1.79-1.06-2.04-2.06-.31-1.29.38-2.52,1.51-3.12.27-.14.35-.58.1-.79-1.07-.89-1.11-2.48.09-3.28.37-.25.28-.99-.25-.93-.39.04-.73-.12-1.11-.17-.35-.05-.6.06-.93.15-.4.12-.76-.09-1.16-.04-.1.01-.93.27-.91.34l-.05.39,2.56-5.58-.43.25h6.68l-.48-.37c.69,1.88,1.39,3.77,2.08,5.65l.48-.63c-.84-.08-1.68-.23-2.52-.26-.21,0-.43-.01-.63.05-.18.06-.34.21-.54.2-.39-.02-.64-.36-1.08-.21-.48.16-.46.8,0,.96,1.55.56,1.72,2.48.51,3.49-.24.2-.16.64.1.79.5.27.89.6,1.19,1.09.34.54,1.21.04.86-.5-.39-.62-.9-1.1-1.55-1.45l.1.79c1.84-1.52,1.24-4.36-.95-5.16v.96c.12-.04.42.18.54.21.14.04.3.07.45.06.42-.04.67-.3,1.13-.26.79.06,1.58.17,2.38.25.31.03.59-.35.48-.63-.69-1.88-1.39-3.77-2.08-5.65-.08-.21-.25-.37-.48-.37h-6.68c-.16,0-.36.09-.43.25l-2.14,4.67c-.26.57-.82,1.34-.11,1.83.27.19.64.21.95.12.19-.05.36-.18.55-.23.26-.07.47.03.73.07.47.06.84-.27,1.27-.22s.77.22,1.2.18l-.25-.93c-1.69,1.13-1.89,3.53-.29,4.85l.1-.79c-1.46.77-2.31,2.37-2.02,4.01.25,1.44,1.38,2.64,2.79,3.01,3.24.85,5.95-2.65,4.31-5.57-.32-.56-1.18-.06-.86.5Z"/>
        <path class="cls-1" d="M23.31,36.14h0s.05.06.08.1h0s.03.08.05.12c0,0,0,0,0,0l.02.13s0,0,0,0c0-.07-.01-.13-.04-.19-.02-.06-.05-.12-.1-.16-.05-.05-.1-.08-.16-.1-.06-.03-.12-.05-.19-.04l-.13.02c-.08.02-.16.07-.22.13l-.08.1c-.05.08-.07.16-.07.25,0,0,0,0,0,0l.02.13s0,0,0,0c0,0,.05.12.05.12.01.02.02.04.04.05.01.02.03.04.04.05.05.05.1.08.16.1.06.03.12.05.19.04.07,0,.13-.01.19-.04.06-.02.12-.05.16-.1l.08-.1c.05-.08.07-.16.07-.25l-.02-.13c-.02-.08-.07-.16-.13-.22h0Z"/>
      </g>
      <path class="cls-1" d="M27.51,37.05c.74-.1,1.49-.16,2.2-.39.25-.08.44-.35.35-.62-.08-.25-.35-.44-.62-.35-.71.23-1.47.29-2.2.39-.11.02-.24.14-.3.23-.06.11-.09.27-.05.39s.11.24.23.3c.13.07.24.07.39.05h0Z"/>
    </g>
  </g>
</svg>