<?xml version="1.0" encoding="UTF-8"?>
<svg id="Capa_2" data-name="Capa 2" xmlns="http://www.w3.org/2000/svg" viewBox="0 0 57.9 57.9">
  <defs>
    <style>
      .cls-1 {
        stroke-width: .85px;
      }

      .cls-1, .cls-2 {
        fill: none;
        stroke: #384472;
        stroke-miterlimit: 10;
      }

      .cls-3 {
        fill: #384472;
      }

      .cls-3, .cls-4 {
        stroke-width: 0px;
      }

      .cls-2 {
        stroke-width: 1.2px;
      }

      .cls-4 {
        fill: #f7f7f7;
      }
    </style>
  </defs>
  <g id="Tipografia">
    <circle class="cls-4" cx="28.95" cy="28.95" r="28.95"/>
    <g>
      <path class="cls-1" d="M26.83,16.41c-.21.76-.37,1.54-.64,2.28-.45,1.24-1.01,2.44-1.44,3.68-.11.31,0,.79.19,1.08.09.14.72.12.91-.05,3-2.65,6.01-2.39,9.07-.14.18.13.41.21.63.26.16.04.33-.01.94-.05-1.05-3.17-2.07-6.23-3.08-9.29l.65-.22c.23.48.49.94.67,1.44.84,2.26,1.72,4.51,2.42,6.81.18.59,0,1.61-.41,1.97-.43.37-1.37.3-2.04.19-.53-.09-1.01-.51-1.49-.82-2.14-1.38-4.36-1.21-6.4.24-.64.45-1.61.44-2.43.64-.12-.88-.51-1.83-.32-2.64.37-1.55,1.05-3.03,1.63-4.53.14-.37.41-.69.62-1.04.17.06.34.13.52.19Z"/>
      <path class="cls-1" d="M37.51,4.2c-.75,1.59-1.47,2.99-2.07,4.44-.48,1.16-.8,2.39-1.22,3.58-.6,1.68-1.86,2.24-3.54,1.99-1.76-.26-3.51-.58-5.27-.81-.56-.07-1.14.05-1.71.08-.05.25-.1.51-.14.76,1.66.45,3.32.91,5.28,1.44-1.5.82-5.25.21-5.86-.78-.26-.42-.41-1.3-.16-1.56.49-.52,1.3-1.1,1.94-1.06,1.88.1,3.77.38,5.61.81,1.71.4,2.57-.2,3.11-1.78.74-2.17,1.56-4.31,2.47-6.41.5-1.15.79-1.14,1.57-.68Z"/>
    </g>
    <path class="cls-2" d="M17.09,22.58c0,2.34.02,4.67.03,7.01,0,2.91,0,5.82,0,9.11-2.36.17-4-1.21-5.9-1.17-1.86.04-3.68,1.73-5.54,1.73,0-4.2-.36-7.19-.36-11.26-.94.45-1.5-.03-2.17.28.09-1.4.87-2.06,2.55-1.94,1.83.13,3.67.36,5.44.81,1.54.39,2.3-.18,2.78-1.49.38-1.02.73-2.05,1.1-3.08.69,0,1.38,0,2.07,0ZM15.65,36.33c0-2.04-.02-3.92,0-5.8.02-1.01-.17-1.07-.93-1.07-2.35.02-3.9.06-6.26,0-1.16-.03-1.51.44-1.48,1.52.04,1.38-.12,2.76-.01,4.13.03.43.63,1.15.99,1.16,2.91.1,4.59.06,7.68.06Z"/>
    <path class="cls-3" d="M26.33,45.92c0,.87.01,1.6,0,2.33-.02.7-.06,1.41-.1,2.11-.23.02-.45.04-.68.06-.11-.69-.3-1.38-.32-2.08-.03-1.47.21-2.74-1.41-3.94-2.18-1.62-1.31-4.1,1.48-5.15.34-3.07.34-3.09,3.63-3.04,3.05.05,6.09.19,9.14.14.62,0,1.4-.53,1.82-1.06.78-.98,1.24-2.21,2.02-3.19.68-.86,1.58-1.53,2.83-.76,1.19.73,1.26,1.64.67,2.78-.52,1.01-1.08,1.98-.04,3.1.31.34.22,1.1.22,1.67,0,3.45,0,6.9-.03,10.34,0,.37-.09.74-.2,1.6-2.17,0-.28-3.43-1.12-4.93h-17.92ZM40,44.72c-1.98-3.43-9.05-5.51-13.47-4.07v4.07h13.47ZM38.71,37.47h-12.11v1.57c2.04.11,4,.03,5.88.36,1.89.33,3.72,1.08,5.57,1.64.19-1.05.4-2.16.65-3.57ZM41.22,44.73h3.17v-7.01c-.17-.04-.34-.08-.52-.12-.87,2.33-1.73,4.66-2.65,7.13ZM42.78,37.79c-.09-.17-.19-.34-.28-.51-.92.29-2.18.31-2.68.94-1.16,1.45-.69,3.46.95,5.22.69-1.94,1.35-3.79,2.01-5.64ZM40.56,36.14c2.98.37,3.02.38,3.83-2.24.17-.54-.1-1.21-.17-1.82-.59.26-1.38.37-1.73.82-.73.93-1.24,2.04-1.93,3.24ZM25.36,40.24c-.76.6-1.63.97-1.64,1.37-.04,1.02.21,2.11,1.64,2.44v-3.8Z"/>
  </g>
</svg>