<?xml version="1.0" encoding="UTF-8"?>
<svg id="Capa_2" data-name="Capa 2" xmlns="http://www.w3.org/2000/svg" viewBox="0 0 57.9 57.9">
  <defs>
    <style>
      .cls-1 {
        fill: #384472;
      }

      .cls-1, .cls-2 {
        stroke-width: 0px;
      }

      .cls-2 {
        fill: #f7f7f7;
      }
    </style>
  </defs>
  <g id="Tipografia">
    <circle class="cls-2" cx="28.95" cy="28.95" r="28.95"/>
    <g>
      <path class="cls-1" d="M13.65,17.51c-1.03.2-1.96.38-2.89.57-.5.1-.64.4-.63.91.03,2.22.01,4.43.01,6.65,0,.2.03.4.05.55h3.46v-8.68ZM43.65,17.5v8.68h3.42c.01-.05.06-.14.06-.23,0-2.41.02-4.81-.01-7.22,0-.21-.29-.55-.5-.61-.94-.25-1.9-.41-2.96-.63ZM11.78,42.82c.08.04.16.07.23.11.22-.44.44-.88.65-1.33-.09-.04-.18-.09-.27-.13-.21.45-.41.9-.62,1.35ZM44.9,41.47c-.1.05-.19.1-.29.16.22.41.44.81.66,1.22.07-.04.13-.08.2-.12-.19-.42-.38-.84-.58-1.26Z"/>
      <path class="cls-1" d="M52.57,29.19c-1.31-.88-2.67-1.68-4.06-2.44-.36-.2-.51-.36-.51-.78.02-2.02,0-4.06,0-6.09,0-2.41-.06-2.49-2.46-2.95-.16-.04-.32-.04-.48-.06-1.09-.22-2.17-.45-3.26-.65-.68-.13-1.38-.28-2.07-.28-7.32-.02-14.65-.03-21.99.02-.91,0-1.82.28-2.74.45-.57.1-1.13.21-1.7.33-1.11.24-2.23.46-3.33.73-.54.13-.74.49-.73,1.09.04,2.48,0,4.95.03,7.43,0,.4-.11.61-.52.76-1.55.56-2.91,1.46-4.16,2.53-.54.47-.52.6.05.99.34.23.67.47,1.02.71-.94,1.38-.92,2.8-.49,4.28.65,2.27,2.11,4.03,3.6,5.76.12.14.36.21.56.24.64.11,1.28.17,2.15.29-.34.44-.62.74-.81,1.09-.25.46-.44.95-.6,1.44-.04.12.1.36.23.46.38.3,1.41.2,1.7-.19.5-.72,1.03-1.44,1.38-2.24.21-.49.43-.6.89-.6,5.53.02,11.06,0,16.59,0,4.06,0,8.13,0,12.19.02.24,0,.58.08.69.26.5.75.92,1.54,1.38,2.32.32.54,1.26.81,1.79.47.59-.39.26-.91.07-1.37-.1-.25-.35-.43-.49-.66-.21-.3-.39-.63-.65-1.05.58-.05.98-.03,1.37-.11.45-.08,1.02-.12,1.29-.4,1.3-1.43,2.54-2.95,3.26-4.77.7-1.76.99-3.52-.16-5.24.33-.23.63-.45.94-.66.66-.46.71-.66.02-1.11ZM28.17,33.51c-.23.02-.43.05-.63.05-3.88,0-7.75,0-11.63,0-.46,0-.7-.16-.97-.51-1.37-1.92-3.08-3.35-5.56-3.44-.77-.03-1.61.09-2.3.42-.71.33-1.12.12-1.65-.35,2.56-1.98,5.25-3.29,8.56-2.43,1.09.28,2.02.84,2.82,1.62.42.39.47.69-.05,1.03-.45.29-.88.62-1.27.98-.16.16-.18.46-.26.69.26,0,.56.05.79-.05.29-.13.56-.35.78-.57,1.9-1.84,4.29-2.08,6.71-1.94,1.56.08,3.1.5,4.65.78v3.7ZM27.36,28.85c-2.92-1.06-5.9-.99-8.85-.04-.33.1-.49.05-.78-.18-.87-.69-1.78-1.33-2.72-1.92-.28-.18-.44-.31-.44-.67.02-2.69.02-5.37,0-8.06,0-.4.16-.63.51-.69.98-.16,1.97-.42,2.95-.43,3.55-.05,7.09-.03,10.64-.03v.04h11.62c.21,0,.42,0,.63.05,1.73.3,1.79.37,1.79,2.12,0,2.26,0,4.52,0,6.79,0,.47-.15.69-.57.94-.9.52-1.74,1.16-2.54,1.81-.28.24-.47.35-.84.23-2.95-.96-5.94-1.03-8.85.05-.94.35-1.62.32-2.55-.02ZM50.18,30c-2.5-1.02-4.65-.19-6.54,1.53-.53.48-.92,1.1-1.41,1.63-.17.17-.45.36-.67.36-4.06.02-8.12,0-12.17,0-.07,0-.14-.03-.26-.05v-3.49c2.89-1.13,5.84-1.33,8.87-.55,1.18.3,1.92,1.19,2.87,1.8.36.22.74.88,1.16.3.36-.5-.33-.69-.62-.97-.16-.15-.34-.26-.5-.38-1.02-.78-1.04-.9,0-1.71,1.81-1.42,3.86-1.8,6.08-1.31,1.81.39,3.37,1.29,4.84,2.51-.52.52-.95.6-1.64.32Z"/>
    </g>
  </g>
</svg>