<?xml version="1.0" encoding="UTF-8"?>
<svg id="Capa_2" data-name="Capa 2" xmlns="http://www.w3.org/2000/svg" viewBox="0 0 57.9 57.9">
  <defs>
    <style>
      .cls-1 {
        fill: none;
        stroke: #384472;
        stroke-miterlimit: 10;
      }

      .cls-2 {
        fill: #f7f7f7;
        stroke-width: 0px;
      }
    </style>
  </defs>
  <g id="Tipografia">
    <circle class="cls-2" cx="28.95" cy="28.95" r="28.95"/>
    <g>
      <path class="cls-1" d="M20.86,51.11c-.86-.35-1.21-1.01-1.14-1.91.03-.34-.11-.46-.42-.55-1.01-.29-2.01-.62-3.02-.92-1.58-.47-2.28-1.6-1.91-3.19.93-3.99,1.85-7.98,2.85-11.96.55-2.19,2.05-3.49,4.25-3.97.59-.13,1.19-.26,1.81-.39-.05-.11-.08-.19-.13-.26-.54-.82-.79-1.72-.79-2.7,0-3.3,0-6.61,0-9.91.02-4.76,3.17-8.68,7.81-9.75.37-.09.75-.15,1.13-.22.63,0,1.25,0,1.88,0,.39.08.79.14,1.17.23,4.57,1.04,7.71,4.89,7.77,9.63.04,3.38,0,6.76.01,10.13,0,.92-.26,1.76-.75,2.53-.05.09-.1.18-.17.3.62.14,1.21.27,1.8.4,2.3.5,3.77,1.88,4.33,4.17.6,2.42,1.15,4.85,1.73,7.28.38,1.6.77,3.2,1.16,4.8v.8c-.29,1.33-1.21,1.94-2.46,2.23-.85.2-1.67.51-2.51.74-.35.1-.52.23-.48.63.08.88-.31,1.51-1.15,1.84h-22.77ZM31.14,32.99c7.23.06-.35.06-.53.06-2.54,0-5.09,0-7.63,0-1.27,0-1.92.67-1.92,1.93,0,3.39,0,6.79,0,10.18,0,1.26.67,1.93,1.93,1.93,6.18,0,12.35,0,18.53,0,1.26,0,1.93-.67,1.93-1.92,0-3.38,0-6.76,0-10.13,0-1.35-.64-1.99-2-1.99-2.38,0-4.76,0-7.14,0M26.13,15.21c0,.83-.02,1.63,0,2.43.03.89,0,1.8.18,2.66.59,2.89,3.24,4.85,6.28,4.74,2.79-.1,5.33-2.33,5.66-5.15.18-1.53.09-3.09.1-4.63,0-.1-.14-.24-.24-.3-.45-.25-.94-.46-1.37-.73-.9-.57-1.63-1.33-2.25-2.25-2.44,1.98-5.22,3.01-8.35,3.24ZM35.67,28.26c-.24-.35-.54-.66-.69-1.02-.16-.38-.18-.82-.27-1.25-1.64.57-3.3.53-5.01,0,.07.95-.22,1.68-.91,2.23"/>
      <path class="cls-1" d="M9.69,14.93c1.5-.01,6.1-.05,7.6.04,1.28.08,2.37,1.31,2.39,2.6.03,1.92.04,3.84,0,5.76-.03,1.45-1.28,2.62-2.78,2.68-.2,0-.41,0-.67,0,0,.31.01.58,0,.84-.02.49-.28.84-.71.98-.45.14-.82.01-1.12-.34-.33-.39-.67-.76-.98-1.16-.19-.25-.41-.32-.72-.32-1.67.01-3.33,0-5,0-1.73,0-2.7-.75-3.15-2.43,0-.03-.04-.04-.05-.07,0-2.02,0-4.05,0-6.07.2-.76.46-1.51,1.17-1.93.46-.27.99-.5,1.51-.56.82-.09,1.66-.04,2.5-.03"/>
      <path class="cls-1" d="M29.63,17.19c0,.25.02.51,0,.75-.04.36-.27.56-.63.57-.36.01-.63-.18-.66-.53-.04-.53-.04-1.06,0-1.59.03-.36.33-.53.67-.51.32.02.56.21.6.55.02.25,0,.5,0,.75,0,0,0,0,0,0Z"/>
      <path class="cls-1" d="M34.86,17.16c0-.21-.01-.42,0-.62.02-.39.28-.67.63-.67.38,0,.64.22.68.58.04.5.04,1.01,0,1.51-.03.37-.31.58-.69.55-.38-.02-.59-.26-.62-.63-.02-.24,0-.47,0-.71Z"/>
    </g>
  </g>
</svg>