<?xml version="1.0" encoding="UTF-8"?>
<svg id="Capa_2" data-name="Capa 2" xmlns="http://www.w3.org/2000/svg" viewBox="0 0 57.9 57.9">
  <defs>
    <style>
      .cls-1 {
        fill: #384472;
      }

      .cls-1, .cls-2 {
        stroke-width: 0px;
      }

      .cls-3 {
        fill: none;
        stroke: #384472;
        stroke-miterlimit: 10;
      }

      .cls-2 {
        fill: #f7f7f7;
      }
    </style>
  </defs>
  <g id="Tipografia">
    <circle class="cls-2" cx="28.95" cy="28.95" r="28.95"/>
    <g>
      <path class="cls-1" d="M50.22,22.53c-.28-.83-.78-1.58-1.46-2.14-.1-.09-.21-.15-.35-.15-.12,0-.27.05-.35.15-.17.18-.22.53,0,.71.15.12.29.25.42.39.06.07.12.14.18.21.01.02.03.05.05.06-.02-.01-.06-.08-.02-.03.03.04.06.08.09.13.11.15.2.31.29.48.02.05.05.09.07.14,0,.02.02.04.03.06,0,.02.04.1.01.03-.03-.07,0,0,0,.01,0,.02.02.05.03.07.02.05.04.1.05.15.09.25.35.44.62.35.24-.08.44-.35.35-.62h0Z"/>
      <g>
        <line class="cls-3" x1="12.45" y1="11.32" x2="45.76" y2="11.32"/>
        <rect class="cls-3" x="8.17" y="21.34" width="7.37" height="24.91"/>
        <rect class="cls-3" x="15.54" y="30.18" width="13.56" height="7.37"/>
        <rect class="cls-3" x="15.54" y="37.55" width="13.56" height="8.7"/>
        <rect class="cls-3" x="43.55" y="22.81" width="6.19" height="23.44"/>
        <rect class="cls-3" x="17.6" y="11.32" width="11.5" height="15.03"/>
        <rect class="cls-3" x="29.1" y="39.62" width="14.44" height="6.63"/>
        <rect class="cls-3" x="29.1" y="31.95" width="12.09" height="2.58"/>
        <rect class="cls-3" x="38.98" y="11.32" width="2.21" height="20.64"/>
        <path class="cls-1" d="M15.89,29.95l.15-.15s.08-.1.1-.16c.03-.06.05-.12.04-.19,0-.07-.01-.13-.04-.19-.02-.06-.05-.12-.1-.16l-.1-.08c-.08-.05-.16-.07-.25-.07l-.13.02c-.08.02-.16.07-.22.13l-.15.15s-.08.1-.1.16c-.03.06-.05.12-.04.19,0,.07.01.13.04.19.02.06.05.12.1.16l.1.08c.08.05.16.07.25.07l.13-.02c.08-.02.16-.07.22-.13h0Z"/>
        <path class="cls-1" d="M17.6,27c.64,0,.64-1,0-1s-.64,1,0,1h0Z"/>
        <path class="cls-1" d="M16.18,29.65c.83-1.01,1.61-2.07,2.31-3.18.14-.22.05-.56-.18-.68-.25-.13-.53-.06-.68.18-.67,1.05-1.38,2.04-2.16,2.98-.17.2-.21.51,0,.71.18.17.53.22.71,0h0Z"/>
        <path class="cls-1" d="M29.37,30.48c.23-1.41.31-2.84.21-4.27-.02-.27-.22-.5-.5-.5-.26,0-.52.23-.5.5.09,1.34.04,2.68-.18,4.01-.04.27.07.54.35.62.24.07.57-.08.62-.35h0Z"/>
        <path class="cls-1" d="M15.81,21.61c1.11-1.27,1.47-2.94,1.75-4.56.33-1.89.47-3.81.42-5.73-.01-.64-1.01-.64-1,0,.04,1.76-.07,3.53-.36,5.27-.24,1.48-.51,3.15-1.53,4.31-.42.48.28,1.19.71.71h0Z"/>
        <path class="cls-1" d="M8.16,21.89c1.03-.12,1.69-.81,2.28-1.6.66-.86,1.19-1.81,1.61-2.81.83-1.99,1.15-4.17.92-6.31-.07-.63-1.07-.64-1,0,.2,1.84-.01,3.68-.64,5.42-.31.86-.72,1.68-1.22,2.44-.43.66-1.08,1.76-1.95,1.86-.63.07-.64,1.07,0,1h0Z"/>
        <path class="cls-1" d="M43.77,39.48c-.7-1.64-1.45-3.26-2.24-4.85-.12-.24-.46-.31-.68-.18-.25.14-.3.44-.18.68.79,1.6,1.54,3.22,2.24,4.85.11.25.47.3.68.18.26-.15.29-.43.18-.68h0Z"/>
        <path class="cls-1" d="M41.49,21.6c-.15-.02-.05,0-.01,0s.07.01.1.02c.06.01.12.03.18.05.03.01.07.02.1.04h.03s.04.03-.04,0c.03.03.12.06.16.08.11.06.21.13.31.2-.11-.08-.03-.02,0,0,.02.02.05.04.07.06.05.04.1.09.14.14.04.04.08.09.12.14.03.04-.07-.1,0,0,.02.03.04.06.06.09.07.1.13.21.18.32.02.03.04.12,0,0,0,.03.02.06.03.09.02.06.04.12.05.17s.03.12.04.18c0,.02,0,.04,0,.06,0-.08-.01-.1,0-.06,0,.04,0,.07,0,.11.02.26.22.51.5.5.26-.01.52-.22.5-.5-.05-.67-.33-1.3-.79-1.79-.21-.23-.47-.42-.74-.57-.32-.17-.65-.26-1-.31-.12-.02-.27.07-.35.15-.09.09-.15.23-.15.35s.05.26.15.35c.1.1.21.13.35.15h0Z"/>
        <path class="cls-1" d="M48.49,20.12c-2.24-2.22-2.43-5.55-2.56-8.51-.03-.64-1.03-.64-1,0,.15,3.25.41,6.8,2.86,9.22.46.45,1.17-.25.71-.71h0Z"/>
        <path class="cls-1" d="M29.87,13.88h8.52c.64,0,.64-1,0-1h-8.52c-.64,0-.64,1,0,1h0Z"/>
        <path class="cls-1" d="M44.1,22.46c-.61-1.71-1.28-3.41-1.83-5.15s-.63-3.47-.21-5.22c.15-.63-.81-.89-.96-.27-.43,1.77-.41,3.61.09,5.37.53,1.87,1.28,3.7,1.94,5.53.22.6,1.18.34.96-.27h0Z"/>
      </g>
    </g>
    <path class="cls-1" d="M30.55,14.13c.23.55.3,1.11.1,1.68-.18.51-.51.95-.6,1.49-.07.43.04.84.32,1.18s.67.48.56.96c-.18.79-.81,1.39-.67,2.25.12.74,1.11,1.28.88,2.03-.21.68-.79,1.19-.93,1.9-.07.34-.02.69.15.99.22.38.61.52.87.83.41.5-.51,1.2-.74,1.64-.15.29-.23.63-.16.95.11.5.64.8.45,1.34-.21.61.76.87.96.27.14-.42.13-.86-.08-1.25-.23-.43-.49-.56-.18-1.02.37-.56.95-1.05.88-1.8-.04-.39-.26-.69-.54-.94s-.71-.42-.62-.87c.14-.74.84-1.27.96-2.04.06-.37,0-.74-.18-1.08-.2-.36-.64-.67-.73-1.08-.16-.75.69-1.5.71-2.27.01-.38-.12-.73-.37-1.02-.16-.19-.49-.36-.56-.61-.08-.3.17-.67.28-.92.45-.95.6-1.89.19-2.89-.24-.59-1.21-.33-.96.27h0Z"/>
    <path class="cls-1" d="M33.48,14.19c.23.55.3,1.11.1,1.68-.18.51-.51.95-.6,1.49-.07.43.04.84.32,1.18s.67.48.56.96c-.18.79-.81,1.39-.67,2.25.12.74,1.11,1.28.88,2.03-.21.68-.79,1.19-.93,1.9-.07.34-.02.69.15.99.22.38.61.52.87.83.41.5-.51,1.2-.74,1.64-.15.29-.23.63-.16.95.11.5.64.8.45,1.34-.21.61.76.87.96.27.14-.42.13-.86-.08-1.25-.23-.43-.49-.56-.18-1.02.37-.56.95-1.05.88-1.8-.04-.39-.26-.69-.54-.94s-.71-.42-.62-.87c.14-.74.84-1.27.96-2.04.06-.37,0-.74-.18-1.08-.2-.36-.64-.67-.73-1.08-.16-.75.69-1.5.71-2.27.01-.38-.12-.73-.37-1.02-.16-.19-.49-.36-.56-.61-.08-.3.17-.67.28-.92.45-.95.6-1.89.19-2.89-.24-.59-1.21-.33-.96.27h0Z"/>
    <path class="cls-1" d="M36.59,13.66c.23.55.3,1.11.1,1.68-.18.51-.51.95-.6,1.49-.07.43.04.84.32,1.18s.67.48.56.96c-.18.79-.81,1.39-.67,2.25.12.74,1.11,1.28.88,2.03-.21.68-.79,1.19-.93,1.9-.07.34-.02.69.15.99.22.38.61.52.87.83.41.5-.51,1.2-.74,1.64-.15.29-.23.63-.16.95.11.5.64.8.45,1.34-.21.61.76.87.96.27.14-.42.13-.86-.08-1.25-.23-.43-.49-.56-.18-1.02.37-.56.95-1.05.88-1.8-.04-.39-.26-.69-.54-.94s-.71-.42-.62-.87c.14-.74.84-1.27.96-2.04.06-.37,0-.74-.18-1.08-.2-.36-.64-.67-.73-1.08-.16-.75.69-1.5.71-2.27.01-.38-.12-.73-.37-1.02-.16-.19-.49-.36-.56-.61-.08-.3.17-.67.28-.92.45-.95.6-1.89.19-2.89-.24-.59-1.21-.33-.96.27h0Z"/>
    <path class="cls-1" d="M31.37,44.98l.18.18s.1.08.16.1c.06.03.12.05.19.04.07,0,.13-.01.19-.04.06-.02.12-.05.16-.1l.08-.1c.05-.08.07-.16.07-.25l-.02-.13c-.02-.08-.07-.16-.13-.22l-.18-.18s-.1-.08-.16-.1c-.06-.03-.12-.05-.19-.04-.07,0-.13.01-.19.04-.06.02-.12.05-.16.1l-.08.1c-.05.08-.07.16-.07.25l.02.13c.02.08.07.16.13.22h0Z"/>
    <path class="cls-1" d="M31.6,41.11l-.18.02c-.07.02-.12.05-.17.09-.05.04-.1.08-.13.14-.04.06-.06.12-.06.19-.01.07-.01.13,0,.2l.05.12c.04.08.1.13.18.18l.12.05c.09.02.18.02.27,0l.18-.02c.07-.02.12-.05.17-.09.05-.04.1-.08.13-.14.04-.06.06-.12.06-.19.01-.07.01-.13,0-.2l-.05-.12c-.04-.08-.1-.13-.18-.18l-.12-.05c-.09-.02-.18-.02-.27,0h0Z"/>
    <path class="cls-1" d="M40.71,44.8l.18.18s.1.08.16.1c.06.03.12.05.19.04.07,0,.13-.01.19-.04.06-.02.12-.05.16-.1l.08-.1c.05-.08.07-.16.07-.25l-.02-.13c-.02-.08-.07-.16-.13-.22l-.18-.18s-.1-.08-.16-.1c-.06-.03-.12-.05-.19-.04-.07,0-.13.01-.19.04-.06.02-.12.05-.16.1l-.08.1c-.05.08-.07.16-.07.25l.02.13c.02.08.07.16.13.22h0Z"/>
    <path class="cls-1" d="M41.57,41.76v-.18c0-.07-.01-.13-.04-.19-.02-.06-.05-.12-.1-.16-.05-.05-.1-.08-.16-.1-.06-.03-.12-.05-.19-.04l-.13.02c-.08.02-.16.07-.22.13l-.08.1c-.05.08-.07.16-.07.25v.18c0,.07.01.13.04.19.02.06.05.12.1.16.05.05.1.08.16.1.06.03.12.05.19.04l.13-.02c.08-.02.16-.07.22-.13l.08-.1c.05-.08.07-.16.07-.25h0Z"/>
    <path class="cls-1" d="M45.2,26.09h.18c.07,0,.13-.01.19-.04.06-.02.12-.05.16-.1.05-.05.08-.1.1-.16.03-.06.05-.12.04-.19l-.02-.13c-.02-.08-.07-.16-.13-.22l-.1-.08c-.08-.05-.16-.07-.25-.07h-.18c-.07,0-.13.01-.19.04-.06.02-.12.05-.16.1-.05.05-.08.1-.1.16-.03.06-.05.12-.04.19l.02.13c.02.08.07.16.13.22l.1.08c.08.05.16.07.25.07h0Z"/>
    <path class="cls-1" d="M47.89,25.91c.64,0,.64-1,0-1s-.64,1,0,1h0Z"/>
    <path class="cls-1" d="M45.73,41.39l.18-.18s.08-.1.1-.16c.03-.06.05-.12.04-.19,0-.07-.01-.13-.04-.19-.02-.06-.05-.12-.1-.16l-.1-.08c-.08-.05-.16-.07-.25-.07l-.13.02c-.08.02-.16.07-.22.13l-.18.18s-.08.1-.1.16c-.03.06-.05.12-.04.19,0,.07.01.13.04.19.02.06.05.12.1.16l.1.08c.08.05.16.07.25.07l.13-.02c.08-.02.16-.07.22-.13h0Z"/>
    <path class="cls-1" d="M47.39,40.86v.11c0,.64,1,.64,1,0v-.11c0-.64-1-.64-1,0v.11c0,.64,1,.64,1,0v-.11c0-.64-1-.64-1,0h0Z"/>
    <path class="cls-1" d="M45.74,44.77c.64,0,.64-1,0-1s-.64,1,0,1h0Z"/>
    <path class="cls-1" d="M48.39,44.27v-.18c0-.07-.01-.13-.04-.19-.02-.06-.05-.12-.1-.16-.05-.05-.1-.08-.16-.1-.06-.03-.12-.05-.19-.04l-.13.02c-.08.02-.16.07-.22.13l-.08.1c-.05.08-.07.16-.07.25v.18c0,.07.01.13.04.19.02.06.05.12.1.16.05.05.1.08.16.1.06.03.12.05.19.04l.13-.02c.08-.02.16-.07.22-.13l.08-.1c.05-.08.07-.16.07-.25h0Z"/>
  </g>
</svg>