<?xml version="1.0" encoding="UTF-8"?>
<svg id="Capa_2" data-name="Capa 2" xmlns="http://www.w3.org/2000/svg" xmlns:xlink="http://www.w3.org/1999/xlink" viewBox="0 0 74.56 113.98">
  <defs>
    <style>
      .cls-1 {
        fill: #384472;
      }

      .cls-1, .cls-2 {
        stroke-width: 0px;
      }

      .cls-3 {
        stroke: #384472;
        stroke-miterlimit: 10;
        stroke-width: 3px;
      }

      .cls-3, .cls-2 {
        fill: none;
      }

      .cls-4 {
        clip-path: url(#clippath-1);
      }

      .cls-5 {
        clip-path: url(#clippath);
      }
    </style>
    <clipPath id="clippath">
      <polygon class="cls-2" points="14.5 97.59 14.5 97.59 23.54 97.59 23.54 106.64 14.5 106.64 14.5 97.59"/>
    </clipPath>
    <clipPath id="clippath-1">
      <polygon class="cls-2" points="59.72 97.59 59.72 97.59 50.68 97.59 50.68 106.64 59.72 106.64 59.72 97.59"/>
    </clipPath>
  </defs>
  <g id="Simbolos">
    <circle class="cls-3" cx="37.28" cy="66.34" r="35.78"/>
    <path class="cls-1" d="M18.47,82.53c0-.08,0-.16,0-.25.03-.06.08-.11.1-.17.42-1.52.8-3.05,1.25-4.56.58-1.96,1.7-3.53,3.51-4.54.54-.3.99-.63,1.37-1.12.23-.3.26-.54.11-.89-.32-.77-.53-1.57-.29-2.42.04-.15.03-.32.03-.49.01-.9.46-1.44,1.36-1.61.41-.08.83-.12,1.24-.18.03,0,.05,0,.08,0,.02.02.04.05.06.05.48.11,1.01.18.96.88,0,.07.11.15.16.23.31.54.68,1.04.53,1.74-.05.23.07.5.1.75.03.21.05.42.06.63,0,.29-.05.59,0,.87.13.66.07.81-.59,1.01-.08.02-.16.04-.23.07-.33.12-.44.36-.26.66.07.12.2.22.32.3.51.36,1.05.69,1.54,1.08.46.36.73.85.68,1.46-.06.88-.13,1.76-.22,2.64-.12,1.15-.22,2.31.03,3.46.4,1.84.62,3.7.7,5.58.04.97.16,1.97.43,2.9.44,1.51.13,2.06-.96,2.6-.26.13-.35.32-.35.63.05,2.96.08,5.92.12,8.88.03,2.48.06,4.96.1,7.45,0,.17.11.34.19.5.23.48.66.61,1.14.73.26.07.54.36.67.62.15.31-.07.6-.34.8-.12.09-.25.19-.39.23-1.18.33-2.34.73-3.59.66-.78-.04-.97-.3-.64-1,.47-1,.1-1.99.05-2.98,0-.01-.02-.02-.02-.03-.03-.19-.11-.38-.09-.56.08-.68.21-1.37-.16-2-.58-.96-.52-2-.54-3.05-.01-.73-.11-1.45-.16-2.17-.01-.17.04-.35.04-.52,0-.51.11-1.06-.06-1.5-.15-.39-.14-.68-.04-1.04.04-.14.03-.3,0-.44-.17-.81-.36-1.62-.54-2.43-.2-.87-.4-1.74-.6-2.61-.11.08-.15.16-.16.25-.18.98-.35,1.96-.53,2.93-.72,3.91-1.45,7.82-2.17,11.73-.03.15-.09.32-.04.44.24.53.05.98-.22,1.43-.08.14-.14.33-.14.49.02.5.08,1,.11,1.5,0,.09-.09.19-.14.28-.14.26-.27.52-.42.77-.15.26-.31.52-.46.77h-.41c-.24-.03-.48-.07-.71-.09-.38-.03-.57-.23-.57-.61,0-.16.02-.33.03-.49.06-.74.39-1.45.22-2.21-.03-.14.03-.33.1-.47.18-.38.14-.75.04-1.15-.09-.35-.16-.72-.13-1.08.14-1.71.29-3.41.48-5.11.1-.9.19-1.81.44-2.68.24-.86.75-1.64.54-2.6-.02-.1.06-.23.09-.35.04-.14.13-.28.13-.43.02-1.14.04-2.29.02-3.43,0-.44-.17-.9-.12-1.33.07-.64.29-1.27.05-1.93-.04-.11-.02-.24,0-.36.08-.5.17-.99.23-1.49.01-.11-.04-.27-.11-.34-.58-.48-.98-1.09-1.31-1.76-.57-1.18-1.15-2.37-1.72-3.55Z"/>
    <path class="cls-1" d="M37.09,61.12c-.03-.14-.07-.28-.08-.42-.05-.63-.11-1.27-.15-1.9-.04-.76-.05-1.52-.07-2.29,0-.38-.01-.75-.02-1.13-.01-.6-.03-1.2-.03-1.8,0-.38,0-.77,0-1.15,0-.6,0-1.2,0-1.8,0-.38.01-.75.02-1.13,0-.58,0-1.17,0-1.75,0-.57.01-1.14.02-1.7,0-.4,0-.8,0-1.2,0-.39.01-.78.02-1.17,0-.57,0-1.13.02-1.7,0-.54.01-1.07.02-1.61,0-.55.01-1.1.02-1.66,0-.58.02-1.17.02-1.75,0-.57,0-1.14,0-1.7,0-.4.01-.8.02-1.2,0-.58,0-1.15,0-1.73,0-.54.02-1.09.03-1.63,0-.55,0-1.1,0-1.66,0-.56.02-1.12.02-1.68,0-.36,0-.72,0-1.08,0-.45,0-.9,0-1.34,0-.74,0-1.47,0-2.21,0-.7.02-1.41.03-2.11,0-.73,0-1.46,0-2.18,0-.57.02-1.14.02-1.7,0-.56,0-1.12,0-1.68,0-.38.02-.77.02-1.15,0-.58,0-1.17-.01-1.75,0-.39,0-.78,0-1.18,0-.45-.01-.9-.02-1.35,0-.39-.01-.78-.03-1.18-.01-.42-.04-.85-.06-1.28-.02-.43-.05-.85-.06-1.28-.02-.63-.05-1.25-.05-1.88,0-.72.02-1.44.03-2.16,0-.21.02-.41.03-.62.02-.34.09-.67.21-.99.09-.26.42-.34.64-.13.18.18.28.37.34.6.14.53.14,1.05.17,1.58.02.4.03.8.03,1.2,0,.72,0,1.44,0,2.16,0,.75-.02,1.5-.04,2.25-.03.69-.08,1.38-.11,2.08-.02.53-.02,1.07-.02,1.61,0,.54,0,1.09,0,1.63,0,.59,0,1.18-.01,1.78,0,.66-.02,1.33-.03,1.99,0,.46,0,.91,0,1.37,0,.7-.02,1.39-.02,2.09,0,.75,0,1.5-.01,2.26,0,.86-.01,1.71-.02,2.57,0,.6,0,1.2,0,1.8,0,.54-.02,1.09-.03,1.63,0,.55-.01,1.1-.02,1.66,0,.39-.01.78-.02,1.17,0,.58,0,1.17,0,1.75,0,.54-.01,1.07-.01,1.61,0,.58,0,1.17,0,1.75,0,.38,0,.77,0,1.15,0,.39,0,.78-.01,1.18,0,.56,0,1.12-.01,1.68,0,.58-.01,1.17-.02,1.75,0,.54-.02,1.07-.03,1.61,0,.58-.01,1.15-.02,1.73,0,.37-.01.73-.02,1.1-.01.75-.02,1.5-.03,2.26,0,.55-.02,1.1-.03,1.65,0,.57-.01,1.14-.03,1.7-.02.67-.04,1.34-.07,2.01-.02.52-.03,1.04-.05,1.56-.03.69-.05,1.37-.09,2.06-.04.67-.09,1.33-.15,2-.03.35-.09.7-.23,1.03ZM37.76,8.11s.03-.1.03-.15c0-.37,0-.74,0-1.1,0-.74.02-1.49.02-2.23,0-.82-.02-1.63-.04-2.45,0-.14-.02-.29-.02-.43,0-.13-.07-.19-.18-.23-.34-.13-.47-.03-.46.32.01.32.02.64.02.96,0,.9-.04,1.79.02,2.69.04.56.03,1.12.05,1.68,0,.26.03.51.06.77.02.16.07.19.23.18.08,0,.15,0,.27,0Z"/>
    <g>
      <g id="_Repetici贸n_de_espejo_" data-name="&amp;lt;Repetici贸n de espejo&amp;gt;">
        <g class="cls-5">
          <polygon class="cls-1" points="23.54 99.78 17.66 106.64 14.5 105.39 17.66 97.59 23.54 99.78"/>
        </g>
      </g>
      <g id="_Repetici贸n_de_espejo_-2" data-name="&amp;lt;Repetici贸n de espejo&amp;gt;">
        <g class="cls-4">
          <polygon class="cls-1" points="50.68 99.78 56.56 106.64 59.72 105.39 56.56 97.59 50.68 99.78"/>
        </g>
      </g>
    </g>
  </g>
</svg>