<?xml version="1.0" encoding="UTF-8"?>
<svg id="Capa_2" data-name="Capa 2" xmlns="http://www.w3.org/2000/svg" viewBox="0 0 74.56 111.56">
  <defs>
    <style>
      .cls-1 {
        fill: #384472;
        stroke-width: 0px;
      }

      .cls-2 {
        fill: none;
        stroke: #384472;
        stroke-miterlimit: 10;
        stroke-width: 3px;
      }
    </style>
  </defs>
  <g id="Simbolos">
    <circle class="cls-2" cx="37.28" cy="52.56" r="35.78"/>
    <path class="cls-1" d="M27.17,111.56c-.06-.25-.14-.5-.17-.75-.12-1.15-.25-2.29-.33-3.44-.09-1.38-.13-2.77-.19-4.16-.03-.69-.04-1.37-.07-2.06-.04-1.09-.08-2.19-.11-3.28-.02-.7-.01-1.4-.02-2.1-.01-1.09-.03-2.19-.04-3.28,0-.69,0-1.37,0-2.06-.01-1.07-.04-2.13-.05-3.2-.01-1.04,0-2.07-.02-3.11,0-.73-.03-1.46-.04-2.19,0-.71,0-1.43,0-2.14,0-1.04-.01-2.07-.02-3.11,0-.98-.01-1.96-.02-2.93,0-1.01,0-2.02-.01-3.02,0-1.07,0-2.13-.01-3.2,0-1.04-.03-2.07-.04-3.11,0-.73,0-1.46,0-2.19,0-1.05-.03-2.1-.04-3.15,0-.99,0-1.98,0-2.98,0-1.01-.02-2.01-.03-3.02,0-1.02,0-2.05,0-3.07,0-.66-.01-1.32-.02-1.97,0-.82-.01-1.64-.02-2.45-.02-1.34-.08-1.27-.09-2.61,0-1.28.04-3.98.03-5.27,0-1.33-.03-2.66-.04-3.99,0-1.04,0-2.07-.01-3.11-.01-1.02-.04-2.04-.05-3.06,0-.7.01-1.4,0-2.1-.02-1.06-.05-2.13-.08-3.19-.02-.72-.03-1.43-.05-2.15-.02-.82-.05-1.63-.08-2.45-.03-.71-.05-1.43-.08-2.14-.04-.77-.09-1.54-.14-2.32-.05-.77-.11-1.54-.15-2.32-.06-1.14-.13-2.27-.16-3.41-.03-1.31,0-2.63,0-3.94,0-.38.02-.76.04-1.14.03-.63.16-1.24.36-1.84.16-.48.78-.69,1.2-.35.35.29.53.63.65,1.04.28.93.3,1.9.36,2.86.04.73.08,1.46.09,2.19.03,1.31.05,2.63.05,3.94,0,1.37.01,2.75-.02,4.12-.03,1.27-.12,2.54-.15,3.81-.02.98,0,1.96,0,2.93.01.99.04,1.99.06,2.98.01,1.08.02,2.16.03,3.24,0,1.21,0,2.42,0,3.64,0,.83.02,1.66.02,2.5,0,1.27,0,2.54.02,3.81.01,1.37.03,2.75.04,4.12.01,1.56.02,3.13.04,4.69.01,1.09.04,2.19.04,3.28,0,.99-.05,3.4-.05,4.39,0,1.01.04.6.05,1.61,0,.72,0,1.43,0,2.15,0,1.07.02,2.13.03,3.2,0,.98,0,1.96.02,2.94.01,1.07.03,2.13.05,3.2,0,.7.01,1.4.02,2.1,0,.72,0,1.43.01,2.15,0,1.02.02,2.04.02,3.07,0,1.07.01,2.13.02,3.2,0,.98,0,1.96,0,2.94,0,1.05.01,2.1.01,3.15,0,.67,0,1.34,0,2.01,0,1.37.01,2.75.01,4.12,0,1.01-.01,2.02-.01,3.02,0,1.04.01,2.07,0,3.11-.01,1.23-.05,2.45-.07,3.68-.02.95-.02,1.9-.05,2.85-.03,1.26-.05,2.51-.11,3.77-.05,1.22-.13,2.45-.23,3.67-.05.65-.14,1.29-.4,1.92ZM26.92,14.73c.02-.09.05-.19.05-.28,0-.67-.02-1.34-.02-2.02,0-1.36,0-2.72-.03-4.07-.03-1.49-.09-2.98-.14-4.46,0-.26-.04-.53-.05-.79,0-.23-.13-.33-.34-.38-.63-.18-.89.02-.86.66.03.58.05,1.16.06,1.74.01,1.63-.03,3.27.12,4.9.09,1.02.09,2.04.14,3.06.02.47.06.93.14,1.39.04.29.15.33.43.29.14-.02.29-.03.51-.05Z"/>
    <path class="cls-1" d="M71.89,64.35c-6.82,14.65-19.47,24.49-33.95,24.49s-27.12-9.84-33.95-24.49"/>
    <path class="cls-1" d="M40.22,46.75c-.51-.56-.91-1.22-1.35-1.84-.42-.6-.76-1.24-1.22-1.81-.91-1.14-1.87-2.23-2.8-3.36-.1-.12-.15-.32-.17-.48-.03-.33.03-.68-.06-1-.2-.77-.23-1.54-.22-2.33,0-.55.12-.95.66-1.16.14-.05.28-.15.39-.26.08-.07.16-.2.16-.3-.04-1.03-.07-2.06-.17-3.08-.06-.65-.22-1.3-.34-1.95-.03-.16-.08-.33-.17-.47-.24-.38-.51-.74-.74-1.12-.16-.26-.35-.36-.65-.37-.32,0-.64-.08-.96-.16-.48-.11-.95-.25-1.42-.39-.09-.03-.19-.08-.26-.14-.33-.3-.3-1.14,0-1.55.18-.24.27-.55.39-.83.08-.19.11-.41.18-.6.21-.61.4-1.22.03-1.84-.1-.18-.12-.4-.2-.59-.11-.26-.17-.63-.37-.76-.58-.36-1.22-.61-1.88-.13-.08.06-.19.08-.28.1-.52.11-.81.44-.9.96-.02.12-.06.24-.13.34-.44.68-.54,1.37-.23,2.14.12.31.25.73.14,1-.25.65-.55,1.31-1.22,1.67-.77.41-1.54.83-2.31,1.23-.17.09-.23.19-.23.39,0,.63-.02,1.27-.02,1.9,0,.17,0,.34.02.5.2,1.6.74,3.09,1.53,4.48.28.49.44.99.39,1.57-.03.34.02.69.06,1.03.08.64.19,1.29.28,1.93.08.58.1,1.17.25,1.72.19.68.14,1.35.08,2.03-.03.33-.04.71.08,1.01.55,1.37.78,2.8.89,4.26.08.96.16,1.92.62,2.8.08.15.11.34.12.52.04.66.16,1.33-.05,1.99-.05.15-.04.33-.03.5.02.61.03,1.23.08,1.84.04.52.07,1.05.19,1.56.45,1.92.94,3.83,1.42,5.74.09.36.19.72.33,1.06.16.4.47.64.93.66.29.01.58.05.87.07.65.06,1.31.13,2.01.19-.04-.19-.06-.29-.09-.4-.35-1.3-.7-2.6-1.04-3.9-.26-1.02-.57-2.03-.72-3.07-.11-.79-.08-1.6-.28-2.39-.05-.21-.04-.46.04-.66.14-.38.09-.72-.02-1.08-.03-.1-.04-.29.01-.34.42-.36.81-.82,1.3-1.03,1.63-.71,3.28-1.4,4.8-2.34.52-.32,1.03-.75,1.6-.91.97-.26,1.31-1.89.67-2.59ZM34.92,48.03c-.99.46-1.99.91-3.11,1.43-.04-.37-.08-.66-.08-.95,0-.69.04-1.38.05-2.07,0-.26-.02-.52.02-.77.02-.14.1-.37.19-.38.19-.03.46-.02.59.09.81.72,1.59,1.48,2.37,2.23.15.14.21.32-.03.43Z"/>
    <path class="cls-1" d="M32.61,67.52c2.55,0,2.56-3.97,0-3.97s-2.56,3.97,0,3.97h0Z"/>
    <path class="cls-1" d="M31.58,67.26c2.55,0,2.56-3.97,0-3.97s-2.56,3.97,0,3.97h0Z"/>
    <g>
      <path class="cls-1" d="M26.68,96.54c-.7-.42-1.09-1.19-1.43-1.93-.98-2.13-1.85-4.33-3.08-6.33s-2.86-3.83-4.97-4.85l17.49,5.73c-2.04,0-3.95,2.62-4.91,4.41-.36.66-.67,1.36-1.2,1.9s-1.31.89-2.03.67"/>
      <path class="cls-1" d="M26.78,96.06c-1.16-.76-1.62-2.45-2.16-3.66-.6-1.35-1.21-2.7-1.95-3.97-1.3-2.25-3.02-4.31-5.38-5.48l-.19.96c5.1,1.67,10.2,3.34,15.3,5.01l2.2.72.12-.98c-1.76.06-3.1,1.56-4.06,2.88-.55.76-.98,1.57-1.43,2.39-.54.99-1.38,2.01-2.64,1.7-.33-.08-.43.9-.05,1,2.12.52,3.02-2.1,3.88-3.48.91-1.47,2.35-3.43,4.26-3.5.34-.01.43-.88.12-.98-5.1-1.67-10.2-3.34-15.3-5.01-.73-.24-1.47-.48-2.2-.72-.41-.13-.5.8-.19.96,2.54,1.26,4.29,3.55,5.59,6,.69,1.31,1.28,2.66,1.88,4.01.5,1.12.95,2.4,2.01,3.1.32.21.5-.76.19-.96h0Z"/>
    </g>
  </g>
  <g id="Capa_12" data-name="Capa 12">
    <path class="cls-1" d="M26.94,54.44l.03.06v.03s.02.01.02.02c0,0,0,0,0,0,.02.04.04.09.05.13.02.04.03.09.05.13.09.16.22.28.38.38.12.08.25.12.39.12.14.03.28.02.42-.02.18-.05.33-.14.46-.27.06-.07.13-.15.17-.22,0,0,.1-.23.1-.23,0,0,0,0,0,0,0,0,0,0,0,0h0c.05-.2.05-.38,0-.57-.05-.18-.14-.33-.27-.46-.13-.13-.28-.22-.46-.27-.19-.05-.37-.05-.56,0-.02,0-.05.01-.07.02l-.07.02c-.12.03-.22.08-.31.17-.1.07-.18.15-.24.26l-.09.22c-.04.16-.04.33,0,.49h0Z"/>
    <path class="cls-1" d="M28.21,54.17c.12,0,.24-.02.34-.08.11-.04.21-.1.29-.18.09-.08.15-.18.18-.29.06-.11.08-.22.08-.34l-.03-.24c-.04-.15-.12-.28-.23-.39l-.18-.14c-.14-.08-.29-.12-.45-.12-.12,0-.24.02-.34.08-.11.04-.21.1-.29.18-.09.08-.15.18-.18.29-.06.11-.08.22-.08.34l.03.24c.04.15.12.28.23.39l.18.14c.14.08.29.12.45.12h0Z"/>
    <path class="cls-1" d="M27.44,52.94l.02.08v.04s.01.01.02.02c0,0,0,0,0,0,0,.03.02.06.04.09,0,.03.02.06.04.09.05.08.11.15.18.2.07.06.15.11.24.13l.19.03c.1,0,.19-.02.28-.06.06-.02.11-.05.16-.09.08-.05.14-.12.18-.2l.07-.17c.03-.13.03-.25,0-.38h0c-.02-.06-.05-.12-.07-.18,0,0,0,0,0,0v-.02s-.03-.02-.04-.03l-.05-.07c-.04-.08-.1-.14-.18-.19-.07-.06-.14-.1-.23-.12l-.18-.02c-.09,0-.18.02-.26.06-.06.02-.11.05-.15.09-.07.05-.13.11-.18.19l-.07.16c-.03.12-.03.24,0,.37h0Z"/>
    <path class="cls-1" d="M27.66,55.36v.04c-.02.08-.03.16-.05.24,0,.13.02.24.08.35.02.08.06.15.12.2.06.1.15.18.26.24.07.03.15.06.22.09l.24.03c.11,0,.17-.01.25-.03,0,0,0,0,.01,0h.03c.14-.05.26-.12.37-.22.1-.1.17-.23.21-.37v-.03s0,0,.01-.01c.01-.04,0-.07.02-.13.03-.12.02-.24-.02-.37-.03-.08-.06-.15-.09-.22l-.14-.19c-.08-.09-.18-.15-.3-.19-.07-.04-.15-.06-.23-.06-.12-.03-.24-.02-.37.02h-.02s0,.01-.01.01h0c-.07.03-.13.06-.2.09l-.17.13c-.11.11-.18.23-.22.37h0Z"/>
    <path class="cls-1" d="M28.02,56.86h.02c.06.02.11.03.18.03,0,0,.16-.02.17-.02,0,0,0,0,0,0h0s.01,0,.02,0c.03,0,.06-.02.09-.04.09-.03.18-.08.25-.16.07-.07.13-.15.16-.25.05-.09.07-.19.07-.29l-.03-.2c-.02-.1-.07-.19-.14-.26-.05-.08-.13-.15-.21-.2l-.18-.08c-.14-.04-.27-.04-.41,0l-.18.08c-.09.05-.16.11-.21.2-.07.07-.11.16-.14.26l-.03.2c0,.14.04.27.1.39l.12.15c.1.09.21.16.34.2h0Z"/>
    <path class="cls-1" d="M27.71,54.37c.08,0,.08-.12,0-.12s-.08.12,0,.12h0Z"/>
    <path class="cls-1" d="M28.32,50.13l-.05-.09c-.16-.29-.49-.47-.83-.47s-.66.18-.83.47l-.05.09c-.09.16-.14.33-.14.51,0,.18.05.35.14.51.18.31.52.5.87.5s.69-.19.87-.5c.09-.16.14-.33.14-.51,0-.18-.05-.35-.14-.51h0Z"/>
    <path class="cls-1" d="M27.51,52.9c.12,0,.22-.02.33-.07.1-.03.2-.09.27-.17.08-.08.14-.17.17-.27.05-.1.08-.21.07-.33l-.03-.22c-.04-.14-.11-.27-.22-.37l-.17-.13c-.13-.08-.27-.11-.43-.12-.12,0-.22.02-.33.07-.1.03-.2.09-.27.17-.08.08-.14.17-.17.27-.05.1-.08.21-.07.33l.03.22c.04.14.11.27.22.37l.17.13c.13.08.27.11.43.12h0Z"/>
    <path class="cls-1" d="M28.16,56.74c.18,0,.35-.03.5-.11.16-.05.3-.14.42-.27.13-.12.22-.26.27-.42.08-.15.12-.32.11-.5l-.05-.34c-.06-.22-.17-.41-.33-.57l-.26-.2c-.2-.12-.42-.18-.65-.18-.18,0-.35.03-.5.11-.16.05-.3.14-.42.27-.13.12-.22.26-.27.42-.08.15-.12.32-.11.5l.05.34c.06.22.17.41.33.57l.26.2c.2.12.42.18.65.18h0Z"/>
  </g>
</svg>