<?xml version="1.0" encoding="UTF-8"?>
<svg id="Capa_2" data-name="Capa 2" xmlns="http://www.w3.org/2000/svg" viewBox="0 0 59.6 72.8">
  <defs>
    <style>
      .cls-1 {
        fill: #384472;
        stroke-width: 0px;
      }

      .cls-2 {
        stroke-width: 2px;
      }

      .cls-2, .cls-3 {
        fill: none;
        stroke: #384472;
        stroke-miterlimit: 10;
      }

      .cls-3 {
        stroke-width: .6px;
      }
    </style>
  </defs>
  <g id="Simbolos">
    <circle class="cls-2" cx="28.55" cy="32.22" r="19.55"/>
    <g>
      <path class="cls-1" d="M15.91,17.61c-.83-1.03-1.7-2.11-2.02-2.49-.53-.64-1.07-1.28-1.6-1.92-.52-.64-1.05-1.27-1.55-1.92-.65-.85-1.26-1.73-1.91-2.58-.7-.92-1.43-1.82-2.15-2.71-.69-.86-1.4-1.71-2.11-2.56-.39-.47-.8-.93-1.21-1.39-.54-.6-1.06-1.22-1.74-1.69C1.32.13,1.03,0,.64,0,.19,0-.11.46.04.86c.19.5.42.97.73,1.4.19.26.38.52.57.77.69.87,1.37,1.74,2.07,2.59.61.73,1.26,1.44,1.9,2.16.43.49.88.96,1.32,1.44.44.48.88.96,1.31,1.45.4.45.79.91,1.18,1.36.45.52.9,1.04,1.34,1.56.39.46.77.92,1.16,1.38.58.69,1.16,1.37,1.73,2.06.18.22.7.85,1.25,1.52.36-.39.81-.71,1.3-.93ZM8.21,9.69c-.17.17-.26.2-.44.04-.29-.26-.56-.55-.82-.84-.57-.64-1.11-1.32-1.7-1.94-.95-1-1.79-2.09-2.65-3.16-.31-.38-.63-.75-.96-1.11-.36-.4-.3-.67.21-.89.17-.07.3-.08.42.07.14.17.3.33.44.49.82.95,1.64,1.89,2.44,2.85.73.88,1.44,1.77,2.16,2.66.36.44.72.87,1.07,1.31.05.06.08.14.12.21-.13.13-.22.21-.31.3Z"/>
      <path class="cls-1" d="M58.85,71.33c-.58-.85-1.17-1.7-1.78-2.53-.62-.85-1.27-1.69-1.91-2.53-.49-.63-.98-1.26-1.47-1.89-.63-.82-1.25-1.64-1.89-2.45-.54-.69-1.09-1.36-1.64-2.04-.53-.66-1.05-1.33-1.58-1.99-.72-.9-1.45-1.8-2.17-2.7-.35-.44-.7-.88-1.06-1.32-.55-.69-1.11-1.37-1.67-2.06-.52-.64-1.03-1.29-1.54-1.93-.56-.7-1.13-1.39-1.69-2.09-.15-.18-.3-.37-.45-.55-.32.42-.73.77-1.2,1.05.72.89,1.47,1.82,1.76,2.17.55.68,1.1,1.35,1.65,2.03.38.47.75.94,1.13,1.41.39.48.79.94,1.18,1.42.55.68,1.09,1.36,1.65,2.03.57.69,1.15,1.38,1.72,2.07.37.45.72.9,1.08,1.35.58.71,1.17,1.42,1.76,2.13.37.46.74.92,1.12,1.37.59.7,1.2,1.4,1.8,2.1.38.44.75.88,1.13,1.32.77.88,1.52,1.77,2.31,2.63.65.71,1.34,1.4,2.02,2.09.15.15.34.27.51.4-.16-.55-.44-1.02-.75-1.47Z"/>
    </g>
    <line class="cls-3" x1="1.72" y1="1.36" x2="2.72" y2="41.68"/>
    <g>
      <path class="cls-1" d="M41.43,36.77c-.12,0-.24.03-.36.06-.15.04-.3.1-.44.15-.25.09-.46-.02-.64-.17-.07-.06-.1-.15-.14-.23-.03-.05-.06-.11-.08-.16-.02-.05-.05-.11-.03-.14.07-.15-.02-.23-.11-.31-.03-.02-.06-.05-.07-.08-.1-.27-.19-.53-.28-.8-.07-.2-.11-.42-.21-.6-.11-.2-.13-.41-.19-.62-.02-.08,0-.17-.1-.21-.03-.01-.04-.1-.03-.14.03-.1.02-.18-.06-.25-.03-.02-.06-.06-.05-.09,0-.19-.05-.35-.12-.52-.04-.11-.03-.24-.06-.35-.05-.23-.15-.46-.14-.68.01-.18-.06-.29-.11-.43-.13-.34-.31-.68-.22-1.07.02-.07,0-.14,0-.21,0-.13-.06-.2-.17-.24-.12-.05-.31,0-.27-.27.03-.18-.15-.38,0-.58.01-.02,0-.06,0-.09-.03-.27-.17-.53-.11-.82.03-.17.06-.35.08-.53.03-.29.06-.59.09-.88.02-.16.04-.31.06-.47.05-.28.18-.54.1-.84,0-.02.01-.05.02-.07.09-.46.04-.87-.35-1.2-.08-.06-.1-.2-.12-.31,0-.02.13-.08.21-.09.3-.07.32-.07.35-.33,0,0,0-.02,0-.03,0,0,0,0,0,0,0,0,0,0,0,0,0,0,0-.02,0-.03,0-.01,0-.03,0-.04,0-.02,0-.04.02-.06,0,0,0,0,0,0,0-.02,0-.04,0-.06,0-.02,0-.04.01-.06,0-.01.02-.03.04-.04,0,0,.02,0,.02-.01,0-.02.02-.04.03-.05.13-.15.14-.17.02-.32-.03-.04-.06-.09-.06-.13,0,0,0,0,0,0,0,0,0,0,0,0-.03-.04-.02-.09-.02-.13,0-.02,0-.03.01-.05,0,0,0,0,0,0,0-.12,0-.24-.03-.35-.05-.19-.11-.4-.24-.55-.09-.1-.29-.1-.45-.14-.06-.01-.12-.02-.18-.02-.16-.01-.32-.02-.48-.03,0,0-.02,0-.03.01-.07.08-.16.15-.21.24-.26.43-.39.89-.18,1.39.05.11.02.25.03.38-.12,0-.24.02-.35.01-.09,0-.13,0-.15.1-.01.05-.07.1-.11.15-.08.13-.16.26-.24.4-.02.03-.01.08-.03.11-.19.18-.39.35-.59.52-.2.18-.32.39-.33.66,0,.18-.02.37-.07.54-.08.25-.13.49-.09.75.01.08-.05.17-.07.26-.03.1-.09.22-.07.31.02.1.04.17-.02.26-.12.18-.03.32.1.46.03.04.09.05.12.09.05.06.1.13.11.2.05.22.07.44.12.66.01.06.08.14.14.16.17.07.18.06.1.23-.12.29-.29.57-.31.89,0,.04,0,.08,0,.12,0,.27.02.55.03.82,0,.01,0,.03-.01.04-.13.37-.15.76-.15,1.14,0,.26-.11.46-.16.69-.05.22-.17.42-.26.63-.1.24-.22.48-.3.73-.11.34-.2.69-.29,1.04-.03.13-.04.27-.02.41,0,.08,0,.13-.06.18-.12.12-.18.48-.09.58.06.07.08.12.05.2-.02.05,0,.12,0,.18,0,.03,0,.09-.02.1-.15.05-.12.15-.09.26,0,.02,0,.05-.01.07-.07.23-.15.46-.23.69-.03.1-.07.2-.08.31,0,.04.03.12.06.12.32.08.62.27.97.15.02,0,.05,0,.08,0,.3,0,.6.01.9.02.1,0,.19,0,.2-.14.01-.2-.03-.33-.15-.34-.27-.03-.46-.18-.65-.36-.08-.08-.09-.35-.01-.39.13-.06.12-.15.07-.24-.09-.15-.14-.29-.08-.46.03-.09.02-.19.04-.28.07-.35.13-.7.21-1.04.05-.22.08-.45.28-.63.14-.12.21-.31.3-.48.04-.07.03-.17.06-.25.15-.33.3-.66.45-.99.13-.26.25-.53.4-.78.1-.17.23-.32.26-.52,0-.01.02-.02.06-.04.04.08.09.15.12.22.04.09.07.18.11.27.29.53.64,1.02.87,1.58.11.27.26.52.37.79.16.38.3.77.46,1.16.11.25.24.49.38.72.08.13.12.23.11.39-.01.14.05.28.09.42.02.07.06.14.09.21,0,0-.02,0-.02,0,.04.05.11.09.12.15.06.21.14.43.16.65.04.3.17.42.47.33.17-.05.34-.13.51-.2.27-.1.55-.21.82-.31.34-.13.61-.33.75-.68.05-.13-.06-.33-.18-.33Z"/>
      <path class="cls-1" d="M37.34,23.89c-.45,0-.91,0-1.36,0-.08,0-.11,0-.11-.1,0-.22,0-.43,0-.65.01-.01.02-.02.04-.03q.22-.07.19-.3s0-.03-.01-.04c-.04-.13-.09-.25-.12-.38,0-.02,0-.03,0-.05-.01-.14,0-.27.04-.4.04-.26.14-.5.29-.71.04-.06.1-.11.14-.16.03-.03.06-.07.1-.06.17.03.34-.06.5.03.09.05.18,0,.27.03.11.04.22.08.33.11.02,0,.04.02.06.04.04.12.08.25.16.35.08.12.08.26.1.39,0,.02.01.03.01.05.03.09.04.17.02.26-.03.09-.01.17.06.24.08.12.12.23-.03.33-.05.03-.05.09-.06.14-.05.1-.04.2-.06.31-.02.14-.07.26-.23.28-.01,0-.03,0-.05.01-.09.02-.18.02-.26.05-.06.03-.04.09-.03.14,0,.05.04.1.01.15Z"/>
    </g>
    <path class="cls-1" d="M10.49,38.54v.07c0,.32.5.32.5,0v-.07c0-.32-.5-.32-.5,0v.07c0,.32.5.32.5,0v-.07c0-.32-.5-.32-.5,0h0Z"/>
    <path class="cls-1" d="M9.81,37.88c.34-.17.66-.07,1,.12.46.25.87.59,1.31.85,1.38.83,2.91.95,4.45.48,1.23-.38,2.32-1.08,3.55-1.45.89-.27,1.83-.41,2.76-.28.67.1,1.3.33,1.93.58.5.2,1.05.44,1.6.47.49.03.99,0,1.48,0h3.47c3.04,0,6.09,0,9.13,0,1.89,0,3.79.04,5.68,0,.03,0,.06,0,.09,0,.32,0,.32-.5,0-.5-1.6,0-3.19,0-4.79,0h-9.18c-1.93,0-3.86.02-5.78,0-.29,0-.61-.11-.92-.22-.61-.21-1.2-.48-1.82-.66-1.99-.56-3.97.04-5.77.92-1.63.8-3.45,1.32-5.17.47-.51-.25-.96-.58-1.43-.89-.36-.24-.77-.49-1.21-.49-.22,0-.43.06-.63.16-.29.15-.03.58.25.43h0Z"/>
    <path class="cls-1" d="M2.17,39.28c-.06.26.05.53.28.67.11.07.25.03.32-.06s.07-.24-.02-.33c-.1-.1-.22-.18-.35-.23s-.32-.1-.45-.02c-.21.13-.24.39-.12.6.1.17.29.31.5.29.28-.02.45-.27.46-.54s-.14-.52-.35-.67c-.12-.08-.27-.02-.34.09-.22.33.05.73.38.84.18.06.38,0,.55-.07.16-.07.29-.19.42-.3s.08-.32-.05-.39c-.25-.15-.63-.05-.76.23-.05.12-.04.27.09.34.11.06.29.04.34-.09,0-.01.03-.04.03-.05-.02.03-.03.04-.02.02,0,0,0-.01.02-.02.03-.03-.05.03,0,0s-.05,0,0,0c.01,0,.03,0,.04-.01-.04,0-.05,0-.02,0,0,0,.02,0,.03,0,.05,0-.06-.01,0,0,.03,0,.02,0-.02-.01,0,0,.02,0,.03.01l-.05-.39s-.05.04-.07.06c0,0-.02.02-.03.02-.04.03.02-.02,0,0-.05.03-.09.07-.14.1-.01,0-.03.02-.04.02,0,0-.06.02-.02.01.03-.01,0,0-.01,0-.01,0-.03,0-.04.01s-.03,0-.05,0c-.03,0,.04,0,.01,0-.01,0-.03,0-.05,0-.04,0,.04.01.01,0-.01,0-.06-.02-.07-.02,0,0,.05.03.02,0-.01,0-.02-.01-.03-.02-.04-.02,0,0,0,0,0,0-.02-.02-.02-.02,0,0-.02-.02-.03-.03-.02-.02.03.05,0,0,0-.01-.04-.07-.02-.03s0,0,0-.01c-.01-.03,0,.02,0,.03,0,0,0-.03,0-.03,0-.01-.02.05,0,.02s0,.02-.01.02c0,0,.02-.03.02-.04l-.34.09s-.04-.04,0,0c.01,0,.02.02.03.03,0,0,.01.01.02.02-.02-.03-.03-.04-.01-.02,0,.01.02.02.02.04,0,.01.02.04.03.05-.02-.02-.02-.05,0,0,0,.02,0,.03.01.05,0,0,0,.01,0,.02,0,.03,0,.02,0-.02,0,.01,0,.03,0,.04,0,0,0,.02,0,.03,0,.03,0,.02,0-.03,0,.01,0,.03,0,.04-.02.06.02-.03,0,0,0,0-.02.02-.02.03.03-.03.03-.04.01-.02,0,0,0,0-.01.01-.04.04.04-.02,0,0,0,0-.01,0-.02.01.04-.02.05-.02.03-.02-.05.02.06,0,.02,0,0,0-.02,0-.03,0,.05,0,.06,0,.04,0,0,0-.01,0-.02,0-.03,0,.05.03.02,0,0,0-.03-.02-.04-.02.01,0,.05.05.02.01,0,0-.02-.02-.03-.03-.04-.04.03.05,0,.01,0,0-.01-.02-.02-.03-.03-.05.01.05,0,.01,0,0,0-.02,0-.03-.01-.03,0,.07,0,.02,0-.04-.01.07,0,.03,0-.04-.04.06,0,.02,0,.01-.05.05-.01.02-.06.05-.03.02,0,.01l-.13.03s.02,0,.04,0c-.03,0-.04,0-.02,0,.02,0,.04,0,.05.01.02,0,.04.01.06.02.05.01-.04-.02,0,0,.03.02.06.04.1.06.05.03-.03-.03,0,0,.02.02.04.03.05.05l.3-.39s-.01,0-.02-.01c-.02-.01,0,0,.02.01,0,0-.03-.03-.03-.03.01,0,.03.04,0,0,0,0,0-.01-.01-.02,0-.02,0-.02,0,0,0,.02,0,.02,0,0v-.02s0-.02-.01-.02c0-.02,0-.01,0,.03,0,0,0-.04,0-.05,0-.05-.01.05,0,0,.03-.13-.04-.28-.17-.31-.13-.03-.28.04-.31.17h0Z"/>
  </g>
</svg>