<?xml version="1.0" encoding="UTF-8"?>
<svg id="Capa_2" data-name="Capa 2" xmlns="http://www.w3.org/2000/svg" xmlns:xlink="http://www.w3.org/1999/xlink" viewBox="0 0 73.89 80.64">
  <defs>
    <style>
      .cls-1 {
        fill: #384472;
      }

      .cls-1, .cls-2 {
        stroke-width: 0px;
      }

      .cls-3 {
        clip-path: url(#clippath-2);
      }

      .cls-4, .cls-2, .cls-5, .cls-6 {
        fill: none;
      }

      .cls-4, .cls-5, .cls-6 {
        stroke: #384472;
        stroke-miterlimit: 10;
      }

      .cls-7 {
        clip-path: url(#clippath-1);
      }

      .cls-5 {
        stroke-width: 2px;
      }

      .cls-8 {
        clip-path: url(#clippath);
      }

      .cls-9 {
        clip-path: url(#clippath-3);
      }

      .cls-6 {
        stroke-width: 6px;
      }
    </style>
    <clipPath id="clippath">
      <polyline class="cls-2" points="35.65 46.82 35.65 46.82 66.01 46.82 66.01 55.6 35.65 55.6"/>
    </clipPath>
    <clipPath id="clippath-1">
      <polygon class="cls-2" points="35.4 46.82 35.4 46.82 5.04 46.82 5.04 55.6 35.4 55.6 35.4 46.82"/>
    </clipPath>
    <clipPath id="clippath-2">
      <polygon class="cls-2" points="13.14 71.59 13.14 71.59 22.18 71.59 22.18 80.64 13.14 80.64 13.14 71.59"/>
    </clipPath>
    <clipPath id="clippath-3">
      <polygon class="cls-2" points="58.36 71.59 58.36 71.59 49.32 71.59 49.32 80.64 58.36 80.64 58.36 71.59"/>
    </clipPath>
  </defs>
  <g id="Simbolos">
    <path class="cls-1" d="M46.85,27.17c.05-.07.09-.15.14-.22.25-.31.5-.61.76-.91.32-.36.64-.7.97-1.05.16-.17.32-.34.49-.51.26-.27.51-.55.77-.82.17-.17.34-.34.51-.51.26-.27.53-.53.79-.8.17-.17.34-.33.5-.5.26-.26.51-.52.77-.78.25-.25.5-.5.76-.75.18-.18.35-.36.53-.54.17-.17.35-.34.52-.52.25-.25.5-.5.75-.75.24-.24.47-.47.71-.71.24-.24.49-.49.73-.73.26-.26.52-.51.78-.77.25-.25.5-.51.75-.76.18-.18.36-.35.53-.53.25-.25.5-.51.76-.77.24-.24.49-.48.73-.72.24-.24.49-.49.73-.73.25-.25.5-.49.75-.74.16-.16.32-.32.48-.48.2-.2.4-.4.59-.6.32-.33.64-.66.97-.98.31-.31.63-.62.94-.93.32-.32.64-.65.96-.97.25-.25.51-.5.76-.75.25-.25.49-.5.73-.75.17-.17.34-.33.51-.51.26-.26.51-.52.76-.79.17-.18.34-.35.51-.53.19-.2.39-.41.58-.61.17-.18.34-.36.5-.54.18-.2.35-.39.53-.59.18-.2.35-.4.53-.59.26-.29.52-.58.8-.86.31-.32.64-.63.96-.95.09-.09.19-.18.29-.26.16-.14.34-.26.54-.36.16-.08.36.02.37.21.01.15-.03.28-.1.41-.16.29-.39.53-.61.77-.17.19-.34.37-.51.55-.31.32-.63.64-.95.96-.33.33-.67.66-1.01.99-.32.3-.65.58-.97.88-.24.23-.48.47-.71.71-.24.24-.47.49-.71.73-.26.26-.52.53-.78.79-.29.29-.59.58-.89.88-.2.2-.4.4-.6.61-.31.31-.62.61-.92.92-.33.33-.66.67-.99,1-.38.38-.76.76-1.14,1.14-.26.27-.53.54-.79.8-.24.24-.49.47-.73.71-.25.24-.49.49-.73.73-.17.17-.35.34-.52.52-.26.26-.51.52-.77.78-.24.24-.48.47-.71.71-.26.26-.51.52-.77.78-.17.17-.34.34-.51.51-.17.17-.35.35-.52.52-.25.25-.5.5-.74.74-.26.26-.52.52-.78.77-.24.24-.48.47-.72.71-.26.25-.51.51-.77.76-.16.16-.33.32-.49.48-.33.33-.67.66-1,.99-.25.24-.49.48-.74.72-.25.25-.5.5-.76.75-.3.29-.61.58-.91.87-.24.22-.47.45-.71.67-.31.3-.62.59-.94.88-.31.28-.63.56-.95.83-.17.14-.35.28-.56.36ZM70.41,3.82s.06-.03.08-.06c.16-.16.32-.33.49-.49.33-.33.66-.65.99-.99.36-.37.7-.74,1.05-1.11.06-.07.12-.14.18-.2.06-.06.05-.11.01-.18-.11-.2-.22-.21-.37-.05-.13.15-.27.29-.41.43-.4.4-.8.78-1.17,1.21-.23.27-.48.51-.71.77-.11.12-.21.24-.31.37-.06.08-.04.11.03.18.04.03.08.06.13.11Z"/>
    <path class="cls-6" d="M69.1,44.07c0,18.25-14.8,30.87-33.05,30.87S3,62.33,3,44.07"/>
    <path class="cls-6" d="M3,34.27C3,16.02,17.8,3.25,36.05,3.25s33.05,12.77,33.05,31.02"/>
    <path class="cls-5" d="M23.41,51.08c0-11.39,2.94-15.36,12.62-15.36s12.07,3.97,12.07,15.36"/>
    <g>
      <g id="_Repetición_de_espejo_" data-name="&amp;lt;Repetición de espejo&amp;gt;">
        <g class="cls-8">
          <path class="cls-4" d="M35.65,53.63c1.99,0,3.88.49,5.53,1.35,2.19-2.35,5.31-3.82,8.78-3.82,1.31,0,2.57.21,3.74.6,2.2-2.82,8.45-4.44,12.31-4.44"/>
        </g>
      </g>
      <g id="_Repetición_de_espejo_-2" data-name="&amp;lt;Repetición de espejo&amp;gt;">
        <g class="cls-7">
          <path class="cls-4" d="M36.05,53.64c-.3,0-.61.01-.93.03-1.8.12-3.84.58-5.24,1.31-2.19-2.35-5.31-3.82-8.78-3.82-1.31,0-2.57.21-3.74.6-2.2-2.82-8.45-4.44-12.31-4.44"/>
        </g>
      </g>
    </g>
    <line class="cls-4" x1="36.39" y1="53.65" x2="35.11" y2="53.65"/>
    <line class="cls-4" x1="17.35" y1="51.76" x2="17.35" y2="67.68"/>
    <line class="cls-4" x1="29.87" y1="54.98" x2="29.87" y2="71.88"/>
    <line class="cls-4" x1="41.18" y1="54.98" x2="41.18" y2="73.88"/>
    <line class="cls-4" x1="53.7" y1="51.76" x2="53.7" y2="70.47"/>
    <g>
      <g id="_Repetición_de_espejo_-3" data-name="&amp;lt;Repetición de espejo&amp;gt;">
        <g class="cls-3">
          <polygon class="cls-1" points="22.18 73.77 16.3 80.64 13.14 79.39 16.3 71.59 22.18 73.77"/>
        </g>
      </g>
      <g id="_Repetición_de_espejo_-4" data-name="&amp;lt;Repetición de espejo&amp;gt;">
        <g class="cls-9">
          <polygon class="cls-1" points="49.32 73.77 55.21 80.64 58.36 79.39 55.21 71.59 49.32 73.77"/>
        </g>
      </g>
    </g>
    <path class="cls-4" d="M20.23,51.4c0-14.23,3.67-19.19,15.77-19.19s15.08,4.96,15.08,19.19"/>
  </g>
</svg>