<?xml version="1.0" encoding="UTF-8"?>
<svg id="Capa_2" data-name="Capa 2" xmlns="http://www.w3.org/2000/svg" viewBox="0 0 94.07 62.41">
  <defs>
    <style>
      .cls-1 {
        fill: #272626;
        stroke-width: 0px;
      }
    </style>
  </defs>
  <g id="Capa_1-2" data-name="Capa 1">
    <g>
      <path class="cls-1" d="M27.23,60.76c0,.44.16.86.47,1.17.31.31.72.48,1.16.48h36.04c.88,0,1.6-.7,1.63-1.58,0-.23.07-2.53-.42-5.69h26.32c.88,0,1.6-.7,1.63-1.58.02-.56.35-13.76-7.92-21.34-.58-.54-1.46-.57-2.09-.09-.1.07-9.72,7.3-18.68,0-.62-.5-1.5-.49-2.1.03-.19.17-2.82,2.51-5.11,7.03-.53-.23-1.16-.17-1.64.2-.4.3-9.77,7.27-18.69.01-.44-.36-1.01-.45-1.52-.29-1.15-2.47-2.74-4.89-4.94-6.91-.58-.54-1.46-.57-2.09-.09-.1.07-9.72,7.3-18.68,0-.62-.5-1.5-.49-2.1.03C8.17,32.46.2,39.54,0,53.49c0,.44.16.86.47,1.17.31.31.72.49,1.16.49h26.15c-.31,1.73-.52,3.6-.55,5.62ZM64.5,35.56c8.52,5.94,17.21,1.81,20.32-.06,4.84,5.2,5.77,13.05,5.94,16.38h-25.3c-.82-3.32-2.28-7.06-4.84-10.23,1.35-2.95,2.91-5,3.88-6.09ZM36.97,42.83c8.52,5.94,17.21,1.81,20.32-.06,4.84,5.2,5.77,13.05,5.94,16.38H30.56c.57-8.75,4.59-14.24,6.42-16.32ZM3.32,51.88c.58-8.76,4.59-14.25,6.42-16.32,8.52,5.94,17.21,1.81,20.33-.06,1.67,1.79,2.87,3.9,3.74,6.04-1.62,2-3.87,5.45-5.28,10.34H3.32Z"/>
      <path class="cls-1" d="M4.24,15.42c0,8.49,6.92,15.4,15.41,15.4h0c4.11,0,7.98-1.6,10.89-4.52.4-.4.78-.83,1.13-1.27,1.14,7.38,7.52,13.06,15.21,13.06h0c4.11,0,7.98-1.61,10.89-4.52,2.43-2.43,3.93-5.53,4.37-8.87,2.82,3.71,7.26,6.12,12.26,6.12h0c4.11,0,7.98-1.6,10.89-4.52,2.91-2.92,4.52-6.78,4.52-10.89,0-8.49-6.92-15.41-15.41-15.41-4.11,0-7.98,1.61-10.89,4.52-2.43,2.43-3.93,5.53-4.37,8.87-2.82-3.71-7.26-6.12-12.26-6.12-4.11,0-7.98,1.61-10.9,4.52-.4.4-.77.83-1.13,1.27-1.14-7.38-7.52-13.06-15.21-13.06-4.11,0-7.98,1.61-10.89,4.52-2.91,2.91-4.52,6.78-4.52,10.9ZM65.82,6.82c2.3-2.3,5.35-3.57,8.59-3.57,6.7,0,12.15,5.45,12.16,12.15,0,3.24-1.27,6.29-3.57,8.59-2.3,2.3-5.35,3.56-8.59,3.56h0c-6.7,0-12.15-5.45-12.16-12.15,0-3.24,1.27-6.29,3.56-8.59ZM38.29,14.1c2.3-2.3,5.35-3.57,8.59-3.57,6.7,0,12.15,5.45,12.16,12.15,0,3.24-1.26,6.29-3.57,8.59-2.3,2.3-5.35,3.57-8.59,3.57h0c-6.7,0-12.15-5.45-12.15-12.15,0-3.24,1.26-6.29,3.56-8.59ZM19.65,3.26c6.7,0,12.15,5.45,12.16,12.15,0,3.24-1.27,6.29-3.57,8.59-2.3,2.3-5.35,3.56-8.59,3.56h0c-6.7,0-12.15-5.45-12.16-12.15,0-3.24,1.27-6.29,3.56-8.59,2.3-2.3,5.35-3.57,8.59-3.57Z"/>
    </g>
  </g>
</svg>