<?xml version="1.0" encoding="UTF-8"?>
<svg id="Capa_2" data-name="Capa 2" xmlns="http://www.w3.org/2000/svg" viewBox="0 0 96.03 65.06">
  <defs>
    <style>
      .cls-1 {
        fill: #1f1f1f;
        stroke-width: 0px;
      }
    </style>
  </defs>
  <g id="Capa_1-2" data-name="Capa 1">
    <g>
      <g>
        <path class="cls-1" d="M14.44,44.04c.22.22.52.35.83.35h18.86c-.22,1.25-.37,2.59-.39,4.05,0,.31.12.62.34.84.22.22.52.35.84.35h25.98c.63,0,1.15-.51,1.17-1.14,0-.16.05-1.82-.3-4.1h18.97c.63,0,1.15-.51,1.18-1.14,0-.4.25-9.92-5.71-15.39-.42-.39-1.06-.41-1.51-.07-.07.05-7.01,5.27-13.47,0-.44-.36-1.08-.35-1.51.02-.14.12-2.03,1.81-3.69,5.07-.38-.17-.83-.12-1.18.14-.28.22-7.04,5.24-13.47,0-.31-.26-.73-.32-1.09-.2-.83-1.78-1.97-3.52-3.56-4.98-.42-.39-1.06-.41-1.51-.07-.07.05-7.01,5.27-13.47,0-.44-.36-1.08-.35-1.51.02-.24.21-5.99,5.32-6.13,15.37,0,.31.12.62.34.84ZM60.61,30.28c6.14,4.28,12.41,1.31,14.65-.05,3.49,3.75,4.16,9.41,4.28,11.81h-18.24c-.59-2.4-1.64-5.09-3.49-7.38.98-2.13,2.1-3.6,2.8-4.39ZM40.76,35.52c6.14,4.28,12.41,1.31,14.65-.04,3.49,3.75,4.16,9.41,4.28,11.81h-23.57c.42-6.31,3.31-10.27,4.63-11.76ZM21.13,30.28c6.14,4.28,12.41,1.31,14.65-.05,1.21,1.29,2.07,2.81,2.69,4.35-1.17,1.44-2.79,3.93-3.8,7.46h-18.17c.41-6.31,3.31-10.27,4.63-11.76Z"/>
        <path class="cls-1" d="M28.27,26.86h0c2.97,0,5.75-1.16,7.85-3.26.29-.29.56-.6.81-.91.82,5.32,5.42,9.42,10.97,9.42h0c2.97,0,5.75-1.16,7.85-3.26,1.75-1.75,2.84-3.99,3.15-6.39,2.03,2.67,5.24,4.41,8.84,4.41h0c2.96,0,5.75-1.16,7.85-3.26,2.1-2.1,3.26-4.89,3.26-7.85,0-6.13-4.99-11.11-11.11-11.11-2.97,0-5.76,1.16-7.86,3.26-1.75,1.75-2.83,3.98-3.15,6.39-2.03-2.67-5.23-4.41-8.84-4.41-2.96,0-5.76,1.16-7.86,3.26-.29.29-.56.6-.81.91-.82-5.32-5.42-9.42-10.97-9.42-2.97,0-5.76,1.16-7.86,3.26-2.1,2.1-3.26,4.89-3.25,7.85,0,6.13,4.99,11.11,11.11,11.11ZM61.56,9.56c1.66-1.66,3.86-2.57,6.2-2.57,4.83,0,8.76,3.93,8.76,8.76,0,2.34-.91,4.54-2.57,6.19-1.65,1.66-3.85,2.57-6.19,2.57h0c-4.83,0-8.76-3.93-8.77-8.76,0-2.34.91-4.54,2.57-6.2ZM41.71,14.8c1.66-1.66,3.86-2.57,6.19-2.57,4.83,0,8.76,3.93,8.76,8.76,0,2.34-.91,4.54-2.57,6.19-1.66,1.66-3.85,2.57-6.19,2.57h0c-4.83,0-8.76-3.93-8.76-8.76,0-2.34.91-4.54,2.57-6.2ZM22.08,9.56c1.66-1.66,3.86-2.57,6.2-2.57,4.83,0,8.76,3.93,8.76,8.76,0,2.34-.91,4.54-2.57,6.19-1.65,1.66-3.85,2.57-6.19,2.57h0c-4.83,0-8.77-3.93-8.77-8.76,0-2.34.91-4.54,2.57-6.2Z"/>
      </g>
      <path class="cls-1" d="M94.63,54.39h-4.71V2.79c0-1.54-1.25-2.79-2.79-2.79H8.9c-1.54,0-2.79,1.25-2.79,2.79v51.6H1.4c-.77,0-1.4.62-1.4,1.4,0,5.11,4.16,9.27,9.27,9.27h77.49c5.11,0,9.27-4.16,9.27-9.27,0-.77-.62-1.4-1.4-1.4ZM8.9,2.79h78.22v51.6H8.9V2.79ZM35.75,62.27c.45-.69,1.23-1.14,2.12-1.14h20.3c.88,0,1.66.45,2.12,1.14h-24.54ZM86.76,62.27h-23.47c-.62-2.26-2.67-3.94-5.12-3.94h-20.3c-2.45,0-4.51,1.68-5.12,3.94H9.27c-3.09,0-5.68-2.18-6.33-5.08h90.14c-.64,2.9-3.23,5.08-6.33,5.08Z"/>
    </g>
  </g>
</svg>