<?xml version="1.0" encoding="UTF-8"?>
<svg id="Capa_2" data-name="Capa 2" xmlns="http://www.w3.org/2000/svg" viewBox="0 0 85.82 93.71">
  <defs>
    <style>
      .cls-1 {
        fill: #1f1f1f;
        stroke-width: 0px;
      }
    </style>
  </defs>
  <g id="Capa_1-2" data-name="Capa 1">
    <g>
      <path class="cls-1" d="M51.98,30.89l-8.69,6.4-8.69-6.4c-.4-.39-1.04-.39-1.43,0-.4.4-.4,1.04,0,1.43l9.08,6.87v6.79c0,.56.45,1.01,1.01,1.01s1.01-.45,1.01-1.01v-6.76l9.12-6.9c.4-.39.4-1.04,0-1.43-.39-.39-1.03-.39-1.43,0Z"/>
      <path class="cls-1" d="M6.85,3.59c-2.31,2.32-3.59,5.39-3.59,8.66,0,6.75,5.5,12.24,12.24,12.24h0c3.26,0,6.34-1.28,8.65-3.59,2.31-2.32,3.59-5.39,3.59-8.66,0-6.75-5.5-12.24-12.24-12.24-3.27,0-6.34,1.28-8.66,3.59ZM24.51,12.24c0,2.4-.94,4.66-2.64,6.36-1.7,1.7-3.96,2.64-6.36,2.64h0c-4.96,0-9-4.04-9.01-9,0-2.4.94-4.66,2.64-6.37,1.7-1.7,3.96-2.64,6.36-2.64,4.96,0,9,4.04,9,9Z"/>
      <path class="cls-1" d="M1.62,43.23h27.78c.87,0,1.59-.7,1.62-1.57.01-.44.28-10.77-6.22-16.73-.58-.53-1.46-.57-2.08-.09-.07.06-7.26,5.46-13.95.01-.61-.5-1.49-.48-2.09.03C6.41,25.11.15,30.67,0,41.58c0,.43.16.85.47,1.16.3.31.72.48,1.15.48ZM7.93,28.25c5.84,3.88,12.12,2.04,15.56-.03,3.29,3.73,4.06,9.13,4.24,11.77H3.31c.5-6.18,3.18-10.07,4.61-11.73Z"/>
      <path class="cls-1" d="M70.31,24.48h0c3.26,0,6.34-1.28,8.65-3.59,2.32-2.32,3.59-5.39,3.59-8.66,0-6.75-5.5-12.24-12.24-12.24-3.26,0-6.34,1.28-8.65,3.59-2.31,2.32-3.59,5.39-3.59,8.66,0,6.75,5.5,12.24,12.24,12.24ZM63.95,5.88c1.7-1.7,3.96-2.64,6.36-2.64,4.96,0,9,4.04,9,9,0,2.4-.94,4.66-2.64,6.36-1.7,1.7-3.96,2.64-6.36,2.64h0c-4.96,0-9-4.04-9-9,0-2.4.94-4.66,2.64-6.37Z"/>
      <path class="cls-1" d="M85.82,41.65c.01-.44.28-10.77-6.22-16.73-.58-.53-1.46-.57-2.08-.09-.07.06-7.26,5.46-13.94.01-.61-.5-1.49-.48-2.09.03-.27.23-6.53,5.79-6.68,16.7,0,.43.16.85.47,1.16.3.31.72.48,1.15.48h27.78c.87,0,1.59-.7,1.62-1.57ZM58.12,39.99c.5-6.18,3.18-10.07,4.61-11.74,5.84,3.88,12.11,2.04,15.56-.03,3.29,3.73,4.06,9.13,4.24,11.77h-24.41Z"/>
      <path class="cls-1" d="M43.29,50.48c-3.27,0-6.34,1.28-8.66,3.59-2.31,2.32-3.59,5.39-3.59,8.66,0,6.75,5.49,12.24,12.24,12.24h0c3.27,0,6.34-1.28,8.65-3.59,2.31-2.32,3.59-5.39,3.59-8.65,0-6.75-5.5-12.24-12.24-12.24ZM49.65,69.09c-1.7,1.7-3.96,2.64-6.36,2.64h0c-4.96,0-9-4.04-9-9,0-2.4.94-4.66,2.64-6.37,1.7-1.7,3.96-2.64,6.37-2.64,4.96,0,9,4.04,9,9,0,2.4-.94,4.66-2.64,6.36Z"/>
      <path class="cls-1" d="M29.4,93.71h27.78c.87,0,1.59-.7,1.62-1.57.01-.44.28-10.77-6.22-16.73-.58-.53-1.46-.57-2.08-.09-.07.06-7.26,5.46-13.95.01-.61-.5-1.49-.48-2.08.03-.27.23-6.52,5.79-6.68,16.7,0,.43.16.85.47,1.16.3.31.72.48,1.15.48ZM35.7,78.73c5.84,3.88,12.11,2.04,15.56-.03,3.29,3.73,4.06,9.13,4.24,11.77h-24.41c.5-6.17,3.18-10.07,4.61-11.73Z"/>
    </g>
  </g>
</svg>