<?xml version="1.0" encoding="UTF-8"?>
<svg id="Capa_2" data-name="Capa 2" xmlns="http://www.w3.org/2000/svg" viewBox="0 0 98.43 91.14">
  <defs>
    <style>
      .cls-1 {
        fill: #1f1f1f;
        stroke-width: 0px;
      }
    </style>
  </defs>
  <g id="Capa_1-2" data-name="Capa 1">
    <g>
      <path class="cls-1" d="M91.83,16.87c-.07-.17-.18-.32-.3-.46l-.1-.1c-.65-.69-1.62-.98-2.54-.75-.93.23-1.66.97-1.91,1.9-.21.81-.65,1.55-1.27,2.13-1.22,1.14-2.95,1.5-4.53.95-1.7-.59-2.86-2.13-3.17-4.22-.02-.11,0-.23.01-.33.5-2.24,1.89-3.72,3.82-4.07.95-.18,1.73-.85,2.03-1.76.29-.89.08-1.87-.57-2.56l-6.35-6.8c-.36-.38-.81-.64-1.32-.76-.13-.03-.26-.04-.4-.04-.63.02-1.24.26-1.7.68l-6.05,5.51c-.35-.82-.83-1.57-1.45-2.23-2.83-3.03-7.65-3.26-10.79-.46-3.05,2.91-3.21,7.64-.37,10.76.61.67,1.32,1.21,2.11,1.63l-5.97,5.58c-.14.13-.24.27-.29.35-.3.39-.48.85-.53,1.31-.02.13-.01.27,0,.4.08.52.31.99.66,1.37l6.26,6.88c.64.7,1.6,1,2.51.77.93-.23,1.67-.95,1.92-1.89.51-1.89,2.1-3.16,4.36-3.47.11-.02.22,0,.32.01,2.06.48,3.5,1.76,3.95,3.5.42,1.61-.09,3.31-1.32,4.44-.62.57-1.39.95-2.22,1.09-.96.17-1.74.84-2.06,1.75-.3.89-.1,1.89.54,2.59l.1.1c.12.14.27.25.43.34l6,6.43c.41.45.98.74,1.6.81.07,0,.13.01.2.01.07,0,.15,0,.22-.02.29-.04.56-.13.85-.28.13-.07.33-.18.54-.37l6.56-5.97c.08-.07.15-.15.22-.24.48-.66.63-1.52.39-2.3-.23-.77-.79-1.38-1.54-1.66-.66-.25-1.23-.64-1.71-1.16-.83-.91-1.24-2.09-1.16-3.31.08-1.23.65-2.34,1.61-3.14.04-.03.08-.07.12-.11.87-.88,2.03-1.33,3.25-1.35,1.23.02,2.37.52,3.21,1.42.48.52.82,1.12,1.02,1.8.22.77.78,1.38,1.53,1.67.76.29,1.63.22,2.32-.21.09-.06.18-.12.26-.2l6.49-6.05c.38-.35.64-.81.76-1.31.03-.14.05-.29.04-.43-.02-.62-.27-1.21-.67-1.66l-5.93-6.5ZM89.78,29.67c-.34-.78-.81-1.49-1.4-2.12-1.45-1.55-3.42-2.42-5.54-2.45-2.11-.02-4.06.77-5.54,2.26-1.6,1.36-2.56,3.26-2.7,5.35-.14,2.12.56,4.15,1.99,5.71.57.63,1.25,1.16,2,1.57l-5.1,4.65-5.15-5.52c1-.34,1.93-.88,2.72-1.6,2.12-1.93,2.99-4.86,2.27-7.64-.75-2.9-3.13-5.09-6.34-5.84-.48-.11-1-.14-1.5-.07-3.16.44-5.59,2.21-6.69,4.81l-5-5.48,5.93-5.53c.25-.23.45-.51.6-.83.36-.64.43-1.4.2-2.11-.24-.74-.8-1.32-1.52-1.59-.66-.25-1.24-.64-1.71-1.16-1.65-1.81-1.55-4.55.17-6.2,1.8-1.6,4.59-1.47,6.24.29.48.51.82,1.12,1.02,1.79.22.74.75,1.35,1.46,1.65.69.29,1.45.28,2.11-.03.33-.12.62-.29.87-.52l6-5.47,5.06,5.43c-2.68.89-4.64,3.17-5.34,6.29-.11.48-.13,1-.05,1.5.49,3.27,2.47,5.81,5.3,6.8,2.71.94,5.7.32,7.8-1.64.78-.73,1.4-1.61,1.81-2.58l5.09,5.58-5.05,4.71Z"/>
      <path class="cls-1" d="M10.39,88.55c0,1.43,1.18,2.6,2.61,2.6h.02l30.08-.18c.08,0,.16-.02.23-.03.32.13.66.21,1.03.21l9.33-.06c.11,0,.22-.01.32-.03.79-.16,1.47-.7,1.82-1.43.35-.73.34-1.57-.03-2.29-.47-.93-1.03-2.83.58-5.18.06-.09.14-.17.23-.23,1.04-.72,2.11-1.09,3.18-1.09,2.45,0,4.46,2,4.47,4.45,0,.71-.15,1.39-.47,2.01-.36.72-.36,1.54,0,2.27.36.73,1.05,1.26,1.85,1.42.11.02.21.03.33.03l8.86-.05c.7,0,1.36-.28,1.85-.78.49-.5.76-1.16.75-1.85l-.05-9.27c0-1.45-1.16-2.59-2.61-2.59-.5,0-1,.15-1.44.43-.71.46-1.53.7-2.41.7-1.66,0-3.18-.91-3.95-2.38-.84-1.59-.65-3.5.54-5.24.06-.09.14-.17.22-.23,1.05-.73,2.12-1.09,3.2-1.09.84,0,1.66.24,2.37.69,1.02.64,2.43.48,3.27-.35.48-.49.75-1.14.74-1.83l-.05-9.3c-.01-1.43-1.18-2.6-2.63-2.6l-7.96.05c.28-.81.42-1.66.42-2.54-.03-4.22-3.48-7.66-7.71-7.66-1.7,0-3.42.56-4.98,1.63.24-.32.46-.66.65-1.03,1.38-2.66,1.08-5.86-.8-8.57-.28-.41-.65-.77-1.07-1.06-2.37-1.62-5.16-2.04-7.56-1.18l-.05-7.96c0-1.43-1.18-2.6-2.63-2.6l-7.98.05c.88-2.46.45-5.19-1.25-7.61-.28-.4-.64-.76-1.06-1.05-1.56-1.05-3.27-1.61-4.95-1.61h0c-2.07,0-4.01.81-5.47,2.27-1.46,1.47-2.25,3.41-2.24,5.48,0,.89.17,1.77.47,2.6l-7.98.05c-.7,0-1.35.28-1.84.78-.49.5-.76,1.15-.75,1.85l.06,9.33c0,.11.01.21.03.32.25,1.21,1.33,2.08,2.55,2.08.41,0,.8-.1,1.18-.29,1.58-.81,3.45-.6,5.18.58.09.06.17.14.23.23,1.2,1.73,1.42,3.64.59,5.24-.77,1.48-2.28,2.4-3.98,2.42-.69,0-1.36-.16-1.99-.47-.36-.18-.74-.27-1.13-.27-1.24,0-2.31.89-2.55,2.12-.02.1-.03.21-.03.32l.05,8.87c0,.25.06.48.17.68,0,.04-.02.08-.02.12l.05,7.62c-2.46-.88-5.19-.44-7.61,1.25-.41.28-.77.65-1.05,1.06-1.85,2.73-2.12,5.94-.7,8.59,1.35,2.53,3.98,4.1,6.85,4.08.89,0,1.77-.17,2.6-.47l.05,7.98ZM55.29,57.37c.47-.78.5-1.72.09-2.53-.47-.92-1.03-2.82.57-5.18.06-.09.15-.18.23-.23,1.04-.72,2.11-1.09,3.18-1.09,2.45,0,4.46,2,4.47,4.45,0,.71-.15,1.39-.46,2.01-.4.8-.36,1.73.11,2.5.48.78,1.32,1.25,2.25,1.25l8.28-.05.04,7.6c-2.54-1.14-5.62-.78-8.18,1-.41.28-.78.65-1.06,1.07-1.85,2.73-2.12,5.93-.72,8.57,1.34,2.53,3.95,4.1,6.86,4.1,1.11,0,2.19-.25,3.18-.71l.05,7.6-7.1.04c.27-.8.41-1.66.41-2.51-.02-4.22-3.48-7.66-7.71-7.66-1.72,0-3.46.57-5.02,1.66-.41.28-.78.65-1.06,1.06-1.65,2.41-2.06,5.1-1.19,7.53l-7.56.04-.05-8.31c0-1.44-1.18-2.61-2.6-2.61-.42,0-.83.1-1.19.3-.64.34-1.33.51-2.08.51-1.66,0-3.17-.91-3.95-2.38-.84-1.59-.65-3.5.53-5.23.06-.09.14-.17.22-.23,1.74-1.21,3.64-1.42,5.21-.62.98.5,2.25.3,3.03-.49.49-.5.76-1.16.76-1.86l-.05-8.31,8.28-.05c.91,0,1.74-.48,2.22-1.26ZM52.11,55.4l-6.36.04-.03-5.98c.8.28,1.65.42,2.54.42,1.83-.01,3.55-.67,4.9-1.8-1.52,2.36-1.89,4.97-1.04,7.33ZM15.76,50.3c2.87-.02,5.47-1.61,6.8-4.16,1.38-2.66,1.08-5.86-.8-8.57-.29-.41-.65-.77-1.06-1.05-2.38-1.62-5.15-2.04-7.53-1.19l-.05-7.56,8.31-.05c.92,0,1.76-.49,2.24-1.28.47-.78.49-1.72.07-2.52-.34-.64-.51-1.33-.51-2.05,0-1.2.45-2.33,1.3-3.18.85-.85,1.97-1.32,3.18-1.32h0c1.05,0,2.11.35,3.13,1.05.09.06.17.14.23.23,1.21,1.72,1.43,3.63.62,5.22-.41.81-.37,1.76.1,2.53.48.78,1.31,1.25,2.24,1.25l8.31-.05.05,8.28c0,1.43,1.18,2.6,2.61,2.6.4,0,.8-.1,1.18-.29,1.57-.81,3.45-.6,5.18.58.09.06.17.14.23.23,1.2,1.73,1.41,3.64.58,5.24-.77,1.48-2.28,2.4-3.97,2.41-.7,0-1.37-.16-1.97-.46-.97-.49-2.22-.28-3,.5-.5.5-.77,1.16-.76,1.87l.05,7.55c-.16.14-.31.3-.43.47h0c-.06.09-.11.17-.16.26l-7.95.05c-.37,0-.69-.18-.86-.49-.18-.32-.16-.72.04-1.04,1.39-2.2,1.22-4.95-.46-7.36-.17-.24-.39-.45-.64-.63-1.3-.89-2.67-1.34-4.06-1.34-1.64,0-3.17.64-4.32,1.8-1.15,1.16-1.78,2.7-1.77,4.33,0,1.15.34,2.28.96,3.24.21.32.22.72.05,1.05-.17.31-.5.51-.86.51l-8.77.05-.04-7.1c.79.27,1.63.41,2.51.41ZM7.73,77.8c-1.66-.02-3.19-.9-3.98-2.37-.85-1.59-.65-3.5.53-5.25.06-.08.13-.16.22-.22,1.73-1.21,3.63-1.43,5.22-.62.81.41,1.76.37,2.54-.11.78-.48,1.25-1.32,1.24-2.24l-.04-6.77,8.62-.05c1.54,0,2.95-.85,3.68-2.2.74-1.36.68-3.03-.17-4.34-.29-.45-.44-.97-.45-1.51,0-.77.29-1.49.83-2.03,1.03-1.04,2.65-1.11,4.15-.14.53.81,1.18,2.25.29,3.66-.83,1.31-.88,2.97-.14,4.33.73,1.33,2.15,2.16,3.7,2.16l7.59-.05.03,6c-2.44-.86-5.24-.41-7.61,1.25-.4.28-.76.64-1.04,1.06-1.85,2.73-2.11,5.93-.71,8.57,1.34,2.53,3.95,4.1,6.86,4.1.89,0,1.77-.17,2.6-.47l.04,6.94c-.06.07-.13.15-.18.23l-27.92.17-.05-8.31c0-.92-.49-1.76-1.28-2.24-.78-.46-1.72-.49-2.52-.07-.64.34-1.33.51-2.05.51Z"/>
    </g>
  </g>
</svg>