<?xml version="1.0" encoding="UTF-8"?>
<svg id="Capa_2" data-name="Capa 2" xmlns="http://www.w3.org/2000/svg" viewBox="0 0 89.2 92.9">
  <defs>
    <style>
      .cls-1 {
        fill: #1f1f1f;
        stroke-width: 0px;
      }
    </style>
  </defs>
  <g id="Capa_1-2" data-name="Capa 1">
    <g>
      <path class="cls-1" d="M42.26,41.43c.6-.24.98-.82.98-1.46V1.57c0-.87-.7-1.57-1.58-1.57-10.43,0-20.3,4-27.8,11.27-.3.29-.48.69-.48,1.11,0,.42.15.82.44,1.12l26.71,27.58c.31.31.71.48,1.13.48.2,0,.4-.04.59-.12ZM40.09,36.09L17.2,12.46c6.37-5.67,14.39-8.92,22.89-9.28v32.92Z"/>
      <path class="cls-1" d="M41.54,48.19c.04-.46-.12-.91-.43-1.24L14.39,19.37c-.29-.3-.69-.47-1.1-.48-.42,0-.82.15-1.12.44C4.32,26.94,0,37.13,0,48.04c0,8.33,2.55,16.32,7.37,23.11.31.43.79.66,1.29.66.31,0,.63-.1.91-.29l31.33-22.2c.38-.27.62-.68.66-1.14ZM9.05,68.03c-3.87-5.96-5.91-12.84-5.91-19.99,0-9.52,3.58-18.46,10.11-25.33l24.32,25.11-28.52,20.21Z"/>
      <path class="cls-1" d="M88.84,46.8c-.09-.65-.19-1.3-.31-1.94h0c-.26-1.41-.58-2.78-.96-4.08-.17-.58-.35-1.15-.54-1.71-.42-1.22-.9-2.44-1.43-3.61-.24-.52-.48-1.02-.73-1.53-.55-1.09-1.16-2.18-1.81-3.24-.29-.46-.58-.92-.88-1.36-.75-1.1-1.56-2.18-2.41-3.2-.33-.41-.68-.81-1.04-1.2-.79-.87-1.63-1.73-2.51-2.54-.39-.36-.79-.71-1.18-1.06-.91-.78-1.86-1.53-2.82-2.22-.44-.32-.88-.63-1.33-.92-1.05-.7-2.12-1.34-3.16-1.9-.49-.26-.98-.52-1.48-.76-1.28-.62-2.6-1.19-3.94-1.67-.55-.2-1.11-.39-1.67-.57-1.31-.41-2.66-.76-4.02-1.04-.63-.13-1.26-.24-1.9-.34-1.49-.23-3.04-.38-4.61-.44-.55-.02-1.09-.04-1.64-.04-1.29,0-2.34,1.05-2.34,2.34v37.2l-30.33,21.5c-.5.35-.86.91-.96,1.52-.1.61.04,1.23.4,1.74l.15.2c.66.92,1.39,1.84,2.24,2.82.35.4.69.8,1.05,1.18.79.84,1.65,1.68,2.55,2.5.4.36.8.7,1.21,1.04,1.12.93,2.17,1.72,3.19,2.42.38.25.76.49,1.15.73l.22.14c1.06.66,2.14,1.27,3.24,1.82.5.25,1,.49,1.51.72,1.12.5,2.3.97,3.64,1.42.56.19,1.13.37,1.69.54,1.42.42,2.75.74,4.08.98.64.12,1.29.21,1.94.3,1.77.24,3.53.36,5.21.36.02,0,.12,0,.15,0,.74,0,1.47-.02,2.19-.06,1.93-.1,3.87-.34,5.78-.73.96-.19,1.93-.43,2.96-.71,2.96-.82,5.81-1.98,8.47-3.42,2.67-1.45,5.2-3.22,7.51-5.27,1.3-1.14,2.52-2.37,3.64-3.64,2.05-2.32,3.82-4.85,5.27-7.51,1.44-2.66,2.6-5.51,3.42-8.48.29-1.04.53-2.01.71-2.96.38-1.9.62-3.84.73-5.78.04-.72.06-1.45.06-2.18v-.11c0-1.7-.13-3.46-.36-5.25ZM86.01,54.18c-.1,1.79-.33,3.58-.67,5.33-.17.87-.39,1.76-.66,2.73-.76,2.74-1.82,5.37-3.15,7.81-1.34,2.46-2.97,4.79-4.87,6.93-1.03,1.17-2.17,2.3-3.36,3.36-2.14,1.89-4.47,3.52-6.93,4.86-2.46,1.34-5.08,2.4-7.82,3.16-.95.27-1.84.48-2.72.66-1.76.35-3.56.58-5.33.67-.67.04-1.34.06-2.01.06-.02,0-.09,0-.11,0-1.58,0-3.22-.12-4.84-.34-.6-.08-1.2-.16-1.79-.27-1.22-.23-2.45-.52-3.76-.91-.53-.15-1.05-.32-1.57-.5-1.23-.42-2.33-.85-3.35-1.31-.48-.21-.94-.44-1.39-.67-1-.51-2.01-1.07-2.99-1.68l-.23-.14c-.35-.21-.7-.43-1.04-.66-.94-.64-1.91-1.37-2.95-2.23-.38-.31-.75-.64-1.11-.97-.84-.75-1.63-1.53-2.36-2.31-.33-.36-.66-.72-.98-1.09-.64-.74-1.2-1.44-1.72-2.14l30.33-21.5c.41-.29.66-.77.66-1.28V14.58c.24,0,.47.02.7.03,1.45.06,2.89.19,4.25.4.59.09,1.18.2,1.76.31,1.25.26,2.5.58,3.71.96.52.16,1.03.34,1.54.52,1.24.45,2.46.96,3.63,1.54.46.23.92.46,1.38.7.96.51,1.93,1.1,2.91,1.75.41.27.82.55,1.22.84.89.64,1.77,1.34,2.6,2.06.37.32.74.64,1.09.98.81.76,1.6,1.55,2.31,2.35.33.36.65.73.96,1.11.79.94,1.54,1.94,2.23,2.96.28.41.55.83.81,1.25.6.97,1.17,1.98,1.67,2.99.23.46.45.93.67,1.41.49,1.09.93,2.21,1.32,3.34.18.52.34,1.04.5,1.58.36,1.2.65,2.46.89,3.76.11.59.2,1.19.29,1.79.21,1.65.33,3.28.33,4.84v.11c0,.68-.02,1.36-.05,2.02Z"/>
    </g>
  </g>
</svg>