<?xml version="1.0" encoding="UTF-8"?>
<svg id="Capa_2" data-name="Capa 2" xmlns="http://www.w3.org/2000/svg" viewBox="0 0 97.6 56.72">
  <defs>
    <style>
      .cls-1 {
        fill: #1f1f1f;
        stroke-width: 0px;
      }
    </style>
  </defs>
  <g id="Capa_1-2" data-name="Capa 1">
    <path class="cls-1" d="M13.38,30.66c-1.78.38-3.12,1.96-3.12,3.86,0,.87.28,1.71.8,2.39l-1.65,9.76c-.07.42.05.84.32,1.17.27.32.68.51,1.1.51h6.74c.41,0,.81-.18,1.08-.49.27-.31.4-.73.34-1.14l-1.4-10.17c.36-.61.56-1.3.56-2.01,0-1.42-.76-2.67-1.9-3.36v-5.28l8.89,3.86v22.06c0,2.72,2.21,4.93,4.93,4.93h40.55c2.72,0,4.93-2.21,4.93-4.93v-23.41l21.17-9.18c.55-.24.89-.78.87-1.38-.03-.59-.41-1.11-.97-1.3L48.47.08c-.32-.11-.66-.1-.98.02C31.02,6.34,3.94,16.29,1.43,16.44c-.68,0-1.26.48-1.4,1.15-.14.67.21,1.34.84,1.61l12.51,5.43v6.03ZM12.53,45.46l1.48-8.78c.09-.5-.1-1.02-.5-1.34-.24-.2-.38-.5-.38-.82,0-.59.48-1.07,1.07-1.07s1.07.48,1.07,1.07c0,.33-.14.56-.26.7-.27.31-.4.73-.34,1.14l1.26,9.1h-3.39ZM72.68,51.79c0,1.13-.92,2.06-2.05,2.06H30.07c-1.13,0-2.06-.92-2.06-2.06v-20.82l20.21,8.77c.18.08.38.12.57.12s.39-.04.57-.12l23.31-10.11v22.16ZM5.8,18.2c10.41-3.25,35.41-12.65,42.23-15.24l44.14,15.07-43.38,18.82-28.64-12.43,24.19-3.19c1.05.65,2.63,1.05,4.46,1.05,3.33,0,5.85-1.33,5.85-3.09s-2.51-3.09-5.85-3.09c-2.88,0-5.14.99-5.71,2.39l-28.06,3.7-9.22-4ZM44.39,19.2c0-.67,1.72-1.65,4.41-1.65s4.41.98,4.41,1.65-1.72,1.65-4.41,1.65-4.41-.98-4.41-1.65Z"/>
  </g>
</svg>