<?xml version="1.0" encoding="UTF-8"?>
<svg id="Capa_2" data-name="Capa 2" xmlns="http://www.w3.org/2000/svg" viewBox="0 0 70.02 97.46">
  <defs>
    <style>
      .cls-1 {
        fill: #1f1f1f;
        stroke-width: 0px;
      }
    </style>
  </defs>
  <g id="Capa_1-2" data-name="Capa 1">
    <g>
      <path class="cls-1" d="M14.41,67.2c-.48-1.44-2.05-2.39-2.83-2.78-1.16-2.35-7.4-15.16-7.9-20.04l-.07-.62c-.45-4.11-1.81-16.63,5.14-24.37,1.53-1.71,3.39-3.09,5.56-4.15v-3.5c-3.14,1.29-5.8,3.13-7.94,5.52C-1.53,26.06-.05,39.64.43,44.11l.06.6c.6,5.84,7.61,19.93,8.4,21.52l.33.66.68.28c.54.22,1.33.76,1.46,1.03.07.22.17.47.29.76.58,1.45,1.54,3.87.33,7.51-.59,1.78-1.38,3.41-2.14,4.76l2.83,1.49c.83-1.49,1.68-3.26,2.34-5.24,1.58-4.75.3-7.97-.4-9.7-.09-.23-.17-.42-.22-.59Z"/>
      <path class="cls-1" d="M67.7,58.22c-1.14-1.99-3.49-6.11-3.55-7.29.06-.38.23-.99.41-1.62.47-1.64,1.06-3.69.85-5.72-.24-2.33-1.55-5.73-2.71-8.74.95-6.21-2.71-7.9-2.71-7.9-.33.29-.68.57-1.05.86l-.9.68.61.94c.94,1.45,1.26,3.28.89,4.95l-.32.32.47,1.22c1.1,2.85,2.35,6.08,2.55,8,.15,1.42-.35,3.14-.74,4.52-.23.81-.43,1.51-.51,2.13-.23,1.75,1.49,4.93,3.95,9.24.78,1.37,1.67,2.92,1.8,3.37.16.57.12,1.11-.11,1.46-.17.25-.43.39-.81.43-.4.04-.73.06-1.02.07-.99.05-1.84.09-2.92,1.03-1.15,1.01-.89,2.56-.07,3.81-.11.38-.32.87-.61,1.07l-.3.21c-.15.11-.24.18-.3.21-.11.03-.24.03-.47.05-.28.02-.65.05-1.18.11l.19,2.41c.76,0,1.37.13,1.61.25.1.48.12.97.08,1.28-1.38.29-2.09,2.07-2.34,2.88l-.2.65.44.51s1.02,1.19,1.08,3.1c.09,2.88-.3,3.06-2.19,3.48-.78.17-2.04.26-3.74.26-2.15,0-4.61-.14-6.4-.25l-1.07-.06c-.52-.03-1.03-.05-1.52-.05-2.25,0-4.97.44-6.09,3.87-.83,2.53-1.12,4.4-1.21,5.84l3.19,1.67c-.06-1.38,0-3.28,1.06-6.52.38-1.18.89-1.67,3.05-1.67.43,0,.88.02,1.34.04l1.06.06c1.83.11,4.35.26,6.59.26,1.95,0,3.4-.11,4.43-.34,4.07-.91,4.8-3.15,4.69-6.71-.06-1.72-.59-3.07-1.08-3.95.55-.14,1.04-.46,1.4-.92,1.14-1.45.6-3.89.49-4.37-.02-.1-.06-.2-.09-.3,1.06-1.18,1.31-2.75,1.36-3.11l.09-.85-.52-.66s-.05-.06-.07-.09c.1,0,.22-.01.38-.02.34-.02.72-.04,1.19-.08,1.32-.13,2.43-.78,3.13-1.82.77-1.14.96-2.65.53-4.14-.23-.78-.87-1.93-2.09-4.07Z"/>
    </g>
    <g>
      <path class="cls-1" d="M40.66,27.07c-1.32-1.27-2.86-2.26-4.57-2.95-1.76-.71-3.62-1.07-5.54-1.07s-3.78.36-5.54,1.07c-1.71.69-3.25,1.68-4.57,2.95-1.34,1.28-2.38,2.77-3.12,4.44-.77,1.74-1.16,3.59-1.16,5.5,0,3.56,1.39,6.95,3.9,9.55l.4.41c.37.37,1.32,1.37,2.19,2.57.73,1.01,1.2,1.91,1.36,2.59h-.41c-1.82,0-3.31,1.48-3.31,3.31,0,.91.37,1.74.97,2.33-.6.6-.97,1.42-.97,2.34,0,1.52,1.04,2.8,2.44,3.18.03.1.05.19.1.29.7,1.42,1.77,2.62,3.11,3.47,1.37.88,2.97,1.34,4.6,1.34s3.23-.46,4.6-1.34c1.34-.85,2.41-2.05,3.11-3.47.04-.09.07-.19.1-.29,1.4-.38,2.44-1.66,2.44-3.18,0-.91-.37-1.74-.97-2.34.6-.6.97-1.42.97-2.33,0-1.82-1.48-3.31-3.31-3.31h-.47c.35-1.45,2.11-3.64,3.62-5.16l.39-.4c2.51-2.6,3.9-5.99,3.9-9.55,0-1.91-.39-3.76-1.16-5.5-.74-1.67-1.79-3.16-3.12-4.44ZM37.5,56.79h-13.89c-.75,0-1.36-.61-1.36-1.36s.61-1.37,1.36-1.37h13.89c.75,0,1.36.61,1.36,1.37s-.61,1.36-1.36,1.36ZM36.12,63.41c-.52.79-1.19,1.48-2,1.99-2.13,1.35-5,1.35-7.12,0-.81-.51-1.48-1.2-2-1.99h11.12ZM23.61,61.47c-.75,0-1.36-.61-1.36-1.36s.61-1.37,1.36-1.37h13.89c.75,0,1.36.61,1.36,1.37s-.61,1.36-1.36,1.36h-13.89ZM29.35,52.13s0-.08-.01-.12l-1.69-8.36c.54.28,1.36.48,1.9.17.43-.25.72-.68.91-1.09.19.41.48.84.91,1.09.42.24.95.24,1.57-.01.12-.05.23-.1.33-.15l-1.69,8.36s0,.08-.01.12h-2.22ZM33.53,52.13l1.78-8.79c.14-.67-.16-1.36-.75-1.72-.57-.35-1.35-.31-1.87.11-.12.1-.3.19-.44.25-.04-.08-.09-.2-.14-.34-.02-.78-.58-1.43-1.36-1.57-.08-.01-.17-.02-.32-.02-.09,0-.19,0-.28.02-.78.13-1.34.79-1.36,1.57-.05.15-.1.26-.14.35-.13-.06-.3-.15-.44-.26-.52-.41-1.3-.46-1.87-.11-.58.36-.88,1.05-.75,1.72l1.78,8.79h-1.39c-.34-2.49-3.23-5.6-4.13-6.52l-.39-.39c-2.16-2.23-3.35-5.15-3.35-8.2,0-1.63.33-3.22.99-4.72.63-1.43,1.54-2.72,2.69-3.82,1.14-1.1,2.47-1.95,3.95-2.55,1.53-.62,3.14-.93,4.81-.93s3.29.31,4.81.93c1.48.6,2.81,1.46,3.95,2.55,1.15,1.1,2.05,2.39,2.69,3.82.66,1.49.99,3.08.99,4.72,0,3.05-1.19,5.96-3.35,8.2l-.39.39c-.52.52-1.51,1.58-2.4,2.79-1.06,1.44-1.65,2.69-1.79,3.73h-1.53Z"/>
      <path class="cls-1" d="M24.75,29.09c-1.16.83-2.1,1.87-2.81,3.1-.13.22-.16.49-.1.74.07.25.23.46.45.59.15.09.32.13.49.13.35,0,.67-.19.84-.49.57-.99,1.33-1.83,2.26-2.5.43-.31.53-.92.22-1.36-.3-.42-.94-.52-1.36-.22Z"/>
      <path class="cls-1" d="M30.46,19.91c.53,0,.96-.43.96-.96v-4.03c0-.53-.43-.96-.96-.96s-.96.43-.96.96v4.03c0,.53.43.96.96.96Z"/>
      <path class="cls-1" d="M37.49,21.32c.11.05.23.07.35.07.39,0,.74-.24.89-.6l1.49-3.74c.09-.24.09-.5-.01-.73-.1-.23-.29-.42-.53-.51-.48-.19-1.05.06-1.24.54l-1.49,3.74c-.09.24-.09.5.01.73.1.23.29.42.52.51Z"/>
      <path class="cls-1" d="M53.07,29.33c.09-.24.08-.5-.03-.73-.21-.46-.8-.68-1.27-.47l-3.66,1.69c-.48.22-.69.79-.47,1.27.16.34.5.56.87.56.14,0,.27-.03.4-.09l3.66-1.69c.23-.11.41-.3.5-.54Z"/>
      <path class="cls-1" d="M16.21,25.19c.18.19.43.3.7.3.25,0,.48-.09.66-.26.38-.36.4-.97.04-1.35l-2.77-2.92c-.35-.37-.99-.39-1.35-.04-.38.36-.4.97-.04,1.35l2.77,2.93Z"/>
      <path class="cls-1" d="M12.95,29.82l-3.66-1.69c-.47-.22-1.06,0-1.27.47-.11.23-.12.49-.03.73.09.24.26.43.5.54l3.66,1.69c.13.06.26.09.4.09.37,0,.71-.22.87-.56.22-.48.01-1.05-.47-1.27Z"/>
      <path class="cls-1" d="M44.51,24.4c.09.08.2.14.31.18.37.13.78.02,1.04-.27l15.99-17.53c.17-.19.25-.44.24-.69-.02-.25-.13-.49-.32-.66-.39-.34-1.01-.3-1.35.09l-15.99,17.53c-.17.19-.25.44-.24.69.02.26.13.49.32.66Z"/>
      <path class="cls-1" d="M14.99.04c-.12.04-.22.1-.32.17-.31.25-.43.65-.31,1.03l7.81,19.37c.08.24.24.44.47.56.23.12.49.14.73.06.49-.16.78-.71.62-1.2L16.19.67c-.08-.24-.25-.44-.47-.56-.22-.12-.49-.14-.73-.06Z"/>
    </g>
  </g>
</svg>