<?xml version="1.0" encoding="UTF-8"?>
<svg id="Capa_2" data-name="Capa 2" xmlns="http://www.w3.org/2000/svg" viewBox="0 0 80.74 94.26">
  <defs>
    <style>
      .cls-1 {
        fill: #1f1f1f;
        stroke-width: 0px;
      }
    </style>
  </defs>
  <g id="Capa_1-2" data-name="Capa 1">
    <path class="cls-1" d="M60.82,94.26l-21.14-18.26c-22.56,2.49-37.54-12.05-38.18-12.68l-1.5-1.48,1.75-1.18c4.64-3.12,10.13-15.1,16.49-28.98,2.19-4.79,4.46-9.74,6.95-14.92C36.43-6.65,58.15.91,61.25,2.13c2.26.02,13.95.45,18.05,6.63,1.85,2.8,1.92,6.23.19,10.21l-3.17-1.38c1.25-2.88,1.29-5.14.11-6.92-2.83-4.27-12.14-5.13-15.5-5.09h-.38s-.35-.15-.35-.15c-.86-.39-21.31-9.22-31.89,12.82-2.48,5.16-4.74,10.09-6.92,14.87-6.37,13.9-11.15,24.35-16,29.01,4.2,3.44,17.2,12.56,34.63,10.35l.76-.1,18.96,16.38c2.24-4.4,7.29-14.25,8.42-15.95l2.88,1.92c-1.07,1.61-7.02,13.22-9.22,17.56l-1,1.97Z"/>
    <g>
      <path class="cls-1" d="M66.46,15.54c.39-.16.57-.61.41-.99-1.74-4.19-6.57-6.17-10.76-4.43-1.92.8-3.45,2.28-4.32,4.17-.17.38,0,.83.38,1.01.38.17.83,0,1.01-.38.7-1.54,1.95-2.75,3.52-3.4,3.41-1.42,7.35.2,8.77,3.61.16.39.61.57,1,.41Z"/>
      <path class="cls-1" d="M67.24,30.01c4.22-.61,7.15-4.53,6.55-8.75s-4.53-7.15-8.75-6.55c-.42.06-.7.45-.64.86.06.42.45.7.86.64,3.39-.49,6.54,1.87,7.03,5.26.49,3.39-1.87,6.54-5.26,7.03-.54.08-.83.06-1.4-.03-.41-.07-.81.21-.87.63-.07.41.21.81.63.87.67.11,1.12.14,1.86.04Z"/>
      <path class="cls-1" d="M60.82,35.93c1.54-.22,2.92-1.03,3.93-2.3,1.15-1.45,1.66-3.35,1.4-5.19-.17-1.14-.63-2.23-1.33-3.13-.69-.88-1.59-1.58-2.61-2.02-.39-.17-.83.01-1,.4-.17.39.01.83.4,1,1.65.71,2.79,2.2,3.04,3.97.21,1.43-.19,2.9-1.08,4.03-.82,1.03-1.96,1.65-3.21,1.76-4.24.37-7.45-.99-10.28-2.18-2.6-1.1-5.07-2.14-7.75-1.56-.41.09-.67.49-.58.9.09.41.49.67.9.58,2.22-.48,4.36.43,6.84,1.47,3,1.26,6.39,2.7,11,2.3.11,0,.23-.02.34-.04Z"/>
      <path class="cls-1" d="M38.55,18.53c.29-.06.53-.29.59-.59.24-1.18,1.01-2.36,2.18-3.34,1.25-1.05,2.85-1.8,4.63-2.18,1.28-.27,2.55-.33,3.77-.17,1.14.15,2.21.5,3.07,1,.36.21.83.09,1.04-.27.21-.36.09-.83-.27-1.04-2.14-1.26-5.03-1.62-7.92-1.01-2.02.43-3.85,1.29-5.29,2.5-1.45,1.22-2.38,2.67-2.69,4.2-.08.41.18.81.59.9.11.02.21.02.31,0Z"/>
      <path class="cls-1" d="M33.52,26.18s.06-.01.08-.02c.41-.14.64-.58.5-.99-.06-.17-.1-.35-.14-.53-.57-2.68,1.15-5.33,3.83-5.9.57-.12,1.15-.14,1.72-.06.43.06.83-.24.89-.67.06-.43-.24-.83-.67-.89-.75-.11-1.52-.08-2.27.08-3.53.75-5.79,4.24-5.04,7.77.05.23.11.47.19.69.13.39.52.61.91.53Z"/>
      <path class="cls-1" d="M40.64,37.07c.42-.06.7-.45.64-.86-.06-.42-.45-.7-.86-.64-3.43.49-6.62-1.89-7.11-5.32-.49-3.43,1.89-6.62,5.32-7.11,1.93-.28,3.84.34,5.25,1.69.3.29.78.28,1.08-.02.29-.3.28-.78-.02-1.08-1.75-1.68-4.12-2.44-6.52-2.09-4.26.61-7.22,4.58-6.61,8.83.61,4.26,4.58,7.22,8.84,6.61Z"/>
      <g>
        <path class="cls-1" d="M48.61,24.03c.43-.06.72-.46.66-.88-.23-1.59.8-3.22,2.64-4.16.02,0,.03,0,.05,0,.25,0,.5.06.74.17.81.38,1.18,1.28.84,2.01-.09.19-.1.4-.03.6.07.2.21.35.4.44.38.18.86,0,1.04-.37.57-1.21.22-2.66-.8-3.56,1.7-.24,3.36.13,4.54,1.01.34.25.84.17,1.09-.16.12-.17.18-.37.15-.58-.03-.21-.14-.39-.31-.51-.53-.39-1.13-.71-1.8-.94.36-.48.59-1.06.65-1.68.07-.72-.09-1.45-.45-2.05-.22-.36-.71-.49-1.07-.27-.37.22-.49.7-.27,1.07.19.32.27.7.23,1.09-.07.67-.47,1.22-1.03,1.41,0,0-.01,0-.02,0-2.57-.22-5.04.71-6.61,2.34-1.21,1.26-1.76,2.81-1.53,4.35.06.43.46.72.88.66Z"/>
        <path class="cls-1" d="M56.74,28.6c.25-.29.44-.62.58-.97.3-.79.29-1.65-.02-2.41-.32-.77-.91-1.35-1.67-1.64-.39-.15-.86.06-1.01.45-.08.2-.07.41.02.6.08.19.24.34.43.41.36.14.64.42.79.8.15.39.15.83,0,1.23-.04.11-.1.22-.17.32-1.86-1.77-4.42-2.6-6.92-2.24-1,.14-1.94.46-2.82.95-.38.21-.51.69-.3,1.06.2.36.7.51,1.06.3,1.69-.94,3.78-1.09,5.62-.39,0,.26-.06.88-.49,1.35-.49.53-1.23.78-2.19.73-.78-.04-1.42-.28-1.42-.28-.39-.15-.86.07-1,.46-.15.4.05.85.45,1.01.15.06,1.5.55,2.98.33.95-.14,1.74-.54,2.34-1.19.48-.52.71-1.12.82-1.62,1.11.78,1.97,1.86,2.5,3.14.14.33.48.53.83.48.06,0,.13-.03.18-.05.19-.08.34-.23.43-.42.08-.19.08-.4,0-.6-.26-.64-.6-1.25-1.01-1.82Z"/>
        <path class="cls-1" d="M45.04,18.82c.22-.95.69-1.59,1.39-1.91.21-.1.43-.16.67-.19.21-.03.35-.02.37-.02.43.03.81-.29.84-.71.02-.21-.05-.41-.18-.57-.13-.16-.32-.26-.53-.28-.07,0-.35-.02-.73.04-.36.05-.71.15-1.04.3-.65.29-1.51.89-2.03,2.14-.02-.01-.05-.03-.07-.04-.85-.48-1.64-.51-1.72-.51-.44,0-.79.34-.8.77,0,.43.33.78.76.8.02,0,.51.02,1.02.33.68.4,1.08,1.12,1.19,2.12.05.43.43.74.86.69h.02c.42-.06.71-.44.66-.86-.09-.79-.32-1.49-.68-2.07ZM45.01,21.46h0s0,0,0,0Z"/>
        <path class="cls-1" d="M69.8,19.79s-.31-.03-.73.03c-.36.05-.71.15-1.04.3-.65.29-1.51.89-2.03,2.14-.02-.01-.05-.03-.07-.04-.89-.51-1.72-.51-1.72-.51-.44,0-.79.34-.8.77,0,.43.33.79.76.8,0,0,.5.02,1.01.33.68.4,1.08,1.12,1.19,2.12.02.21.12.39.29.52.16.13.37.19.55.17h.05c.42-.06.71-.44.66-.86-.09-.79-.32-1.49-.68-2.06.22-.95.69-1.59,1.39-1.91.21-.09.43-.16.67-.19.22-.03.37-.02.37-.02.06,0,.12,0,.18,0,.36-.05.63-.34.67-.71.04-.43-.28-.81-.71-.85ZM67.21,26.11h0s0,0,0,0Z"/>
        <path class="cls-1" d="M61.25,26.81c-.05,0-.1.02-.17.05-.19.08-.35.22-.43.41-.08.19-.09.41-.01.6.37.94.35,1.76-.06,2.43-.3.48-.71.74-.74.76-.38.21-.51.68-.31,1.06.16.28.48.44.8.4.09-.01.18-.04.26-.09.03-.02.75-.41,1.29-1.26.49-.77.93-2.07.22-3.87-.13-.34-.48-.54-.84-.49Z"/>
        <path class="cls-1" d="M65.45,18.53s.02-.1.02-.18c0-.21-.07-.41-.22-.56-.14-.15-.34-.24-.55-.24-1.01-.02-1.76-.35-2.22-.99-.33-.46-.41-.93-.41-.98-.05-.43-.43-.73-.86-.69-.32.03-.59.27-.67.58-.02.09-.03.19-.02.28,0,.04.09.85.67,1.67.53.75,1.56,1.65,3.49,1.69.36,0,.68-.23.77-.59Z"/>
        <path class="cls-1" d="M42.77,25.58c-.39-.14-.85.09-.99.47,0,0-.18.47-.62.86-.58.51-1.37.67-2.31.49-.38-.57-.92-1.06-1.61-1.47-.35-.2-.83-.1-1.07.28-.22.37-.09.85.28,1.07.87.51,1.36,1.17,1.45,1.95.07.59-.12,1.06-.12,1.06-.17.39.02.85.41,1.02.13.06.27.07.42.05.27-.04.5-.22.61-.47.01-.03.33-.8.23-1.78,0-.03,0-.05,0-.08.26,0,.51,0,.75-.04.77-.11,1.47-.44,2.03-.94.72-.65.99-1.4,1.02-1.48.07-.2.06-.41-.04-.6-.09-.19-.25-.33-.45-.4Z"/>
      </g>
      <path class="cls-1" d="M44.3,71.09c-.14.02-.28,0-.43-.04-.46-.17-.69-.67-.53-1.13.03-.07.95-2.97,6.81-18.64,1.44-3.87,1.39-7.22-.17-9.97-3.03-5.33-10.75-6.79-10.83-6.8-.48-.09-.8-.54-.71-1.02.09-.48.54-.8,1.02-.71.35.06,8.6,1.61,12.04,7.65,1.83,3.22,1.93,7.08.3,11.46-5.86,15.67-6.78,18.55-6.81,18.62-.11.32-.39.53-.7.57Z"/>
    </g>
  </g>
</svg>