<?xml version="1.0" encoding="UTF-8"?>
<svg id="Capa_2" data-name="Capa 2" xmlns="http://www.w3.org/2000/svg" viewBox="0 0 96.03 75.85">
  <defs>
    <style>
      .cls-1 {
        fill: #1f1f1f;
        stroke-width: 0px;
      }
    </style>
  </defs>
  <g id="Capa_1-2" data-name="Capa 1">
    <g>
      <path class="cls-1" d="M94.63,65.18h-4.71V13.58c0-1.54-1.25-2.79-2.79-2.79h-10l-4.06-9.92c-.22-.53-.73-.87-1.29-.87H24.26c-.57,0-1.08.34-1.29.87l-4.06,9.92h-10c-1.54,0-2.79,1.25-2.79,2.79v51.6H1.4c-.77,0-1.4.62-1.4,1.4,0,5.11,4.16,9.27,9.27,9.27h77.49c5.11,0,9.27-4.16,9.27-9.27,0-.77-.62-1.4-1.4-1.4ZM74.9,12.73h0s3.54,8.64,3.54,8.64h-9.83l-4.1-16.69-.46-1.88h6.78l4.07,9.93ZM66.12,26.54c0,2.53-2.06,4.58-4.58,4.58h-1.04c-2.53,0-4.58-2.06-4.58-4.58v-2.39h10.21v2.39ZM40.12,26.54c0,2.53-2.06,4.58-4.58,4.58h-1.04c-2.53,0-4.58-2.06-4.58-4.58v-2.39h10.21v2.39ZM27.11,26.54c0,2.53-2.06,4.58-4.58,4.58h-1.04c-2.53,0-4.58-2.06-4.58-4.58v-2.39h10.21v2.39ZM34.86,2.79h6.89l-1.5,18.27-.02.3h-9.93l.46-1.88,4.1-16.69ZM44.55,2.79h6.93l.02.3,1.5,18.27h-9.97l1.5-18.27.02-.3ZM61.17,2.79l4.1,16.69.46,1.88h-9.93l-.02-.3-1.5-18.27h6.89ZM42.91,24.16h10.21v2.39c0,2.53-2.06,4.58-4.58,4.58h-1.04c-2.53,0-4.58-2.06-4.58-4.58v-2.39ZM68.92,24.16h10.21v2.39c0,2.53-2.06,4.58-4.58,4.58h-1.04c-2.53,0-4.58-2.06-4.58-4.58v-2.39ZM25.2,2.79h6.78l-.46,1.88-4.1,16.69h-9.83l3.42-8.35c.14-.19.23-.4.26-.65l3.92-9.57ZM8.9,13.58h8.86l-3.54,8.65c-.06.15-.09.31-.09.48,0,.02-.01.03-.01.05v3.78c0,4.07,3.31,7.38,7.38,7.38h1.04c2.47,0,4.64-1.23,5.98-3.09,1.34,1.86,3.51,3.09,5.98,3.09h1.04c2.47,0,4.64-1.23,5.98-3.09,1.34,1.86,3.51,3.09,5.98,3.09h1.04c2.47,0,4.64-1.23,5.98-3.09,1.34,1.86,3.51,3.09,5.98,3.09h1.04c2.47,0,4.64-1.23,5.98-3.09,1.34,1.86,3.51,3.09,5.98,3.09h1.04c4.07,0,7.38-3.31,7.38-7.38v-3.78s0-.03-.01-.05c0-.16-.03-.32-.09-.48h0s0-.02,0-.02l-3.54-8.63h8.86v51.6H8.9V13.58ZM35.75,73.05c.45-.69,1.23-1.14,2.12-1.14h20.3c.88,0,1.66.45,2.12,1.14h-24.54ZM86.76,73.05h-23.47c-.62-2.26-2.67-3.94-5.12-3.94h-20.3c-2.45,0-4.51,1.68-5.12,3.94H9.27c-3.09,0-5.68-2.18-6.33-5.08h90.14c-.64,2.9-3.23,5.08-6.33,5.08Z"/>
      <path class="cls-1" d="M76.11,35.17c-.77,0-1.4.62-1.4,1.4v17.17h-13.68v-11.88c0-2.14-1.74-3.88-3.88-3.88h-18.29c-2.14,0-3.88,1.74-3.88,3.88v11.88h-13.68v-17.17c0-.77-.62-1.4-1.4-1.4s-1.4.62-1.4,1.4v18.56c0,.77.62,1.4,1.4,1.4h56.2c.77,0,1.4-.62,1.4-1.4v-18.56c0-.77-.62-1.4-1.4-1.4ZM49.41,53.73v-7.89c0-.77-.62-1.4-1.4-1.4s-1.4.62-1.4,1.4v7.89h-8.83v-11.88c0-.6.49-1.08,1.08-1.08h7.75v1.37c0,.77.62,1.4,1.4,1.4s1.4-.62,1.4-1.4v-1.37h7.75c.6,0,1.08.49,1.08,1.08v11.88h-8.83Z"/>
    </g>
  </g>
</svg>