<?xml version="1.0" encoding="UTF-8"?>
<svg id="Capa_2" data-name="Capa 2" xmlns="http://www.w3.org/2000/svg" viewBox="0 0 94.26 81.4">
  <defs>
    <style>
      .cls-1 {
        fill: #1f1f1f;
        stroke-width: 0px;
      }
    </style>
  </defs>
  <g id="Capa_1-2" data-name="Capa 1">
    <polygon class="cls-1" points="87.86 15.05 87.86 15.05 93.22 28.13 78.34 28.13 72.12 2.85 71.42 0 81.69 0 87.86 15.05"/>
    <path class="cls-1" d="M74.56,35.97c0,3.83-3.11,6.94-6.94,6.94h-1.58c-3.83,0-6.94-3.11-6.94-6.94v-3.61h15.47v3.61Z"/>
    <path class="cls-1" d="M35.16,35.97c0,3.83-3.11,6.94-6.94,6.94h-1.58c-3.83,0-6.94-3.11-6.94-6.94v-3.61h15.47v3.61Z"/>
    <path class="cls-1" d="M15.47,35.97c0,3.83-3.11,6.94-6.94,6.94h-1.58c-3.83,0-6.94-3.11-6.94-6.94v-3.61h15.47v3.61Z"/>
    <polygon class="cls-1" points="27.2 0 37.63 0 35.37 27.67 35.33 28.13 20.28 28.13 20.98 25.28 27.2 0"/>
    <polygon class="cls-1" points="41.88 0 52.38 0 52.41 .45 54.68 28.13 39.58 28.13 41.84 .45 41.88 0"/>
    <polygon class="cls-1" points="67.06 0 73.28 25.28 73.98 28.13 58.93 28.13 58.89 27.67 56.62 0 67.06 0"/>
    <path class="cls-1" d="M39.4,32.36h15.47v3.61c0,3.83-3.11,6.94-6.94,6.94h-1.58c-3.83,0-6.94-3.11-6.94-6.94v-3.61Z"/>
    <path class="cls-1" d="M78.79,32.36h15.47v3.61c0,3.83-3.11,6.94-6.94,6.94h-1.58c-3.83,0-6.94-3.11-6.94-6.94v-3.61Z"/>
    <path class="cls-1" d="M12.57,0h10.27l-.7,2.85-6.22,25.28H1.04l5.18-12.65c.21-.28.35-.61.4-.98L12.57,0Z"/>
    <path class="cls-1" d="M89.69,49.05c-1.17,0-2.12.95-2.12,2.12v26.01h-20.73v-17.99c0-3.24-2.63-5.87-5.87-5.87h-27.71c-3.24,0-5.87,2.63-5.87,5.87v17.99H6.68v-26.01c0-1.17-.95-2.12-2.12-2.12s-2.12.95-2.12,2.12v28.12c0,1.17.95,2.12,2.12,2.12h85.13c1.17,0,2.12-.95,2.12-2.12v-28.12c0-1.17-.95-2.12-2.12-2.12ZM49.24,77.17v-11.95c0-1.17-.95-2.12-2.12-2.12s-2.12.95-2.12,2.12v11.95h-13.38v-17.99c0-.9.74-1.64,1.64-1.64h11.74v2.08c0,1.17.95,2.12,2.12,2.12s2.12-.95,2.12-2.12v-2.08h11.74c.9,0,1.64.74,1.64,1.64v17.99h-13.38Z"/>
  </g>
</svg>