<?xml version="1.0" encoding="UTF-8"?>
<svg id="Capa_2" data-name="Capa 2" xmlns="http://www.w3.org/2000/svg" viewBox="0 0 82.93 82.93">
  <defs>
    <style>
      .cls-1 {
        fill: #1f1f1f;
        stroke-width: 0px;
      }

      .cls-2 {
        fill: none;
        stroke: #1f1f1f;
        stroke-miterlimit: 10;
        stroke-width: 4.22px;
      }
    </style>
  </defs>
  <g id="Capa_1-2" data-name="Capa 1">
    <path class="cls-1" d="M28.85,13.93c-3.44,3.44-5.33,8.01-5.33,12.86,0,10.03,8.17,18.19,18.19,18.19h0c4.85,0,9.42-1.9,12.86-5.34,3.44-3.44,5.33-8.01,5.33-12.86,0-10.03-8.17-18.19-18.19-18.19-4.85,0-9.42,1.9-12.86,5.34ZM55.1,26.78c0,3.57-1.39,6.92-3.92,9.46-2.53,2.53-5.89,3.93-9.45,3.93h0c-7.37,0-13.38-6-13.38-13.37,0-3.57,1.4-6.93,3.93-9.46,2.53-2.53,5.89-3.93,9.46-3.93,7.37,0,13.38,6,13.38,13.37Z"/>
    <path class="cls-1" d="M21.08,72.83h41.28c1.3,0,2.36-1.04,2.41-2.34.02-.65.42-16.01-9.25-24.86-.86-.79-2.17-.85-3.09-.13-.11.08-10.79,8.11-20.72.02-.91-.74-2.21-.72-3.1.05-.4.34-9.7,8.61-9.93,24.82-.01.65.24,1.27.69,1.72.45.46,1.07.72,1.71.72ZM30.45,50.57c8.68,5.77,18.01,3.03,23.13-.05,4.89,5.54,6.04,13.57,6.3,17.49H23.6c.74-9.18,4.73-14.96,6.85-17.44Z"/>
    <rect class="cls-2" x="2.11" y="2.11" width="78.72" height="78.72" rx="2.24" ry="2.24" transform="translate(82.93 82.93) rotate(180)"/>
  </g>
</svg>