<?xml version="1.0" encoding="UTF-8"?>
<svg id="Capa_2" data-name="Capa 2" xmlns="http://www.w3.org/2000/svg" viewBox="0 0 74.24 92.81">
  <defs>
    <style>
      .cls-1 {
        fill: #1f1f1f;
        fill-rule: evenodd;
        stroke-width: 0px;
      }
    </style>
  </defs>
  <g id="Capa_1-2" data-name="Capa 1">
    <g id="Street_View" data-name="Street View">
      <path class="cls-1" d="M52.24,67.89c-1.04-.16-1.96.55-2.11,1.57-.15,1.01.55,1.96,1.57,2.11,12.36,1.82,18.83,5.53,18.83,8.25,0,3.88-12.71,9.28-33.41,9.28S3.71,83.69,3.71,79.81c0-2.73,6.47-6.44,18.83-8.25,1.01-.15,1.72-1.09,1.57-2.11-.15-1.02-1.1-1.73-2.11-1.57-13.78,2.02-22,6.48-22,11.93,0,8.44,19.13,12.99,37.12,12.99s37.12-4.55,37.12-12.99c0-5.44-8.23-9.9-22-11.93ZM23.76,59.4h2.23v21.04c0,2.73,2.22,4.95,4.95,4.95h12.37c2.73,0,4.95-2.22,4.95-4.95v-21.04h2.23c2.87,0,5.2-2.33,5.2-5.2v-18.19c0-1.98-.89-11.88-18.51-11.88s-18.61,10.66-18.61,11.88v18.19c0,2.87,2.33,5.2,5.2,5.2ZM22.27,36.01c0-1.36.72-8.17,14.9-8.17s14.8,6.8,14.8,8.17v18.19c0,.82-.67,1.48-1.48,1.48h-2.23v-14.85c0-1.03-.83-1.86-1.86-1.86s-1.86.83-1.86,1.86v39.6c0,.68-.55,1.24-1.24,1.24h-12.37c-.68,0-1.24-.55-1.24-1.24v-39.6c0-1.03-.83-1.86-1.86-1.86s-1.86.83-1.86,1.86v14.85h-2.23c-.82,0-1.48-.67-1.48-1.48v-18.19ZM37.12,22.27c6.14,0,11.14-5,11.14-11.14S43.26,0,37.12,0s-11.14,5-11.14,11.14,5,11.14,11.14,11.14ZM37.12,3.71c4.09,0,7.42,3.33,7.42,7.42s-3.33,7.42-7.42,7.42-7.42-3.33-7.42-7.42,3.33-7.42,7.42-7.42Z"/>
    </g>
  </g>
</svg>