<?xml version="1.0" encoding="UTF-8"?>
<svg id="Capa_2" data-name="Capa 2" xmlns="http://www.w3.org/2000/svg" viewBox="0 0 73.49 91.87">
  <defs>
    <style>
      .cls-1 {
        fill: #1f1f1f;
        fill-rule: evenodd;
        stroke-width: 0px;
      }
    </style>
  </defs>
  <g id="Capa_1-2" data-name="Capa 1">
    <g id="Coffee_To_Go" data-name="Coffee To Go">
      <path class="cls-1" d="M64.31,7.35h-.26l-.42-2.71C63.1,2.04,60.49,0,57.69,0H15.8C13,0,10.39,2.04,9.85,4.72l-.41,2.63h-.26C3.52,7.35,0,12.98,0,22.05,0,23.06.82,23.89,1.84,23.89h2.11l9.09,64.11c.35,2.17,2.49,3.87,4.88,3.87h37.67c2.38,0,4.53-1.7,4.89-3.91l9.09-64.07h2.1c1.02,0,1.84-.82,1.84-1.84,0-9.07-3.52-14.7-9.19-14.7ZM13.47,5.36c.18-.9,1.27-1.69,2.33-1.69h41.89c1.06,0,2.15.79,2.32,1.61l.32,2.07H13.17l.3-1.98ZM56.83,87.41c-.05.32-.6.79-1.25.79H17.91c-.65,0-1.2-.47-1.25-.75l-3.54-24.97h6.93c2.98,7.86,9.42,12.86,16.69,12.86s13.71-5,16.7-12.86h6.93l-3.54,24.94ZM60.89,58.79h-8.75c-.8,0-1.51.52-1.75,1.28-2.25,7.04-7.61,11.58-13.64,11.58s-11.39-4.55-13.64-11.58c-.24-.76-.95-1.28-1.75-1.28h-8.75l-1.56-11.02h10.32c.8,0,1.51-.52,1.75-1.28,2.25-7.04,7.61-11.58,13.64-11.58s11.39,4.55,13.64,11.58c.24.76.95,1.28,1.75,1.28h10.31l-1.56,11.02ZM62.97,44.1h-9.53c-2.98-7.86-9.42-12.86-16.7-12.86s-13.71,5-16.69,12.86h-9.53l-2.87-20.21h58.18l-2.87,20.21ZM3.74,20.21c.23-3.29,1.24-9.19,5.44-9.19h1.84c.12,0,.23-.01.35-.03.11.02.23.03.35.03h49.96c.14,0,.27-.01.39-.04.13.03.26.04.39.04h1.84c4.2,0,5.21,5.9,5.44,9.19H3.74ZM36.75,42.25c-5.07,0-9.19,4.95-9.19,11.03s4.12,11.03,9.19,11.03,9.19-4.95,9.19-11.03-4.12-11.03-9.19-11.03ZM36.75,60.63c-3.04,0-5.51-3.3-5.51-7.35s2.47-7.35,5.51-7.35,5.51,3.3,5.51,7.35-2.47,7.35-5.51,7.35Z"/>
    </g>
  </g>
</svg>