<?xml version="1.0" encoding="UTF-8"?>
<svg id="Capa_2" data-name="Capa 2" xmlns="http://www.w3.org/2000/svg" viewBox="0 0 97.31 92.57">
  <defs>
    <style>
      .cls-1 {
        fill: #1f1f1f;
        stroke-width: 0px;
      }
    </style>
  </defs>
  <g id="Capa_1-2" data-name="Capa 1">
    <path class="cls-1" d="M.08,76.13c.18.54.67.92,1.24.97l12.59,1.02.39,11.68c.02.55.36,1.05.87,1.26.18.08.37.11.55.11.35,0,.69-.13.96-.37l23.43-21.13,1.13,3.08c.55,1.5,1.66,2.4,2.97,2.4.97,0,1.93-.51,2.69-1.44l4.16-5.09c.35-.42.85-.67,1.38-.67.31,0,.77.08,1.2.47l4.87,4.42c.76.69,1.61,1.06,2.45,1.06.57,0,1.2-.18,1.75-.61l16.95,18.79c.28.3.66.47,1.06.47.14,0,.29-.02.43-.07.54-.17.92-.64.99-1.19l1.34-11.43,12.55-1.16c.54-.05,1-.4,1.2-.9.2-.5.09-1.07-.27-1.47l-20.83-23.1s.04-.1.07-.15c.24-.42.65-.72,1.14-.83l6.4-1.49c1.36-.32,2.32-1.12,2.65-2.21s-.04-2.29-1.01-3.3l-4.56-4.74c-.35-.36-.53-.83-.5-1.32.02-.49.24-.94.63-1.26l4.98-4.3c1.05-.91,1.53-2.07,1.31-3.19-.22-1.11-1.11-2.01-2.43-2.45l-6.24-2.09c-.48-.16-.86-.49-1.06-.93-.21-.44-.22-.94-.03-1.41l2.4-6.12c.48-1.22.41-2.37-.18-3.25-.68-1-1.87-1.47-3.42-1.22l-6.49,1.05c-1.04.17-1.94-.54-2.06-1.57l-.71-6.54c-.23-2.15-1.67-3.12-3-3.12-.75,0-1.54.29-2.27.84l-5.26,3.95c-.81.61-1.99.41-2.56-.43l-3.67-5.46c-.74-1.09-1.73-1.69-2.8-1.69-1.22,0-2.29.78-2.92,2.12l-2.83,5.94c-.43.91-1.56,1.29-2.46.8l-5.78-3.13c-1.48-.8-3.03-.65-3.98.33-.44.46-.95,1.3-.9,2.7l.26,6.57c.02.5-.15.96-.49,1.31-.33.35-.8.54-1.31.54l-6.65-.08c-1.37,0-2.47.56-3.03,1.53-.56.98-.49,2.22.2,3.42l3.29,5.7c.25.44.31.93.17,1.4-.14.47-.46.85-.91,1.08l-5.86,2.98c-1.24.63-1.98,1.65-2.04,2.78-.05,1.13.59,2.21,1.77,2.95l5.56,3.52c.42.27.71.68.8,1.16.09.48-.01.97-.3,1.38l-3.81,5.37c-.8,1.14-.99,2.38-.51,3.41.48,1.03,1.55,1.68,2.94,1.79l2.65.22L.47,74.62c-.42.38-.58.98-.39,1.52ZM76.54,64.82c.09-.09.17-.19.25-.3.24-.17.46-.36.65-.6.61-.81.75-1.92.41-3.12l-.59-2.04,15.66,17.37-10.87,1.01c-.67.06-1.2.59-1.28,1.25l-1.1,9.45-15.59-17.29,1.21-5.92c.05-.22.13-.41.24-.59.38-.2.83-.26,1.26-.15l6.36,1.65h0c1.36.35,2.6.08,3.4-.74ZM18.9,52.81c-.44-.03-.62-.16-.64-.19v-.06h0c.01-.1.07-.29.26-.56l3.8-5.37c.19-.26.34-.54.47-.82.38-.85.48-1.79.3-2.72-.24-1.24-.97-2.29-2.05-2.97l-5.56-3.52c-.18-.12-.3-.22-.37-.3,0,0,0,0,0,0-.07-.08-.1-.14-.1-.15,0-.04.12-.23.51-.42l3.01-1.53,2.85-1.45c1.14-.58,1.96-1.57,2.32-2.77.34-1.15.21-2.37-.36-3.44-.03-.05-.05-.1-.08-.15l-3.28-5.7c-.17-.29-.2-.48-.21-.57,0-.03,0-.05,0-.06,0,0,.03-.02.06-.04.08-.04.27-.1.59-.1l1.69.02,4.94.06c1.27,0,2.44-.5,3.31-1.4.43-.45.76-.97.98-1.54.02-.05.03-.11.04-.17.18-.52.27-1.08.24-1.65l-.26-6.57c-.02-.44.09-.63.17-.66.07,0,.27.02.58.19l4.75,2.57,1.04.56c.07.04.14.07.21.1.62.3,1.3.46,1.98.46,1.19,0,2.28-.46,3.11-1.24.41-.39.76-.85,1.01-1.38l2.82-5.94c.05-.12.11-.2.16-.27.09-.13.16-.2.21-.23.01-.01.03-.02.04-.02,0,0,.06.02.11.05.02.02.05.04.08.07.08.07.18.17.29.34l2.49,3.7,1.19,1.76c.28.42.64.79,1.03,1.09.79.6,1.75.95,2.76.95.3,0,.59-.04.87-.09.68-.13,1.32-.41,1.88-.83l2.15-1.61,3.11-2.33c.29-.22.47-.26.55-.27.02,0,.04,0,.05,0,.03.02.16.2.21.63l.71,6.54c.11.97.5,1.83,1.1,2.52.22.26.47.48.75.68.95.69,2.15,1.03,3.43.82l6.49-1.05c.36-.06.64.02.66.03,0,0,0,.03.01.05.02.09.01.29-.11.61l-2.41,6.12c-.06.15-.11.29-.15.44h0s-.01.07-.02.11c-.22.84-.2,1.71.07,2.53.06.18.12.36.2.53.1.21.23.41.36.6.56.84,1.37,1.47,2.35,1.8l4.65,1.56,1.58.53c.28.09.43.2.5.26.04.03.07.06.07.07,0,.03-.04.13-.15.27-.06.08-.14.16-.25.26l-3.12,2.7-1.86,1.6c-.96.84-1.53,1.99-1.59,3.25-.06,1.26.4,2.46,1.28,3.39l4.56,4.74c.3.32.35.53.35.56h0s-.02.02-.03.03c0,0,0,0,0,.01h0c-.07.06-.24.17-.56.24l-6.4,1.5c-1.24.29-2.28,1.05-2.92,2.14-.14.24-.26.49-.35.75,0,0,0,.02,0,.03-.09.26-.16.53-.2.8h0c-.59.96-.86,1.73-.59,2.64l1.83,6.31h0s-6.27-1.63-6.27-1.63c-.26-.07-.52-.1-.78-.12-.14-.01-.26-.03-.4-.03h0c-.25,0-.48.02-.71.06-.05,0-.1.01-.15.02-.2.04-.4.09-.59.16-.08.03-.16.06-.24.09-.12.05-.24.1-.36.16-.15.08-.3.16-.44.26-.05.03-.1.06-.14.1-.22.16-.43.33-.62.53h0c-.99.68-1.67,1.69-1.92,2.88l-1.13,5.54c-.06.3-.02.6.1.87h0s-.1-.05-.16-.09c-.01,0-.02-.01-.03-.02-.07-.05-.14-.1-.23-.18l-4.87-4.42c-.36-.33-.77-.58-1.2-.77-.59-.27-1.22-.42-1.88-.42-.79,0-1.55.21-2.22.59-.23.13-.45.28-.65.45-.24.19-.46.41-.66.66l-4.16,5.09c-.06.07-.11.12-.16.17-.06.06-.12.11-.17.14,0,0-.01,0-.01.01,0,0,0,0-.01,0-.08.05-.14.08-.16.08h0s-.03-.02-.05-.04t0,0c-.07-.07-.19-.22-.3-.52l-1.52-4.15c.38-.39.52-.97.33-1.49l-.11-.28c-.44-1.21-1.32-2.15-2.49-2.66-.39-.17-.81-.28-1.22-.34h0c-.23-.08-.47-.15-.73-.19,0,0-.01,0-.02,0-.26-.05-.52-.07-.78-.07-.31,0-.62.03-.92.09h0c-.3.06-.6.16-.89.28h0s-5.81,2.47-5.81,2.47c0-.05,0-.11.01-.17l.88-6.52h0c.17-1.28-.18-2.53-.97-3.51-.74-.92-1.79-1.48-2.96-1.64h0c-.16-.06-.32-.11-.48-.15-.23-.06-.47-.11-.71-.13l-2.21-.18-4.34-.35ZM24.68,56.63l1.44-.18c.13.09.26.2.36.33.31.38.44.86.37,1.36l-.87,6.52c-.15,1.14.1,2.17.73,2.87.44.51,1.04.82,1.72.92.86.45,1.95.45,3.07-.03l6.05-2.57c.23-.1.47-.15.7-.15.32.2.59.5.73.89l.07.2-22.01,19.84-.33-9.89c-.02-.72-.59-1.32-1.31-1.37l-10.56-.86,19.84-17.89Z"/>
    <path class="cls-1" d="M75.95,37.58c0-5.92-2.07-11.69-5.82-16.26-4.89-5.95-12.11-9.37-19.81-9.37s-14.92,3.42-19.81,9.37c-3.75,4.57-5.82,10.34-5.82,16.26,0,14.13,11.5,25.63,25.63,25.63s25.63-11.5,25.63-25.63ZM73.31,37.58c0,1.17-.09,2.33-.26,3.46-3.77,2.6-7.62,4.46-11.52,5.59.26-1.11.46-2.23.57-3.39.51-5.23-.54-10.31-2.19-14.79,3.01-.78,6.12-2.06,9.27-4,2.67,3.84,4.13,8.43,4.13,13.14ZM60.79,43.11c-.13,1.34-.37,2.64-.71,3.91-6.33,1.52-12.8,1.12-19.35-1.24-.17-.06-.32-.13-.49-.19-.17-.81-.29-1.64-.37-2.48-.52-5.31.7-10.54,2.49-15.08,2.86.83,6.13,1.42,9.69,1.42,2.09,0,4.28-.2,6.54-.68,1.63,4.37,2.7,9.32,2.21,14.34ZM68.09,23c.1.12.2.25.3.38-3.05,1.87-6.05,3.09-8.96,3.82-2.25-5.61-5.33-10.12-7.13-12.51,6.15.53,11.82,3.48,15.79,8.31ZM50.32,14.6c.08,0,.15,0,.23,0,1.5,1.91,5.02,6.73,7.54,12.91-5.7,1.17-10.95.51-15.23-.71,2.49-5.83,5.8-10.36,7.24-12.2.08,0,.15,0,.23,0ZM48.34,14.69c-1.72,2.27-4.58,6.47-6.8,11.71-3.96-1.3-6.96-3.01-8.48-3.99,3.93-4.47,9.38-7.22,15.28-7.72ZM27.34,37.58c0-5.12,1.73-10.12,4.88-14.15,1.55,1,4.66,2.82,8.83,4.19-1.82,4.67-3.04,10.06-2.5,15.61.06.6.14,1.19.24,1.78-5.68-2.39-9.76-5.64-11.44-7.11,0-.11,0-.21,0-.32ZM27.44,39.73c2.21,1.81,6.26,4.71,11.66,6.85,1.21,5.16,4.02,9.79,8.41,13.82-10.65-1.3-19.08-9.92-20.08-20.66ZM50.32,60.57c-.2,0-.4,0-.61-.02-4.67-3.88-7.72-8.38-9.11-13.42,3.32,1.16,7.33,2.06,11.84,2.06,2.28,0,4.69-.24,7.2-.78-1.53,4.52-4.44,8.59-8.72,12.14-.2,0-.4.02-.61.02ZM53.13,60.39c3.97-3.64,6.64-7.77,8.02-12.33,3.68-.96,7.56-2.61,11.54-5.18-2.19,9.24-9.97,16.34-19.56,17.52Z"/>
  </g>
</svg>