<?xml version="1.0" encoding="UTF-8"?>
<svg id="Capa_2" data-name="Capa 2" xmlns="http://www.w3.org/2000/svg" viewBox="0 0 103.83 89.92">
  <defs>
    <style>
      .cls-1 {
        fill: none;
        stroke: #1f1f1f;
        stroke-miterlimit: 10;
        stroke-width: 4.22px;
      }
    </style>
  </defs>
  <g id="Capa_1-2" data-name="Capa 1">
    <g>
      <polygon class="cls-1" points="51.91 4.22 76.04 46.01 100.18 87.81 51.91 87.81 3.65 87.81 27.78 46.01 51.91 4.22"/>
      <path class="cls-1" d="M41.76,38.28h29.46v29.46c0,5.05-4.1,9.15-9.15,9.15h-29.46v-29.46c0-5.05,4.1-9.15,9.15-9.15Z" transform="translate(55.93 -19.84) rotate(45)"/>
      <path class="cls-1" d="M65.92,52.38c.6,1.62.93,3.38.93,5.21,0,8.25-6.69,14.94-14.94,14.94s-14.94-6.69-14.94-14.94c0-1.81.32-3.55.91-5.16"/>
      <path class="cls-1" d="M24.61,57.59s25.5-15.61,54.61,0"/>
      <path class="cls-1" d="M58.59,57.59c0,3.69-2.99,6.68-6.68,6.68s-6.68-2.99-6.68-6.68,2.99-6.68,6.68-6.68,6.68,2.99,6.68,6.68Z"/>
      <line class="cls-1" x1="51.91" y1="4.22" x2="51.91" y2="41.93"/>
      <line class="cls-1" x1="100.18" y1="87.81" x2="70.39" y2="66.32"/>
      <line class="cls-1" x1="3.65" y1="87.81" x2="33.44" y2="66.32"/>
    </g>
  </g>
</svg>