<?xml version="1.0" encoding="UTF-8"?>
<svg id="Capa_2" data-name="Capa 2" xmlns="http://www.w3.org/2000/svg" viewBox="0 0 91.05 87.95">
  <defs>
    <style>
      .cls-1 {
        fill: #1f1f1f;
      }

      .cls-1, .cls-2 {
        stroke-width: 0px;
      }

      .cls-2 {
        fill: #272626;
      }
    </style>
  </defs>
  <g id="Capa_1-2" data-name="Capa 1">
    <path class="cls-1" d="M40.42,74.03c.27,2.67,1.47,5.19,3.38,7.09.23.23.55.36.86.36.13,0,.25-.02.37-.06.43-.14.76-.51.84-.96.31-1.79,1.86-3.09,3.66-3.09h6.11c1.55,0,2.91.94,3.47,2.39.16.41.53.7.96.77.43.06.87-.11,1.14-.45,1.9-2.39,2.78-5.39,2.48-8.45-.55-5.51-4.94-9.9-10.44-10.44-.41-.04-.82-.06-1.2-.06-3.29,0-6.45,1.4-8.67,3.85-2.24,2.48-3.29,5.69-2.96,9.04ZM52.05,75.61c-2.44,0-4.43-1.99-4.43-4.43s1.99-4.43,4.43-4.43,4.43,1.99,4.43,4.43-1.99,4.43-4.43,4.43ZM45.2,66.63c1.75-1.93,4.25-3.04,6.85-3.04.3,0,.62.02.96.05,4.35.43,7.81,3.89,8.24,8.24.18,1.81-.16,3.58-.97,5.15-.97-1.11-2.31-1.84-3.8-2.04.88-1.02,1.42-2.35,1.42-3.81,0-3.22-2.62-5.84-5.84-5.84s-5.84,2.62-5.84,5.84c0,1.55.61,2.95,1.6,4-1.47.43-2.72,1.38-3.52,2.67-.79-1.22-1.28-2.61-1.43-4.07-.26-2.66.57-5.2,2.35-7.16Z"/>
    <path class="cls-1" d="M9.91,50.76c.35.35.88.45,1.33.26.46-.19.75-.64.75-1.13v-1.08c0-3.78,2.83-6.95,6.58-7.37.01,0,.03,0,.04,0,.29-.03.55-.05.79-.05h10.65c4.09,0,7.42,3.33,7.42,7.42v1.08c0,.49.3.94.75,1.13.15.06.31.09.47.09.31,0,.63-.12.86-.35,4.05-4.01,6.28-9.33,6.28-15.01,0-11.64-9.47-21.11-21.11-21.11S3.62,24.12,3.62,35.76c0,5.67,2.23,11,6.29,15.01ZM25.86,38.95h-2.26c-3.95-.55-7-3.94-7-8.04,0-4.49,3.65-8.13,8.13-8.13s8.13,3.65,8.13,8.13c0,4.1-3.05,7.49-7,8.04ZM24.73,17.1c10.29,0,18.66,8.37,18.66,18.66,0,4.05-1.29,7.9-3.67,11.09-.85-4.2-4.38-7.44-8.72-7.85,2.42-1.88,3.98-4.8,3.98-8.09,0-5.66-4.6-10.26-10.26-10.26s-10.25,4.6-10.25,10.26c0,3.29,1.57,6.22,3.99,8.09-.03,0-.07,0-.1,0-.05,0-.1,0-.15.02-4.29.52-7.65,3.73-8.48,7.83-2.38-3.2-3.67-7.05-3.67-11.09,0-10.29,8.37-18.66,18.66-18.66Z"/>
    <path class="cls-1" d="M71.81,35.06c8.72,0,15.81-7.09,15.81-15.82s-7.09-15.82-15.81-15.82-15.81,7.09-15.81,15.82,7.09,15.82,15.81,15.82ZM71.81,5.88c7.37,0,13.37,6,13.37,13.37s-6,13.37-13.37,13.37-13.37-6-13.37-13.37,6-13.37,13.37-13.37Z"/>
    <path class="cls-1" d="M0,35.76c0,13.64,11.09,24.74,24.73,24.74,3.67,0,7.32-.84,10.64-2.42l4.84,5.38c-2.46,3.09-3.59,6.92-3.19,10.92.71,7.13,6.39,12.81,13.51,13.51.5.05,1.02.08,1.53.08,4.26,0,8.35-1.81,11.21-4.97,2.9-3.2,4.26-7.35,3.83-11.68-.71-7.12-6.39-12.8-13.51-13.51-3.06-.3-6.19.36-8.89,1.86l-4.31-4.79c5.71-4.69,9.08-11.73,9.08-19.1,0-1.94-.24-3.89-.71-5.82l5.87-2.07c3.26,6.49,9.89,10.62,17.19,10.62,10.61,0,19.24-8.63,19.24-19.24S82.42,0,71.81,0s-19.24,8.63-19.24,19.24c0,1,.08,2.02.25,3.03l-6.13,2.17c-4.24-8.18-12.74-13.41-21.96-13.41C11.09,11.03,0,22.12,0,35.76ZM24.73,13.47c8.65,0,16.59,5.1,20.23,13,.26.57.92.85,1.52.64l8.15-2.88c.58-.2.92-.81.79-1.41-.26-1.2-.39-2.4-.39-3.57,0-9.26,7.53-16.8,16.79-16.8s16.79,7.54,16.79,16.8-7.53,16.79-16.79,16.79c-6.71,0-12.77-4-15.43-10.18-.25-.59-.93-.88-1.53-.67l-7.98,2.82c-.61.22-.95.88-.76,1.5.6,2.06.91,4.16.91,6.25,0,7.04-3.42,13.75-9.14,17.96-.28.2-.46.52-.5.86-.03.34.08.69.31.94l5.86,6.52c.4.45,1.07.54,1.58.21,2.44-1.59,5.36-2.3,8.22-2.02,5.97.59,10.72,5.35,11.32,11.32.36,3.63-.78,7.11-3.22,9.79-2.4,2.65-5.82,4.16-9.39,4.16-.44,0-.87-.02-1.29-.06-5.96-.59-10.72-5.35-11.31-11.31-.36-3.63.78-7.11,3.17-9.75.03-.03.11-.11.14-.14.41-.47.4-1.16-.01-1.62l-6.18-6.88c-.24-.26-.57-.41-.91-.41-.19,0-.39.05-.57.14-3.23,1.71-6.72,2.57-10.36,2.57-12.29,0-22.28-10-22.28-22.29S12.44,13.47,24.73,13.47Z"/>
    <path class="cls-2" d="M80.96,20.65c.55-.6.98-1.32,1.24-2.1.21-.63.32-1.29.32-1.96,0-1.54-.57-3-1.6-4.1-1.04-1.11-2.44-1.73-3.92-1.73-2.04,0-3.92,1.2-4.87,3.1-.96-1.89-2.83-3.1-4.87-3.1-1.48,0-2.87.61-3.92,1.73-1.03,1.1-1.6,2.56-1.6,4.1,0,.66.1,1.3.31,1.92.22.68.56,1.3,1.01,1.86.19.23.4.45.59.63l7.88,8.35c.16.17.38.26.61.26s.45-.1.61-.26l8.16-8.65s.03-.03.04-.05ZM80.61,18.01c-.19.57-.51,1.1-.91,1.53h0s-.02.03-.03.04l-7.53,7.97-7.29-7.72-.06-.06c-.15-.14-.3-.3-.43-.46-.32-.4-.56-.85-.72-1.33-.15-.44-.22-.91-.22-1.39,0-1.12.41-2.17,1.15-2.95.73-.77,1.68-1.2,2.7-1.2,1.49,0,2.86.95,3.49,2.43.24.56.78.93,1.38.93s1.14-.36,1.38-.93c.63-1.47,2-2.43,3.49-2.43,1.01,0,1.97.43,2.7,1.2.74.79,1.15,1.84,1.15,2.95,0,.49-.08.97-.23,1.42Z"/>
  </g>
</svg>