<?xml version="1.0" encoding="UTF-8"?>
<svg id="Capa_2" data-name="Capa 2" xmlns="http://www.w3.org/2000/svg" viewBox="0 0 226.9 260.13">
  <defs>
    <style>
      .cls-1 {
        fill: #e84290;
        stroke-width: 0px;
      }

      .cls-2 {
        opacity: .89;
      }
    </style>
  </defs>
  <g id="Capa_4" data-name="Capa 4">
    <g class="cls-2">
      <path class="cls-1" d="M129.37,70.12c.38-3.99,4.32-3.26,5.39-5.97-2.44,0-4.71.1-6.98-.02-3.6-.2-5.1-1.98-4.77-5.52.34-3.69,2.23-6.43,5.35-8.34,1.26-.77,2.75-1.22,4.01-.36,1.37.93,1.4,2.48,1.2,4.1-.22,1.79-1.15,2.42-2.8,2.42-.24,0-.49.28-1.06.63,2.14,0,3.92-.06,5.7.01,5.34.22,7.76,3.49,5.85,8.5-1.55,4.06-4.77,7.09-9.04,7.64-2.28.29-3.76,1-5.65,2.09-4.06,2.34-8.69,2.57-13.17.87-1.64-.62-2.19-.3-2.25,1.35-.07,2.24-1.55,3.33-3.41,4.17-6.17,2.79-13.03,1.57-17.97-3.39-.36,1.1.12,1.98.22,2.89.23,2.17.37,4.19-1.2,6.25-1.34,1.76-.58,4.23-.02,6.31.33,1.2,1.33.44,1.98.07,1.84-1.06,3.63-2.2,5.46-3.26,1.46-.85,2.95-1.61,4.08.51.99,1.86.34,5.3-1.31,5.83-1.87.59-3.41,1.77-5.16,2.48-2.67,1.08-3.35,2.62-2.4,5.36,1.21,3.51,1.26,7.36,3.02,10.74.54,1.03.25,2.16.12,3.27-.15,1.33-.48,2.33-2.07,2.47-1.57.14-2.22-.77-2.53-2.04-1.09-4.4-2.1-8.82-3.23-13.21-.17-.65.31-2.2-1.36-1.65-.97.32-1.19.98-1.05,2.12.52,4.19,1.11,8.34,2.27,12.44.65,2.3.04,4.79-.33,7.18-.2,1.28-1.27,1.77-2.37,2.07-2.17.6-4.38.79-6.58.16-1.39-.39-2.43-.96-3.18,1.18-.56,1.62-3.17,1.02-3.96-.82-.63-1.48-1.09-3.04-1.79-4.48-.75-1.54-1.57-1.21-2.35.1-1.08,1.83-.87,3.92-1.26,5.88-.25,1.28-.45,2.36-2.05,2.51-1.5.14-2.27-.69-2.72-1.91-1.03-2.74-2.22-5.45-2.94-8.27-.8-3.17-3.39-5.49-3.84-8.78-.02-.17-.24-.44-.35-.44-1.88.11-3.36,1.28-5.05,1.92-1.17.45-.85,1.48-.69,2.35.66,3.47,1.33,6.94,2.06,10.4.32,1.5.45,2.97.3,4.51-.13,1.44-.82,2.23-2.24,2.36-1.51.15-1.87-.91-2.1-2.06-.86-4.35-1.79-8.69-2.54-13.06-.31-1.84-.97-2.09-2.53-1.23-1.85,1.02-3.8,1.87-5.71,2.8-1.6.78-3.28,2.1-4.84.19-1.14-1.4.07-5.12,1.9-6.06,2.6-1.34,5.25-2.6,7.93-3.77,1.27-.55,2.16-1.08,2.51-2.64.43-1.91,1.56-3.37,3.52-1.2.96,1.07,1.77.52,2.69.12,1.95-.84,3.87-1.73,5.85-2.47,1.64-.61,2.96,0,3.1,1.77.36,4.69,3.78,8.15,4.51,12.64,1.48-.29,1.67-1.45,2.3-2.16,1.31-1.47,2.97-2.54,4.8-1.66,2.11,1.01,2.33-.13,2.72-1.6.18-.68.41-1.41.84-1.93,1.36-1.66,2.18-3.34,1.93-5.66-.19-1.71.83-3.29,2.38-4.32,1.09-.73,2.1-1.63,3.27-2.18,3.34-1.56,5.44-3.51,3.84-7.65-.62-1.6.35-3.35.94-5.26-2.95.1-5.81.63-8.57-.62-3.23-1.47-2.97-4.48-3.38-7.43-2.11,1.3-4.04,2.53-6,3.69-1.15.68-.84,1.7-.77,2.69.16,2.11.87,4.15.54,6.31-.22,1.44-.61,2.5-2.38,2.48-1.68-.02-2-1.15-2.16-2.39-.74-5.91-1.86-11.76-3.06-17.59-.16-.78-.12-1.61-.79-2.22-2.72-2.53-2.99-5.12-.42-7.41,3.44-3.07,7.56-4.72,12.25-4.07,4.83.67,6.47,2.86,7.2,9.04,2.32-1.66,4.63-3.06,4.38-6.49-.08-1.18.39-2.89,1.96-3.06,1.78-.19,2.22,1.46,2.65,2.8.73,2.3,1.38,4.63,2.08,6.99,1.35-.28.78-1.46,1.04-2.18,1.31-3.67,2.86-7.18,6.42-9.23,1.37-.79,2.95-1.71,4.22.23,1.11,1.71.54,4.68-1.18,5.53-2.29,1.14-3.83,2.87-4.93,5.13-.9,1.85-.45,3.27,1.05,4.55,3.12,2.67,9.54,2.72,12.82.23,1.43-1.08.61-1.85,0-2.74-2.9-4.24-3.46-8.74-1.54-13.52,1.33-3.3,3.9-4.99,7.27-4.83,3.57.17,6.11,2.09,6.9,5.7.73,3.35.55,6.65-2.17,9.28-.39.37-1.17.69-.79,1.41.31.6,1.04.52,1.64.55,2.26.09,4.61-.11,6.34-1.56,1.85-1.55,2.95-1.34,4.18,1.51ZM67.44,67.62c-1.47.59-4.41-.5-4.4,2.44,0,2.04-.11,5.15,1.75,5.97,1.77.78,3.66-1.53,5.15-2.97,1.02-.99,2.7-1.93,1.92-3.69-.75-1.7-2.56-1.7-4.42-1.75ZM81.35,80.68c1.03-.52,3.06.67,3.37-1.34.31-1.96.17-4.7-1.23-5.62-1.65-1.08-2.98,1.24-4.1,2.61-.06.08-.13.16-.18.24-.66.98-1.89,1.94-1.31,3.15.59,1.23,2.13.81,3.45.96ZM80.22,121.79c.71-.23,1.77.4,1.85-.97.09-1.47-2.78-4.98-4.22-5.05-1.78-.08-2.89,1.19-2.66,2.58.42,2.65,2.89,2.97,5.03,3.44ZM110.49,64.73c1.36.04,5.17-2.13,5.03-2.78-.32-1.43-1.58-1.86-2.78-1.87-1.64-.01-2.99.69-3.13,2.58-.06.86-.07,1.85.88,2.07Z"/>
      <path class="cls-1" d="M52.63,216.42c-.75,10.28-5.25,19.7-14.14,26.73-2.36,1.87-3.94,3.78-4.37,6.76-.17,1.2-.3,2.7-2.21,2.73-1.53.02-2.84-.13-3.31-1.89-.35-1.3-1.18-1.03-2.13-.7-2.57.89-5.18,1.7-7.75,2.57-1.38.47-2.83.9-4.04-.09-1.3-1.06-.78-2.57-.5-3.96.64-3.28,2.8-4.76,5.88-5.75,6.3-2.01,6.49-.44,3.9-7.86-3.33-9.53-6.96-18.95-10.34-28.46-.61-1.72-1.25-1.65-2.56-.84-1.89,1.17-3.9,2.17-5.43,3.82-1.29,1.41-2.88,1.6-4.41.89-1.84-.85-1.12-2.56-.81-4.01.46-2.13,1.39-4.03,3.13-5.4,9.62-7.59,20.5-10.41,32.42-7.52,10.73,2.6,16.73,10.93,16.68,22.97ZM27.29,201.63c-.61,0-1.21-.02-1.82,0-5.26.16-5.65.79-3.86,5.76,3.38,9.39,7.23,18.61,10.04,28.2.46,1.58.86,2.23,2.56.99,4.06-2.97,7.51-6.47,9.89-10.89,1.58-2.94,2.7-6.09,2.14-9.56-1.48-9.22-8.4-14.52-18.94-14.5Z"/>
      <path class="cls-1" d="M90.8,211.35c2.62-3.13,4.98-6.02,7.43-8.82.91-1.03.28-1.88,0-2.8-1.28-4.17-.89-8.19,1.12-12.04,3.46-6.63,11.66-6.97,15.72-.66,2.77,4.31,2.44,8.77.71,13.35-.33.87-1.39,1.9-.5,2.76.82.79,2.16.54,3.2.22,1.53-.47,3.01-1.15,4.48-1.79,2-.87,3.26-.48,3.78,1.82.64,2.85-.87,6.35-3.53,7.53-6.93,3.11-13.29,1.69-18.93-2.96-2.31-1.91-2.82-1.28-3.29,1.19-.51,2.62-2.78,4.16-4.29,6.14-1.65,2.16-1.83,3.9-.15,6.2,5.03,6.88,10.87,13.01,16.78,19.1,1.94,2,2.67,4.11,1.8,6.85-1.01,3.17-3.42,4.04-5.78,1.62-8.19-8.37-16.39-16.75-21.92-27.29-2.89-5.51-5.44-11.06-5.13-17.48.18-3.7,1.08-7.19,3.09-10.32.81-1.26,1.83-2.77,3.62-1.93,1.56.73,1.63,2.46,1.54,3.96-.06.98-.32,2.05-.81,2.9-2.47,4.28-.74,8.15,1.05,12.45ZM106.65,191.71c-1.21.26-2.48.41-2.6,2.01-.1,1.33,2.59,5.26,3.45,4.91,1.32-.53,3.23-1.13,3.06-2.84-.21-2.11-1.79-3.5-3.91-4.08Z"/>
      <path class="cls-1" d="M196.82,162.95c-5.84-.17-11.1-1.57-13.77-7.45-2.49-5.5-1.2-10.66,2.14-15.4.98-1.38,2.24-3.01,4.21-2.1,1.86.86,1.66,2.84,1.39,4.54-.19,1.18-.35,2.65-1.11,3.4-2.69,2.67-.82,4.39,1.09,5.93,3.9,3.14,11.9,2.64,15.53-.73,1.5-1.4,1.96-2.18-.11-3.8-7.73-6.09-9.04-16.13-3.48-23.72,2.44-3.34,5.69-4.38,9.58-3.63,3.7.71,5.61,3.25,6.5,6.77,1.05,4.16-.14,7.97-1.65,11.76-.41,1.04-2.1,1.91-1.13,3.07.75.9,2.29.37,3.49.29,1.03-.07,1.98-.43,2.8-1.05.97-.72,1.94-1.75,3.21-.83,1.25.91,1.48,2.38,1.31,3.81-.52,4.57-2.29,6.33-6.84,7.09-2.53.42-5.03.37-7.49-.35-1.06-.31-1.65-.45-1.53,1.12.46,5.83-1,8-6.44,9.99-2.49.91-5.04,1.44-7.73,1.3ZM209.2,128.9c-1.91.2-3.61,1.11-3.51,3.26.11,2.24,1.41,4.15,3.2,5.6.24.2,3.94-5.16,3.88-5.76-.22-2.05-1.46-2.98-3.56-3.09Z"/>
      <path class="cls-1" d="M212.06,174.79c.29,2.17-1.44,3.4-3.25,4.63-10.17,6.95-20.39,13.84-30.48,20.91-18.37,12.86-36.55,25.99-54.56,39.35-.16.12-.33.24-.5.34-1.7.92-3.46,2.74-5.26.4-1.2-1.57.34-5.52,2.29-6.44,3.41-1.61,6.21-4.12,9.23-6.3,23.23-16.82,46.29-33.88,70.22-49.73,2.76-1.83,4.61-4.8,7.76-6.15,1.11-.48,2.2-1.39,3.38-.64,1.1.7,1.26,1.99,1.16,3.65Z"/>
      <path class="cls-1" d="M44.37,44.29c-.74,2-1.22,3.77-2.02,5.38-2.36,4.72-7.69,5.04-10.6.69-2.37-3.53-3.17-7.63-3.91-11.68-.96-5.25-1.62-10.56-2.36-15.85-.22-1.6-.35-3.22.2-4.8.44-1.29.47-3.22,2.24-3.14,1.78.08,1.75,1.97,1.91,3.33.36,3.1.57,6.23.93,9.33.51,4.41,1.33,8.77,2.47,13.06.41,1.56.96,3.09,1.9,4.43,1.47,2.08,2.84,1.99,4.01-.32.89-1.74,1.21-3.68,1.28-5.57.16-4.13.45-8.26-.33-12.38-.4-2.11-.27-4.24.51-6.27.33-.86.81-1.72,1.9-1.69,1.1.03,1.61.9,1.76,1.8.41,2.48.63,4.99,1.02,7.48.79,5.02,2.26,9.83,4.56,14.37.53,1.05,1.04,2.43,2.51,2.28,1.41-.15,1.75-1.55,2.16-2.67,2.23-5.99,1.38-12.17.93-18.28-.28-3.71-.64-7.45-2.1-10.95-.08-.18-.12-.39-.12-.59,0-1.88-.51-4.37,1.83-4.88,2.33-.51,2.84,1.96,3.2,3.64,2.3,10.63,3.43,21.32.98,32.1-.47,2.08-1.21,4.09-2.39,5.86-2.6,3.89-7.11,3.94-9.75.09-.96-1.4-1.7-2.96-2.72-4.78Z"/>
      <path class="cls-1" d="M155.87,104.16c.39,2.07.78,4.14,1.17,6.22,1.05,5.61-.14,6.63-3.14,8.92-2.54,1.94-7.93,1.5-10.64-.46-.65-.47-1.22-1.04-1.95-1.66-.37,1.52-1.05,2.71-2.81,2.56-1.9-.17-1.96-1.76-2.28-3.1-.63-2.64-1.22-5.28-1.95-8.49-1.71,2.52-2,5.02-2.87,7.27-.4,1.03-.74,2.09-1.2,3.1-.54,1.19-1.65,1.36-2.81,1.37-1.36,0-1.94-.95-2.37-2-.78-1.93-1.29-4-2.88-5.86-1.71,2.23-2.3,4.57-2.31,7.11,0,2.72,0,5.45,0,8.17,0,1.55-.71,2.51-2.32,2.57-1.58.06-2.18-1.11-2.22-2.36-.18-5.33-.37-10.67-.28-16,.04-2.29,4.79-6.58,7-6.81,1.7-.18,2.92.59,3.79,1.97.68,1.08,1.33,2.19,2.14,3.53,1.05-2.6,1.88-4.93,2.92-7.17.69-1.48,1.73-2.74,3.68-2.66,2.01.09,2.78,1.59,3.29,3.1.9,2.65,1.56,5.38,2.41,8.4.78-5.7,2.62-10.29,8.34-12.15,1.33-.43.85-1.66,1.06-2.57.3-1.27.44-2.91,2-3.03,1.88-.14,2.03,1.52,2.25,2.97.09.55.5,1.05.77,1.58-.08,1.93.39,3.75,1.19,5.49ZM149.35,113.8c.93-.66,3.14.14,2.69-2.18-.37-1.89.18-4.52-2.64-5.06-1.54-.29-4.84,3.11-4.49,4.6.52,2.17,2.58,2.16,4.44,2.64Z"/>
      <path class="cls-1" d="M74.76,221.79c1.47-1.68,2.91-3.35,4.37-5,.79-.89,1.75-1.42,2.95-.97,1.14.43,1.27,1.57,1.34,2.53.21,2.96-.68,5.62-2.85,7.66-1.67,1.57-1.39,2.69.03,4.28,5.87,6.54,11.59,13.2,17.42,19.77,1.99,2.24,2.65,4.59,1.54,7.49-1,2.63-3.47,3.55-5.22,1.37-8.03-9.99-17.7-18.62-24.76-29.39-5.51-8.4-3-21.2,5.03-27.32,2.37-1.8,4.44-1.04,4.61,1.9.14,2.39-.19,4.64-2.35,6.46-4.63,3.91-5.13,7.05-2.12,11.22Z"/>
      <path class="cls-1" d="M162.37,179.35c.68-1.48-.47-2.46-1.06-3.53-1.43-2.55-2.99-5.03-4.48-7.55-1.67-2.83-1.71-5.71-.26-8.66.81-1.64,1.9-2.73,3.8-1.89,1.08.47,1.36-.04,1.83-.79,3.71-5.79,8.06-6.48,13.42-2.07,2.33,1.92,4.49,4.05,6.78,6.03,1.37,1.18,2.82,2.27,4.26,3.37,2.08,1.58,2.55,5.84.53,7.94-1.71,1.79-3.86.99-5.47-.3-3.23-2.57-6.27-5.38-9.39-8.1-.38-.33-.73-.71-1.14-.99-1.06-.72-2.21-1.93-3.49-1.19-1.33.76-.83,2.4-.57,3.61.58,2.76,1.39,5.47,2.13,8.19.39,1.45.63,2.81.47,4.41-.51,4.8-3.91,5-6.78,2.07l.04.05c0-.44-.04-.83-.65-.65l.05.04Z"/>
      <path class="cls-1" d="M162.94,179.91c-.02.6-.08,1.19-.05,1.79.3,4.88-1.24,7.15-5.82,8.55-7.02,2.14-14.2-.15-18.02-5.75-3.72-5.45-3.27-14.73.97-19.91,3.11-3.81,7.95-3.62,10.69.51,2.78,4.21,2.65,8.72,1.14,13.35-1.14,3.49-.71,3.97,2.95,3.21,1.16-.24,2.39-.63,3.34-1.31,1.34-.96,2.7-1.25,4.25-1,0,0-.05-.04-.05-.04.01.42.17.7.65.65l-.04-.05ZM142.62,173.49c.4,1.45.27,3.43,1.93,3.77,1.18.24,2.02-1.21,2-2.49-.03-1.54-.59-3.2-2.19-3.53-1.29-.27-1.59,1.18-1.74,2.25Z"/>
      <path class="cls-1" d="M35.09,75.75c4.01-.44,7.71-.9,11.43-.64,5.43.38,9.04,3.17,9.33,7.76.29,4.78-1.25,9.08-5.44,11.81-3.89,2.53-8.19,3.21-12.76,1.93-2.7-.76-2.64-2.56-2.17-4.75.49-2.27,1.78-2.65,3.79-2.05,3.66,1.1,7.04.42,9.92-2.08,2.64-2.29,2.24-4.19-1.11-5.14-3.67-1.03-7.44-.57-11.13-.07-6.61.91-8.89-1.72-6.88-8.15,1.49-4.77,4.34-8.42,8.95-10.49,1.25-.56,2.74-1.15,4.05-.17,1.41,1.06,1.13,2.66,1.05,4.19-.08,1.53-.99,1.96-2.32,2.28-2.95.72-5.26,2.32-6.7,5.55Z"/>
      <path class="cls-1" d="M186.08,209.5c.36,2.02-1.6,3.31-3.38,4.63-9.91,7.32-19.88,14.56-29.75,21.93-4.53,3.38-8.9,6.98-13.34,10.48-.63.5-1.25,1.03-1.91,1.49-1.55,1.06-3.15,2.68-5.01.79-1.18-1.2-.07-5.03,1.52-6.27,14.08-11.02,28.61-21.41,43.02-31.98,1.56-1.15,2.92-2.47,4.22-3.89.84-.91,1.86-1.75,3.18-1.24,1.52.59,1.39,2.05,1.46,4.06Z"/>
      <path class="cls-1" d="M97.55,30.78c-.23,10.14,9.32,13.35,17.55,9.98.46-.19.9-.46,1.34-.7,1.43-.76,3.28-2.58,4.38-.62,1.03,1.83.79,4.71-1.27,6.07-5.33,3.53-11.19,4.38-17.35,2.3-5.58-1.88-8.12-6.27-8.79-11.67-1.08-8.6.65-16.67,5.74-23.87,1.7-2.41,3.91-4.13,6.76-4.82,2.3-.56,4.45-.35,5.57,2.27,1.36,3.19.27,4.97-3.13,4.66-2.03-.18-3.51.56-4.89,1.87-3.39,3.22-5.93,9.42-5.92,14.52Z"/>
      <path class="cls-1" d="M49.48,173.91c-.16-5.54,3.58-11.67,10.24-12.09,1.07-.07,1.37-.53,1.33-1.51-.03-.7.02-1.42.19-2.1.27-1.07.53-2.29,1.9-2.42,1.21-.11,1.71.91,2.18,1.8,2.24,4.29,4.06,8.76,5.76,13.29.81,2.17,2,4.2,1.31,6.64-.24.86-.33,1.87-1.39,2.16-3.95,1.1-7.66,3.05-11.91,3.11-6.38.09-9.72-2.92-9.63-8.88ZM59.59,175.78c3.01-.04,6.54-1.08,6.36-1.94-.52-2.49-2.62-3.66-4.68-4.73-2.34-1.21-4.08.09-5.67,1.57-.87.8-2.05,1.8-1.35,3.07,1.05,1.91,3.08,2.04,5.05,2.03.1,0,.2,0,.3,0Z"/>
      <path class="cls-1" d="M174.61,92.55c.04-1.56.58-4.11,2.08-6.36,1.99-2.99,5.23-4.09,8.46-2.94,2.95,1.05,5.11,4.45,4.85,7.66-.27,3.33-1.16,6.35-4.11,8.38-.45.31-1.2.6-.9,1.35.27.68,1.03.52,1.6.59,2.51.29,4.76-.32,6.87-1.74,1.94-1.3,3.26-.63,3.4,1.71.14,2.35-.52,4.22-2.93,5.42-9.63,4.8-19.44-1.73-19.31-14.07ZM179.2,93.26c.26.77-.36,2.01,1.14,1.99,1.14,0,4.95-3.03,4.75-3.81-.32-1.26-1.52-1.71-2.57-1.68-2.15.05-3.12,1.49-3.32,3.5Z"/>
      <path class="cls-1" d="M193.31,4.92c.23,1.74-.69,2.74-2.77,3.18-2.24.47-5.14.19-6.49,1.94-1.27,1.65.11,4.25.14,6.45.11,8.25.09,16.53,2.13,24.62.09.38.12.82.01,1.19-.39,1.33.08,3.26-2.2,3.33-2,.06-2.13-1.58-2.45-2.89-1.06-4.22-1.4-8.54-1.64-12.86-.3-5.53-.17-11.08-.74-16.6-.18-1.77-.67-2.38-2.4-1.75-.75.27-1.57.38-2.36.52-1.77.31-3.76,1.03-4.28-1.72-.53-2.79.85-4.53,3.49-5.12,5.2-1.16,10.35-2.56,15.54-3.8,3.21-.77,4.14,0,4.01,3.52Z"/>
      <path class="cls-1" d="M130.94,171.53c-1.39,3.9-1.37,7.73.11,11.57,1.06,2.76,2.28,5.36,4.41,7.5,2.48,2.48,3.37,5.38,2.13,8.86-.87,2.45-3.7,3.48-5.25,1.37-3.63-4.96-8.26-8.8-12.86-12.74-1.91-1.63-1.54-3.84-.74-5.9.67-1.72,1.08-3.89,3.68-3.65,1.32.12,1.15-.8,1.28-1.55.41-2.4.88-4.77,2.1-6.92.71-1.25,1.5-2.61,3.24-2.08,1.7.52,1.4,2.25,1.9,3.54Z"/>
      <path class="cls-1" d="M196.98,34.51c2.51.85,4.52.62,6.54-.26,1.44-.63,2.98-2.35,4.38.02,1.07,1.81.04,4.97-1.87,6.03-8.12,4.52-17.23-.18-18.16-9.44-.39-3.91.27-7.68,2.66-10.93,1.66-2.25,3.89-3.57,6.81-3.01,2.81.54,4.22,2.58,5.05,5.1,1.53,4.63-.04,8.35-5.41,12.49ZM195.74,23.73c-1.82.47-2.93,1.69-3.39,3.43-.29,1.09.67,1.12,1.32.97,1.74-.38,3.72-.76,4.18-2.76.22-.95-1.02-1.55-2.1-1.64Z"/>
      <path class="cls-1" d="M143.31,38.86c2.22.66,3.95.66,5.57.18,1.69-.5,3.41-1.07,3.77,1.27.3,1.97.74,4.48-2.16,5.18-7.75,1.85-15.88.02-17.03-10-.45-3.89.38-7.66,2.46-11.01,2.72-4.38,8.57-4.16,11.17.34,2.39,4.14,1.51,9.4-2.11,12.62-.44.39-.89.77-1.66,1.44ZM138.76,33.62c1.15-.61,2.34-1.14,3.42-1.85.68-.45,1.76-.97,1.06-2.11-.56-.9-1.49-1.34-2.57-1.27-1.47.1-3.45,3.38-2.87,4.72.18.41.44.64.97.52Z"/>
      <path class="cls-1" d="M154.01,33.9c0-5.26,3.44-10.34,8.29-12.32,1.8-.74,3.7-.93,5.34-2.47,1.51-1.43,2.52.52,2.73,1.9.47,3.18.69,6.39.99,9.59.15,1.65-.21,3.43,2.01,4.2.8.28.93,1.46,1.03,2.39.3,2.67-1.84,4.31-2.82,6.4-.43.91-2.42.91-3.05-.43-.81-1.71-2.11-1.55-3.51-1.52-1.81.04-3.61,0-5.39-.51-3.68-1.04-5.62-3.49-5.63-7.23ZM163.89,34.96c1.4-.22,3.57.49,2.97-1.82-.46-1.77,1.25-4.62-1.87-5.25-1.89-.38-6.39,3.29-5.96,4.73.72,2.46,3.22,1.77,4.86,2.34Z"/>
      <path class="cls-1" d="M155.57,98.68c.2-.68.36-1.37.6-2.03.34-.91.89-1.61,1.98-1.55.94.06,1.39.71,1.68,1.52.38,1.02.75,2.05,1.29,3.51,1.97-2.24,2.86-4.67,4.13-6.86.77-1.31,1.27-3.56,3.3-2.74,1.85.75,1.49,2.79,1.16,4.55-.46,2.46-1.86,4.46-3,6.58-.75,1.4-.49,2.01.96,2.29,1.78.35,3.56.7,5.34.99,2.32.38,3.16,1.64,2.95,4.02-.23,2.65-1.76,3.16-3.92,2.87-2.08-.28-4.15-.68-6.5-1.08.07,1.6.93,2.94.52,4.47-.32,1.22-.36,2.36-1.95,2.6-1.72.26-2.34-.79-2.84-2.09-1.49-3.86-2.97-7.72-4.46-11.58-.34-1.84-1.38-3.53-1.24-5.48Z"/>
      <path class="cls-1" d="M73.4,42.35c1.49,0,2.28.05,3.06-.01,1.74-.14,3.67-.05,4.31,1.69.62,1.69-1.89,4.6-3.82,5.01-7.42,1.58-13.24-3.06-13.4-10.67-.08-3.72.66-7.22,2.79-10.32,1.95-2.84,4.85-4.08,7.53-3.1,3.08,1.13,3.6,3.77,3.64,6.63.06,3.87-1.37,7.24-4.11,10.78ZM68.14,36.82c.25.85-.15,2.16,1.08,2.49,1.03.28,1.45-.87,2.04-1.51.33-.37.61-.8.88-1.21.78-1.18,1.54-2.4,1-3.9-.28-.77-.97-1-1.72-.84-1.68.36-2.37,1.73-2.95,3.13-.22.54-.21,1.17-.32,1.84Z"/>
      <path class="cls-1" d="M64.86,237.6c-1.41.21-2.31-.64-2.9-1.95-1.5-3.3-3.04-6.56-5.07-9.59-1.22-1.82-.3-6.07,1.28-7.63,1.33-1.31,2.58-.97,3.61.31,3.02,3.74,5.05,8.03,6.35,12.59.93,3.25-.83,6.27-3.27,6.26Z"/>
      <path class="cls-1" d="M123.1,31.93c.51-1.72-.09-4,2.79-3.95,1.21.02,1.29-1.16,1.59-1.94.65-1.71,1.48-3.32,2.5-4.83.46-.68,1.01-1.32,1.95-1.17,1.11.18,1.43,1.15,1.57,2.01.29,1.83-.13,3.61-1.02,5.23-2.21,4-3.2,8.16-2.49,12.8.3,1.95,1.26,5.01-1.87,5.51-3.25.52-2.52-2.78-3.03-4.55-.87-3-1.35-6.1-1.98-9.1Z"/>
      <path class="cls-1" d="M222.86,96.22c-.15.85-.36,1.73-.47,2.63-.15,1.26-.9,1.67-2.07,1.7-1.27.04-1.9-.62-2-1.78-.35-4.18-1.72-7.98-3.73-11.67-.95-1.74-.53-4.13,1.32-5.08,2.02-1.04,3.08.93,3.73,2.52,1.53,3.73,2.86,7.54,3.22,11.68Z"/>
      <path class="cls-1" d="M214.47,103.57c-.34,1.83.05,3.49-2.09,3.65-1.88.14-2.45-1.06-2.79-2.53-.93-4.02-1.87-8.03-2.72-12.07-.16-.75-.03-1.62.17-2.38.32-1.21.35-2.87,2.09-2.89,1.58-.02,1.75,1.52,2.03,2.63,1.19,4.67,2.28,9.37,3.3,13.59Z"/>
      <path class="cls-1" d="M63.55,206.97c.1,5.07-2.53,8.55-6.18,8.57-2.68.01-3.74-1.08-3.44-3.7.38-3.28,2.26-5.76,4.52-7.96.92-.89,2.18-1.14,3.37-.5,1.57.84,1.52,2.47,1.73,3.6Z"/>
      <path class="cls-1" d="M20.74,14.19c-.14,1.19-.24,1.99-.33,2.79-.12,1.07-.74,1.57-1.79,1.68-1.06.11-1.78-.29-2.04-1.33-1.06-4.4-2.05-8.82-2.48-13.33-.08-.85.32-1.77.63-2.62.28-.78.81-1.44,1.77-1.37.79.06,1.21.64,1.51,1.32.79,1.77.92,3.68,1.23,5.57.43,2.57,1.04,5.11,1.5,7.3Z"/>
      <path class="cls-1" d="M5.41,7.68c-.04-2.44-.13-4.25.56-5.99C6.32.82,6.69-.02,7.82,0c1.13.03,1.53.91,1.77,1.79.24.86.36,1.77.37,2.66.02,2.62.07,5.23.93,7.75.19.56.37,1.25.2,1.77-.47,1.46.32,3.77-2.28,3.95-2.52.18-2.07-2.04-2.49-3.41-.74-2.41-.99-4.92-.91-6.83Z"/>
      <path class="cls-1" d="M93.64,171.61c-.04,2.86-2.26,5.34-4.64,5.26-1.76-.06-1.81-1.27-1.82-2.54-.01-3.07,2.22-6.31,4.27-6.19,1.33.08,2.22,1.49,2.19,3.47Z"/>
      <path class="cls-1" d="M103.41,167.37c-.2,3.27-1.87,5.19-4.08,5.01-2.12-.17-1.85-1.78-1.8-3.15.12-2.76,1.93-5.27,3.74-5.11,2.3.2,2.03,2.05,2.14,3.26Z"/>
      <path class="cls-1" d="M78.57,175.93c.28-1.69-.06-4.14,2.39-4.4,2.26-.24,2.49,1.93,2.49,3.63,0,1.86.12,4.05-2.7,4.09-2.23.02-2.05-1.72-2.18-3.32Z"/>
    </g>
  </g>
</svg>