<?xml version="1.0" encoding="UTF-8"?>
<svg id="Capa_2" data-name="Capa 2" xmlns="http://www.w3.org/2000/svg" viewBox="0 0 348.7 145.53">
  <defs>
    <style>
      .cls-1 {
        fill: #e84290;
        stroke-width: 0px;
      }

      .cls-2 {
        opacity: .89;
      }
    </style>
  </defs>
  <g id="Capa_4" data-name="Capa 4">
    <g class="cls-2">
      <path class="cls-1" d="M280.7,44.66c1.98,5.75,6.25,10.17,8.96,15.51,1.02,2,2.22.07,3.05-.55,6.39-4.74,12.65-9.64,19.06-14.35,8.37-6.15,16.86-12.13,25.26-18.25,1.82-1.33,3.94-2.35,4.89-4.71.86-2.14,2.84-2.85,5.02-2.94.85-.04,1.55.42,1.69,1.27.35,2.24-.6,4.14-2.27,5.43-3.85,2.99-7.8,5.85-11.81,8.62-13.3,9.19-26.07,19.1-39.05,28.71-2.11,1.56-2.94,2.88-1.85,5.73,2.92,7.6,4.35,15.55,4.15,23.75-.11,4.47-1.1,8.65-3.68,12.37-3.7,5.32-8.78,6.23-13.91,2.32-4.95-3.78-7.18-9.29-8.73-15.04-.53-1.97.37-4.11,2.49-4.62,2.01-.48,2.26,1.65,2.76,3.03,1.33,3.63,2.75,7.23,5.37,10.15,1.77,1.98,3.93,3.46,6.77,2.79,2.92-.69,3.46-3.25,3.79-5.68,1.27-9.3-.94-18.1-4.13-26.72-1.11-3-2.62-.47-3.43.16-6.79,5.26-13.41,10.73-20.16,16.05-22.56,17.78-44.7,36.12-68.11,52.8-2.08,1.48-4.33,2.75-6.6,3.94-1.84.97-4.37,2-5.44-.34-1.09-2.38.91-5.01,3.03-5.47,9.12-2.01,15.28-8.65,22.24-13.86,24.86-18.59,48.83-38.31,73.11-57.64.4-.32.82-.62,1.21-.95,1.76-1.53.48-2.92-.46-3.97-1.34-1.5-1.86.26-2.5,1.01-3.56,4.22-7.37,5.4-11.46,3.5-3.69-1.71-5.61-5.86-4.94-10.76.3-2.17.64-4.34,1.87-6.22,1.49-2.29,3.87-3.89,2.2-7.61-.86-1.91,2.04-4.42,4.24-5.33,2.14-.89,2.32,1.82,3.3,2.99,1.13,1.36,1.82,3.08,3.33,4.15l-.04-.05c.03.52.15.94.82.81l-.04-.03ZM269.79,55.52c.1.71.11,1.62.37,2.45.95,3.02,3.86,4.44,6.62,3.24,3.64-1.58.62-3.48.18-5.22-.18-.72-.64-1.38-.98-2.06-.84-1.7-1.46-3.59-4.08-2.91-2.5.65-1.81,2.67-2.12,4.5Z"/>
      <path class="cls-1" d="M11.99,59.52c3.25-4.58,6.53-8.31,10.84-11.03,4.43-2.79,8.86-3.31,11.48-1.13,2.65,2.22,2.81,6.35.19,11.38-2.8,5.37-6.88,9.56-12.32,12.31-2.48,1.26-5.32,1.94-7.83.92-3.51-1.42-4.28.23-5.2,3.05-3.7,11.23-4.96,22.57-1.16,33.95,3.69,11.05,12.69,15.85,24,13.01,14.01-3.52,23.52-13.06,31.55-24.38,2.83-3.98,6.25-7.51,7.12-12.79.53-3.21,3.04-5.87,5.68-8.05,3.21-2.64,6.21-2.4,8.45,1.14,3.66,5.78,4.53,12.47,5.41,19.07.27,2.06-1.02,4-3.13,4.21-2.18.22-2.33-2.02-2.64-3.61-.88-4.53-1.61-9.09-3.46-13.36-.5-1.14-.89-2.63-2.42-2.7-1.84-.09-2.07,1.64-2.64,2.87-1.1,2.36-1.79,4.89-1.37,7.46.29,1.75-.2,3.06-1.26,4.22-10.11,11.12-20.61,21.79-34,29.04-3.4,1.84-7.12,3-10.97,3.41-13.22,1.4-23.22-5.54-26.63-18.63-3.22-12.37-1.54-24.44,2.89-36.22,1.4-3.72,2.54-7.06,1.44-11.36-1.54-5.96.34-12.03,2.44-17.68,5.22-14.08,12.07-27.22,23.61-37.33C36.53,3.39,41.28-.12,47.68,0c1.94.04,3.56.72,4.14,2.78.59,2.07-.58,3.47-2.11,4.54-.57.4-1.77.76-2.11.47-5.22-4.42-8.84-.04-12.22,2.6-10.23,8.01-16.01,19.17-20.66,31-1.64,4.18-3.04,8.44-3.32,12.98-.09,1.51-.27,3.01.58,5.16ZM18.21,66.28c5.2-.06,10.43-4.39,12.14-9.59.51-1.56.81-3.01-.48-4.26-1.25-1.21-2.64-.52-3.94-.02-4.52,1.73-7.4,5.32-10.09,9.07-.7.97-2.11,2-1.37,3.3.82,1.42,2.56,1.48,3.73,1.5Z"/>
      <path class="cls-1" d="M208.36,53.13c-.04.9.04,1.82-.14,2.68-.28,1.34-1.17,2.37-2.5,2.65-1.48.31-2.33-.73-3-1.92-1.85-3.3-2.89-7.05-5.58-10.32-1.51,3.82-1.02,7.59-1.84,11.14-.27,1.16.48,1.57,1.38,1.94,13.01,5.3,16.61,18.6,13.93,29.66-2.49,10.27-6.94,19.63-15.64,26.25-4.11,3.13-8.77,4.92-14.06,3.34-3.92-1.17-5.09-3.56-3.67-7.39,1.84-4.97,5.31-8.44,10.22-10.34,5.41-2.09,8.96-.22,10.3,5.25,10.06-11.67,12.19-28,2.06-37.4-3.16-2.93-6.78-4.52-11.15-4.37-2.06.07-3.14.32-2.15,2.87,2.96,7.66,5.7,15.4,8.5,23.11.39,1.08.85,2.2.89,3.32.07,1.73-.46,3.59-2.28,4.02-1.87.45-2.51-1.25-3.07-2.77-3.14-8.55-6.38-17.07-9.46-25.64-.83-2.31-1.83-2.75-3.89-1.4-6.48,4.27-11.87,9.35-13.82,17.26-.38,1.54-.84,3.61-3.17,2.91-2.41-.72-1.43-2.74-1-4.21,1.32-4.49,3.45-8.69,6.64-12.03,2.4-2.53,2.94-4.84,1.71-7.9-.81-2.02-1.43-4.11-2.22-6.13-.22-.56-.73-1.3-1.4-1.04-.46.18-.87.91-.98,1.46-.54,2.65-.73,5.34-.42,8.04.15,1.28.24,2.58-.28,3.8-.61,1.45-1.45,3.03-3.15,2.96-1.84-.07-2.21-1.8-2.52-3.39-.59-3.01-1.22-6.03-2-9-.53-2.02-.13-3.95,1.62-4.66,2.47-.99,4.09-2.89,6.12-4.35,3.11-2.24,5.64-1.77,7.83,1.45,1.68,2.48,2.52,5.31,3.26,8.19.22.87.23,2.34,1.83,1.76,1.11-.41,1.97-1.08,1.62-2.61-.62-2.68-1.83-5.13-3.36-7.3-1.52-2.15-1.15-4.12.46-5.46,1.69-1.41,3.76-3.46,6.31-1.95,1.25.74,1.8.34,2.63-.29,2.3-1.76,4.67-2.15,6.97-.06,1.3,1.18,1.65.34,2.1-.73.35-.82.73-1.65,1.23-2.39,3.01-4.47,6.32-4.53,9.33-.15.94,1.37,1.77,2.82,2.65,4.23.11,1.05.36,2.02,1.56,2.34l-.04-.06c-.1.72-.17,1.43.81,1.61l-.04-.06c-.28,1.2.02,2.24.9,3.1ZM185.7,113.24c2.35-.03,6.43-1.59,8.19-2.94,1.31-1,1.23-1.42-.16-2.41-3.38-2.42-6.4-2.46-9.82.42-1.06.89-2.36,1.95-1.84,3.5.55,1.63,2.24,1.38,3.62,1.43ZM182.83,53.42c2.13.82-1.28,4.95,2.89,5.15,1.22.06,2.97-.03,2.35-1.99-.73-2.33-.42-5.51-3.34-6.4-1.45-.44-1.8,1.39-1.9,3.24Z"/>
      <path class="cls-1" d="M231.15.15c1.47.29,2.54,1.21,3.61,2.14,3.26,2.84,5.54,6.48,7.42,10.24,1.51,3.03,3.08,3.18,5.52,1.44.52-.37,1.14-.6,1.71-.88,1.03-.51,2.18-1.34,3.13-.17.95,1.17.41,2.42-.47,3.48-.33.39-.65.9-1.09,1.07-4.82,1.86-4.16,4.84-2.3,8.7,2.17,4.51,3.14,9.49,3.99,14.43.2,1.13.4,2.35.18,3.44-.38,1.91-1.2,4-3.46,3.95-2.04-.05-2.22-2-2.46-3.76-.83-6.13-2.71-11.97-5-17.71-1.08-2.72-2.41-2.85-4.45-1.2-.7.56-1.41,1.1-2.08,1.7-1.13,1.01-2.14.53-3.09-.24-1.09-.89-.62-1.92.04-2.71.81-.97,1.71-2.06,2.81-2.56,3.31-1.49,2.95-3.34,1.25-5.95-2.24-3.46-4.26-7.03-7.64-9.57-1.01-.76-2.3-1.52-1.53-3.1.78-1.6,2.14-2.51,3.92-2.73Z"/>
      <path class="cls-1" d="M279.97,43.93c-.14-2.91-.12-5.66,3.66-6.45,1.23-.26,1.25-1.83,1.85-2.78,2.45-3.82,5.7-4.76,9.51-2.46,5,3.01,6.93,8.09,8.34,13.35.46,1.72-.58,3.5-2.24,4.06-1.99.67-2.55-1.22-3.08-2.64-1.22-3.26-2.54-6.47-5.23-8.85-.98-.86-2.14-1.76-3.45-.95-1.41.88-.71,2.22-.32,3.45.84,2.61,2.38,4.81,3.9,7.04.72,1.06,1.57,2.1,1.98,3.28.67,1.94-.26,3.76-1.8,4.66-1.38.81-2.55-.49-3.4-1.73-1.96-2.87-4-5.67-6.53-8.07-.66-.62-1.12-1.89-2.46-1.19,0,0,.04.03.04.03.24-.79-.02-1.07-.82-.81l.04.05Z"/>
      <path class="cls-1" d="M228.22,83.97c3.4-.16,4.5-2.39,5.84-4.36.88-1.3,1.54-3.66,3.53-2.58,2.24,1.21.61,3.21-.16,4.7-1.87,3.59-4.57,6.54-8,8.67-4.21,2.6-8.27,1.11-9.89-3.4-2.17-6.07-.33-14.65,3.95-18.63,1.37-1.27,2.82-2.44,4.78-1.79,2.17.72,3.12,2.55,3.51,4.68.59,3.25,0,5.4-3.58,12.72ZM223.8,81.93c2.7-2.16,3.15-4.55,3.12-7.09,0-.84.02-1.99-1.13-2.1-1.02-.1-1.5.89-1.77,1.71-.72,2.21-.51,4.47-.23,7.47Z"/>
      <path class="cls-1" d="M206.12,46.18c-.11-3.33-.29-6.69,1.51-9.69,1.86-3.12,5.62-4.88,8.03-3.89,2.55,1.04,3.78,4.56,3.02,8.33-.4,1.94-1.16,3.73-2.55,5.07-2.56,2.48-.86,3.36,1.36,4.08,1.37.44,2.78.3,4.17-.08.89-.24,1.81-.42,2.4.54.64,1.04.14,1.97-.42,2.85-2.04,3.22-6.53,4.03-10.64,1.87-1.12-.59-2.13-1.4-3.19-2.11-.78-1.04-1.56-2.08-2.34-3.11,0,0,.04.06.04.06-.03-.66-.18-1.25-.81-1.61,0,0,.04.06.04.06,0-.84.05-1.7-.6-2.37ZM212.07,38.4c-.68,1.43-.85,2.72-.17,3.97.22.41,1.05.25,1.28-.22.67-1.36.45-2.59-1.1-3.76Z"/>
      <path class="cls-1" d="M137.93,68.54c.45-2.5.65-5.08,1.4-7.49,1.09-3.55,3-4.18,6.16-2.34.65.38,1.17.3,1.78.07,3.57-1.36,5.14,1.11,5.89,3.68,1.61,5.49.53,10.7-3.3,15.04-3.46,3.92-7.73,3.22-10.17-1.48-1.21-2.32-1.61-4.83-1.76-7.47ZM144.42,61.52c-.87,3.54-1.27,7.04.41,10.46.4.8.78,1.81,1.8,1.73,1.31-.1,1.25-1.35,1.47-2.32.94-4.01-.77-7.09-3.69-9.88ZM145.37,59.51c-.04.08-.13.18-.1.24.12.33.28.34.42,0,.02-.06-.04-.18-.1-.24-.04-.04-.14,0-.21-.01Z"/>
      <path class="cls-1" d="M102.42,86.86c.41-4.22.72-7.49,1.05-10.76.09-.89.16-1.79.4-2.64.61-2.2,1.74-4.59,4.2-4.17,2.31.39,1.34,3.04,1.19,4.64-.46,4.95-.45,10.01-2.13,14.77-2.4,6.78-5.79,7.42-10.38,2.08-2.28-2.66-3.98-5.62-5.09-8.95-.57-1.69-1.04-3.36.85-4.39,1.75-.96,2.47.71,3.35,1.72,2,2.31,3.96,4.65,6.55,7.7Z"/>
      <path class="cls-1" d="M247.22,71.21c-2.25-.04-4.15,1.27-6.27,1.68-3.84.76-6.12-1.27-5.45-5.05.64-3.61,2.15-6.84,4.98-9.33.88-.77,1.82-1.73,3-.75,1.04.87.77,2.06.24,3.18-.82,1.7-2.72,2.81-2.65,4.99-.26.28-.46.6-.02.85.11.06.39-.19.59-.29,2.22-.6,4.42-1.34,6.67-1.77,3.54-.68,5.77,1.12,5.2,4.57-.84,5.14-3.72,9.21-7.83,12.38-1.04.8-2.26.69-3.21-.15-1.22-1.07-.21-2.15.32-3.08,1.37-2.41,4.64-3.37,5.07-6.53.06-.27.13-.55.19-.82-.28.04-.55.07-.83.11Z"/>
      <path class="cls-1" d="M228.51,37.43c-.2,1.86-.21,3.76-.64,5.57-.36,1.52-1.49,3.01-3.09,3.04-1.77.04-2.35-1.6-2.73-3.21-1.07-4.56,2.76-10.88,7.36-12.24,2.15-.64,3.5.41,4.58,1.89,2.98,4.07,4.25,9,6.48,13.46.9,1.81-.52,3.63-2.12,4.48-1.96,1.06-3.09-.62-3.83-2.12-1.79-3.65-3.43-7.38-5.13-11.07-.29.06-.58.13-.87.19Z"/>
      <path class="cls-1" d="M133.92,67.07c-1.41,3.72-.83,7.56.11,11.49.58,2.42-.81,4.55-3.08,5-2.16.43-2.73-1.85-3.23-3.57-.72-2.45-1.24-4.97-2.13-7.36-1.07-2.87-.02-4.73,2.45-5.98,1.03-.52,2.08-.9,2.91-1.75.64-.66,1.43-1.18,2.36-.46.82.63.79,1.54.62,2.63Z"/>
      <path class="cls-1" d="M114.27,77.17c0-2-.18-3.68.05-5.31.26-1.87,1.75-2.98,3.46-3.1,2.15-.15,2.27,1.8,2.32,3.29.13,3.72.45,7.4,1.13,11.07.43,2.36-.7,4.27-2.98,4.6-2.25.32-2.88-1.83-3.19-3.62-.41-2.39-.56-4.82-.79-6.92Z"/>
      <path class="cls-1" d="M264.99,70.42c-.41,1.79-.79,3.46-2.41,3.95-1.7.52-2.44-.91-3.04-2.25-1.47-3.26-2.89-6.54-4.45-9.76-1.08-2.23-.27-3.94,1.18-5.56.81-.91,1.92-1.22,2.58-.11,2.61,4.4,4.56,9.1,6.14,13.73Z"/>
      <path class="cls-1" d="M117.96,61.3c-.51,2.06-1.33,4.41-3.97,4.63-1.88.15-3.62-1.4-3.15-3.4.56-2.44,2.57-4.17,5.11-4.46,1.83-.21,2.02,1.51,2.01,3.23Z"/>
      <path class="cls-1" d="M254.37,48.73c1.53.16,1.77,1.16,1.6,2.23-.29,1.82-.87,3.65-3.04,3.83-1.19.1-2.33-.73-2.12-2.16.31-2.08,1.6-3.41,3.56-3.9Z"/>
    </g>
  </g>
</svg>