<?xml version="1.0" encoding="UTF-8"?>
<svg id="Capa_2" data-name="Capa 2" xmlns="http://www.w3.org/2000/svg" viewBox="0 0 55.21 70.44">
  <defs>
    <style>
      .cls-1 {
        fill: #e84290;
        stroke-width: 0px;
      }

      .cls-2 {
        opacity: .89;
      }
    </style>
  </defs>
  <g id="Capa_4" data-name="Capa 4">
    <g class="cls-2">
      <path class="cls-1" d="M15.01,70.36c-2.85.24-5.54-.02-7.98-1.12-2.94-1.33-4.04-3.99-3.36-7.02.63-2.82,2.83-3.27,5.47-2.83,15.6,2.65,27.48-3.79,37.19-15.39.43-.51.7-1.16,1.17-1.61,1.72-1.68,2.55-6.07,5.7-3.91,3.09,2.11,2.15,6.07.32,9.07-6.21,10.18-14.91,17.34-26.42,20.83-3.97,1.2-8,2.35-12.09,1.99Z"/>
      <path class="cls-1" d="M0,13.11c.28-1.38.48-2.68.83-3.94.31-1.15.89-2.16,2.23-2.37,1.61-.25,2.67.76,3,2.03,1.29,4.92,2.61,9.85,3.43,14.86.33,2-.28,4.42-3.22,4.69-2.72.25-3.33-1.83-3.8-3.73-.95-3.83-1.67-7.71-2.48-11.55Z"/>
      <path class="cls-1" d="M31,14.55c-.17,3.16-.1,5.25-2.83,5.65-2.27.33-3.4-1-4.05-2.82-1.59-4.43-4.24-8.65-3.02-13.71.39-1.63.69-3.42,2.73-3.65,2.08-.23,2.83,1.4,3.29,3.04,1.2,4.25,3.64,8.12,3.88,11.49Z"/>
    </g>
  </g>
</svg>