<?xml version="1.0" encoding="UTF-8"?>
<svg id="Capa_2" data-name="Capa 2" xmlns="http://www.w3.org/2000/svg" viewBox="0 0 178.35 171.56">
  <defs>
    <style>
      .cls-1 {
        fill: #e84290;
        stroke-width: 0px;
      }

      .cls-2 {
        opacity: .89;
      }
    </style>
  </defs>
  <g id="Capa_4" data-name="Capa 4">
    <g class="cls-2">
      <path class="cls-1" d="M113.34,2.7c-.38,2.22-1.13,4.34-2.93,5.78-12.67,10.1-25.1,20.48-37.86,30.47-10.31,8.08-20.25,16.64-30.38,24.95-1.08.89-1.29,1.66-.57,2.92,10.88,18.85,19.98,38.65,30.72,57.58.43.76.98,1.4,1.58,2.03,2.5,2.68,2.46,7.03-.05,9.65-1.05,1.1-3.5.43-4.5-1.35-3.11-5.53-6.27-11.02-9.2-16.64-8.04-15.39-15.96-30.84-24.35-46.04-.88-1.6-1.38-1.64-2.74-.48-7.99,6.83-15.81,13.86-23.6,20.92-1.48,1.34-2.53,3.08-4.36,4.11-1.62.92-3.18.85-4.44-.15-1.23-.97-.39-2.39.13-3.57.65-1.48,1.7-2.64,2.91-3.71,8.82-7.74,17.61-15.53,26.46-23.24,1.08-.94,1.24-1.63.53-2.87-2.64-4.63-5.18-9.32-7.74-13.99-1.39-2.55-.36-6.12,2.12-7.74,1.21-.79,2.16-.32,2.82.58,2.46,3.37,4.9,6.76,7.18,10.26.58.9.56,2.21.74,3.34.1.64.17,1.27.46,1.87,1.09,2.2,1.32,2.29,3.19.7C60.88,39.72,83.43,22.7,105,4.47c1.54-1.3,2.92-2.79,4.67-3.83.83-.49,1.65-.92,2.63-.41,1.02.53,1.01,1.48,1.04,2.47Z"/>
      <path class="cls-1" d="M145.86,95.65c6.71-5.84,14.28-10.72,19.49-18.22,2.08-2.99,5.52-4.59,8.72-6.22,1.48-.76,2.71.12,2.84,1.81.24,3.14-1.2,5.58-3.47,7.53-7.05,6.05-14.1,12.11-21.25,18.05-8.54,7.1-16.58,14.74-24.91,22.06-16.01,14.07-31.28,29-47.94,42.33-.67.54-1.37,1.06-2.03,1.61-.44.36-.81.66-.59,1.43.79,2.66-1.51,5.68-4.41,5.53-2.21-.12-4.39-.74-6.57-1.19-1.2-.25-1.38-1.2-1.18-2.19.44-2.12,1.44-4.07,3.33-5.11,5.48-3.01,10.06-7.19,14.85-11.1,18.43-15.05,35.26-31.9,53.3-47.38.48-.41,1.09-.78,1.08-1.53-.04-3.11,1.73-5.6,2.89-8.28,1.71-3.94,2.91-8.01,3.18-12.27.27-4.3-.88-5.14-5.05-4.31-1.82.36-3.58,1.04-5.52.6-3.49-.78-5.25-2.93-4.81-6.48.31-2.49.71-5.02,1.5-7.4,1.29-3.89,2.83-7.72,5.35-11.03.6-.79,1.34-1.55,2.16-2.09,1.43-.95,2.62-.24,2.87,1.45.34,2.3-.95,4.02-1.98,5.79-1.73,2.96-2.95,6.07-3.51,9.46-.37,2.26.1,2.71,2.41,2.25,1.34-.27,2.68-.56,4.03-.75,5.15-.7,8.25,1.9,8.61,7.13.4,5.75-1.24,11.11-3,16.46-.2.61-.43,1.21-.65,1.82-.16.16-.31.34-.04.51.03.02.19-.17.29-.26Z"/>
      <path class="cls-1" d="M178.35,94.37c-.54,1.8-1.38,4.01-3.22,5.63-6.04,5.34-12.07,10.7-18.21,15.93-11.13,9.48-22.21,19.01-33.06,28.81-4.76,4.3-9.31,8.82-13.73,13.46-1.3,1.36-2.58,1.09-3.9.48-1.43-.67-.9-1.99-.59-3.05.5-1.69,1.58-3.03,2.8-4.3,10.88-11.37,22.88-21.5,34.73-31.8,8.64-7.51,17.35-14.95,25.99-22.46,1.02-.88,1.77-2.07,2.61-3.15.72-.93,1.58-1.67,2.58-2.27,2.57-1.54,3.92-.8,4,2.73Z"/>
      <path class="cls-1" d="M134.74,90.81c-.66,1.28-.92,3.26-2.44,4.08-1.53.82-3.25.06-4.58-1.07-3.3-2.82-5.22-6.67-7.48-10.24-5.68-9.01-10.44-18.57-16.41-27.41-2.78-4.11-5.71-8.12-8.49-12.24-1.79-2.66-.67-6.84,2.13-8.42.25-.14.52-.33.79-.34,2.58-.02,4.86,1.07,6.59,2.77,1.43,1.4,1.72,3.48.54,5.38-.44.72-.2,1.22.2,1.75,8.89,11.75,15.08,25.18,23.24,37.38,1.36,2.03,2.63,4.14,4.9,5.35,1.13.6.72,1.77,1.01,3.01Z"/>
      <path class="cls-1" d="M117.96,99.38c.07,3.3-1.06,7.01-2.96,10.59-2.31,4.34-5.83,4.31-9.34,1.78-2.27-1.64-3.59-4.1-4.87-6.52-1.76-3.31-3.26-6.74-4.08-10.42-.17-.78-.28-1.58-1.18-1.91-1.83-.68-2.08-2.17-2.04-3.86.11-4.73,2.11-8.67,5.41-11.87,3.57-3.47,8.63-2.69,12.25,1.62,4.13,4.91,6.8,12.69,6.82,20.6ZM111.72,101.33c-.01-4.1-1.05-7.98-2.72-11.67-1.04-2.3-2.45-4.42-4.51-5.97-.46-.35-1.37-1.25-1.68-.1-.3,1.14-.99,2.22-.77,3.53,1.02,6.15,3.35,11.73,7.09,16.72.47.62,1.08,1.43,1.88,1.25.99-.23.59-1.31.7-2.04.09-.56.02-1.15.02-1.72Z"/>
      <path class="cls-1" d="M101.19,115.01c.02,3.46-1.09,6.55-2.88,9.4-1.7,2.7-4.71,3.25-7.99,1.51-2.67-1.41-4.68-3.6-6.51-5.91-1.92-2.43-3.57-5.05-4.92-7.85-.71-1.48-1.39-2.92-2.61-4.16-1.6-1.62-.86-3.99-1.24-6.01-.63-3.35.31-6.43,2.43-9.11,1.76-2.23,4.58-2.08,6.07.36.39.64.6,1.21,1.54,1.19,3.9-.1,6.97,1.74,9.39,4.57,3.94,4.6,6.27,9.93,6.73,16.01ZM95.13,117.08c-1.5-5.18-3.32-10.54-8.41-13.96-.63-.43-1.44-.68-2.21-.8-1.23-.2-1.84.31-1.25,1.6.66,1.44,1.28,2.91,2.08,4.27,2.19,3.73,4.52,7.37,8.09,9.99.39.28.81.72,1.35.46.48-.23.24-.76.35-1.56Z"/>
      <path class="cls-1" d="M173.4,114.33c-.04,2.75-2.16,5.34-4.61,5.78-1.05.19-2.05-.07-2.8-.82-1.79-1.79-1.86-3.99-1.15-6.23.68-2.17,1.54-4.21,4.32-4.49,1.27-.13,2.09.15,2.58,1.35.61,1.51,1.84,2.8,1.67,4.4Z"/>
      <path class="cls-1" d="M160.84,121.58c.05,1.73-1.37,3.74-2.59,3.7-1.98-.05-1.85-1.7-1.97-2.98-.18-1.86,1.14-4.24,2.32-4.14,2.21.19,1.51,2.4,2.24,3.41Z"/>
    </g>
  </g>
</svg>