<?xml version="1.0" encoding="UTF-8"?>
<svg id="Capa_2" data-name="Capa 2" xmlns="http://www.w3.org/2000/svg" viewBox="0 0 384 305.07">
  <defs>
    <style>
      .cls-1 {
        fill: #fbfbfb;
        stroke-width: 0px;
      }
    </style>
  </defs>
  <g id="Capa_1-2" data-name="Capa 1">
    <g>
      <path class="cls-1" d="M384,115.07v11.25c-.48,1.42-1.01,2.82-1.43,4.25-14.03,48.07-28.04,96.15-42.09,144.22-5.63,19.25-20.23,30.25-40.15,30.25-91.85.02-183.7,0-275.55,0-1.63,0-3.33.26-5.81-.78,21.02-3.3,31.07-16.11,36.38-34.95,13.77-48.92,28.26-97.64,42.57-146.41,4.95-16.89,18.34-26.79,35.91-26.8,74.73-.02,149.46-.01,224.19,0,1.87,0,3.77.03,5.6.34,10.77,1.83,17.13,8.55,20.39,18.63Z"/>
      <path class="cls-1" d="M0,25.82c1.05-2.67,1.83-5.48,3.18-7.99C9.26,6.53,18.87.31,31.64.19c30.74-.27,61.48-.24,92.21-.01,11.83.09,21.82,5.02,29.57,14.01,5.22,6.05,10.27,12.27,15.17,18.58,3.91,5.04,8.77,7.28,15.18,7.26,39.24-.12,78.47-.06,117.71-.05,8.76,0,16.82,2.09,23.59,7.99,9.29,8.09,12.16,18.52,11.19,30.4-.14,1.71-.91,2.47-2.58,2.46-1.5,0-3,.04-4.5.04-64.35,0-128.7,0-193.05,0-27.2,0-45.9,14.19-53.51,40.33-14.44,49.64-28.99,99.25-43.43,148.89-1.89,6.5-5.12,11.97-11.03,15.46C17.15,292.04,4.6,289.5,0,277.07,0,193.32,0,109.57,0,25.82Z"/>
    </g>
  </g>
</svg>