<?xml version="1.0" encoding="utf-8"?>
<!-- Generator: Adobe Illustrator 28.3.0, SVG Export Plug-In . SVG Version: 6.00 Build 0)  -->
<svg version="1.1" id="Capa_1" xmlns="http://www.w3.org/2000/svg" xmlns:xlink="http://www.w3.org/1999/xlink" x="0px" y="0px"
	 viewBox="0 0 640 480" style="enable-background:new 0 0 640 480;" xml:space="preserve">
<style type="text/css">
	.st0{fill:#343D3C;}
	.st1{fill:#383F3E;}
	.st2{fill:#363E3F;}
	.st3{fill:#373E3D;}
	.st4{fill:#3A4040;}
	.st5{fill:#373F3E;}
	.st6{fill:#404243;}
	.st7{fill:#3C4043;}
	.st8{fill:#3B3F41;}
	.st9{fill:#414546;}
	.st10{fill:#424647;}
	.st11{fill:#3C413F;}
	.st12{fill:#505555;}
	.st13{fill:#434746;}
	.st14{fill:#4A4C4B;}
	.st15{fill:#4D504F;}
	.st16{fill:#535655;}
	.st17{fill:#545555;}
	.st18{fill:#4A4E4D;}
	.st19{fill:#575A59;}
	.st20{fill:#464C4C;}
	.st21{fill:#414443;}
	.st22{fill:#3C4240;}
	.st23{fill:#424646;}
	.st24{fill:#BAC1C1;}
	.st25{fill:#A7ACAC;}
	.st26{fill:#5B5E5D;}
	.st27{fill:#4C504F;}
	.st28{fill:#696C6B;}
	.st29{fill:#525655;}
	.st30{fill:#5B5D5C;}
	.st31{fill:#3C3F3E;}
	.st32{fill:#585C5B;}
	.st33{fill:#67696A;}
	.st34{fill:#515554;}
	.st35{fill:#9EA3A5;}
	.st36{fill:#414344;}
	.st37{fill:#6F7170;}
	.st38{fill:#505354;}
	.st39{fill:#B4BBBB;}
	.st40{fill:#585C5E;}
	.st41{fill:#5B5F5E;}
	.st42{fill:#535554;}
	.st43{fill:#636564;}
	.st44{fill:#696969;}
	.st45{fill:#7E807F;}
	.st46{fill:#5E5E5E;}
	.st47{fill:#6D7071;}
	.st48{fill:#99A19F;}
	.st49{fill:#969C9A;}
	.st50{fill:#BEC4C2;}
	.st51{fill:#606164;}
	.st52{fill:#5D5F62;}
	.st53{fill:#5D6061;}
	.st54{fill:#525252;}
	.st55{fill:#727675;}
	.st56{fill:#4B5050;}
	.st57{fill:#A7ABAA;}
	.st58{fill:#9EA2A2;}
	.st59{fill:#ADADAD;}
	.st60{fill:#525352;}
	.st61{fill:#A3A7A6;}
	.st62{fill:#9C9E9D;}
	.st63{fill:#979998;}
	.st64{fill:#A6AEAD;}
	.st65{fill:#979E9E;}
	.st66{fill:#7A7D7C;}
	.st67{fill:#656666;}
	.st68{fill:#B7B8B7;}
	.st69{fill:#909090;}
	.st70{fill:#5F6160;}
	.st71{fill:#78797B;}
	.st72{fill:#9B9EA0;}
	.st73{fill:#505254;}
	.st74{fill:#888787;}
	.st75{fill:#BABBBA;}
	.st76{fill:#666867;}
</style>
<g>
	<path class="st0" d="M471.62,283.37c-0.04-4.41,0.39-8.87-1.38-13.1c-0.39-0.93-0.42-2.95-1.8-2.05c-3.89,2.53-3.91,0.91-4.25-2.66
		c-0.29-3.07-4.53-4.38-5.14-7.77c-2.66,0.65-5.86,0.81-7.56,2.88c-1.57,1.91-3.5,3.28-5.3,4.72c-4.16,3.32-8.02,6.56-7.6,12.55
		c0.09,1.23-0.54,2.18-1.26,3.03c-0.8,0.95-1.37,2.44-2.74,2.47c-1.7,0.04-1.61-1.73-2.05-2.83c-2.76-6.91-7.02-13.35-6.14-21.73
		c-2.72,2.39-4.43,3.57-5.58-0.75c-0.93-3.51-8.35-7-12.08-6.17c-3.85,0.85-7.44,0.9-10.57-1.97c-0.4-0.37-1.24-0.65-1.7-0.48
		c-4.46,1.6-6.82-1.1-8.8-4.33c-0.95-1.56-2.2-1.97-3.6-1.24c-2.04,1.06-0.64,2.55,0.04,3.63c1.51,2.42,3.62,4.4,5.27,6.76
		c0.77,1.11,3.44,0.92,5.26-0.47c4.12-3.13,4.76,2.47,7.44,3.32c2.22,0.71,0.27,2.7-0.57,3.87c-5.32,7.41-13.77,9.83-21.51,13.37
		c-1,0.46-2.03,0.86-3.05,1.29c-1.97,1.12-2.8-0.43-3.13-1.72c-1.31-5.1-4.97-8.91-7.13-13.46c-2.19-4.63-5.74-8.25-8.07-12.7
		c4.77,8.18,6.14,18.23,13.75,24.84c1.83,1.59,2.13,3.77,2.66,5.89c3.53,2.58,6.88-0.51,10.24-0.76c4.33-0.33,3.09,1.8,2.33,3.29
		c-2.75,5.37-5.19,10.9-10.62,14.53c-3.11,2.08-5.51,5.26-8.08,8.09c-2.99,3.29-2.41,7.45-0.91,10.78c1.28,2.84,1.07,5.54,1.51,8.31
		c0.48,3-0.77,4.83-3.4,6.14c-3.99,1.99-7.43,4.3-5.63,9.83c0.64,1.96,0.4,4.21-2.51,4.78c-1.08,0.21-1.89,0.79-2.24,2.15
		c-2.86,11.02-12.07,17.67-22.76,16.52c-1.85-0.2-3.1-1.45-3.06-3.16c0.05-2.07-0.53-3.9-1.65-5.4c-5.07-6.81-3.92-16.02-9.04-22.87
		c-1.94-2.6-0.43-5.88,0.98-8.23c3.94-6.56,0.82-12.07-2.58-17.1c-1.95-2.89-3.7-5.03-2.74-8.8c0.96-3.79,0.55-7.32-5.04-6.38
		c-0.57,0.1-1.58-0.04-1.77-0.4c-2.49-4.68-6.38-3.21-9.55-1.64c-4.5,2.23-9.26,0.61-13.9,1.69c-3.23,0.75-7.65-2.67-9.11-5.93
		c-1.34-3-4.06-4.28-5.49-6.85c-0.32-0.57-1.47-0.67-1.63-1.59c-0.95-5.38,0.55-10.77,0.28-16.24c-0.21-4.38,3.81-10.17,9.3-12.73
		c0.28-0.13,0.64-0.32,0.75-0.58c2.08-4.79,4.66-9.2,8.3-13.06c1.24-1.32-0.09-3.33-2.04-3.25c-3.72,0.16-3.34-3.06-3.17-4.58
		c0.23-2.18,0.68-4.39,0.74-6.62c0.05-1.92,1.16-2.45,2.86-2.33c1.6,0.11,3.26,0.48,4.78,0.17c1.89-0.39,4.45,1.19,5.52-2.22
		c1.01-3.2-0.94-4.74-2.53-6.63c-0.75-0.9-3.12-0.26-2.73-2c0.43-1.92,2.24-0.12,3.2-0.52c2.42-0.99,4.7-2.33,7.04-3.53
		c1.02-1.39,2.51-2.16,3.95-3c0.86-2.72,3.51-3.5,5.61-4.23c3.01-1.05,3.8-2.42,2.5-5.18c-0.73-1.56-0.26-2.84,1.03-3.77
		c0.83-0.61,1.34,0.34,2.02,0.65c1.55,0.71,0.48,1.34,0.16,2.14c-1.08,2.77,0.47,4.19,3.3,4.58c4.16,0.58,7.81-1.84,11.99-1.26
		c1.55,0.21,4.17-0.74,3.82-4.05c-0.2-1.9,0.12-5.06,3.85-2.87c2.06,1.21,2.15-1.05,2.05-1.86c-0.48-4.09-0.54-4.35,3.6-3.84
		c2.13,0.26,3.16-0.52,4.5-2.14c-2.72-0.73-5.07-0.79-7.49,0.45c-2.22,1.14-4.48,0.24-5.33-1.72c-0.86-1.97-1.72-4.53,0.34-6.6
		c1.12-1.13,2.5-2.05,3.41-3.32c0.72-1.01,3.7-1.62,1.41-3.49c-1.83-1.5-4.53-1.19-5.32,1.05c-1.04,2.97-2.96,4.52-5.37,6.2
		c-2.41,1.68-3.42,4.27-0.89,6.96c0.53,0.56,1.21,1.16,1.38,1.84c0.23,0.92-8.41,10.86-9.48,10.92c-0.96,0.05-2.74,1.02-1.91-1.68
		c0.38-1.23-0.95-2.92-1.29-4.45c-0.75-3.4-1.86-4.26-4.91-1.62c-2.85,2.47-4.65,1.16-5.83-2.54c-1.5-4.7-0.1-7.35,4.17-9.5
		c4.26-2.15,7.28-5.73,9.95-9.78c5.98-9.07,15.13-12.49,25.54-13.22c2-0.14,2.05,0.01,2.61,2.21c0.21,0.8,0.72,0.89,1.37,0.92
		c5.77,0.26,10.99,2.3,16.08,4.88c1.48,0.75,3.35,1.38,3.07,3.17c-0.29,1.85-2.21,2.49-4.01,2.84c-2.78,0.54-5.27-1.29-8.4-1
		c1.6,1.96-0.57,5.18,2.84,6.25c1,0.31,1.88,1.83,2.96,0.92c1.68-1.4-2.42-1.16-0.6-3.02c2.16,0.29,5.7,2.98,6.22-2.38
		c0.06-0.62,1.93-1.66,2.78-1.51c3.44,0.62,3.82-0.77,3.14-3.66c-0.17-0.72-0.02-2.46,1.57-2.5c0.72-0.02,1.78,0.21,2.13,0.71
		c0.99,1.44-0.7,1.25-1.29,1.74c-0.72,0.6-0.3,1.09,0.2,1.53c1.08,0.97,2.56,1.38,3.49,0.37c6.08-6.6,14.1-4,21.42-4.74
		c0.61-0.06,1.66-0.27,1.71-0.57c1.35-7.03,5.41-1.95,8.1-1.62c2.01,0.25,3.86,1.79,6.01,2.87c0.44-1.95-0.87-2.68-1.47-3.63
		c-2.09-3.31,0.36-10.2,4.2-10.78c2.18-0.33,6.24-1.76,3.77,3.74c-0.87,1.94-0.02,5.01,0.83,7.28c1.37,3.69,0.12,6.14-3.04,8.24
		c2.76,0.44,2.76,0.44,4.89-1.26c0.59-0.76,1.24-1.53,1.37-2.48c0.6-4.56,2.67-3.2,4.78-1.61c-1.02-2.54-4.41-0.89-6.08-2.72
		c0.56-3.45-1.66-7.64,3.07-10.07c-1.12,4.08,1.36,4.51,4.48,4.58c-0.13-1.69-1.77-0.7-2.13-1.65c3.19-4.37,6.56-0.51,9.86-0.2
		c0.3,0.36,0.41,0.83,0.67,1.21c0.34-0.95-0.06-1.73-0.54-2.5c-1.83-0.84-3.71-2-3.13-4.21c0.52-1.96,2.72-1.01,4.19-1.24
		c1.58-0.25,3.24-0.59,4.77-0.34c2.37,0.4,3.13,0.79,2.12-2.4c-0.82-2.58,2.77-3.59,4.58-3.78c4.32-0.46,8.21-3.34,12.96-1.78
		c1.94,0.63,5.04,0.3,6.26-2c3.16-5.95,7.42-3.61,10.77-1.06c1.41,1.07,1.87,1.1,3.17,0.71c0.88-0.26,1.91-0.18,2.85-0.1
		c2.45,0.21,5.31,0.93,5.96,3.17c0.79,2.72-2.4,3.29-4.26,4.37c-2.47,1.43-4.97,2.8-7.9,4.45c0.9,0.22,1.41,0.51,1.62,0.36
		c4.35-3,9.24-1.31,13.88-1.58c1.85-0.1,3.6,0.12,5.41,1.32c2.87,1.89,6.07,2.2,8.94-0.64c2.54-2.52,4.99,1.54,7.44-0.34
		c0.81,2.89-2.1,2.04-2.29,3.72c1.39,1.05,2.95,2.12,4.37,3.34c1.76,1.51,2.99,3.18,5.24,0.1c1.6-2.2,4.48,0.41,6.99-0.15
		c2.68-0.6,6.19,1.82,7.18-3.12c0.16-0.82,2.39-1.78,3.84-1.35c5.28,1.56,10.81,2.71,15.62,5.23c2.29,1.2,3.94,1.26,6.08,0.98
		c3.63-0.47,7.36-1.45,9.32,3.28c0.49,1.18,2.05,1.43,3.72,1.24c4.19-0.45,8.55-1.26,12.4,1.56c0.82,0.6,1.96,0.83,2.61-0.05
		c0.77-1.04-0.86-3.68,2.45-3.04c4.47,0.87,9.49-0.06,13.3,2.89c2.79,2.16,0.17,12.38-3.2,13.92c2.82,3.7,2.69,4.22-1.23,4.95
		c-0.43,0.08-0.81,0.47-1.21,0.72c-6.11,3.67-12.76,5.53-19.81,6.39c-3.7,0.45-6.12,2.33-3.75,6.54c1.58,2.79-1.74,5.67-2.08,5.87
		c-3.75,2.17-4.66,6.92-8.45,9.21c-1.48-3.18-1.57-6.37-2.26-9.41c-0.53-2.36,0.66-4.45,2.23-5.51c3.45-2.33,6-5.97,9.6-7.65
		c3.03-1.41,2.88-3.24,3.01-5.58c-1.92-0.59-1.7,1.62-2.67,2.03c-1.51,0.64-2.83,4.41-5.01,0.29c-0.72-1.36-4.19-1.2-4.68,0.01
		c-1.03,2.5-5.53,2.49-4.34,6.38c0.21,0.68-3.15,0.55-4.91,0.28c-6.92-1.09-13.99-2.98-20.08,2.72c-2.79,2.62-5.84,4.96-9.05,7.67
		c1.97,1.32,2.98,3.89,6.5,2.1c2.5-1.27,4.45,1.87,3.98,5.22c-1.07,7.7-5.55,13.29-10.8,18.48c-0.81,0.8-1.72,1.99-2.78,1.62
		c-6.87-2.39-5.9,5.93-10.04,7.41c-0.64,0.23,1.49,2.01,2.09,3.27c1.71,3.58,0.95,5.57-2.34,5.91c-1.43,0.15-1.74-0.1-2.06-1.62
		c-0.84-4.01-0.46-8.97-7.44-8.12c-3.64,0.44-3.75-0.5-7.77,1.61c-0.19,1.6,1.54,1.32,2.16,2.18c0.38,0.54,1.5,4.2,1.04,4.89
		c-0.94,1.42,0.38,1.98,0.92,2.85c4.45,7.12,0.2,18.8-8.05,21.6c-2.23,0.75-4.36,2.09-6.88,1.88c-1.37,0.61-2.75,0.9-4.15,0.08
		c-3.03-0.16-4.92,1.89-5.89,4.12c-0.92,2.1,1.44,3.56,2.81,4.93c5.08,5.09,3.79,11.54-2.83,13.74c-0.92,0.31-1.16-0.11-1.72-0.88
		c-2.11-2.93-4.63-5.49-8.19-6.84c-0.74,2.26-1.48,4.52-2.22,6.77c0.35,0.69,1.53,1.14,0.71,2.16
		C472.67,283.98,472.11,283.76,471.62,283.37z"/>
	<path class="st0" d="M150.47,162.07c2.51,0.06,3.35,4.79,6.83,2.44c0.25-0.17,1.13,1.11,0.69,1.94c-0.85,1.6,0.06,2.62,1.27,2.99
		c1.68,0.51,1.94-1.24,2.58-2.26c0.43-0.68,0.89-1.35,1.16-2.09c0.48-1.33-0.74-3.98,2.58-2.91c2.23,0.72,2.77,1.42,2.42,3.95
		c-0.04,0.28,0.06,0.58,0.13,0.87c1.1,4.84,0.02,5.98-5.04,5.01c-0.79-0.15-2.08-0.51-2.11-0.06c-0.36,5.62-3.7,2.35-6.06,1.77
		c0.18,2.38,4.43,1.81,3.05,4c-1.2,1.92-3.7,3.46-6.61,2.2c-0.84-0.36-1.84-0.35-2.88-0.09c1.76,0.56,3.52,1.13,5.54,1.78
		c-3.75,1.08-5.48,4.01-7.07,6.81c-1.52,2.67,2.2,8.67,5.5,9.11c5.26,0.7,9.14,5.21,14.73,5.1c1.28-0.03,1,1.8,1.09,2.86
		c0.15,1.82,0.5,3.56,2.07,4.66c0.91,0.64,1.51,2.17,3.17,1.21c1.49-0.85,0.69-1.81,0.47-2.85c-0.6-2.85-0.59-5.23,2.57-7.06
		c2.54-1.47,3.18-4.17,0.31-6.26c-1.59-1.16-1.56-2.13-0.61-3.56c0.34-0.51,0.46-1.19,0.56-1.81c0.31-2.03-1.44-5.85,0.26-5.77
		c3.11,0.14,6.78-1.21,9.79,2.1c1.71,1.88,3.75,2.83,4.41,5.87c0.52,2.38,3.49,3.47,5.43,0.69c2.71-3.88,4.52-2.06,5.5,0.89
		c1.76,5.31,5.09,9.22,9.81,11.79c2.69,1.46,2.9,3.24,2.33,5.68l0.12-0.04c-5.74,1.69-11.38,3.89-17.57,3.12
		c-1.06-0.13-1.56,0.98-2.14,1.74c-0.38,0.64-1.04,0.96-1.68,1.46c0.97-0.48,1.93,0.16,2.81-0.26c2.17-0.07,1.84-0.07,1.84,2.1
		c0,0.85,1.05,2.01,1.06,3.24c1.4,3.36-1.86,2.23-3.01,3.14c-7.26,3.02-10.81,10.23-16.75,14.73c-0.6,0.45-0.4,0.77-0.26,1.08
		c2.13,4.53-1.27,6.28-4.18,8.12c-4.11,2.6-6.46,5.5-3.42,10.5c1.02,1.68,1.49,3.84,0.07,6.06c-1.85-0.98-2.87-2.6-3.53-4.32
		c-2.14-5.59-6.78-7.12-12.37-3.9c-1.46,0.84-2.76,0.07-4.14-0.1c-4.69-0.61-8.95,1.36-9.87,4.54c-1.87,6.47-0.38,13.95,3.6,15.65
		c2.94,1.25,6.5,1.63,7.99-2.33c0.7-1.85,1.73-2.61,3.37-2.78c1.86-0.19,3.87-0.34,2.37,2.7c-0.55,1.11-0.45,2.51-0.82,3.73
		c-0.83,2.73-0.41,4.35,2.97,3.96c3.27-0.38,4.61,0.91,4.24,4.43c-0.29,2.76-0.4,5.86,2.75,7.57c1.05,1.01,3.36-1.03,3.77,1.55
		c-4.67,2.23-7.38-1.28-9.55-4.06c-1.95-2.5-3.76-4.48-6.86-5.3c-2.6-0.69-5.17-1.54-7.05-3.74c-0.45-0.53-1.47-1.07-2.05-0.91
		c-5.36,1.4-9.53-1.79-14.03-3.58c-2.64-1.05-4.46-2.45-5.05-6.01c-0.76-4.56-5.49-7.1-8.17-10.78c-1.58-2.16-3.84-3.81-4.84-6.44
		c-0.55-1.47-1.85-2.95-3.16-2.02c-1.92,1.37-0.03,2.66,0.99,3.77c0.2,0.86-0.15,1.08-0.92,0.77c-0.67-0.64-1.6-1.17-1.98-1.95
		c-1.84-3.84-4.63-6.54-7.77-9.52c-4.54-4.32-8.54-10.48-6.91-17.95c0.75-3.44-0.29-6.78-0.55-10.16c0.28-0.29,0.62-0.49,0.99-0.62
		c1.5-1.08,0.1-1.66-0.51-2c-3.33-1.87-5.83-4.43-7.21-8.03c-3.05-1.84-2.85-6.03-6.02-7.97c-2.77-1.7-2.99-5.8-6.11-7.39
		c-0.85,0.87-0.34,2-0.35,3.11c-3.31-2.53-6.72-4.97-10.78-5.62c-3.15-0.51-6.19-0.99-9.15-2.28c-0.9-0.39-3.23-1.96-3.18,1.49
		c0.01,0.62-3.21,1.9-4.83,1.73c-1.25-0.13,0.46-1.74,0.21-3.63c-5.26,4.52-8.43,10.95-15.6,13.28c0.39-0.97,0.46-1.42,0.71-1.71
		c1.27-1.46,4.41-2.06,3.24-4.62c-0.78-1.71-3.61-0.59-5.09-1.35c-3.44-1.76-7.54-3.32-8.96-7.18c-0.68-1.85,1.16-4.04,3.7-4.55
		c1.08-0.22,2.11-0.63,3.19-0.85c1.53-0.31,1.61-1.41,1.41-2.56c-0.32-1.84-1.39-0.97-2.49-0.73c-3.56,0.78-6.84,0.53-8.5-3.18
		c3.25-3.8,8.05,0.54,11.82-2.08c-3.67-1.54-6.86-3.72-11.24-6.88c6.13,0.7,7.07-5.06,11.92-5.72c3.01-0.41,5.99-2.24,9.3-1.38
		c9.92,2.6,20.53,1.71,30.12,6.13c2.95,1.36,5.69-2.33,8.9-1.34c2.11,1,3.83-1.13,5.86-0.74c2.89-3.79,5.45,1.25,8.54,0.25
		c5.51-1.78,10.47,2.4,15.95,2.37c1.03-0.01,1.92,0.06,1.48,2.29c-0.48,2.42,2.88,1.47,4.29,1.16c3.37-0.73,6.11-0.38,8.23,2.7
		c-0.05-4.65,3.01-4.59,5.92-3.69c3.5,1.09,6.92,1.08,10.43,0.57c0.45-0.17,0.92-0.82,1.14-0.75c4.41,1.44,5.37-3.24,8.19-4.57
		C149.61,162.28,150.03,162.14,150.47,162.07z"/>
	<path class="st0" d="M176.58,421.16c-3.42-1.9-3.03-5.32-3.32-8.44c-0.14-1.47,1.04-3.18-0.96-4.26c-0.91-0.49-0.36-1.08,0.17-1.39
		c4.73-2.77,2.95-6.4,2.18-10.54c-0.51-2.76-1.23-5.94,0.13-9.21c4.28-10.35,4.91-21.46,5.67-32.49c0.2-2.86-1.66-4.49-3.93-5.46
		c-4.78-2.04-7.48-5.72-9.15-10.44c-1.13-3.19-2.78-6.09-5.25-8.47c-0.42-0.4-1.01-1.23-0.87-1.5c2.13-3.88-0.88-9.08,3.44-12.48
		c2.24-1.76,3.57-4.11,3-7.48c-0.75-4.4,2.45-8.59,7-10.15c0.88-0.83,1.76-0.89,2.65-0.01c0.05,1.08,0.1,2.17,0.22,4.83
		c1.26-5.15,3-6.05,6.69-4.04c1.88,1.02,4.59,1.05,7.26,0.76c3.9-0.42,6.62,3.42,9.68,5.63c1.57,1.14,2.75,2.53,4.91,2.48
		c4.88-0.11,7.3,3.03,9.27,6.96c1.05,2.09-0.95,2.33-1.57,3.41c-0.4,0.7-1.84,0.94-0.96,2.21c0.69,0.99,1.82,1.02,2.58,0.61
		c4.1-2.2,7.6-2.22,10.95,1.64c0.88,1.01,3.37,1.07,5.04,0.87c4.21-0.5,6.46,3.11,9.75,4.48c2.22,0.92,1.94,4.91,0.33,6.46
		c-5.17,5-5.99,11.54-7.74,17.9c-1.02,3.72-2.5,7.05-7.74,7.73c-3.5,0.46-7.25,2.84-7.56,8.07c-0.13,2.29-2.72,4.46-4.26,6.63
		c-0.64,0.9-1.78,1.53-2.16,2.5c-1.81,4.63-4.89,6.48-9.86,4.62c-0.32,2.49,2.71,4.15,0.87,6.65c-1.71,2.33-4.08,2.29-6.46,2.35
		c-1.54,0.03-2.42,0.53-2.5,2.17c-0.03,0.62-0.28,1.74-0.49,1.75c-6.58,0.47-2.13,9.46-8.07,10.46c-0.48,0.08-0.7,1.72,0.08,2.09
		c4.23,2,1.14,2.97-0.07,5.1c-1.18,2.08-4.57,3.57-3.12,6.9C181.08,423.64,178.92,422.88,176.58,421.16z"/>
	<path class="st0" d="M238.28,109.09c1.07-1,1.25-3.28,3.45-2.67c1.88,0.52,1.31,2.31,1.55,3.63c0.97,5.32,2.97,9.71,9.16,10.45
		c-1.08,2.87,2.49,2.33,2.96,4.06c-1,2.94,3.14,2.85,3.12,5.56c-0.04,4.29-4.25,1.01-5.48,3.48c-1.01,2.02,0.53,1.05,0.99,1.28
		c3.16,1.59,7.12,0.63,10.01,3.11c-0.09,3.08-0.72,3.74-3.15,3.1c-1.39-0.37-2.49-1.45-3.9-1.71c-0.52-0.44-0.72,0.86-0.36,0.32
		c0.18-0.26,0.29-0.32,0.38-0.26c2.43,1.49,1.94,2.65-1.28,4.14c2.96-0.53,4.74-2.79,7-1.36c0.97,0.61,1.15,1.45,0.6,2.45
		c-1.22,3.97-4.73,5.57-8.02,6.98c-2.05,0.88-3.18,1.93-3.56,3.93c-0.69,3.63-2.4,5.53-6.45,6.22c-1.82,0.31-4.35,2.61-4.65,6.03
		c-0.41,4.6-1.68,9.17-3.01,13.62c-0.74,2.48-2.7,2.47-4.64,0.82c-0.74-0.63-0.7-2.04-2.42-1.75c-6.79,1.16-11.23-2.37-13.29-9.36
		c-0.37-1.24-1.89-3.05-3.28-4.27c-2.05-2.93,1.46-5.11,1.05-7.81c2.27-1.55,2.14-4.18,2.24-6.31c0.19-3.93-2.9-5.73-7.24-4.73
		c2.43-8.34-3.02-15.84-11.79-16.21c-3.43-0.14-3.35-0.12-2.27-3.89c0.49-1.7-2.09-2.06-2-3.7c2.92-2.88,8.57-0.45,10.35-5.43
		c-0.68-1.21,0.59-1.6,0.99-2.35c5.58-5.13,14.21-4.21,19.6-10.15c2.27-2.51,6.06-0.07,9.16-0.02c1.49,2.72-1.18,2.45-2.34,3.33
		C233.86,108.36,236.13,109.48,238.28,109.09z"/>
	<path class="st0" d="M560.03,372.79c-1.53,1.45-2.55,2.92-4.02-0.51c-1.65-3.84-5.61-4.89-9.35-3.49c-3.33,1.25-6.74,2.36-10,4.13
		c-3.08,1.67-7.07,2.47-10.6,3.96c-1.52,0.64-4.24,0.62-3.54-3.09c0.6-3.2-1.16-6.15-2.55-9.04c-4.27-8.9-3.1-13.6,5.82-15.9
		c5.59-1.44,7.13-6.58,11.02-9.43c2.17-1.59,3.65-4.87,7.06-1.95c0.57,0.49,1.82,0.68,2.14-0.17c2.73-7.08,8.44-4.44,13.51-4.54
		c-0.02,2.12-3.47,3.41-1.52,5.12c2.19,1.92,5.03,3.51,7.84,4.17c2.05,0.48,2.4-2.33,2.43-3.93c0.03-2.32,0.49-4.38,1.96-7.1
		c1.74,4.91,5.43,7.9,6.77,12.78c0.88,3.22,4.59,5.67,7.05,8.44c4.36,4.91,6.73,10.29,4.01,16.86c-1.8,4.35-5.26,7.84-6.59,12.55
		c-0.14,0.49-4.09,3.9-7.14,1.53c-1.59-1.24-3.02,0.57-4.9,0.16c-4.33-0.95-4.24-5.14-6.68-7.32
		C561.31,375.4,561.16,373.69,560.03,372.79z"/>
	<path class="st1" d="M205.35,116.48c-0.33,0.78-0.66,1.57-0.99,2.35c-3.37-2.28-6.81-1.82-10.43-0.78c0.56,2.44,2.5,0.09,3.15,1.75
		c-6.03,3.13-11.17,8.3-18.72,7.87c2.83,2.25,2.35,4.13-0.88,6.17c-2.71,1.72-5.81,1.82-8.62,2.98c-0.11,2.12-1.57,2.26-3.19,2.16
		c-3.22,0.73-6.4,1.01-9.35-0.47c1.71-6.09,5.94-3.08,9.58-2.58c-2.13-1.37-5.35-2.47-4.58-4.85c0.76-2.36,3.98-0.22,6.28-0.84
		c-2.09-1.47-4.07-2.88-6.22-4.39c1.76-1.16,2.95,0.2,4.26,0.31c2.06,0.18,1.73,0.02,3.54-1.44c1.55-1.26,3.93-1.52,5.85-2.6
		c-4.24-0.38-10.85,2.47-12.02,0.17c-2.84-5.55-9.38,4.06-9.47-4.37c5.12-1.1,11.01-3.05,17.66-0.41c-1.59-1.84-1.89-3.62,0.53-3.76
		c9.96-0.55,19.95-2.98,29.9,0.57C203.11,114.89,203.38,117.16,205.35,116.48z"/>
	<path class="st2" d="M183.15,173.59c3.01-5.84,1.92-4.66-2.86-9.08c-4.63-4.27-9.07-2.64-13.67-3.33
		c-2.52-0.38-5.04-0.78-7.55-1.21c-1.31-0.23-1.35-0.29-0.64-1.91c0.2-0.45,0.48-0.88-0.13-0.97c-3.15-0.48-3.94-2.74-2.86-5.04
		c1.2-2.56,3.78-4.08,6.78-3.2c0.63,0.18-1.19,1.49-1.52,2.47c-0.4,1.2,0.02,2.53,0.99,2.78c2.39,0.62,0.56-1.37,1.01-1.94
		c1.59-2.03,3.45-4.12,6.29-2.91c2.28,0.97,2.65,2.98,0.63,5.25c2.41-0.95,4.87,0.24,6.7-1.95c0.44-0.53,3.22-0.08,3.95,0.76
		c3.46,3.98,8.69,4.74,12.87,7.39c1.71,1.08,0.53,2.16,1.13,3.05c-3.26,1.87-0.02,2.59,0.78,2.95c2.36,1.07,4.93,1.68,6.86,3.59
		c0.79,0.78,3.78-0.12,2.27,2.23c-1,1.56-2.63,4.02-5.43,1.97c-1.39-1.03-3.08-3.78-4.46-2.04c-1.87,2.35,1.34,3.35,2.83,4.74
		c1.1,1.02,2.4,2.16,1.95,4.09c-0.64,2.69-2.91-0.33-3.89,1.3c-0.11,0.85,1.6,0.93,1.04,2.22c-4.82-1.09-9.27-2.79-12.04-7.31
		C182.83,176.45,184.69,174.57,183.15,173.59z"/>
	<path class="st3" d="M122.73,155.35c1.21-2.03-1.68-4,0.81-4.7c1.96-0.55,3.68,0.74,4.41,2.84c1.24,3.53,2.07,7.42,6.68,7.37
		c0.6,1.92-2.86,0.13-1.67,3.05c0.65,1.59-2.66,1.25-3.76,0.7c-2.75-1.37-5.35-0.82-7.72,0.29c-5.61,2.62-9.6-1.35-15.24-2.57
		c3.25-2.8,6.44-0.53,9.24-2.42c-2.07-1.34-4.15-0.55-6-0.89c-1.47-0.27-4.06,1.24-4.15-1.19c-0.07-1.67-2.62-3.7-0.14-5.04
		c2.02-1.09,3.95-3.52,6.93-1.02c1.35,1.14,4.21,2.02,5.53,1.34C120.53,151.64,121.54,153.24,122.73,155.35z"/>
	<path class="st4" d="M556.13,318.12c2.22-0.87,3.19-4.48,5.8-3.7c4.36,1.31,9.04,1.99,12.78,5.06c3.42,2.81,4.57,7.47,8.58,9.82
		c-2.92-0.08-5.51-0.38-7.21-2.98c-1.02-1.55-3.47-2.1-4.15-0.9c-3.02,5.33-6-0.58-8.89,0.25c-0.15,0.04-0.6-0.32-0.58-0.42
		c1.33-5.37-4.04-4.93-6.24-7.22L556.13,318.12z"/>
	<path class="st5" d="M385.26,320.48c2.7,4.66-0.31,8.2-0.9,11.96c-0.42,2.66-1.61,5.19-2.28,7.83c-0.66,2.61-1.81,4.73-4.85,3.74
		c-3.4-1.11-3.21-4.67-2.35-6.75c1-2.42,1.47-4.35,0.65-6.78c-0.45-1.34,0.39-3.18,1.37-3.24
		C381.27,326.94,382.4,322.83,385.26,320.48z"/>
	<path class="st6" d="M304.62,198.43c-1.07,1.32-1.98,2.85-3.95,3c-3.49-2.71-7.17-0.36-10.75-0.24c-0.62-2.42,2.05-1.64,2.58-3.1
		c-2.47-0.3-3.71-1.31-1.23-3.3c2.34-1.87,2.16-2.59-0.43-4.4c-1.86-1.3-3.41-4.21-2.48-7.14c0.31-0.98,0.95-2.54,2.24-1.92
		c1.46,0.69,3.84,2.47,3.65,3.12c-1.7,5.68,3.97,7.22,5.73,10.87c0.2,0.42,1.11,0.17,1.26,1.08
		C301.68,199.11,301.75,199.1,304.62,198.43z"/>
	<path class="st7" d="M510.36,308.91c4.9-0.21,10.16,2.5,11.99-4.41c0.38-1.43,1.68-1.46,2.62-0.53c2.28,2.26-0.16,12.66-3.17,13.83
		c-3.18,1.23-9.31-2.15-10.77-5.99C510.7,310.96,510.6,310.02,510.36,308.91z"/>
	<path class="st8" d="M152.26,132.48c-3.87,0.61-4.64-4.06-7.67-5.49c-0.79-0.38,1.12-3.14,2-4.62c1.12-1.86,2.98-3.15,4.94-0.9
		c1.05,1.2,2.44,1.36,3.66,2.03c2.3,1.26,5.37,4.07,4.79,5.42C158.97,131.25,155.63,132.32,152.26,132.48z"/>
	<path class="st9" d="M487.14,301.79c5.27,2.63,10.72,5.2,13.87,10.36c1.3,2.14,5.09,2.23,4.26,6.32c-0.71,3.51-1.96,3.3-3.91,1.63
		c-1.91-1.63-3.9-3.26-5.21-5.54C493.56,310.09,490.69,305.81,487.14,301.79z"/>
	<path class="st10" d="M110.19,149.1c-4.62,1.86-7.46,3.42-9.58,6.51c-1.74,2.54-4.33,1.78-6.96-0.11
		c-2.56-1.85-1.33-3.97-0.21-4.51c2.39-1.16-0.94-4.06,1.7-4.43C99.9,145.89,104.38,147.19,110.19,149.1z"/>
	<path class="st11" d="M256.03,161.53c0.73-1.15,2.35-2.34,3-1.57c2.93,3.48,6.3,0.9,8.63,0.09c3.31-1.15,5.08,0.82,5.8,2.3
		c1.14,2.32-1.6,3.14-3.4,4.01c-4.12,2.01-8.1,3.14-11.45-1.38c-0.56-0.75-0.66-0.68-0.42-1.21
		C258.69,162.65,258.69,162.65,256.03,161.53z"/>
	<path class="st12" d="M150.23,141.5c-0.48-1.85-0.5-2.54,0.4-2.54c1.04,0,2.49-0.66,3.02,0.64c1.91,4.62,5.51,2.93,8.7,2.38
		c2.39-0.41,4.8-0.73,7.11-0.17c0.93,0.23,3.01,0.49,2.62,2.07c-0.34,1.39-1.45,3.21-3.43,2.53c-4.24-1.46-8.54-0.13-12.8-0.4
		C151.46,145.73,149.82,144.4,150.23,141.5z"/>
	<path class="st13" d="M325.98,119.76c-0.86-1.46-0.98-1.71-2.61-0.89c-4.32,2.17-4.09-2.17-5.43-3.87
		c-0.74-0.94,0.95-1.43,1.81-1.36c2.57,0.21,4.77,1.99,7.75-0.56c1.43-1.23,3.95,3.32,7.09,3.81c-2.97,1.22-3.47,4.14-4.96,6.16
		c-2.17,2.95-3.63,2.24-5.59,0.27C323.55,121.51,326.17,121.4,325.98,119.76z"/>
	<path class="st14" d="M394.49,135.94c3.52-6.95,9.94-8.93,16.95-9.61c2.17-0.21,3.53-2.29,5.77-1.98c0.74,0.1,1.7-0.16,1.94,0.88
		c0.23,1.01-0.57,1.4-1.31,1.69c-1.04,0.4-2.1,0.84-3.19,1.02c-6.54,1.05-11.82,4.39-16.51,8.86
		C397.01,136.17,395.54,136.96,394.49,135.94z"/>
	<path class="st15" d="M119.96,142.18c1.14-1.27-2.35-2.4-0.07-3.58c2.15-1.11,2.23,0.85,2.78,2.08c0.29,0.66,0.88,0.97,1.56,0.74
		c1.53-0.51,3.04-0.83,2.89,1.49c-0.11,1.71-1.73,1.96-2.93,1.64c-4.07-1.09-7.29,3.57-11.44,1.68c-0.06-2.42,2.54-0.86,3.12-2.33
		c-2.92-0.75-5.91,1.19-8.78-0.22c1.48-5.78,5.07-4.35,8.47-2.35C117.09,142.23,118.42,142.54,119.96,142.18z"/>
	<path class="st16" d="M547.45,221.77c1.67,5.3-1.52,11.64-6.54,12.89c-1,0.25-1.86,0.29-2.71,1.2c-2.31,2.49-2.1-0.68-2.95-1.49
		c-1.55,0.97-3.22,2.95-4.31-0.46c2.51-2.02,5.83-1.88,8.7-3.64c3.69-2.26,5.08-4.59,5.15-8.43
		C545.65,220.86,546.54,220.98,547.45,221.77z"/>
	<path class="st17" d="M141.05,148.37c1.88,1.49-2.68,2.25,0.6,3.34c1.42,0.47,2.1,1.33,1.17,2.93c-0.91,1.56-2.85,2.73-3.83,2.07
		c-2.22-1.5-5.38-1.88-6.72-4.67c1.1-1.22,5.05,2.46,3.77-2.7C135.69,147.93,139.65,150.13,141.05,148.37z"/>
	<path class="st18" d="M491.64,297.14c3.74-4.46,7.7-6.99,11.24-10c0.83-0.7,1.65-1.05,2.44-0.05c0.6,0.76,2.05,1.05,1.29,2.64
		c-0.49,1.03-1.05,1.54-2.15,1.35c-1.28-0.21-2.77-0.56-3.2,1.09C500.02,296.87,496.06,296.15,491.64,297.14z"/>
	<path class="st19" d="M394.49,135.94c1.14,0.65,2.97-1.66,3.66,0.86c-2.93,2.99-2.96,5.92,0.44,8.67
		c-4.59,3.38-6.04-3.26-9.83-2.59c2.45-1.45,1.96-5.81,5.96-5.32C394.64,137.01,394.57,136.47,394.49,135.94z"/>
	<path class="st20" d="M214.34,211.06c0.23,2.26-0.63,5,3.27,5.3c0.81,0.06,2.26,2.77,1.97,3.89c-0.58,2.28-3.22-1.31-4.36,0.92
		c-1.26-2.48-3.85-0.35-5.64-1.87c0.77-3.09,1.48-6.41,4.85-8.29C214.46,211.02,214.34,211.06,214.34,211.06z"/>
	<path class="st13" d="M345.44,112.91c-3.26,1.79-6.15,6.4-10.31,1.31c-0.65-0.8-2.68-0.48-4.1-1.4
		C335.71,110.69,340.58,112.43,345.44,112.91z"/>
	<path class="st21" d="M287.45,192.66c0.91,4.08-2.55,4.67-5.62,5.49c-0.88,0.24-1.88,0.02-1.55-1.47c0.67-3.11,0.37-6.86,5.12-7
		C287.2,189.63,288.2,190.16,287.45,192.66z"/>
	<path class="st22" d="M471.62,283.37c1.81-0.13,0.87-1.28,0.79-2.11c3.02,4.33,8.73,7.02,8.19,13.74
		C473.78,294,475.71,286.3,471.62,283.37z"/>
	<path class="st23" d="M150.47,162.07c-0.02,0.33-0.03,0.67-0.05,1c-2.51-0.53-6.47,2.17-6.88-3.07c-0.6-2.8,0.85-5.22,3.28-4.66
		C149.57,155.96,151.45,158.62,150.47,162.07z"/>
	<path class="st24" d="M143.54,160c1.3,3.24,4.71,1.76,6.88,3.07c-2.7,1.71-4.24,4.47-6.62,7.38c0.77-4.89-3.12-0.61-3.91-2.65
		c-0.57-1.05-1.15-2.1-1.72-3.15c1.16-0.89,4.28,0.9,3.55-2.59C142.33,161.37,142.93,160.69,143.54,160z"/>
	<path class="st25" d="M263.35,144.68c-0.39-2.77-2.18-2.28-3.86-1.51c-0.96,0.44-1.62,1.77-2.9,1.04
		c-0.74-0.42-2.31-0.01-2.16-1.32c0.21-1.83,1.3-0.4,2.06-0.33c0.99,0.09,1.69-0.71,1.5-1.44c-0.43-1.68-2.19-1.36-4.69-2.04
		c3.64,0.08,5.93-0.62,8.28,1.1c1.17,0.85,2.79-0.09,2.47-2.16C267.46,140.61,265.03,142.61,263.35,144.68z"/>
	<path class="st26" d="M176.58,421.16c2.12,0.56,4.17,0.77,5.83-1.1c1.15,2.76,2.94,5.04,5.3,7.06c-2.22-1.51-5.95,2.74-7.23-2.3
		C180.09,423.26,175.26,425.33,176.58,421.16z"/>
	<path class="st27" d="M153.15,148.31c0.01,4.47-4.81,3.11-6.32,5.82c-0.42,0.75-1.84-1.36-1.94-2.53
		c-0.16-1.96,0.09-4.06,2.78-4.02C149.53,147.6,151.37,148.06,153.15,148.31z"/>
	<path class="st28" d="M521.31,326.32c-4.84,0.49-9.1-1.02-13.45-1.64c-1.16-0.17-2.9-0.53-2.52-2.19c0.32-1.4,1.91-0.95,2.82-0.56
		C512.37,323.75,517.6,322.42,521.31,326.32z"/>
	<path class="st27" d="M171.53,180.49c-2.87-0.06-5.21-1.87-7.49,0.25c-0.4,0.37-3.25,0.3-2.54-2.35c0.36-1.34,0.4-2.77,0.6-4.25
		C165.39,175.94,168.87,176.97,171.53,180.49z"/>
	<path class="st29" d="M533.94,314.16c-1.39,1.5,0.7,2.54,0.53,3.9c-0.12,0.99-0.66,2.38-1.46,1.28c-3.63-5.01-1.31,2.88-3.69,0.87
		c-0.77-1.96-1.93-4.53-0.28-7.21c0.83-1.35,1.94,0.64,2.99,0.17C533.06,312.76,534.08,312.34,533.94,314.16z"/>
	<path class="st30" d="M138.47,133.03c-0.03,1.35-1.16,2.21-2.04,1.27c-1.72-1.83-3.73-1.33-5.7-1.58
		c-0.71-0.09-1.38-0.56-2.06-0.86c3.22-0.91-0.67-2.66,0.37-3.51c1.01-0.83,2.06,0.03,2.88,0.85c1.01,1.02,2.4,0.59,3.59,0.92
		C136.98,130.52,138.03,131.37,138.47,133.03z"/>
	<path class="st31" d="M141.18,141.27c-0.76,1.15-0.69,3.66-2.79,3.05c-1.79-0.52-4.67-2.35-4.56-3.33
		c0.29-2.64,3.15-1.68,5.07-1.94C140.52,138.83,141.31,139.5,141.18,141.27z"/>
	<path class="st32" d="M108.4,135.41c-1.17,3.91-6.58,5.92-11.41,4.5C99.85,135.84,104.97,137.83,108.4,135.41z"/>
	<path class="st33" d="M110.88,258.4c0.31-0.26,0.62-0.51,0.92-0.77c3.79,3.16,5.03,7.98,7.43,12.11
		C116.82,265.67,110.77,264.43,110.88,258.4z"/>
	<path class="st34" d="M545.63,216.94c1.88-1.61,1.88-1.61,2.06-4.84c2.24,1.15,3.6,3.5,6.78,3.51c-2.3,3.35-5.16,3.18-7.94,3.19
		C544.89,218.82,544.89,218.06,545.63,216.94z"/>
	<path class="st35" d="M86.95,208.17c2.32,3.64,6.15,5.49,9.4,8.04c1.2,0.94,2.01,2.51,1.01,3.75c-1.45,1.77-1.61-1.25-2.78-1.11
		c-2.11-1.84-3.42-4.84-6.87-4.73C86.26,212.29,88.6,209.97,86.95,208.17z"/>
	<path class="st36" d="M195.78,225.55c0.83-1.21,3.12-1.03,3.01-3.14c1.73,1.54,4.05,1.62,6.21,2.36
		C198.73,229.08,198.73,229.08,195.78,225.55z"/>
	<path class="st37" d="M164.59,271.2c6.15-2.24,11.21,0.69,16.83,3.41c-1.81,0.65-2.87,0.16-8.49-1.84
		C170.33,271.85,167.8,269.34,164.59,271.2z"/>
	<path class="st15" d="M573.78,387.67c1.88,1.73,5.75-1.33,6.15,2.53c0.14,1.37-1.32,3.52-2.79,3.49
		C573.55,393.59,574.87,389.87,573.78,387.67z"/>
	<path class="st38" d="M548.31,202.2c-0.32-2.01-0.74-4.02-0.93-6.05c-0.1-1.03-0.2-2.47,1.49-2.39c1.28,0.06,1.49,1.13,1.2,2.11
		c-0.56,1.89,0.02,3.61,1.08,4.97c2,2.58,0,2.91-1.7,3.53C547.51,204.48,548.07,203.25,548.31,202.2z"/>
	<path class="st39" d="M428.07,150.33c4.01-0.06,7.69,0.34,7.98,5.62c-0.77,0.4-1.87,0.61-2.23-0.54c-0.43-1.34-0.19-2.95-2.26-3.04
		c-2.52-0.11-1.25,2.08-1.93,3.07c-0.44,0.64-1.08,1.14-1.63,1.7C428.63,154.88,429.42,152.61,428.07,150.33z"/>
	<path class="st40" d="M183.15,173.59c2.65,0.7,0.94,2.53,1.02,3.9c-1.7,0.29-3.39,0.73-5.09,0.83c-1.12,0.06-3.08,0.62-3.13-1
		c-0.05-1.55,1.23-2.58,3.31-2.28C180.56,175.22,182.83,176.59,183.15,173.59z"/>
	<path class="st41" d="M192.34,278.03c-3.96,0.92-6.96,1.48-9.96,0.25C185.24,273.75,188.35,275.39,192.34,278.03z"/>
	<path class="st42" d="M509.91,271.84c-2.18-2.13,0.6-3.95,0.44-6c-0.05-0.69,1.06-1.06,1.89-0.56c1.05,0.64,1.56,1.73,1.27,2.81
		c-0.35,1.3-1.8,2.18-1.62,3.76C511.23,272.42,510.57,272.39,509.91,271.84z"/>
	<path class="st43" d="M530.94,233.91c1.23,2.12,2.91-0.09,4.31,0.46c-0.12,2.58-1.3,3.91-4.01,3.31c-0.21-0.05-0.34-0.51-0.5-0.77
		c-0.81,0.91-1.18,4.32-2.87,1.02C526.92,236.08,529.33,234.85,530.94,233.91z"/>
	<path class="st44" d="M556.22,318.03c-2.14,0.27-3.93,0.16-4.67-2.5c-0.33-1.17-2.41-2.26-0.21-3.24c1.49-0.66,3.13-0.08,3.69,1.87
		c0.38,1.32,0.74,2.64,1.1,3.96C556.13,318.12,556.22,318.03,556.22,318.03z"/>
	<path class="st45" d="M215.06,159.1c0.39,2.15,2.55,4.61-1.08,6.11c-0.19,0.08,0.01,1.11,0.03,1.7
		C211.21,163.89,211.75,159.87,215.06,159.1z"/>
	<path class="st46" d="M515.8,283.3c1.69,0.54,2.9-2.87,4.49-0.83c1.26,1.61,0.23,3.49-1.3,4.54c-3.56,2.43-1.65-4.11-4.58-2.91
		c-0.02-0.14-0.1-0.31-0.06-0.42c0.05-0.14,0.21-0.24,0.32-0.35C515.03,282.91,515.41,282.9,515.8,283.3z"/>
	<path class="st47" d="M177.34,298.85c-0.88,0-1.77,0.01-2.65,0.01c0.16-2.45-0.65-3.51-3.12-2.15c-0.93-1.31-2.95,0.03-3.77-1.55
		c3.36-0.02,6.95-2.27,9.92,1.49C178.79,298,177.43,298.14,177.34,298.85z"/>
	<path class="st48" d="M238.28,109.09c-0.27,0.69,0,2.51-0.79,1.91c-2.92-2.24-5.37-0.75-8.1,0.54c0.04-3.4,4.74-2.12,4.71-5.23
		C235.5,107.24,236.89,108.17,238.28,109.09z"/>
	<path class="st49" d="M85.05,162.14c-1.6,0.89-3.17,1.82-4.8,2.65c-0.59,0.3-1.3,1.28-1.95,0.42c-0.77-1.01,0.71-1.49,0.89-2.33
		C81.01,161.52,82.57,158.23,85.05,162.14z"/>
	<path class="st50" d="M255.41,124.58c-2.09-0.49-4.18-0.98-6.26-1.47c0.31-2.29,2.24-1.82,3.3-2.6
		C254.11,121.38,255.72,122.28,255.41,124.58z"/>
	<path class="st12" d="M165.67,139c1.06-0.72,2.12-1.44,3.19-2.16c2.15,0.41,4.62-0.69,7.68,2.16C172.07,139,168.87,139,165.67,139z
		"/>
	<path class="st51" d="M211.73,150.63c1.87,0.56,2.93,1.91,3.53,3.26c0.34,0.76-1.2,1.35-2.13,1.36c-1.29,0.01-2.69-0.42-2.71-1.92
		C210.41,152.42,211.27,151.51,211.73,150.63z"/>
	<path class="st52" d="M87.7,214.12c3.97-0.75,4.95-0.08,6.87,4.73c0,0-0.45,0.02-0.45,0.02l-0.44-0.05
		C91.69,217.26,89.69,215.69,87.7,214.12z"/>
	<path class="st53" d="M490.44,259.43c1.38-0.03,2.77-0.05,4.15-0.08c-1.5,0.93-2.74,1.79-1.67,4c0.53,1.11-0.84,1.87-1.87,2.29
		c-0.33,0.13-1.01,0.02-1.21-0.23c-0.8-1.04-0.05-1.7,0.75-2.27C492.43,261.81,490.61,260.66,490.44,259.43z"/>
	<path class="st54" d="M439.27,281.61c1.92,1.2,3.55,2.56,3.04,5.06c-0.07,0.34-1.27,0.87-1.56,0.68
		C438.51,285.95,439.87,283.55,439.27,281.61z"/>
	<path class="st55" d="M548.31,202.2c0.21,0.82,0.17,1.76,1.15,2.18c-1.6,1.57,3.93,5.54-2.17,5.73
		C547.98,207.46,546.76,204.7,548.31,202.2z"/>
	<path class="st56" d="M141.72,162.06c0.74,1.1,2.59,1.45,2.25,3.33c-2.14,1.35-3.83-0.82-5.8-0.74
		C139.37,163.8,139.53,161.54,141.72,162.06z"/>
	<path class="st57" d="M533.94,314.16c-0.31-0.95-1.2-0.79-1.9-0.99c2.9-0.74,3.4-4.91,8.17-4.8
		C537.7,310.7,535.82,312.43,533.94,314.16z"/>
	<path class="st58" d="M560.03,372.79c0.37-0.71,1.48-1.9,1.5-0.77c0.03,1.62,2.04,2.39,1.22,4.02c-0.87,0.55-1.09,2.24-2.48,1.77
		c-1.91-0.64,0.01-1.76-0.14-2.67C560,374.36,560.06,373.57,560.03,372.79z"/>
	<path class="st59" d="M545.5,310.31c-0.25,0.89,0.01,2.4-1.54,2.26c-1.05-0.09-1.19-1.3-1.2-2.25c0-1.09,0.02-2.41,1.53-2.28
		C545.37,308.12,545.56,309.23,545.5,310.31z"/>
	<path class="st60" d="M146.06,132.4c-2.69,1.36-4.37,1.48-5.72-0.43c-0.22-0.31-0.26-1.18-0.12-1.24
		C142.24,129.78,143.69,131.04,146.06,132.4z"/>
	<path class="st61" d="M545.63,216.94c-0.03,0.78,0.07,1.49,0.89,1.86c0.33,0.98,1.33,1.75,0.93,2.97
		c-0.89,0.03-1.77,0.05-2.66,0.08C543.94,220.02,542.91,218.16,545.63,216.94z"/>
	<path class="st62" d="M515.8,283.3c-0.38,0.01-0.76,0.02-1.13,0.02c-1.11-1.75-1.6-3.68-1.79-6.19
		C516.37,278.32,515.37,281.15,515.8,283.3z"/>
	<path class="st63" d="M509.91,271.84c0.66,0,1.32,0,1.98,0.01c0.88,1.28,3.41,0.33,3.52,3.12
		C513.41,273.96,510.22,275.92,509.91,271.84z"/>
	<path class="st64" d="M443.49,141.68c2.53,1.17,1.66,3.35,1.86,5.38c-2.97-0.51-3.35-1.92-1.99-4.09
		C443.4,142.55,443.44,142.12,443.49,141.68z"/>
	<path class="st65" d="M195.89,217.07c-1.78,0.89-3.55,1.79-6.16,3.1c1.06-3.14,2.78-4.02,5.02-4.3
		C195.13,216.27,195.51,216.67,195.89,217.07z"/>
	<path class="st66" d="M325.98,119.76c2.91,3.12-1.07,2.5-1.93,3.56C321.61,120.46,324.13,120.29,325.98,119.76z"/>
	<path class="st67" d="M148.56,139.07c-3.06,1.17-4.71,1.07-5.88-1.47C144.77,136.86,146.18,137.65,148.56,139.07z"/>
	<path class="st68" d="M503.47,283.25c2.33-1.88,3.67-2.96,5.68-4.59C508,281.05,507.25,282.68,503.47,283.25z"/>
	<path class="st69" d="M536.59,328.59c1.43-1.62,2.91-3.22,5.8-2.55C540.56,327.67,538.85,328.69,536.59,328.59z"/>
	<path class="st70" d="M580.84,321.48c2.11-0.2,3.84-1.48,6.03-2.73C585.04,322.14,585.04,322.14,580.84,321.48z"/>
	<path class="st71" d="M338.41,225.57c0.26,1.01,2.53,1.51,0.87,2.98c-0.76,0.67-0.81,2.33-2.36,1.92
		c-1.29-0.34-1.51-1.53-1.77-2.62c-0.19-0.77-0.35-1.56-0.52-2.33C335.89,225.54,337.15,225.56,338.41,225.57z"/>
	<path class="st72" d="M327.87,221.67c1.23-0.03,2.32,0.54,2.39,1.69c0.09,1.43-2-0.12-1.96,0.87c0.1,2.47-1.16,3.67-3.24,4.38
		c-0.5-0.36-0.55-0.78-0.16-1.25c0.83-1.05,1.13-2.24,0.88-3.57C326.72,223.33,327.55,222.75,327.87,221.67z"/>
	<path class="st73" d="M358.62,210.15c0.15,1.54,1.68,1.67,2.59,2.48c-2.82,1.64-4.76,1.61-4.77-2.33
		C357.16,210.25,357.89,210.2,358.62,210.15z"/>
	<path class="st74" d="M313.72,216.98c1.31,3.46,2.41,5.78,0.89,8.18c-0.17,0.28-1.49,0.3-1.6,0.08
		C311.61,222.63,313.65,220.51,313.72,216.98z"/>
	<path class="st75" d="M345.09,233.9c-2.43,0.64-3.89,0.56-6.35-0.92C341.39,232.2,342.88,232.07,345.09,233.9z"/>
	<path class="st76" d="M324.89,227.35c0.05,0.42,0.11,0.83,0.16,1.25c-1.81,3.69-2.93,0.03-4.44-0.85
		C322.04,227.62,323.47,227.49,324.89,227.35z"/>
</g>
</svg>
