<?xml version="1.0" encoding="UTF-8"?>
<svg id="Capa_2" data-name="Capa 2" xmlns="http://www.w3.org/2000/svg" viewBox="0 0 336.14 336.13">
  <defs>
    <style>
      .cls-1 {
        fill: #1f1f1f;
        stroke-width: 0px;
      }
    </style>
  </defs>
  <g id="Capa_1-2" data-name="Capa 1">
    <g>
      <path class="cls-1" d="M240.1,233.96c0-25.37-.01-50.74,0-76.11,0-15.78,9.98-25.78,25.72-25.79,14.87-.01,29.75-.02,44.62,0,15.73.02,25.68,10,25.69,25.83.01,50.86.02,101.73,0,152.59,0,15.55-10.03,25.59-25.53,25.61-15.12.02-30.25.04-45.37,0-14.97-.04-25.1-10.22-25.12-25.27-.03-25.62,0-51.24,0-76.86Z"/>
      <path class="cls-1" d="M120.06,263.99c0-15.49-.02-30.99,0-46.48.03-15.28,10.1-25.4,25.32-25.43,15.12-.03,30.24-.03,45.37,0,15.24.03,25.32,10.12,25.33,25.42.03,31.11.03,62.23,0,93.34-.02,15.05-10.14,25.21-25.13,25.25-15.25.04-30.49.04-45.74,0-14.98-.04-25.11-10.21-25.14-25.24-.03-15.62,0-31.24,0-46.86Z"/>
      <path class="cls-1" d="M272.03,24.04c-10.54,0-20.24.03-29.95-.03-1.85-.01-3.78-.1-5.54-.63-5.58-1.67-9.01-7.01-8.39-12.66.63-5.77,5.39-10.57,11.29-10.61,20.38-.14,40.76-.14,61.14-.01,6.35.04,11.44,5.19,11.48,11.58.13,20.25.13,40.5,0,60.76-.04,6.53-5.49,11.57-11.87,11.6-6.52.03-11.93-5.13-12.03-11.85-.14-9.59-.03-19.19-.03-29.49-1.26,1.12-2.09,1.77-2.82,2.5-65.02,65.53-142.16,110.12-231.42,133.7-2.71.72-5.72,1.19-8.44.77-5.48-.84-9.26-5.64-9.46-11.04-.22-5.73,2.96-10.3,8.72-12.04,10.75-3.25,21.64-6.05,32.3-9.55,74.03-24.36,138.13-64.65,192.6-120.33.61-.62,1.18-1.29,2.42-2.66Z"/>
      <path class="cls-1" d="M.02,281.8c0-9.62-.04-19.24,0-28.86.07-14.54,10.27-24.8,24.76-24.85,15.5-.05,30.99-.05,46.49,0,14.5.05,24.72,10.29,24.77,24.84.06,19.49.06,38.98,0,58.47-.05,14.32-10.3,24.61-24.56,24.67-15.62.07-31.24.07-46.86,0-14.26-.06-24.5-10.37-24.58-24.66-.06-9.87-.01-19.74-.01-29.61Z"/>
    </g>
  </g>
</svg>