<?xml version="1.0" encoding="UTF-8"?>
<svg id="Capa_2" data-name="Capa 2" xmlns="http://www.w3.org/2000/svg" xmlns:xlink="http://www.w3.org/1999/xlink" viewBox="0 0 271.99 271.99">
  <defs>
    <style>
      .cls-1 {
        fill: #cdcfd9;
      }

      .cls-2 {
        fill: #8ac096;
      }

      .cls-3 {
        fill: #afdffc;
      }

      .cls-4 {
        fill: #a0b8c6;
      }

      .cls-5 {
        fill: #7fa6d1;
      }

      .cls-6 {
        fill: #979fb1;
      }

      .cls-7 {
        fill: #dee0e8;
      }

      .cls-8 {
        fill: #43819a;
      }

      .cls-9 {
        fill: #d3fdf1;
      }

      .cls-10 {
        fill: #e5fef6;
      }

      .cls-11 {
        fill: #6d9c91;
      }

      .cls-12 {
        fill: url(#Degradado_sin_nombre_2);
      }

      .cls-13 {
        fill: #367295;
      }

      .cls-14 {
        fill: #8fbaea;
      }

      .cls-15 {
        fill: #a1d6bd;
      }

      .cls-16 {
        fill: #5a84b3;
      }

      .cls-17 {
        fill: #fefffc;
      }

      .cls-18 {
        fill: #113737;
      }

      .cls-19 {
        fill: #99aeb3;
      }

      .cls-20 {
        fill: #195369;
      }

      .cls-21 {
        fill: #a9b2c1;
      }

      .cls-22 {
        fill: #102d31;
      }

      .cls-23 {
        fill: url(#Degradado_sin_nombre);
      }
    </style>
    <linearGradient id="Degradado_sin_nombre" data-name="Degradado sin nombre" x1="58.58" y1="100.45" x2="67.92" y2="99.64" gradientTransform="translate(0 248.74) scale(1 -1)" gradientUnits="userSpaceOnUse">
      <stop offset="0" stop-color="#1a4340"/>
      <stop offset="1" stop-color="#154858"/>
    </linearGradient>
    <linearGradient id="Degradado_sin_nombre_2" data-name="Degradado sin nombre 2" x1="210.02" y1="28.85" x2="202.57" y2="51.09" gradientTransform="translate(0 248.74) scale(1 -1)" gradientUnits="userSpaceOnUse">
      <stop offset="0" stop-color="#98aeae"/>
      <stop offset="1" stop-color="#9ea0b2"/>
    </linearGradient>
  </defs>
  <g id="Capa_1-2" data-name="Capa 1">
    <path class="cls-7" d="M0,0H271.99V271.99H0V0Z"/>
    <path class="cls-6" d="M225.25,204h4.25c0,1.4,.03,2.82-.02,4.23l-.06,.03h-4.16s-4.24-.01-4.24-.01v-4.25s4.24,0,4.24,0Z"/>
    <path class="cls-22" d="M221,204h4.25s0,4.25,0,4.25h-4.24s0-4.25,0-4.25Z"/>
    <path class="cls-6" d="M165.75,63.75h4.25c0,1.4-.06,2.84,.02,4.23l-.09,.02-4.19,.02v-4.26Z"/>
    <path class="cls-9" d="M0,0H271.99V55.24h-12.75s0-4.25,0-4.25h-4.27s.01,4.26,.01,4.26h-8.51s0,4.25,0,4.25h-4.24s0-4.25,0-4.25h-4.25c0,1.4,.07,2.84-.03,4.23l-.07,.03h-4.15s-4.24-.02-4.24-.02v-8.48c-1.43-.01-2.85-.01-4.27,0-1.35,0-2.92-.17-4.24,.09l-.03-.07c.08-1.42,.03-2.85,.02-4.28h-4.25s0-4.24,0-4.24h-21.26s-4.24-.01-4.24-.01h-4.26s0,4.24,0,4.24h-4.23s-4.26,.01-4.26,.01v4.24s-4.25,0-4.25,0c-.01,1.42-.01,2.84,0,4.26h-4.24s0,8.5,0,8.5h-4.25s0,4.26,0,4.26c-2.83-.05-5.66,0-8.49-.01v-4.26s-4.25,0-4.25,0h-4.25s0,4.25,0,4.25v4.25s0,8.41,0,8.41c0,7.05-.23,14.28,.02,21.31-1.42,.02-2.84,.04-4.26,.04v8.48s0,4.24,0,4.24h-4.24c-.01,1.39-.01,2.78,0,4.17-1.33,.26-2.9,.1-4.26,.09h-4.24c-.08,1.4-.07,2.88,.02,4.27l-.02,.07v4.15s-4.25,0-4.25,0h-4.25s-4.24,0-4.24,0h-4.25s-4.25,0-4.25,0v-4.25s-4.25,0-4.25,0h-4.23s-4.26,0-4.26,0v4.25s-4.25,0-4.25,0v4.25s-12.76,0-12.76,0v-4.27s-4.24,0-4.24,0v-4.26s-4.24,0-4.24,0c-1.42-.02-2.84,0-4.26,0v4.24s0,16.96,0,16.96c0,1.42-.07,2.89,.02,4.3l-.03,.07v4.62s0,8.04,0,8.04c.02,2.83,.02,5.67,0,8.5h4.26c0,2.83,.03,5.67,0,8.5,0,1.42-.03,2.84-.01,4.26v4.24s-4.24,0-4.24,0h-4.25s0,4.25,0,4.25h-4.25s-8.54,0-8.54,0c.04-.99,.38-3.5-.21-4.25h-3.99s-4.26,0-4.26,0h-4.26s-4.23,0-4.23,0v-8.49s0-4.17,0-4.17l.02-.07c-.12-1.39-.03-2.87-.03-4.27H17s0-4.26,0-4.26h-4.24s0,4.26,0,4.26h-4.26s0-4.25,0-4.25H4.24s0-4.25,0-4.25H0s0-55.25,0-55.25V0Z"/>
    <path class="cls-14" d="M46.76,89.24l4.17,.02,.1-.03,4.22,.02c0,1.31-.21,2.98,.08,4.25l-.08,.03v4.22c4.23,0,8.5,.15,12.72-.02l.03-.07c1.32,.27,2.89,.09,4.24,.09h4.26s0,4.25,0,4.25v4.25s0,4.25,0,4.25h-4.25c0,4.24-.1,8.51,0,12.75-1.42-.02-2.84,0-4.26,0v4.24s0,16.96,0,16.96c0,1.42-.07,2.89,.02,4.3l-.03,.07v4.62s0,8.04,0,8.04c.02,2.83,.02,5.67,0,8.5h4.26c0,2.83,.03,5.67,0,8.5,0,1.42-.03,2.84-.01,4.26v4.24s-4.24,0-4.24,0h-4.25s0,4.25,0,4.25h-4.25s-8.54,0-8.54,0c.04-.99,.38-3.5-.21-4.25h-3.99s-4.26,0-4.26,0h-4.26s-4.23,0-4.23,0v-8.49s0-4.17,0-4.17l.02-.07c-.12-1.39-.03-2.87-.03-4.27H17s0-4.26,0-4.26h-4.24s0,4.26,0,4.26h-4.26s0-4.25,0-4.25H4.24s0-4.25,0-4.25H0s0-55.25,0-55.25H8.5s0-4.26,0-4.26h4.26s0,4.26,0,4.26h25.5s0,4.25,0,4.25h4.21c.12-1.4,.04-2.86,.04-4.27v-4.25s-4.27,0-4.27,0c.01-1.36,.18-2.92-.08-4.24l.07-.03c.09-2.81,.03-5.65,0-8.46,2.84,.02,5.68,0,8.53-.02Z"/>
    <path class="cls-7" d="M46.76,89.24l4.17,.02,.1-.03,4.22,.02c0,1.31-.21,2.98,.08,4.25l-.08,.03v4.22c4.23,0,8.5,.15,12.72-.02l.03-.07c1.32,.27,2.89,.09,4.24,.09h4.26s0,4.25,0,4.25v4.25s0,4.25,0,4.25h-4.25c0,4.24-.1,8.51,0,12.75-1.42-.02-2.84,0-4.26,0v4.24s0,16.96,0,16.96c0,1.42-.07,2.89,.02,4.3l-.03,.07v4.62s0,8.04,0,8.04c.02,2.83,.02,5.67,0,8.5h4.26c0,2.83,.03,5.67,0,8.5,0,1.42-.03,2.84-.01,4.26v4.24s-4.24,0-4.24,0h-4.25s0,4.25,0,4.25h-4.25s-8.54,0-8.54,0c.04-.99,.38-3.5-.21-4.25h-3.99s-4.26,0-4.26,0h-4.26s-4.23,0-4.23,0v-8.49s0-4.17,0-4.17l.02-.07c1.39-.11,2.82-.04,4.22-.04v-4.24s4.28,0,4.28,0h4.23s.01-4.24,.01-4.24h4.25s-.01-4.25-.01-4.25h-4.24s0-8.49,0-8.49v-4.18s-.09,.01-.09,.01c-1.22-.29-2.82-.1-4.08-.09l-.09-.05c-.16-2.79,.04-5.65,.05-8.44-.16-1.41-.04-2.94-.04-4.37v-8.38s0-4.24,0-4.24v-4.26s4.26,0,4.26,0v-8.49s0-4.25,0-4.25h-4.25s0-4.26,0-4.26h-4.27c.01-1.36,.18-2.92-.08-4.25l.07-.03c.09-2.81,.03-5.65,0-8.46,2.84,.02,5.68,0,8.53-.02Z"/>
    <path class="cls-21" d="M59.5,182.75h4.25c0,1.4-.04,2.83,0,4.25v4.25s-4.25,0-4.25,0h-8.54c.04-.99,.38-3.51-.21-4.25h-3.99s0-4.25,0-4.25c2.83-.02,5.67,0,8.5,.02,1.41,.05,2.84-.01,4.24-.02Z"/>
    <path class="cls-18" d="M50.75,186.99h8.75s0,4.25,0,4.25h-8.54c.04-.99,.38-3.51-.21-4.25Z"/>
    <path class="cls-13" d="M63.75,119.01h4.25s0,4.25,0,4.25v4.24s0,16.96,0,16.96c0,1.42-.07,2.89,.02,4.3l-.03,.07c-1.21-.32-2.97-.09-4.24-.07v-4.25s0-8.48,0-8.48v-4.38s0-8.4,0-8.4v-4.24Z"/>
    <path class="cls-23" d="M59.5,136.27c1.06-.54,3.06-.3,4.25-.24v8.48s0,4.25,0,4.25c1.27-.01,3.02-.25,4.24,.07v4.62s0,8.04,0,8.04c-1.31-.02-2.79,.28-4.04-.13-.27-.34-.19-.55-.19-.98-.09-2.45-.02-4.93-.02-7.39h-4.26c.08-2.82,.01-5.67,.01-8.5v-8.23Z"/>
    <path class="cls-18" d="M63.93,153.12c1.08-.14,2.45-.31,3.52-.1,.34,.07,.35,.15,.54,.43v8.04c-1.31-.02-2.79,.28-4.04-.13-.27-.34-.19-.55-.19-.98,.45-1.27,.16-5.73,.16-7.26Z"/>
    <path class="cls-17" d="M46.75,165.75h4.25c.02,2.83,.02,5.67,0,8.51-2.83,0-5.67,.03-8.5,0v4.25s-4.28,0-4.28,0h-4.23s0-4.17,0-4.17l.02-.07c1.39-.11,2.82-.04,4.22-.04v-4.24s4.28,0,4.28,0h4.23s.01-4.24,.01-4.24Z"/>
    <path class="cls-5" d="M68,97.66c1.32,.27,2.89,.09,4.24,.09h4.26s0,4.25,0,4.25v4.25s0,4.25,0,4.25h-4.25c-1.37,0-2.92,.15-4.26-.09,.09-1.37,.03-2.78,.03-4.16v-4.27c0-1.42,0-2.83-.04-4.25l.03-.07Z"/>
    <path class="cls-6" d="M68,97.66c1.32,.27,2.89,.09,4.24,.09v4.25s-4.24-.02-4.24-.02c.02-1.42,.01-2.83-.03-4.25l.03-.07Z"/>
    <path class="cls-8" d="M59.5,127.5v4.17c1.24,.18,3.02,.25,4.24-.02v4.38c-1.19-.06-3.18-.3-4.25,.24v8.23s-4.25,0-4.25,0v-17s4.25,0,4.25,0Z"/>
    <path class="cls-20" d="M59.5,131.67c1.24,.18,3.02,.25,4.25-.02v4.38c-1.19-.06-3.18-.3-4.25,.24v-4.6Z"/>
    <path class="cls-14" d="M67.98,110.41c1.34,.25,2.89,.09,4.26,.09,0,4.25-.1,8.52,0,12.76-1.42-.02-2.84,0-4.26,0v-4.26s-4.25,.01-4.25,.01v-4.27s0-4.24,0-4.24c1.39,0,2.8,.03,4.18-.02l.05-.08Z"/>
    <path class="cls-18" d="M67.93,110.49c.19,1.38,.06,2.87,.07,4.26h-4.25s0-4.24,0-4.24c1.39,0,2.8,.03,4.18-.02Z"/>
    <path class="cls-19" d="M42.5,127.5h4.25s0,21.33,0,21.33h-.08c-1.22-.28-2.82-.08-4.08-.08l-.09-.05c-.16-2.79,.04-5.65,.05-8.44-.16-1.41-.04-2.94-.04-4.37v-8.38Z"/>
    <path class="cls-17" d="M59.49,152.99h4.26c0,2.46-.07,4.94,.02,7.39,0,.43-.09,.64,.19,.98,1.25,.41,2.73,.11,4.04,.13,.02,2.83,.02,5.67,0,8.5l-4.26,.02v-8.51s-4.25,.02-4.25,.02c-.03-2.84-.02-5.68,0-8.52Z"/>
    <path class="cls-19" d="M38.16,97.75l.07-.03c4.24,.18,8.53,.04,12.77,.03v4.26s-8.5,0-8.5,0h-4.27c.01-1.36,.18-2.92-.08-4.25Z"/>
    <path class="cls-21" d="M34,178.51h4.23c.01,1.41,.02,2.83,.01,4.24h4.25s0,4.24,0,4.24h-4.26s-4.23,0-4.23,0v-8.49Z"/>
    <path class="cls-18" d="M42.51,101.99h8.49s0,8.5,0,8.5h-4.25s0-4.25,0-4.25h-4.25s0-4.26,0-4.26Z"/>
    <path class="cls-17" d="M68,169.99h4.26c0,2.83,.03,5.67,0,8.5-1.42,.03-2.84,.01-4.26,.02v-8.52Z"/>
    <path class="cls-17" d="M42.5,118.99h4.25c0,2.83,.03,5.68,0,8.52h-4.25s0-4.25,0-4.25v-4.26Z"/>
    <path class="cls-19" d="M46.75,153.01h4.25s0,8.49,0,8.49h-4.24s0-8.49,0-8.49Z"/>
    <path class="cls-18" d="M63.75,123.25v8.4c-1.23,.27-3.01,.2-4.25,.02v-4.17s0-4.25,0-4.25h4.25Z"/>
    <path class="cls-17" d="M63.75,106.25h4.26c0,1.37,.06,2.78-.03,4.15l-.05,.08c-1.39,.05-2.79,.02-4.18,.02-.05-1.41,0-2.84,0-4.25Z"/>
    <path class="cls-6" d="M51.03,89.23l4.22,.02c0,1.31-.21,2.98,.08,4.25l-.08,.03c-1.38-.12-2.85-.03-4.24-.03-.03-1.39,.11-2.87-.08-4.24l.1-.03Z"/>
    <path class="cls-21" d="M46.76,89.24l4.17,.02c.19,1.37,.05,2.85,.08,4.24h-4.26s0-4.26,0-4.26Z"/>
    <path class="cls-6" d="M55.25,178.5h4.25s0,4.25,0,4.25c-1.41,0-2.84,.07-4.24,.02v-4.27Z"/>
    <path class="cls-18" d="M68,182.75h4.24s0,4.24,0,4.24h-4.24s0-4.24,0-4.24Z"/>
    <path class="cls-7" d="M29.75,127.5h12.74s0,8.38,0,8.38c0,1.42-.11,2.96,.04,4.37h-8.56s-4.24,0-4.24,0v-4.69s0-3.82,0-3.82v-4.24Z"/>
    <path class="cls-18" d="M21.25,127.5h8.5s0,4.24,0,4.24v8.51s.01,4.25,.01,4.25h-4.27s-4.24,0-4.24,0v-17Z"/>
    <path class="cls-15" d="M29.75,135.56v4.69s.01,4.25,.01,4.25h-4.27s0-8.53,0-8.53c1.19-.03,2.49,.2,3.67,0,.37-.06,.38-.13,.59-.41Z"/>
    <path class="cls-2" d="M29.75,131.74v3.82c-.21,.29-.22,.35-.59,.41-1.18,.2-2.47-.03-3.67,0v-4.23s4.25,0,4.25,0Z"/>
    <path class="cls-6" d="M42.54,140.25c0,2.8-.21,5.65-.05,8.44-2.77,.25-5.69,.05-8.48,.05,.1-2.81,0-5.67-.04-8.49h8.56Z"/>
    <path class="cls-18" d="M34.01,123.25h4.24s4.24,0,4.24,0v4.24s-12.74,0-12.74,0v-4.25s4.26,0,4.26,0Z"/>
    <path class="cls-18" d="M42.58,148.75c1.26,0,2.86-.2,4.08,.09h.08s.01,4.17,.01,4.17v8.49s-4.24,0-4.24,0v-8.49c-.01-.99,0-1.98,.01-2.97-.03-.45-.02-.83,.06-1.28Z"/>
    <path class="cls-22" d="M42.58,148.75c1.26,0,2.86-.2,4.08,.09-.04,1.37-.07,2.73-.03,4.11-1.32,.05-2.64,.07-3.96,.05-.04-.97,0-2.02-.15-2.97-.03-.45-.02-.83,.06-1.28Z"/>
    <path class="cls-11" d="M29.74,140.25h4.24c.03,2.82,.13,5.68,.04,8.49h-4.26s0-4.24,0-4.24l-.02-4.25Z"/>
    <path class="cls-11" d="M42.49,148.7l.09,.05c-.08,.45-.09,.83-.06,1.28-.02,.99-.02,1.98-.02,2.97-2.83-.04-5.66,0-8.49,0v-4.25c2.79,0,5.71,.2,8.48-.05Z"/>
    <path class="cls-18" d="M42.5,110.59c1.23-.32,2.97-.1,4.26-.09v8.49s-4.25,0-4.25,0c.05-2.8,0-5.61,0-8.41Z"/>
    <path class="cls-11" d="M34,119h4.25s0,4.25,0,4.25h-4.24s0-4.25,0-4.25Z"/>
    <path class="cls-18" d="M46.75,161.5h4.24s.01,4.24,.01,4.24h-4.25s0-4.24,0-4.24Z"/>
    <path class="cls-18" d="M42.5,165.75h4.25s-.01,4.24-.01,4.24h-4.23s0-4.24,0-4.24Z"/>
    <path class="cls-7" d="M72.23,51c1.42,.01,2.84,.01,4.26,0v4.25s4.21,0,4.21,0l.06,.08v4.16s4.25,0,4.25,0h4.25s4.25,0,4.25,0v4.26s0,4.25,0,4.25h4.26c1.42,.01,2.83,.02,4.25,0,1.42-.02,2.83-.03,4.25-.03h4.25s4.25,0,4.25,0v-4.25s4.25,.01,4.25,.01v4.24c1.42,0,2.83,.02,4.25,0l.26,.02h25.24s0,4.24,0,4.24v8.41c0,7.05-.23,14.28,.01,21.31-1.42,.02-2.84,.04-4.26,.04v8.48s0,4.24,0,4.24h-4.24c-.01,1.39-.01,2.78,0,4.17-1.33,.26-2.9,.1-4.26,.09h-4.24c-.08,1.4-.07,2.88,.02,4.27l-.02,.07v4.15s-4.25,0-4.25,0h-4.25s-4.24,0-4.24,0h-4.25s-4.25,0-4.25,0v-4.25s-4.25,0-4.25,0h-4.23s-4.26,0-4.26,0v4.25s-4.25,0-4.25,0v4.25s-12.76,0-12.76,0v-4.27s-4.24,0-4.24,0v-4.26s-4.24,0-4.24,0c-.11-4.24,0-8.51,0-12.76h4.25s0-4.24,0-4.24v-4.25s0-4.25,0-4.25h-4.26c-1.35,0-2.92,.18-4.24-.09l-.03,.07c-4.21,.17-8.49,.02-12.72,.02v-4.22s.07-.03,.07-.03c-.29-1.27-.08-2.94-.08-4.25l-4.22-.02-.1,.03-4.17-.02v-4.24s0-4.25,0-4.25v-1.43c.23-.78,.16-1.81,.17-2.63,1.07,0,3.16,.31,4.06-.15l-.02-4.3h4.27s12.78,0,12.78,0c-.04-1.42-.04-2.84-.01-4.25-.06-1.39,0-2.8-.01-4.19l-.02-.09c.03-1.41,.04-2.82,.04-4.23-.03-1.37-.19-2.89,.04-4.24,1.37,0,2.82-.09,4.18,.02,0-1.42,0-2.85-.02-4.27Z"/>
    <path class="cls-19" d="M123.51,68h25.24s0,4.24,0,4.24v8.41c0,7.05-.23,14.28,.01,21.31-1.42,.02-2.84,.04-4.26,.04v8.48s0,4.24,0,4.24h-4.24c-.01,1.39-.01,2.78,0,4.17-1.33,.26-2.9,.1-4.26,.09h-4.24s0-4.24,0-4.24h-4.24s0-4.25,0-4.25v-4.25s-4.25,0-4.25,0v-4.25s0-17,0-17v-8.5s0-4.24,0-4.24c.07-1.14-.35-3.33,.25-4.25Z"/>
    <path class="cls-7" d="M123.26,72.25h4.24s0,8.49,0,8.49h4.25s0,16.99,0,16.99h-4.24s0-12.75,0-12.75h-4.26s0-8.5,0-8.5v-4.24Z"/>
    <path class="cls-20" d="M144.5,72.25h4.25s0,8.41,0,8.41c0,7.05-.23,14.28,.02,21.31-1.42,.02-2.84,.04-4.26,.04v-21.39s0-8.38,0-8.38Z"/>
    <path class="cls-11" d="M127.5,106.25h4.25s0,8.5,0,8.5h-4.24s0-4.25,0-4.25v-4.25Z"/>
    <path class="cls-7" d="M123.25,102h8.5s0,4.25,0,4.25h-4.25s-4.25,0-4.25,0v-4.25Z"/>
    <path class="cls-22" d="M131.75,114.75h4.25s0,4.24,0,4.24h-4.24s0-4.24,0-4.24Z"/>
    <path class="cls-22" d="M140.25,110.5h4.25s0,4.24,0,4.24h-4.24s0-4.24,0-4.24Z"/>
    <path class="cls-9" d="M114.75,63.75h4.25s0,4.25,0,4.25c1.41,0,2.83,.02,4.24,0l.26,.02c-.6,.92-.18,3.11-.25,4.25v4.24s0,8.5,0,8.5v17s0,4.25,0,4.25h-4.24s0-4.25,0-4.25c-1.41-.03-2.83,0-4.25,0v-4.25s-4.25,0-4.25,0c.02-1.4,0-2.81,0-4.22l-.07-.02h-4.08c-.34-1.2-.1-3-.1-4.25-1.31,0-2.99,.22-4.25-.1v-4.15s0-4.25,0-4.25v-4.21c-1.41-.08-2.83-.03-4.23-.02-.04-1.43-.01-2.86-.01-4.29,1.4,0,2.83,.07,4.22-.02,.1-1.38,.03-2.82,.03-4.2,1.42-.02,2.83-.03,4.25-.03h4.25s4.25,0,4.25,0v-4.25Z"/>
    <path class="cls-14" d="M102,68.01c1.42-.02,2.83-.03,4.25-.03h4.25s-.01,4.26-.01,4.26h-4.24s-4.2,0-4.2,0c-.17,1.4-.07,2.89-.06,4.3-1.41-.08-2.83-.03-4.24-.02-.04-1.43-.01-2.86-.01-4.29,1.4,0,2.83,.07,4.22-.02,.1-1.38,.03-2.82,.03-4.2Z"/>
    <path class="cls-18" d="M106.25,67.99h4.25s-.01,4.26-.01,4.26h-4.24s0-4.26,0-4.26Z"/>
    <path class="cls-1" d="M114.75,63.75h4.25s0,4.25,0,4.25v4.24s-4.26,0-4.26,0h-4.25s.01-4.25,.01-4.25h4.25s0-4.25,0-4.25Z"/>
    <path class="cls-19" d="M114.75,68v4.25s-4.26,0-4.26,0v-4.25s4.26,0,4.26,0Z"/>
    <path class="cls-11" d="M119,67.99c1.41,0,2.83,.02,4.24,0l.26,.02c-.6,.92-.18,3.11-.25,4.25v4.24s-4.25,0-4.25,0v-4.26s0-4.24,0-4.24Z"/>
    <path class="cls-22" d="M102,85h4.25s0,4.25,0,4.25c-1.31,0-2.99,.22-4.25-.1v-4.15Z"/>
    <path class="cls-22" d="M106.25,89.25h4.25c0,1.34,.19,2.95-.07,4.25h-4.08c-.34-1.2-.1-3-.1-4.25Z"/>
    <path class="cls-22" d="M119,102h4.25s0,4.25,0,4.25h-4.24s0-4.25,0-4.25Z"/>
    <path class="cls-21" d="M110.5,93.53c1.42-.03,2.83-.04,4.25-.03,0,1.41-.03,2.83,0,4.25h-4.26c.02-1.41,0-2.81,0-4.22Z"/>
    <path class="cls-11" d="M114.76,97.75h4.24s0,4.25,0,4.25c-1.41-.03-2.83,0-4.25,0v-4.25Z"/>
    <path class="cls-9" d="M89.26,97.83h.08c.03,1.4,.09,2.79-.03,4.18l4.19-.02c0,1.41-.07,2.89,.04,4.29,1.41-.08,2.82-.05,4.22-.04v4.25s0,4.25,0,4.25v8.49s0,4.25,0,4.25h-4.25s0,4.25,0,4.25h-12.76s0-4.26,0-4.26h-4.25s0-4.25,0-4.25h-4.24c-.11-4.24,0-8.51,0-12.75h4.25s0-4.24,0-4.24v-4.25s4.25,0,4.25,0h4.25s4.24,0,4.24,0l.02-4.18Z"/>
    <path class="cls-19" d="M89.26,97.83h.08c.03,1.4,.09,2.79-.03,4.18l4.19-.02c0,1.41-.07,2.89,.04,4.29l-.03,.06c-1.2-.34-2.99-.1-4.25-.09h-4.24s0-4.25,0-4.25h4.24s.02-4.17,.02-4.17Z"/>
    <path class="cls-22" d="M85,102h4.24s0,4.25,0,4.25h-4.24s0-4.25,0-4.25Z"/>
    <path class="cls-6" d="M76.5,102h4.25s4.25,0,4.25,0v4.24s-8.5,0-8.5,0v-4.25Z"/>
    <path class="cls-17" d="M93.53,106.28c1.41-.08,2.82-.05,4.22-.04v4.25s-4.26,0-4.26,0v-4.16s.03-.06,.03-.06Z"/>
    <path class="cls-20" d="M89.25,106.25c1.26,0,3.05-.25,4.25,.09v4.16s-4.25,0-4.25,0v-4.25Z"/>
    <path class="cls-22" d="M93.5,110.5h4.25s0,4.25,0,4.25h-4.24s0-4.25,0-4.25Z"/>
    <path class="cls-19" d="M76.49,84.99h8.51s0,4.25,0,4.25v4.25s4.25,0,4.25,0v4.34s-.02,4.18-.02,4.18h-4.24s-4.25,0-4.25,0h-4.25s0-4.25,0-4.25h-4.26c-1.35,0-2.92,.18-4.24-.09l-.03,.07c-4.21,.17-8.49,.02-12.72,.02v-4.22s.07-.03,.07-.03c-.29-1.27-.08-2.94-.08-4.25h4.16s.07-.04,.07-.04c5.63,.28,11.37,.03,17.02,.04v-4.25Z"/>
    <path class="cls-17" d="M80.74,89.25h4.26s0,4.24,0,4.24h4.25s0,4.34,0,4.34l-.02,4.18h-4.24s-4.25,0-4.25,0v-4.25c-.05-1.4,0-2.83-.01-4.23v-4.27Z"/>
    <path class="cls-22" d="M80.75,97.75h4.24s0,4.24,0,4.24h-4.25s0-4.24,0-4.24Z"/>
    <path class="cls-11" d="M76.5,93.49c1.38,0,2.87-.1,4.24,.03,0,1.41-.04,2.83,0,4.23v4.25s-4.25,0-4.25,0v-4.25s0-4.26,0-4.26Z"/>
    <path class="cls-20" d="M68,93.5h8.5s0,4.25,0,4.25h-4.26c-1.35,0-2.92,.18-4.24-.09v-4.16Z"/>
    <path class="cls-18" d="M55.25,89.25h4.16c.26,1.32,.09,2.89,.09,4.25h-4.17c-.29-1.27-.08-2.94-.08-4.25Z"/>
    <path class="cls-6" d="M97.76,106.25h8.49s0,4.26,0,4.26h4.25s0,4.25,0,4.25h4.25s0,4.25,0,4.25h4.25s0,4.25,0,4.25h4.26s0,4.24,0,4.24h-4.24s-4.25,0-4.25,0h-4.25s0-4.25,0-4.25h-4.25s-4.23,0-4.23,0h-4.26s0-8.5,0-8.5v-4.25s0-4.25,0-4.25Z"/>
    <path class="cls-20" d="M97.75,114.75h4.25s0,4.25,0,4.25c1.17,0,2.35-.02,3.52,.02l.73-.02v4.25s-4.23,0-4.23,0h-4.26s0-8.5,0-8.5Z"/>
    <path class="cls-22" d="M106.25,119v4.25s-4.23,0-4.23,0c-.06-1.38-.02-2.77-.01-4.16,1.17,.01,2.35,.06,3.52-.07l.73-.02Z"/>
    <path class="cls-17" d="M97.75,110.5h4.26s0,4.25,0,4.25h-4.25s0-4.25,0-4.25Z"/>
    <path class="cls-17" d="M110.5,123.25h4.26s0,4.25,0,4.25h-4.25s0-4.25,0-4.25Z"/>
    <path class="cls-17" d="M102,114.75h4.26s0,4.25,0,4.25l-.73,.02c-1.17-.04-2.35-.02-3.52-.02v-4.25Z"/>
    <path class="cls-7" d="M106.25,119h4.24s0,4.25,0,4.25h-4.25s0-4.25,0-4.25Z"/>
    <path class="cls-17" d="M89.25,59.5h4.25s0,4.26,0,4.26v4.25s4.26,0,4.26,0c1.42,.02,2.83,.03,4.25,.02,0,1.38,.06,2.83-.03,4.2-1.39,.09-2.82,.02-4.22,.02,0,1.43-.03,2.86,.01,4.29l-.03,.07v4.16s-4.24,0-4.24,0c.01-1.39,0-2.78-.01-4.17l-.08-.06c-1.38-.04-2.77-.01-4.14-.02h-4.26s0-4.25,0-4.25h-4.25s0-12.74,0-12.74h4.25s4.25,0,4.25,0Z"/>
    <path class="cls-19" d="M89.28,63.77h4.22s0,4.23,0,4.23h4.26c1.42,.01,2.83,.02,4.25,0,0,1.38,.06,2.83-.03,4.2-1.39,.09-2.82,.02-4.22,.02,0,1.43-.03,2.86,.01,4.29l-.03,.07v4.16s-4.24,0-4.24,0c.01-1.39,0-2.78-.01-4.17l-.08-.06c-1.38-.04-2.77-.01-4.14-.02v-4.24s-.01-8.41-.01-8.41l.03-.07Z"/>
    <path class="cls-20" d="M93.47,72.25h4.28c0,1.41-.03,2.85,.01,4.27l-.03,.07v4.16s-4.24,0-4.24,0c.01-1.39,0-2.78-.01-4.17l-.08-.06c-1.38-.04-2.77-.01-4.14-.02v-4.24s4.21,0,4.21,0Z"/>
    <path class="cls-22" d="M93.48,76.58c.96-.15,3.35-.29,4.25,.02v4.16s-4.24,0-4.24,0c.01-1.39,0-2.78-.01-4.17Z"/>
    <path class="cls-17" d="M89.25,59.5h4.25s0,4.26,0,4.26h-4.22s-.03,.08-.03,.08c-1.23-.31-2.95-.09-4.24-.08v-4.26s4.24,0,4.24,0Z"/>
    <path class="cls-6" d="M85,59.5h4.25c0,1.41-.07,2.86,.03,4.27l-.03,.07c-1.23-.31-2.95-.09-4.24-.08v-4.26Z"/>
    <path class="cls-18" d="M85.01,63.76c1.29-.02,3.01-.24,4.24,.08v8.41s-4.24,0-4.24,0v-8.48Z"/>
    <path class="cls-17" d="M68.03,72.25h4.21s0,4.25,0,4.25h-4.25s0,4.25,0,4.25h-12.74s0-4.27,0-4.27c-1.41,0-2.86-.06-4.27,.06l-.02-4.3h4.27s12.78,0,12.78,0Z"/>
    <path class="cls-18" d="M68.03,72.25h4.21s0,4.25,0,4.25h-4.25s-12.74,0-12.74,0v-4.24s12.77,0,12.77,0Z"/>
    <path class="cls-17" d="M97.76,76.52c1.41-.01,2.83-.06,4.24,.02v4.21s0,4.25,0,4.25v4.15s-.01,.07-.01,.07c-1.41,.1-2.84,.05-4.25,.05v-4.27s-4.25,.01-4.25,.01c0-1.42,0-2.85,0-4.27h4.25s-.01-4.15-.01-4.15l.03-.07Z"/>
    <path class="cls-4" d="M97.76,76.52c1.41-.01,2.83-.06,4.24,.02v4.21s-4.25,0-4.25,0v-4.16s.01-.07,.01-.07Z"/>
    <path class="cls-22" d="M97.75,80.75h4.25s0,4.25,0,4.25h-4.24s0-4.25,0-4.25Z"/>
    <path class="cls-22" d="M46.76,80.75h4.24c-.02,1.22-.28,3.05,.11,4.17,.12,.04,.25,.11,.38,.13,1.25-.07,2.5-.06,3.75-.05v4.25s-4.22-.02-4.22-.02l-.1,.03-4.17-.02v-4.24s0-4.25,0-4.25Z"/>
    <path class="cls-18" d="M51.49,85.05c1.25-.07,2.5-.06,3.75-.05v4.25s-4.22-.02-4.22-.02c-.05-1.18-.3-2.93,.09-4.03l.37-.15Z"/>
    <path class="cls-19" d="M68.06,55.26c1.37,0,2.82-.09,4.18,.02v8.48s0,4.24,0,4.24h-4.23c-.06-1.38,0-2.79-.01-4.18l-.02-.09c.03-1.41,.04-2.82,.04-4.23-.03-1.37-.19-2.89,.04-4.24Z"/>
    <path class="cls-18" d="M68,63.81c1.36-.19,2.86-.06,4.24-.06v4.24s-4.23,0-4.23,0c-.06-1.39,0-2.8-.01-4.19Z"/>
    <path class="cls-6" d="M89.34,97.84c2.17-.39,6.03-.07,8.41-.09v4.38s0,4.12,0,4.12c-1.41-.01-2.82-.04-4.22,.04-.11-1.4-.03-2.88-.04-4.29l-4.19,.02c.12-1.39,.06-2.78,.03-4.17Z"/>
    <path class="cls-17" d="M110.5,97.74h4.26s0,4.25,0,4.25c-1.42,.02-2.84,.01-4.26,.02v-4.27Z"/>
    <path class="cls-17" d="M114.75,101.99c1.41,0,2.84-.03,4.25,0v4.25c-1.41,.04-2.84,.01-4.26,.02v-4.27Z"/>
    <path class="cls-17" d="M106.34,93.5h4.08s.07,.03,.07,.03c0,1.4,.02,2.81,0,4.22l-4.26,.02c-.01-1.42-.05-2.84,.04-4.26h.07Z"/>
    <path class="cls-19" d="M55.25,85h4.26c0,1.4,.03,2.82-.02,4.22l-.07,.03h-4.16s0-4.25,0-4.25Z"/>
    <path class="cls-10" d="M68.02,68h4.23c0,1.41,.03,2.84,0,4.26h-4.21c-.04-1.42-.04-2.84-.01-4.26Z"/>
    <path class="cls-22" d="M123.25,106.25h4.25s0,4.25,0,4.25h-4.25s0-4.25,0-4.25Z"/>
    <path class="cls-22" d="M127.5,123.25c1.35,0,2.92-.18,4.24,.09v4.15s-4.25,0-4.25,0v-4.25Z"/>
    <path class="cls-3" d="M21.24,46.74h12.77s0,4.26,0,4.26h8.5s0,4.25,0,4.25h4.25s0,4.25,0,4.25h-4.25c0,1.41-.04,2.84,.01,4.25,1.39,0,2.86-.11,4.24,.05v4.2s0,4.24,0,4.24h4.23s.02,4.3,.02,4.3c-.9,.46-3,.15-4.06,.15-.01,.82,.06,1.85-.16,2.63v1.43s0,4.25,0,4.25v4.24c-2.84,.03-5.68,.03-8.52,.02,.03,2.81,.09,5.65,0,8.46l-.07,.03c.26,1.32,.09,2.89,.08,4.24h4.27s0,4.25,0,4.25c0,1.41,.08,2.87-.04,4.27h-4.21s0-4.26,0-4.26H12.76s0-4.26,0-4.26h-4.26s0,4.26,0,4.26H0S0,59.5,0,59.5H4.25s0-4.26,0-4.26H12.74s0-4.25,0-4.25h8.51s0-4.25,0-4.25Z"/>
    <path class="cls-17" d="M38.25,76.49h4.25s4.24,0,4.24,0c0,.94-.02,1.88,.02,2.82v1.43s0,4.25,0,4.25v4.24c-2.84,.03-5.68,.03-8.52,.02h-4.24s0-4.25,0-4.25v-4.25s4.25,0,4.25,0v-4.25Z"/>
    <path class="cls-6" d="M42.5,76.5h4.24c0,.94-.02,1.88,.02,2.82v1.43s0,4.25,0,4.25h-4.27s.01-4.24,.01-4.24c.04-1.42,0-2.84,0-4.26Z"/>
    <path class="cls-18" d="M42.5,80.76v4.23s-4.24,0-4.24,0v-4.24s4.24,0,4.24,0Z"/>
    <path class="cls-22" d="M42.51,63.75c1.39,0,2.86-.11,4.24,.05v4.2s0,4.24,0,4.24h4.23s.02,4.3,.02,4.3c-.9,.46-3,.15-4.06,.15-.01,.82,.06,1.85-.16,2.63-.04-.94-.02-1.88-.02-2.82h-4.24s-4.25,0-4.25,0v-12.74s4.26,0,4.26,0Z"/>
    <path class="cls-1" d="M42.53,68h4.22s0,4.25,0,4.25h4.23s.02,4.3,.02,4.3c-.9,.46-3,.15-4.06,.15-.01,.82,.06,1.85-.16,2.63-.04-.94-.02-1.88-.02-2.82h-4.24c0-2.83-.07-5.67,.02-8.5Z"/>
    <path class="cls-18" d="M42.49,63.88c1.41,0,2.85,.07,4.25-.08v4.2s-4.22,0-4.22,0c-.07-1.36-.03-2.75-.03-4.12Z"/>
    <path class="cls-18" d="M29.75,85h4.24s0,4.26,0,4.26h4.24c.03,2.8,.09,5.65,0,8.45l-.07,.03h-4.16s-4.25,0-4.25,0v-12.75Z"/>
    <path class="cls-4" d="M34,89.26h4.24c.03,2.8,.09,5.65,0,8.45l-.07,.03h-4.16s0-8.49,0-8.49Z"/>
    <path class="cls-18" d="M34,97.75h4.16c.26,1.32,.09,2.88,.08,4.24h-4.24s0-4.24,0-4.24Z"/>
    <path class="cls-7" d="M174.25,34v4.27s4.26-.01,4.26-.01c-.03,2.83-.03,5.66-.02,8.49v4.24s-4.25,0-4.25,0c-.01,1.42-.01,2.84,0,4.26h-4.24s0,8.5,0,8.5h-4.25s0,4.26,0,4.26c-2.83-.05-5.66,0-8.49-.01v-4.26s-4.25,0-4.25,0h-4.25s0,4.25,0,4.25h-25.24s-.26-.01-.26-.01c-1.41,.03-2.83,0-4.24,0v-4.24s-4.25-.01-4.25-.01v4.25s-4.25,0-4.25,0h-4.25c-1.42-.02-2.83,0-4.25,.01-1.42,.01-2.83,0-4.25-.02h-4.26s0-4.24,0-4.24v-4.26s0-4.25,0-4.25h4.26s4.24,0,4.24,0v-4.16s.03-.07,.03-.07c1.4-.03,2.81-.03,4.21,0v-4.25s-.07-.02-.07-.02c.31-1.23,.09-2.95,.08-4.23h4.26c1.41-.01,2.83,.04,4.24-.03h2.48c2.01,.06,4.01-.05,6.02,0l.02-.09c1.3,.28,2.9,.1,4.24,.09h4.25s4.27,0,4.27,0h8.49s4.25,0,4.25,0h4.25s4.26,0,4.26,0h8.48c.06-1.41,.02-2.84,.02-4.25h4.25s0-4.25,0-4.25h4.25Z"/>
    <path class="cls-20" d="M127.51,59.5h16.99s4.26,0,4.26,0h8.5s0,4.24,0,4.24h-4.25s-4.25,0-4.25,0v4.24s-25.24,0-25.24,0l-.26-.02c-1.41,.03-2.83,0-4.24,0v-4.24s-4.25-.01-4.25-.01v-4.25s12.75,0,12.75,0Z"/>
    <path class="cls-8" d="M123.25,63.74h25.5s0,4.25,0,4.25h-25.24s-.26-.01-.26-.01v-4.24Z"/>
    <path class="cls-22" d="M119,63.76c1.41-.05,2.84-.01,4.25-.02v4.24c-1.42,.03-2.83,0-4.25,0v-4.24Z"/>
    <path class="cls-22" d="M174.25,34v4.27s0,4.23,0,4.23h-4.25s0,8.5,0,8.5h-4.24s0-4.24,0-4.24l-.02-4.25c.06-1.41,.02-2.84,.02-4.25h4.25s0-4.25,0-4.25h4.25Z"/>
    <path class="cls-16" d="M127.5,55.25h17s0,4.25,0,4.25h-16.99s0-4.25,0-4.25Z"/>
    <path class="cls-6" d="M136.01,42.5h8.49s4.25,0,4.25,0c0,1.27,.23,3.01-.09,4.23-4.22,.1-8.46,0-12.68,0l.03-4.25Z"/>
    <path class="cls-18" d="M157.25,42.5h8.48s.02,4.25,.02,4.25h-8.51s-4.17-.01-4.17-.01c-.31-1.24-.09-2.95-.08-4.25h4.26Z"/>
    <path class="cls-16" d="M123.26,42.41c1.3,.28,2.9,.1,4.24,.09h4.25s4.27,0,4.27,0l-.03,4.25h-12.72c0-1.42,0-2.84-.02-4.25l.02-.09Z"/>
    <path class="cls-17" d="M114.74,42.49h2.48c2.01,.06,4.01-.05,6.02,0,.02,1.42,.03,2.83,.02,4.25-2.84,.02-5.68,.02-8.52,.01v-4.27Z"/>
    <path class="cls-17" d="M148.75,42.5h4.25c0,1.29-.23,3,.08,4.24l-.07,.02v4.24s-4.27,.01-4.27,.01v-4.26s-.08-.02-.08-.02c.32-1.22,.09-2.96,.09-4.23Z"/>
    <path class="cls-21" d="M148.75,42.5h4.25c0,1.29-.23,3,.08,4.24l-.07,.02c-1.42-.05-2.84-.02-4.26,0l-.08-.02c.32-1.22,.09-2.96,.09-4.23Z"/>
    <path class="cls-5" d="M157.25,46.75h8.51s0,4.25,0,4.25h-8.5s0-4.25,0-4.25Z"/>
    <path class="cls-20" d="M157.25,63.75h8.49s0,4.27,0,4.27c-2.83-.05-5.66,0-8.49-.01v-4.26Z"/>
    <path class="cls-19" d="M101.57,63.75c2.95,0,5.96-.11,8.9,.02l.03,.07v4.16s-4.25-.01-4.25-.01c-1.42,0-2.83,0-4.25,.03,.02-1.09,.28-2.95-.05-3.94-.08-.24-.17-.22-.38-.33Z"/>
    <path class="cls-16" d="M110.5,59.5h4.25s0,4.25,0,4.25v4.25s-4.25,0-4.25,0v-4.16s-.02-.07-.02-.07c.1-1.4,.03-2.87,.03-4.27Z"/>
    <path class="cls-20" d="M110.5,63.84c1.21-.33,2.98-.1,4.25-.09v4.25s-4.25,0-4.25,0v-4.16Z"/>
    <path class="cls-19" d="M106.25,42.51h4.26c1.41-.01,2.83,.04,4.24-.03v4.27s-4.16-.01-4.16-.01l-.07,.02c-1.42-.03-2.84-.03-4.26,0l-.08-.02c.31-1.23,.09-2.95,.08-4.23Z"/>
    <path class="cls-18" d="M110.5,42.5c1.41,0,2.83,.05,4.24-.01v4.27s-4.16-.01-4.16-.01c-.31-1.23-.09-2.96-.08-4.24Z"/>
    <path class="cls-17" d="M106.24,46.76c1.42-.03,2.84-.03,4.26,0v4.24s-4.27,0-4.27,0v-4.25Z"/>
    <path class="cls-17" d="M93.5,55.25h4.26s0,4.25,0,4.25h-4.25s0-4.25,0-4.25Z"/>
    <path class="cls-1" d="M144.5,55.25h4.25c0,1.41-.06,2.84,0,4.26h-4.26v-4.26Z"/>
    <path class="cls-11" d="M97.75,63.75h3.82c.21,.11,.3,.09,.38,.32,.33,.99,.07,2.85,.05,3.94-1.42,.01-2.83,0-4.25-.02v-4.25Z"/>
    <path class="cls-22" d="M174.25,46.75h4.25s0,4.24,0,4.24h-4.24s0-4.24,0-4.24Z"/>
    <path class="cls-9" d="M84.91,38.25l.07-.02c4.24,.13,8.51,.03,12.76,.02l.03,8.45v4.28s0,4.27,0,4.27h-4.26s0,4.24,0,4.24h-4.25s-4.25,0-4.25,0h-4.25s0-4.17,0-4.17l-.06-.08,.09-.14c-.11-1.36-.02-2.79-.02-4.16v-4.22c1.3,.02,2.99,.23,4.24-.07-.02-2.21,.3-6.51-.09-8.42Z"/>
    <path class="cls-19" d="M80.76,46.74c1.29,.02,2.99,.23,4.24-.07l.03,.08c-.03,1.41-.04,2.83-.04,4.24h4.28c0,1.42,.02,2.84-.03,4.26v4.25s-4.24,0-4.24,0h-4.25s0-4.17,0-4.17l-.06-.08,.09-.14c-.11-1.36-.02-2.79-.02-4.16v-4.22Z"/>
    <path class="cls-9" d="M84.99,55.29c1.42-.08,2.84-.05,4.25-.04v4.25s-4.24,0-4.24,0h-4.25s0-4.17,0-4.17c1.2-.31,2.92-.09,4.17-.08l.06,.03Z"/>
    <path class="cls-22" d="M80.75,55.34c1.2-.31,2.92-.09,4.17-.08l.06,.03v4.21s-4.23,0-4.23,0v-4.16Z"/>
    <path class="cls-6" d="M84.99,50.99h4.28c0,1.42,.02,2.84-.03,4.26-1.42,0-2.84-.04-4.25,.04l-.06-.03c.34-1.18,.08-3.01,.06-4.26Z"/>
    <path class="cls-11" d="M80.91,51h4.08c.02,1.24,.27,3.07-.06,4.26-1.26-.01-2.97-.23-4.17,.08l-.06-.08,.09-.14c.41-1.02,.14-2.98,.13-4.11Z"/>
    <path class="cls-11" d="M89.27,51h4.24s0,4.25,0,4.25v4.25s-4.25,0-4.25,0v-4.25c.04-1.41,.02-2.83,.02-4.25Z"/>
    <path class="cls-21" d="M85.03,46.75h4.23c0,1.41-.07,2.86,.01,4.25h-4.28c0-1.43,.01-2.84,.04-4.25Z"/>
    <path class="cls-7" d="M127.49,29.76h17.01s0,8.48,0,8.48v4.26s-8.49,0-8.49,0h-4.27s-4.25,0-4.25,0v-12.74Z"/>
    <path class="cls-19" d="M127.5,34.01l4.25-.02v8.51s-4.25,0-4.25,0v-8.49Z"/>
    <path class="cls-17" d="M84.98,33.96c1.42,.02,2.87-.05,4.28,.02l8.49,.02v4.24s4.25,0,4.25,0h4.25s0,4.26,0,4.26c0,1.28,.23,3-.08,4.23l.08,.02v4.25c-1.41-.03-2.82-.03-4.22,0l-.03,.07v4.16s-4.24,0-4.24,0v-4.27s0-4.28,0-4.28l-.03-8.45c-4.25,0-8.51,.1-12.76-.02,.03-1.42,0-2.85,0-4.27Z"/>
    <path class="cls-18" d="M102,38.25h4.25s0,4.26,0,4.26c0,1.28,.23,3-.08,4.23-1.38,.02-2.77,.01-4.15-.02l-.02-8.48Z"/>
    <path class="cls-9" d="M102.02,46.73c1.38,.03,2.77,.03,4.15,.02l.08,.02v4.25c-1.41-.03-2.82-.03-4.22,0-.07-1.42-.02-2.86,0-4.29Z"/>
    <path class="cls-15" d="M148.74,25.5h4.25c0,2.83,.05,5.67,0,8.5h4.26s0,8.5,0,8.5h-4.26s-4.25,0-4.25,0h-4.25s0-4.26,0-4.26v-8.48s0-4.29,0-4.29c1.36,.14,2.87,.03,4.24,.03Z"/>
    <path class="cls-18" d="M144.5,25.47c1.36,.14,2.87,.03,4.24,.03,0,4.24,.06,8.49,0,12.73-1.4,.09-2.83,.02-4.24,.02v-8.48s0-4.29,0-4.29Z"/>
    <path class="cls-19" d="M144.5,38.24c1.4,0,2.84,.07,4.24-.02l.02,.09c0,1.4-.03,2.79-.01,4.19h-4.25s0-4.26,0-4.26Z"/>
    <path class="cls-18" d="M174.25,29.75h12.74c0,1.41-.04,2.84,.02,4.25-.02,1.4-.07,2.81,0,4.22l.07,.03c-.27,1.32-.09,2.9-.09,4.25v4.24s-4.24,0-4.24,0h-4.26c-.02-2.82-.01-5.65,.02-8.48h-4.27s0-4.26,0-4.26v-4.25Z"/>
    <path class="cls-19" d="M182.75,33.99h4.26c-.02,1.41-.07,2.82,0,4.22l.07,.03c-.27,1.32-.09,2.9-.09,4.25v4.24s-4.24,0-4.24,0h-4.26c-.02-2.82-.01-5.65,.02-8.48h4.24s0-4.26,0-4.26Z"/>
    <path class="cls-1" d="M182.75,33.99h4.26c-.02,1.41-.07,2.82,0,4.22-1.4,.09-2.86,.03-4.27,.04v-4.26Z"/>
    <path class="cls-22" d="M182.75,42.5h4.25s0,4.24,0,4.24h-4.23s0-4.24,0-4.24Z"/>
    <path class="cls-17" d="M174.25,34h8.5s0,4.26,0,4.26h-4.24s-4.27,.02-4.27,.02v-4.27Z"/>
    <path class="cls-17" d="M68.03,46.62c.5-.07,1.08,.05,1.6,.04,2.32-.01,4.64,.09,6.97,.07-.02,1.41,.03,2.82-.04,4.22,1.39-.03,2.82-.12,4.21,.01,0,1.37-.09,2.79,.02,4.16l-.09,.14h-4.21s0-4.25,0-4.25c-1.42,.01-2.84,.01-4.26,0l-.73,.02c-2.55-.17-5.2-.02-7.76-.01h-4.23c-1.42,0-2.85,0-4.27,.03-.03-1.43-.03-2.86,0-4.29,2.12,0,11.56,.26,12.8-.13Z"/>
    <path class="cls-17" d="M212.49,38.24c1.42,0,2.85,0,4.27,0v4.27s-21.27,0-21.27,0v-4.25s17-.01,17-.01Z"/>
    <path class="cls-3" d="M186.99,29.75h4.26s0,4.26,0,4.26h4.25s0,4.25,0,4.25v4.25s-4.24,0-4.24,0h-4.26c0-1.35-.18-2.93,.09-4.24l-.07-.03c-.08-1.4-.02-2.81,0-4.22-.06-1.41-.02-2.84-.02-4.25Z"/>
    <path class="cls-18" d="M187.08,38.25h8.41s0,4.25,0,4.25h-4.24s-4.26,0-4.26,0c0-1.35-.18-2.93,.09-4.25Z"/>
    <path class="cls-17" d="M127.5,25.57c.69-.35,3.36-.11,4.26-.09,2.81,.01,5.67,.12,8.48-.01,1.4,0,2.87-.1,4.27,0v4.29s-17.01,0-17.01,0v-4.19Z"/>
    <path class="cls-1" d="M63.74,51.01c2.56-.01,5.21-.16,7.76,.01l.73-.02c.02,1.42,.02,2.85,.02,4.27-1.36-.11-2.81-.02-4.18-.02-.23,1.35-.07,2.87-.04,4.24h-4.28c.03-1.4,0-2.81,0-4.22l-.07-.02-4.09-.02-.06-.07c-.08-1.37-.02-2.78-.02-4.15h4.23Z"/>
    <path class="cls-4" d="M67.98,55.23l.09,.03c-.23,1.35-.07,2.87-.04,4.24h-4.28c.03-1.4,0-2.81,0-4.22,1.41-.03,2.82-.04,4.23-.05Z"/>
    <path class="cls-18" d="M59.51,51.01h4.23c.01,1.31,.21,2.96-.06,4.24l-4.09-.02-.06-.07c-.08-1.37-.02-2.78-.02-4.15Z"/>
    <path class="cls-21" d="M71.5,51.02l.73-.02c.02,1.42,.02,2.85,.02,4.27-1.36-.11-2.81-.02-4.18-.02l-.09-.03c.11-1.36,.02-2.78,.01-4.15,1.17,0,2.34,.03,3.51-.06Z"/>
    <path class="cls-18" d="M123.32,25.5c1.27,0,2.84-.2,4.07,.08h.11s0,4.18,0,4.18v4.25s0,8.49,0,8.49c-1.34,0-2.93,.19-4.24-.09v-4.07s-.02-8.3-.02-8.3c0-1.49-.1-3.05,.08-4.53Z"/>
    <path class="cls-22" d="M123.32,25.5c1.27,0,2.84-.2,4.07,.08-.08,1.37-.06,2.74-.04,4.12-1.3,.08-2.63,.04-3.94,.05,0-1.41,.04-2.83-.09-4.24Z"/>
    <path class="cls-18" d="M195.5,34h16.99s0,4.24,0,4.24h-16.99s0-4.24,0-4.24Z"/>
    <path class="cls-15" d="M220.99,42.51l4.26-.02v4.26c1.41,0,2.84-.05,4.24,0v4.25c-1.41-.01-2.83-.01-4.25,0-1.35,0-2.92-.17-4.24,.09l-.03-.07c.08-1.42,.03-2.85,.02-4.28v-4.23Z"/>
    <path class="cls-18" d="M55.26,42.5h12.74c0,1.37-.02,2.74,.03,4.11-1.24,.39-10.67,.12-12.8,.13,.13-1.37,.02-2.86,.02-4.24Z"/>
    <path class="cls-18" d="M46.75,68h8.5s0,4.25,0,4.25h-4.27s-4.23,0-4.23,0v-4.24Z"/>
    <path class="cls-18" d="M216.75,38.24h4.24s0,4.27,0,4.27v4.23s-4.25,0-4.25,0v-4.24s0-4.27,0-4.27Z"/>
    <path class="cls-18" d="M80.72,38.25h4.19c.39,1.91,.07,6.21,.09,8.42-1.25,.29-2.94,.08-4.24,.07,0-2.82,.1-5.67-.04-8.48Z"/>
    <path class="cls-18" d="M89.26,29.75h8.49s0,4.25,0,4.25l-8.49-.02v-4.23Z"/>
    <path class="cls-18" d="M233.71,51c.06,1.41,.04,2.83,.03,4.24v4.26s-4.23-.02-4.23-.02v-8.48s4.2,0,4.2,0Z"/>
    <path class="cls-18" d="M131.76,21.25h8.49s0,4.21,0,4.21c-2.81,.13-5.67,.03-8.48,.01v-4.23Z"/>
    <path class="cls-17" d="M233.74,55.24h4.26c0,1.4,.07,2.83-.03,4.23l-.07,.03h-4.15s0-4.27,0-4.27Z"/>
    <path class="cls-10" d="M80.77,34l4.21-.04c0,1.42,.02,2.85,0,4.27l-.07,.02h-4.19c-.14-1.36,.02-2.88,.05-4.25Z"/>
    <path class="cls-3" d="M233.71,51h4.29s0,4.24,0,4.24h-4.26c0-1.41,.04-2.83-.03-4.24Z"/>
    <path class="cls-10" d="M63.74,59.5h4.28c0,1.4-.01,2.81-.04,4.22l-4.2,.04-.04-4.26Z"/>
    <path class="cls-10" d="M59.59,55.23l4.09,.02,.07,.02c0,1.41,.03,2.82,0,4.22-1.4,0-2.81,0-4.21,.01-.02-1.39-.16-2.92,.05-4.28Z"/>
    <path class="cls-10" d="M119.02,38.25c1.42,0,2.82,0,4.24,.09v4.07s-.01,.09-.01,.09c-2.01-.05-4.01,.05-6.02-.01,.59-.09,1.22-.06,1.82-.07-.04-1.39-.02-2.77-.02-4.16Z"/>
    <path class="cls-10" d="M55.24,51.04c1.42-.02,2.85-.03,4.27-.02,0,1.37-.06,2.78,.02,4.15-1.16,.32-2.99,.1-4.24,.09l-.05-4.22Z"/>
    <path class="cls-22" d="M97.75,34h4.25v4.25h-4.24s-.01-4.25-.01-4.25Z"/>
    <path class="cls-10" d="M229.49,46.75c1.41,.02,2.81,.02,4.22,.02v4.23s-4.21,0-4.21,0v-4.25Z"/>
    <path class="cls-11" d="M0,161.5H4.24s0,4.26,0,4.26h4.25s0,4.25,0,4.25h4.26s0-4.27,0-4.27h4.24s0,4.27,0,4.27h16.99c0,1.39-.08,2.87,.03,4.26l-.02,.07v4.17s0,8.49,0,8.49h4.23s4.26,0,4.26,0h4.26s3.99,0,3.99,0c.6,.75,.25,3.26,.21,4.25h8.54s0,4.25,0,4.25v4.26s-4.26,0-4.26,0h-4.25s0,4.25,0,4.25v4.25s0,8.51,0,8.51h4.25s4.24,0,4.24,0h4.27s4.24,0,4.24,0v-4.25c1.42,0,2.85,.06,4.27-.03l.07,.03h4.16s4.25,0,4.25,0v-4.25h4.24l4.25,.02c.03-1.42,0-2.85,0-4.27v-4.24s4.24,0,4.24,0c1.42,0,2.84,0,4.26,0h4.24c.01,1.42,.01,2.83,0,4.25,2.83,0,5.68-.07,8.5,0h4.24s0-4.25,0-4.25h4.26s0-4.25,0-4.25h4.25s4.25-.01,4.25-.01v8.51s4.28,0,4.28,0h12.7s4.27,.01,4.27,.01v-4.26c1.34,0,2.94-.19,4.24,.06v4.19s4.26,0,4.26,0h4.24c2.83-.05,5.68,0,8.51,0v-4.25s4.23,0,4.23,0c1.43,.02,2.85,.02,4.28,0h4.24s4.25,0,4.25,0v4.25s0,4.24,0,4.24h-4.26v4.25c0,1.41-.04,2.83,0,4.24,0,1.42,.02,2.84,0,4.26v4.24s4.25,0,4.25,0h4.25s0,4.25,0,4.25c1.74-.01,7.15-.31,8.5,.16v-8.65s4.26,0,4.26,0h4.19s.08-.03,.08-.03c-.09-1.39-.02-2.83-.02-4.22,4.25,0,8.5-.06,12.75,0h4.25s0-8.5,0-8.5h4.16s.06-.02,.06-.02c.05-1.41,.02-2.83,.02-4.24h4.26s8.49,.01,8.49,.01v-4.26s4.25,0,4.25,0v-4.25s12.76,.01,12.76,.01v-4.26s12.75,0,12.75,0v80.74H0v-110.49Z"/>
    <path class="cls-2" d="M0,161.5H4.24s0,4.26,0,4.26h4.25s0,4.25,0,4.25h4.26s0-4.27,0-4.27h4.24s0,4.27,0,4.27h16.99c0,1.39-.08,2.87,.03,4.26l-.02,.07v4.17s0,8.49,0,8.49h4.23s4.26,0,4.26,0h4.26s3.99,0,3.99,0c.6,.75,.25,3.26,.21,4.25h8.54s0,4.25,0,4.25v4.26s-4.26,0-4.26,0h-4.25s0,4.25,0,4.25v4.25s0,8.51,0,8.51h4.25s4.24,0,4.24,0h4.27s4.24,0,4.24,0v-4.25c1.42,0,2.85,.06,4.27-.03l.07,.03h4.16s4.25,0,4.25,0v-4.25h4.24l4.25,.02c.03-1.42,0-2.85,0-4.27v-4.24s4.24,0,4.24,0c1.42,0,2.84,0,4.26,0h4.24c.01,1.42,.01,2.83,0,4.25,2.83,0,5.68-.07,8.5,0h4.24s0-4.25,0-4.25h4.26s0-4.25,0-4.25h4.25s4.25-.01,4.25-.01v8.51s4.28,0,4.28,0h12.7s4.27,.01,4.27,.01v-4.26c1.34,0,2.94-.19,4.24,.06v4.19s4.26,0,4.26,0h4.24c2.83-.05,5.68,0,8.51,0v-4.25s4.23,0,4.23,0c1.43,.02,2.85,.02,4.28,0h4.24s4.25,0,4.25,0v4.25s0,4.24,0,4.24h-4.26v4.25c0,1.41-.04,2.83,0,4.24,0,1.42,.02,2.84,0,4.26v4.24s4.25,0,4.25,0h4.25s0,4.25,0,4.25h-4.24s0,4.26,0,4.26h-4.25s0,4.25,0,4.25v4.25s4.27,0,4.27,0v4.26s-8.52,0-8.52,0v4.24s-4.25,0-4.25,0v4.24s-4.25,0-4.25,0v4.25s-4.25,0-4.25,0v4.24s-8.5,0-8.5,0v4.24s-8.49,0-8.49,0v-4.27s-4.27,.01-4.27,.01v4.24s-8.48,.01-8.48,.01v-4.27s-17,.02-17,.02v-4.27s-4.25,.02-4.25,.02v-4.26s-4.25,.02-4.25,.02v-4.27s-8.5,.02-8.5,.02v-4.25s-17.01,.02-17.01,.02v-4.26s-4.25,.01-4.25,.01v-4.27s-8.5,0-8.5,0v4.24s-4.24,0-4.24,0v4.25s-12.75,0-12.75,0v-4.27s-4.25,.02-4.25,.02v-4.26s-4.25,.01-4.25,.01v-4.26s-8.5,.02-8.5,.02v-4.27s-12.75,.01-12.75,.01v-4.27s-8.5,.02-8.5,.02v-4.27s-4.25,.01-4.25,.01v4.26s-8.51,0-8.51,0v-4.27s-4.24,.01-4.24,.01v-59.5Z"/>
    <path class="cls-7" d="M123.25,195.49h4.25s0,8.5,0,8.5h4.27s12.7,0,12.7,0h4.27s0-4.25,0-4.25c1.33,0,2.94-.19,4.24,.06v4.19s4.26,0,4.26,0h4.24c2.83-.05,5.68,0,8.51,0v-4.25s4.23,0,4.23,0c1.43,.02,2.85,.02,4.28,0h4.24s4.25,0,4.25,0v4.25s0,4.24,0,4.24h-4.26v4.25c0,1.41-.04,2.83,0,4.24,0,1.42,.02,2.84,0,4.26h-4.26s-4.19,0-4.19,0h-4.29c0,1.4,.04,2.82-.02,4.21l-.07,.03h-4.16s-4.25,0-4.25,0h-8.51s-4.24,0-4.24,0v4.24s-4.25,0-4.25,0h-17.01s-4.24,0-4.24,0v-4.25s-4.26,0-4.26,0h-4.24s-4.25,0-4.25,0c0-1.39,.12-2.88-.06-4.25h.08c-.06-1.42,0-2.85,0-4.26h-12.76s-8.5,.01-8.5,.01h-4.26s.01-4.25,.01-4.25h-4.25s0-4.25,0-4.25h4.24l4.25,.02c.03-1.42,0-2.85,0-4.27v-4.24s4.24,0,4.24,0c1.42,0,2.84,0,4.26,0h4.24c.01,1.42,.01,2.83,0,4.25,2.83,0,5.68-.07,8.5,0h4.24s0-4.25,0-4.25h4.26s0-4.25,0-4.25h4.25Z"/>
    <path class="cls-16" d="M123.25,195.49h4.25s0,8.5,0,8.5h4.27c-.03,1.41-.04,2.83-.03,4.25,0,1.39,.07,2.84-.02,4.23-2.81,.1-5.65,.02-8.47,.02h-8.51s0-4.24,0-4.24l-.09-.02h-4.15s0-4.24,0-4.24h4.24s0-4.25,0-4.25h4.26s0-4.25,0-4.25h4.25Z"/>
    <path class="cls-3" d="M123.25,195.49h4.25s0,8.5,0,8.5h-8.5s0-4.25,0-4.25v-4.25s4.25-.01,4.25-.01Z"/>
    <path class="cls-17" d="M114.75,208.26c2.84-.02,5.67-.03,8.51-.01v4.25s-8.5,0-8.5,0v-4.24Z"/>
    <path class="cls-18" d="M123.25,208.25h8.49c0,1.39,.07,2.85-.02,4.23-2.81,.1-5.65,.02-8.47,.02v-4.25Z"/>
    <path class="cls-18" d="M110.51,204h4.24c0,1.28,.23,3.02-.08,4.24h-4.15s0-4.24,0-4.24Z"/>
    <path class="cls-17" d="M144.48,204h4.27c0,1.41-.05,2.84,.01,4.24h4.24s0,4.26,0,4.26h-8.5s-.01,4.25-.01,4.25h-12.74c0-1.39-.12-2.87,.06-4.25l-.08-.03c.1-1.38,.02-2.84,.02-4.23,0-1.42,0-2.84,.03-4.25h12.7Z"/>
    <path class="cls-11" d="M131.77,203.99h12.7c0,1.42-.04,2.87,.05,4.29l-.03,.06v4.15s-4.24,0-4.24,0h-8.45s-.08-.02-.08-.02c.1-1.38,.02-2.84,.02-4.23,0-1.42,0-2.84,.03-4.25Z"/>
    <path class="cls-18" d="M140.25,208.25c1.32,0,2.98-.21,4.25,.09v4.15s-4.24,0-4.24,0v-4.24Z"/>
    <path class="cls-16" d="M144.48,204h4.27c0,1.41-.05,2.84,.01,4.24-1.41,0-2.82-.04-4.23,.04-.09-1.41-.04-2.86-.05-4.28Z"/>
    <path class="cls-21" d="M131.75,221h4.25s0,4.26,0,4.26h12.76s0,4.24,0,4.24h-4.24s-17.01,0-17.01,0h-4.24s0-4.24,0-4.24h8.5s0-4.25,0-4.25Z"/>
    <path class="cls-21" d="M161.5,216.75h12.72c0,1.4-.1,2.86,.07,4.25h-4.29c0,1.4,.04,2.82-.02,4.21l-.07,.03h-4.16s-4.25,0-4.25,0h-8.51c.04-1.41,0-2.83,0-4.25h8.51s0-4.24,0-4.24Z"/>
    <path class="cls-22" d="M161.5,221h4.25s0,4.24,0,4.24h-4.25s0-4.24,0-4.24Z"/>
    <path class="cls-21" d="M84.99,208.24l4.25,.02v4.23s8.51,0,8.51,0v4.25s-8.5,0-8.5,0h-4.26s.01-4.25,.01-4.25h-4.25s0-4.25,0-4.25h4.24Z"/>
    <path class="cls-6" d="M174.25,212.5h8.49c0,1.4-.04,2.83,0,4.24,0,1.42,.02,2.84,0,4.26h-4.26s-4.19,0-4.19,0c-.16-1.39-.07-2.85-.07-4.25,.12-1.38,.03-2.86,.03-4.25Z"/>
    <path class="cls-17" d="M178.48,216.74h4.26c0,1.42,.02,2.84,0,4.26h-4.26s0-4.26,0-4.26Z"/>
    <path class="cls-20" d="M148.75,199.74c1.33,0,2.94-.19,4.24,.06v4.19s4.26,0,4.26,0h4.24s0,4.26,0,4.26h-4.22s-4.26-.01-4.26-.01h-4.24c-.07-1.4-.01-2.83-.01-4.24v-4.26Z"/>
    <path class="cls-18" d="M157.25,204h4.24s0,4.26,0,4.26h-4.22c-.04-1.42-.01-2.85,0-4.26Z"/>
    <path class="cls-17" d="M161.49,203.99c2.83-.05,5.68,0,8.51,0v4.26c-2.79,0-5.73,.2-8.51,0v-4.26Z"/>
    <path class="cls-17" d="M102,203.99c2.83,0,5.68-.07,8.5,0v4.24s-8.51,0-8.51,0v-4.26Z"/>
    <path class="cls-6" d="M110.44,220.99h.08c2.83,.02,5.65,.02,8.48,0v4.25s-4.25,0-4.25,0h-4.25c0-1.39,.12-2.88-.06-4.26Z"/>
    <path class="cls-17" d="M97.75,199.74h4.24c.01,1.42,.01,2.83,0,4.25l-4.26,.02v-4.27Z"/>
    <path class="cls-18" d="M182.75,199.75h4.25s0,4.25,0,4.25h-4.24s0-4.25,0-4.25Z"/>
    <path class="cls-8" d="M161.5,225.24h4.25s0,4.25,0,4.25v4.25s-12.76,0-12.76,0v17.01s-8.49,0-8.49,0v4.25s-8.5,0-8.5,0v-4.26s-4.25,0-4.25,0v-4.25s0-4.25,0-4.25h-4.25s0-4.23,0-4.23v-8.51s17.01,0,17.01,0h4.24s0-4.25,0-4.25h4.24s8.51,0,8.51,0Z"/>
    <path class="cls-7" d="M127.49,229.49h17.01s0,8.51,0,8.51v4.23s-12.75,0-12.75,0h-4.25s0-4.23,0-4.23v-8.51Z"/>
    <path class="cls-21" d="M127.5,238.01h17s0,4.23,0,4.23h-12.75s-4.25,.02-4.25,.02v-4.25Z"/>
    <path class="cls-6" d="M144.5,242.23v4.26s-4.25,0-4.25,0h-8.5s0-4.25,0-4.25h12.75Z"/>
    <path class="cls-22" d="M144.5,229.49h4.24s0,12.76,0,12.76l-4.25-.02v-4.23s0-8.51,0-8.51Z"/>
    <path class="cls-22" d="M131.75,246.5h8.5s0,4.25,0,4.25h-4.26s-4.24,0-4.24,0v-4.25Z"/>
    <path class="cls-22" d="M152.99,225.25v4.24s-4.24,0-4.24,0v-4.24s4.24,0,4.24,0Z"/>
    <path class="cls-8" d="M72.27,212.47l.07,.03h4.16s4.25,0,4.25,0h4.25s-.01,4.24-.01,4.24v8.5h-4.24s0,4.26,0,4.26h-4.25s-4.25,.01-4.25,.01v4.25s-17,0-17,0v-4.26s0-4.24,0-4.24v-4.25c.02-1.41,0-2.84,0-4.25h4.24s4.27,0,4.27,0h4.24s0-4.25,0-4.25c1.42,0,2.85,.06,4.27-.03Z"/>
    <path class="cls-18" d="M80.75,212.49h4.25s-.01,4.24-.01,4.24v8.5h-4.24s0-12.74,0-12.74Z"/>
    <path class="cls-17" d="M55.25,216.75h4.24s4.27,0,4.27,0c0,1.41,.07,2.86-.04,4.27h-4.22s-4.25-.01-4.25-.01c.03-1.41,0-2.84,0-4.25Z"/>
    <path class="cls-1" d="M55.25,216.75h4.24s0,4.25,0,4.25h-4.25c.03-1.41,0-2.84,0-4.25Z"/>
    <path class="cls-21" d="M59.49,221h4.22s.03,.08,.03,.08v4.16s-8.5,0-8.5,0v-4.25s4.24,0,4.24,0Z"/>
    <path class="cls-19" d="M68,216.75c1.34,.02,2.93-.17,4.24,.08v4.18s-4.25,0-4.25,0c-1.29,0-3.02-.23-4.25,.09l-.03-.07c.12-1.41,.05-2.86,.04-4.27h4.24Z"/>
    <path class="cls-18" d="M55.25,225.25h8.5s0,4.25,0,4.25c-2.83,0-5.67,.05-8.5-.01v-4.24Z"/>
    <path class="cls-6" d="M72.27,212.47l.07,.03c-.27,1.31-.09,2.88-.07,4.22l-.02,.1c-1.31-.24-2.9-.06-4.24-.08v-4.25c1.42,0,2.85,.06,4.27-.03Z"/>
    <path class="cls-18" d="M76.49,225.25h4.26s0,4.24,0,4.24h-4.25s-.01-4.24-.01-4.24Z"/>
    <path class="cls-22" d="M63.75,221.08c1.23-.32,2.96-.09,4.25-.09v4.25s-4.24,0-4.24,0v-4.16Z"/>
    <path class="cls-18" d="M72.34,212.5h4.16s0,4.25,0,4.25c-1.4,0-2.84,.06-4.23-.03-.02-1.34-.19-2.91,.07-4.22Z"/>
    <path class="cls-21" d="M84.99,216.74h4.26s8.5,0,8.5,0h12.76c0,1.4-.05,2.83,0,4.23h-.08c.18,1.39,.07,2.88,.06,4.27h-4.25s-4.25,0-4.25,0v4.24s0,4.26,0,4.26h-4.27s-8.49,0-8.49,0h-4.24s-4.25,0-4.25,0v-4.27s0-4.25,0-4.25h4.24v-8.51Z"/>
    <path class="cls-7" d="M84.99,216.74h4.26s8.5,0,8.5,0v12.76s-8.5,0-8.5,0h-4.26s0-4.27,0-4.27v-8.5Z"/>
    <path class="cls-17" d="M84.99,216.74h4.26c0,4.25,.1,8.53,0,12.77h-4.26s0-4.27,0-4.27v-8.5Z"/>
    <path class="cls-22" d="M106.25,220.99h4.18c.18,1.38,.07,2.86,.06,4.25h-4.25s0-4.25,0-4.25Z"/>
    <path class="cls-6" d="M178.48,221h4.26s0,4.24,0,4.24h4.26s4.25,0,4.25,0v4.24s-4.25,.01-4.25,.01v4.25s-4.25,0-4.25,0v4.24s-8.5,0-8.5,0h-4.25s0-4.25,0-4.25v-4.25s-4.25,0-4.25,0v-4.25s4.16,0,4.16,0l.07-.03c.06-1.39,.01-2.81,.02-4.2h4.29s4.19,0,4.19,0Z"/>
    <path class="cls-7" d="M178.48,221h4.26s0,4.24,0,4.24v8.51s-8.5,0-8.5,0v-8.5c-1.42,0-2.84,.03-4.26-.03,.06-1.39,.01-2.81,.02-4.2h4.29s4.19,0,4.19,0Z"/>
    <path class="cls-22" d="M170,233.75h4.25s0,4.25,0,4.25h-4.25s0-4.25,0-4.25Z"/>
    <path class="cls-18" d="M165.75,225.24h4.16c.26,1.33,.09,2.89,.1,4.25h-4.26s0-4.25,0-4.25Z"/>
    <path class="cls-8" d="M110.5,225.24h4.25s0,4.25,0,4.25h-4.27s0,8.51,0,8.51h-4.25s0,4.25,0,4.25h-16.99s0-4.25,0-4.25v-4.24s8.48,0,8.48,0h4.27s0-4.27,0-4.27v-4.24s4.25,0,4.25,0h4.25Z"/>
    <path class="cls-16" d="M89.25,233.75h8.49s.01,4.26,.01,4.26c-2.81-.12-5.68-.02-8.5-.02v-4.24Z"/>
    <path class="cls-22" d="M102,225.25h4.25s0,4.25,0,4.25h-4.25s0-4.25,0-4.25Z"/>
    <path class="cls-8" d="M50.96,191.25h8.54s0,4.25,0,4.25v4.26s-4.26,0-4.26,0h-4.25s-8.5,0-8.5,0v-4.25s0-4.25,0-4.25h8.46Z"/>
    <path class="cls-17" d="M46.75,208.25h4.25s0,8.5,0,8.5h4.25c0,1.41,.03,2.84,0,4.25h-8.4s-.07-.03-.07-.03c-.11-1.39-.03-2.83-.03-4.23v-8.49Z"/>
    <path class="cls-15" d="M42.5,199.75h8.5s0,4.25,0,4.25v4.25s-4.25,0-4.25,0h-4.25s0-8.5,0-8.5Z"/>
    <path class="cls-22" d="M46.75,204h4.25s0,4.24,0,4.24h-4.25s0-4.24,0-4.24Z"/>
    <path class="cls-22" d="M46.76,187h3.99c.6,.74,.25,3.26,.21,4.25h-8.46s0,4.25,0,4.25h-4.25c0-1.42,0-2.83-.02-4.25,.03-1.42,.05-2.83,0-4.25h4.26s4.26,0,4.26,0Z"/>
    <path class="cls-18" d="M123.25,229.49h4.24s0,8.51,0,8.51v4.25c-1.36-.02-2.91-.17-4.25,.04v-8.55s0-4.25,0-4.25Z"/>
    <path class="cls-22" d="M29.75,174.25c1.34,0,2.94-.19,4.24,.09v4.17s0,8.49,0,8.49h-4.25s0-12.75,0-12.75Z"/>
    <path class="cls-22" d="M127.5,242.26h4.25s0,4.24,0,4.24h-8.5s0-4.2,0-4.2c1.34-.21,2.88-.06,4.25-.04Z"/>
    <path class="cls-22" d="M174.25,238h8.5s-.01,4.24-.01,4.24h-8.49s0-4.24,0-4.24Z"/>
    <path class="cls-18" d="M42.5,208.25h4.25s0,8.49,0,8.49h-4.25s0-8.49,0-8.49Z"/>
    <path class="cls-22" d="M118.99,225.25h4.25s0,4.25,0,4.25h-4.25s-4.24,0-4.24,0v-4.24s4.23,0,4.23,0Z"/>
    <path class="cls-22" d="M55.24,221v4.25s-8.49,0-8.49,0c0-1.32-.22-2.98,.09-4.25h8.4Z"/>
    <path class="cls-8" d="M119,229.49h4.25s0,4.25,0,4.25h-4.25s0-4.25,0-4.25Z"/>
    <path class="cls-22" d="M34,187h4.23c.04,1.42,.03,2.83,0,4.25h-4.23s0-4.25,0-4.25Z"/>
    <path class="cls-15" d="M46.75,216.73c0,1.4-.08,2.84,.03,4.23-1.42,.06-2.85,.03-4.27,.04v-4.26s4.25-.01,4.25-.01Z"/>
    <path class="cls-22" d="M85.01,233.74h4.24s0,4.25,0,4.25h-4.24s0-4.25,0-4.25Z"/>
    <path class="cls-2" d="M259.25,191.24h12.74v38.25h-4.26s0,4.25,0,4.25h-4.25s0,4.25,0,4.25h-4.25s0,4.25,0,4.25h-17s0,4.25,0,4.25h-8.51s0-4.26,0-4.26l-17.01,.02v-4.26s-17.01,.02-17.01,.02v-4.27s.01-4.1,.01-4.1v-8.65s4.26,0,4.26,0h4.19s.08-.03,.08-.03c-.09-1.39-.02-2.83-.02-4.22,4.25,0,8.5-.06,12.75,0h4.25s0-8.5,0-8.5h4.16s.06-.02,.06-.02c.05-1.41,.02-2.83,.02-4.24h4.26s8.49,.01,8.49,.01v-4.26s4.25,0,4.25,0v-4.25s12.76,.01,12.76,.01v-4.26Z"/>
    <path class="cls-13" d="M229.47,208.23c1.43,.02,2.85,.02,4.28,.01v12.76s-4.26,0-4.26,0v8.5s-8.5,0-8.5,0v4.25s-8.49,0-8.49,0v-4.25s-4.25,0-4.25,0v-4.25c0-1.39,.11-2.87-.07-4.25l.08-.03c-.09-1.39-.02-2.83-.02-4.22,4.25,0,8.5-.06,12.75,0h4.25s0-8.5,0-8.5h4.16s.06-.02,.06-.02Z"/>
    <path class="cls-7" d="M208.25,216.75c4.25,0,8.5-.06,12.75,0v4.24c-1.91,0-3.82,0-5.74,.03-2.31-.14-4.67,0-6.99-.05-.09-1.39-.02-2.83-.02-4.22Z"/>
    <path class="cls-6" d="M208.19,221l.08-.03c2.31,.05,4.68-.09,6.99,.05,.52,.04,.87,0,1.32,.31,.59,1.17,0,2.63,.26,3.92h-8.59c0-1.39,.12-2.88-.06-4.25Z"/>
    <path class="cls-22" d="M225.24,208.25h4.16c.39,1.9,.08,6.3,.09,8.5h-4.25s0-8.5,0-8.5Z"/>
    <path class="cls-6" d="M221,220.99v4.26s-4.17,0-4.17,0c-.26-1.3,.33-2.75-.26-3.92-.45-.3-.8-.27-1.32-.31,1.91-.02,3.83-.03,5.74-.03Z"/>
    <path class="cls-22" d="M221,216.75h4.25s0,4.25,0,4.25h-4.24s0-4.25,0-4.25Z"/>
    <path class="cls-22" d="M204,221h4.19c.18,1.38,.07,2.86,.06,4.25h-4.25s0-4.25,0-4.25Z"/>
    <path class="cls-13" d="M191.24,229.49c1.74-.01,7.15-.31,8.5,.16v4.1s-4.25,0-4.25,0v4.25s-4.25,0-4.25,0v4.25s-4.23,0-4.23,0h-4.28s.01-4.25,.01-4.25v-4.24s4.25,0,4.25,0v-4.25s4.25-.01,4.25-.01Z"/>
    <path class="cls-22" d="M182.75,233.75h4.25s0,4.25,0,4.25h-4.25s0-4.25,0-4.25Z"/>
    <path class="cls-22" d="M191.24,229.49v4.26s-4.25,0-4.25,0v-4.25s4.25-.01,4.25-.01Z"/>
    <path class="cls-14" d="M254.98,51h4.27s0,4.25,0,4.25h12.75s0,46.74,0,46.74v89.26h-12.74s0,4.25,0,4.25h-12.75s0,4.24,0,4.24h-4.24s0,4.26,0,4.26h-8.49s-4.26-.01-4.26-.01h-4.25s-4.25,0-4.25,0h-4.25s0-4.25,0-4.25v-4.26s-4.25,0-4.25,0h-4.23s0-4.26,0-4.26v-4.24s0-4.27,0-4.27h4.25s0-8.5,0-8.5h4.26s0-12.74,0-12.74h4.26s0-8.5,0-8.5h4.22c.12-1.3,.05-2.67,.04-3.99v-7.09s0-22.94,0-22.94v-4.15s-.04-.07-.04-.07c.1-1.4,.03-2.86,.04-4.27l-.03-.88c.06-1.12,.02-2.26,.02-3.38h4.25s0-4.25,0-4.25v-4.16c1.23-.32,2.98-.1,4.27-.09h4.23s0-8.5,0-8.5v-4.25s0-4.26,0-4.26h-4.25s0-8.5,0-8.5v-4.24c-1.26,0-3.08,.24-4.25-.15v-4.11s.01-4.27,.01-4.27l4.24,.02h4.15s.07-.03,.07-.03c.1-1.4,.03-2.83,.03-4.23h4.25s0,4.25,0,4.25h4.24s0-4.25,0-4.25h8.51s-.01-4.25-.01-4.25Z"/>
    <path class="cls-3" d="M254.98,51h4.27s0,4.25,0,4.25h12.75s0,46.74,0,46.74h-17s0,4.26,0,4.26h-8.5s0,4.25,0,4.25h-4.25s0,8.51,0,8.51h-8.53c.08-2.82,.01-5.68,.02-8.52h-4.24s-4.24,0-4.24,0l-.03-.88c.06-1.12,.02-2.26,.02-3.38h4.25s0-4.25,0-4.25v-4.16c1.23-.32,2.98-.1,4.27-.09h4.23s0-8.5,0-8.5v-4.25s0-4.26,0-4.26h-4.25s0-8.5,0-8.5v-4.24c-1.26,0-3.08,.24-4.25-.15v-4.11s.01-4.27,.01-4.27l4.24,.02h4.15s.07-.03,.07-.03c.1-1.4,.03-2.83,.03-4.23h4.25s0,4.25,0,4.25h4.24s0-4.25,0-4.25h8.51s-.01-4.25-.01-4.25Z"/>
    <path class="cls-16" d="M237.99,85h4.26s0,4.25,0,4.25h4.25s0,12.74,0,12.74h-4.25s0,4.25,0,4.25h-8.5s0,4.25,0,4.25h-4.24s-4.24,0-4.24,0l-.03-.88c.06-1.12,.02-2.26,.02-3.38h4.25s0-4.25,0-4.25v-4.16c1.23-.32,2.98-.1,4.27-.09h4.23s0-8.5,0-8.5v-4.25Z"/>
    <path class="cls-18" d="M237.99,85h4.26s0,4.25,0,4.25v8.5s-4.25,0-4.25,0v-8.49s0-4.25,0-4.25Z"/>
    <path class="cls-22" d="M233.77,97.75h4.23s0,4.25,0,4.25h-8.5s0-4.17,0-4.17c1.23-.32,2.98-.1,4.27-.09Z"/>
    <path class="cls-14" d="M229.51,59.49l4.24,.02h4.15s.07-.03,.07-.03c1.43,.04,2.85,.04,4.28,.03v4.23s0,17.03,0,17.03h-4.25s-4.25,0-4.25,0v-8.5s0-4.24,0-4.24c-1.26,0-3.07,.24-4.25-.15v-4.11s.01-4.27,.01-4.27Z"/>
    <path class="cls-19" d="M229.51,59.49l4.24,.02v4.25s0,4.27,0,4.27c-1.26,0-3.07,.24-4.25-.15v-4.11s.01-4.27,.01-4.27Z"/>
    <path class="cls-5" d="M237.9,59.51l.07-.03c1.43,.04,2.85,.04,4.28,.03v4.23c-1.42,.01-2.84,.02-4.26,.02h-4.25s0-4.24,0-4.24h4.15Z"/>
    <path class="cls-18" d="M233.75,59.5h4.15c.31,1.27,.1,2.93,.09,4.24h-4.25s0-4.24,0-4.24Z"/>
    <path class="cls-7" d="M237.99,80.74h4.25s0,4.25,0,4.25h-4.26s0-4.25,0-4.25Z"/>
    <path class="cls-19" d="M225.26,118.99h4.24c0,1.42-.04,2.85,0,4.26v4.25s4.25,0,4.25,0c1.42,.02,2.85,.01,4.27-.01h4.16s.07,.03,.07,.03c1.42-.03,2.84-.04,4.26-.02v4.26s0,8.48,0,8.48v4.26s-4.25,0-4.25,0h-4.25s0,4.25,0,4.25h-8.5s0,4.26,0,4.26c-1.28-.01-3.02-.23-4.25,.08v8.41s0,4.26,0,4.26v4.24s4.25,0,4.25,0v4.25s4.26,0,4.26,0c1.4,0,2.83-.04,4.24,.02l.03,.06v8.41s-4.26,0-4.26,0v4.25c-1.4,0-2.85,.07-4.25-.04v4.28s-4.26,0-4.26,0c0,1.41-.03,2.84,.02,4.25h4.23s4.25,0,4.25,0v4.26s.01,4.25,.01,4.25h-4.26s-4.25,0-4.25,0h-4.25s-4.25-.01-4.25-.01v-4.23s0-4.26,0-4.26h-4.25s-4.23,0-4.23,0v-4.25s-.01-4.24-.01-4.24v-4.27s4.24,0,4.24,0v-8.5s4.25,0,4.25,0v-12.74h4.26s0-8.5,0-8.5h4.22c.12-1.3,.05-2.67,.04-3.99v-7.09s0-22.94,0-22.94Z"/>
    <path class="cls-7" d="M225.25,169.99h4.24s.01,4.25,.01,4.25h4.25c1.4,.01,2.83-.04,4.24,.02l.03,.06v8.41s-4.26,0-4.26,0v4.25c-1.4,0-2.85,.07-4.25-.04v-4.22s-12.75,0-12.75,0v-4.24s4.25,0,4.25,0v-8.5s4.25,0,4.25,0Z"/>
    <path class="cls-19" d="M233.75,174.26c1.4,0,2.83-.04,4.24,.02l.03,.06v8.41s-4.26,0-4.26,0v-8.49Z"/>
    <path class="cls-7" d="M238.01,127.49h4.16s.07,.03,.07,.03c.18,4.21,.02,8.5,.02,12.73h-12.76s0-12.75,0-12.75h4.24c1.42,.03,2.85,.02,4.27,0Z"/>
    <path class="cls-21" d="M225.27,195.5h4.23s4.25,0,4.25,0v4.26s.01,4.25,.01,4.25h-4.26s-4.25,0-4.25,0h-4.25s-4.25-.01-4.25-.01v-4.23s4.16,0,4.16,0l.06-.03c.11-1.39,.03-2.83,.03-4.22h4.27Z"/>
    <path class="cls-5" d="M220.91,199.75l.06-.03c1.43,.04,2.85,.04,4.28,.02v4.26s-4.25,0-4.25,0h-4.25s0-4.25,0-4.25h4.16Z"/>
    <path class="cls-22" d="M216.74,199.75h4.16c.27,1.31,.09,2.89,.09,4.25h-4.25s0-4.25,0-4.25Z"/>
    <path class="cls-13" d="M229.49,195.5h4.25s0,4.24,0,4.24h-4.25s0-4.24,0-4.24Z"/>
    <path class="cls-16" d="M220.99,191.25h4.25c0,1.41-.03,2.84,.02,4.25h-4.27c0,1.39,.08,2.83-.03,4.22l-.06,.03h-4.16s0-4.25,0-4.25h-4.25s-4.23,0-4.23,0v-4.25s4.24,0,4.24,0h8.5Z"/>
    <path class="cls-3" d="M216.74,195.49h4.26c0,1.4,.08,2.84-.03,4.22l-.06,.03h-4.16s0-4.25,0-4.25Z"/>
    <path class="cls-22" d="M208.25,191.24h4.25s0,4.26,0,4.26h-4.23s0-4.26,0-4.26Z"/>
    <path class="cls-6" d="M221,186.96c1.88-.04,3.75-.05,5.63-.03,.93,0,1.95-.08,2.88,.03v4.28s-4.26,0-4.26,0h-4.25s0-4.28,0-4.28Z"/>
    <path class="cls-11" d="M229.49,144.49h8.51s0,4.25,0,4.25h-8.5s0-4.25,0-4.25Z"/>
    <path class="cls-18" d="M212.49,186.99c2.83,0,5.68,.06,8.51-.03v4.28s-8.51,0-8.51,0v-4.25Z"/>
    <path class="cls-6" d="M221,165.74h4.24s0,4.25,0,4.25h-4.25s0-4.25,0-4.25Z"/>
    <path class="cls-22" d="M221,161.5h4.25s0,4.25,0,4.25h-4.24s0-4.25,0-4.25Z"/>
    <path class="cls-16" d="M246.49,127.5h8.51s0,17,0,17h-4.25s0,4.25,0,4.25h-4.26s0,4.25,0,4.25h-12.75s0,12.75,0,12.75h-4.25s0,4.26,0,4.26h-4.24s0-4.25,0-4.25v-4.26s0-8.41,0-8.41c1.23-.31,2.97-.09,4.25-.08v-4.26s8.5,0,8.5,0v-4.25s4.25,0,4.25,0h4.25s0-4.26,0-4.26v-8.48s0-4.26,0-4.26Z"/>
    <path class="cls-22" d="M229.5,153v8.5s-4.25,0-4.25,0v-8.41c1.23-.31,2.97-.09,4.25-.08Z"/>
    <path class="cls-18" d="M246.5,131.76h4.25s0,8.49,0,8.49h-4.25s0-8.49,0-8.49Z"/>
    <path class="cls-18" d="M238,144.49h4.25s0,4.26,0,4.26h-4.24s0-4.26,0-4.26Z"/>
    <path class="cls-18" d="M225.24,165.75h4.25s0,4.25,0,4.25h-4.24s0-4.25,0-4.25Z"/>
    <path class="cls-16" d="M238,170h4.24s0,4.25,0,4.25h4.26s0,16.99,0,16.99h-8.51s0,4.25,0,4.25h-4.25s-4.25,.01-4.25,.01h-4.23c-.05-1.42-.01-2.84-.02-4.26h4.25s0-4.28,0-4.28c1.39,.11,2.85,.03,4.25,.04v-4.25s4.25,0,4.25,0v-8.41s-.02-.06-.02-.06c.03-1.42,.03-2.85,.02-4.27Z"/>
    <path class="cls-22" d="M233.75,182.75h4.25s0,8.5,0,8.5h-8.49s0-4.28,0-4.28c1.39,.11,2.85,.03,4.25,.04v-4.25Z"/>
    <path class="cls-18" d="M238.01,174.34c1.32-.27,2.89-.1,4.24-.09v8.5s-4.25,0-4.25,0v-8.41Z"/>
    <path class="cls-13" d="M225.25,191.24h4.25s0,4.26,0,4.26h-4.23c-.05-1.42-.01-2.84-.02-4.26Z"/>
    <path class="cls-8" d="M225.25,110.5h4.24s0,4.25,0,4.25v4.24s-4.24,0-4.24,0v-4.15s-.04-.07-.04-.07c.1-1.4,.03-2.86,.04-4.27Z"/>
    <path class="cls-18" d="M225.25,114.84c1.31-.28,2.89-.1,4.24-.09v4.24s-4.24,0-4.24,0v-4.15Z"/>
    <path class="cls-5" d="M242.25,123.25h4.24s0,4.25,0,4.25c-1.42-.01-2.84,0-4.26,.02l-.07-.02h-4.16s0-4.26,0-4.26h4.24Z"/>
    <path class="cls-18" d="M238,123.24h4.24c0,1.32,.21,2.98-.08,4.26h-4.16s0-4.26,0-4.26Z"/>
    <path class="cls-17" d="M233.76,123.27c1.41-.06,2.83-.04,4.24-.03v4.25c-1.42,.03-2.84,.03-4.27,.01v-4.17s.02-.07,.02-.07Z"/>
    <path class="cls-18" d="M229.49,123.25c1.26-.01,3.06-.25,4.25,.09v4.17s-4.25,0-4.25,0v-4.25Z"/>
    <path class="cls-18" d="M229.49,170h4.25s0,4.25,0,4.25h-4.25s-.01-4.25-.01-4.25Z"/>
    <path class="cls-7" d="M153.01,140.24h4.24c0,1.42-.02,2.84,.02,4.25,1.38,0,2.77-.03,4.15,.03l.06,.07c1.29-.29,2.94-.09,4.26-.08l8.5-.02h4.25s12.75,0,12.75,0v4.25s4.25,0,4.25,0h4.25s4.19,0,4.19,0c.16,1.39,.05,2.85,.06,4.26v8.49s-.01,4.26-.01,4.26v4.23s-4.24,0-4.24,0v4.24s-4.25,0-4.25,0c0,1.42-.03,2.84,0,4.25h4.25c0,1.39,.03,2.79,0,4.17l-.06,.05c.27,1.38-.02,2.85,.12,4.25,1.35,0,2.82-.1,4.15,.04l.05,.07c1.22-.33,2.97-.1,4.25-.09v4.24s.01,4.25,.01,4.25h4.23s4.25,0,4.25,0v4.26s0,4.23,0,4.23h4.25s0,4.26,0,4.26h4.24s0,8.5,0,8.5h-4.25c-4.25-.05-8.5,0-12.75,0,0,1.39-.07,2.83,.02,4.22l-.08,.03h-4.19s-4.25,0-4.25,0v8.65c-1.35-.47-6.77-.17-8.5-.16v-4.24s-4.24,0-4.24,0h-4.26s0-4.24,0-4.24c.02-1.42,0-2.84,0-4.26-.04-1.41,0-2.83,0-4.24v-4.25h4.26s0-4.25,0-4.25v-4.25s-4.25,0-4.25,0h-4.24c-1.42,.02-2.85,.02-4.28,0h-4.24s0,4.25,0,4.25c-2.83,0-5.68-.05-8.51,0h-4.24s-4.26,0-4.26,0v-4.19s.02-.08,.02-.08c-.13-4.23-.02-8.5-.02-12.74h-4.25s0-16.99,0-16.99v-4.25s0-4.25,0-4.25h-.12c-1.37-.03-2.76,0-4.13,0-.02-1.41,0-2.83,0-4.25l.02-4.25v-4.08c1.38,0,2.76-.01,4.14-.05v-.12s-4.16,0-4.16,0v-4.25s4.25,0,4.25,0v-4.25s4.27,0,4.27,0Z"/>
    <path class="cls-2" d="M157.27,170.03c2.8-.17,5.67-.05,8.48-.04,0,2.83,.05,5.67,0,8.51h4.26s.02,4.26,.02,4.26c.02,1.41,.03,2.82,.02,4.23,1.4,0,2.81,.03,4.21,0v4.26s0,4.24,0,4.24c-.01,1.42-.02,2.84-.02,4.26h-4.24s0,4.25,0,4.25c-2.83,0-5.68-.05-8.51,0h-4.24s-4.26,0-4.26,0v-4.19s.02-.08,.02-.08c-.13-4.23-.02-8.5-.02-12.74h-4.25s0-16.99,0-16.99h4.25c1.26,0,3.05-.25,4.25,.09l.03-.06Z"/>
    <path class="cls-17" d="M157.27,170.03c2.8-.17,5.67-.05,8.48-.04,0,2.83,.05,5.67,0,8.51h-4.16s-.07-.04-.07-.04c-.12-1.37-.03-2.82-.03-4.2h-4.21s-.03-.09-.03-.09v-4.08s.03-.06,.03-.06Z"/>
    <path class="cls-17" d="M165.75,178.5h4.26s.02,4.26,.02,4.26c-1.42,0-2.84,0-4.25-.01l-.02-.08v-4.17Z"/>
    <path class="cls-4" d="M165.77,182.74c1.42,.01,2.84,.02,4.25,.01,.02,1.41,.03,2.82,.02,4.23l-4.29,.02,.02-4.27Z"/>
    <path class="cls-11" d="M153.02,199.72c1.41,.03,2.82,.03,4.23,.01,0,1.42-.05,2.85,0,4.26h-4.26s0-4.19,0-4.19l.03-.08Z"/>
    <path class="cls-22" d="M170.04,186.99c1.4,0,2.81,.03,4.21,0v4.26s-4.25,0-4.25,0c0-1.42-.03-2.84,.04-4.26Z"/>
    <path class="cls-22" d="M153,170c1.26,0,3.05-.25,4.25,.09v4.08c-1.26,.3-2.94,.09-4.25,.08v-4.25Z"/>
    <path class="cls-22" d="M161.59,178.5h4.16s0,4.17,0,4.17c-1.26,.3-2.94,.09-4.25,.08,0-1.35-.19-2.93,.09-4.25Z"/>
    <path class="cls-21" d="M157.27,174.25h4.21c0,1.39-.09,2.84,.03,4.21-1.41,.08-2.85,.04-4.26,.05l.02-4.26Z"/>
    <path class="cls-14" d="M199.74,148.75h4.19c.16,1.39,.05,2.85,.06,4.25v8.49s-.01,4.26-.01,4.26v4.23s-4.24,0-4.24,0v4.24s-4.25,0-4.25,0c0,1.42-.03,2.84,0,4.25h-4.23s-.03-4.25-.03-4.25h-4.23s-.01-4.25-.01-4.25v-4.25s-4.25,0-4.25,0v-4.26s-4.25,0-4.25,0v-4.16s.03-.07,.03-.07c-.11-1.37-.03-2.82-.03-4.19v-4.32s12.76,0,12.76,0h4.24s4.25,0,4.25,0Z"/>
    <path class="cls-7" d="M191.25,148.74h4.24s0,4.26,0,4.26h-8.51c0,1.39-.08,2.86,.03,4.25-2.83-.02-5.66-.01-8.5,.02-.11-1.37-.03-2.82-.03-4.19v-4.32s12.76,0,12.76,0Z"/>
    <path class="cls-5" d="M182.75,161.49h4.29c-.07,1.41-.05,2.83-.04,4.26h-4.25s0-4.26,0-4.26Z"/>
    <path class="cls-11" d="M199.74,148.75h4.19c.16,1.39,.05,2.85,.06,4.25h-4.25s0-4.25,0-4.25Z"/>
    <path class="cls-18" d="M191.24,174.25h4.26c0,1.41-.03,2.84,0,4.25h-4.23s-.03-4.25-.03-4.25Z"/>
    <path class="cls-18" d="M195.5,170h4.25s-.01,4.24-.01,4.24h-4.24s0-4.24,0-4.24Z"/>
    <path class="cls-22" d="M186.99,170h4.25s0,4.25,0,4.25h-4.23s-.01-4.25-.01-4.25Z"/>
    <path class="cls-18" d="M199.75,165.75h4.24s0,4.24,0,4.24h-4.24s0-4.24,0-4.24Z"/>
    <path class="cls-8" d="M187,208.24h4.24c0,1.41-.08,2.86-.01,4.26h4.28c1.41,0,2.82,0,4.23,0h4.25s4.25,0,4.25,0v4.25c0,1.39-.06,2.83,.02,4.22l-.08,.03h-4.19s-4.25,0-4.25,0v8.65c-1.35-.47-6.77-.17-8.5-.16v-4.24s-4.24,0-4.24,0h-4.26s0-4.24,0-4.24c.02-1.42,0-2.84,0-4.26-.04-1.41,0-2.83,0-4.24v-4.25h4.26Z"/>
    <path class="cls-21" d="M187,208.24h4.24c0,1.41-.08,2.86-.01,4.26,0,1.42,.03,2.83,0,4.25-1.27,0-3.03-.24-4.24,.09l-.03-.07-4.23-.03c-.04-1.41,0-2.83,0-4.24v-4.25h4.26Z"/>
    <path class="cls-17" d="M182.74,212.5h4.26c0,1.42,.07,2.86-.03,4.27l-4.23-.03c-.04-1.41,0-2.83,0-4.24Z"/>
    <path class="cls-1" d="M204,212.49h4.25s0,4.26,0,4.26c0,1.39-.07,2.83,.02,4.22l-.08,.03h-4.19s0-4.24,0-4.24c.03-1.42,0-2.84,0-4.26Z"/>
    <path class="cls-1" d="M182.75,216.74l4.23,.03,.03,.07v8.4s-4.26,0-4.26,0v-4.24c.03-1.42,0-2.84,0-4.26Z"/>
    <path class="cls-22" d="M191.25,216.75v8.5h-4.25s0-8.41,0-8.41c1.21-.33,2.98-.1,4.24-.09Z"/>
    <path class="cls-17" d="M199.75,212.5h4.25c0,1.42,.02,2.84,0,4.26h-4.24c-.04-1.42,0-2.84,0-4.26Z"/>
    <path class="cls-18" d="M199.75,216.75h4.24s0,4.24,0,4.24h-4.25s0-4.24,0-4.24Z"/>
    <path class="cls-12" d="M187,199.75h4.24s4.27,0,4.27,0h4.24s0,4.26,0,4.26h4.25s0,4.25,0,4.25h12.75s4.26-.01,4.26-.01h4.24s0,8.5,0,8.5h-4.25c-4.25-.05-8.5,0-12.75,0v-4.25s-4.25,0-4.25,0h-4.25c-1.41,.01-2.82,0-4.23,0h-4.28c-.07-1.39,0-2.83,.01-4.24h-4.24s0-4.25,0-4.25v-4.25Z"/>
    <path class="cls-21" d="M187,199.75h4.24s4.27,0,4.27,0v4.27s-4.23,0-4.23,0l-.03,.07v4.16h-4.24s0-4.25,0-4.25v-4.25Z"/>
    <path class="cls-17" d="M191.24,199.74h4.27s0,4.27,0,4.27h-4.23c-.1-1.41-.04-2.85-.04-4.27Z"/>
    <path class="cls-18" d="M187,204c1.28,0,3.02-.24,4.25,.09v4.16h-4.24s0-4.25,0-4.25Z"/>
    <path class="cls-17" d="M216.75,208.24h4.26s4.24,0,4.24,0v8.49s-4.25,0-4.25,0v-4.25s-4.25,0-4.25,0v-4.26Z"/>
    <path class="cls-21" d="M191.28,204.02h4.23s0,4.23,0,4.23c0,1.39,.02,2.78-.02,4.17l.04,.08h-4.28c-.07-1.39,0-2.83,.01-4.24v-4.16l.03-.07Z"/>
    <path class="cls-4" d="M191.25,208.25c1.38,.05,2.77,.01,4.16,0-.04,1.19-.3,3.06,.07,4.16l.04,.08h-4.28c-.07-1.39,0-2.83,.01-4.24Z"/>
    <path class="cls-17" d="M195.5,208.24h4.25s0,4.25,0,4.25c-1.41,0-2.82,0-4.23,0l-.04-.08c.04-1.39,.02-2.78,.02-4.17Z"/>
    <path class="cls-5" d="M178.5,144.5h12.75s0,4.24,0,4.24h-12.76s0,4.33,0,4.33c0,1.38-.08,2.83,.03,4.19l-.03,.07v4.16s-4.24-.01-4.24-.01h-4.26c.01-1.41,.02-2.83-.02-4.24l.02-.08v-4.16c-1.36,0-2.92,.17-4.24-.09v-4.16c-1.37,0-2.91,.14-4.26-.08,.01-1.36,0-2.72,0-4.08,1.29-.29,2.94-.09,4.26-.08l8.5-.02h4.25Z"/>
    <path class="cls-5" d="M174.25,152.99c1.39,0,2.87-.12,4.25,.08,0,1.38-.08,2.83,.03,4.19l-.03,.07v4.16s-4.24-.01-4.24-.01h-4.26c.01-1.41,.02-2.83-.02-4.24l.02-.08v-4.16s4.25-.01,4.25-.01Z"/>
    <path class="cls-1" d="M169.99,157.17c1.34,.23,2.88,.08,4.25,.09v4.24s-4.25,0-4.25,0c.01-1.42,.02-2.83-.02-4.25l.02-.08Z"/>
    <path class="cls-22" d="M169.99,153h4.26s0,4.25,0,4.25c-1.36,0-2.91,.14-4.25-.09v-4.16Z"/>
    <path class="cls-22" d="M174.24,157.25c1.28-.01,3.03-.24,4.25,.09v4.16s-4.24-.01-4.24-.01v-4.24Z"/>
    <path class="cls-20" d="M165.75,144.51l8.5-.02v4.26s-4.26,0-4.26,0h-4.24c-1.37,0-2.91,.14-4.26-.08,.01-1.36,0-2.72,0-4.08,1.29-.29,2.94-.09,4.26-.08Z"/>
    <path class="cls-22" d="M165.75,148.75h4.24s0,4.25,0,4.25c-1.36,0-2.92,.17-4.24-.09v-4.16Z"/>
    <path class="cls-6" d="M148.65,148.87c.27,1.29,.09,2.82,.09,4.14h4.25s0,4.25,0,4.25h4.25s0,4.25,0,4.25h4.25s0,4.25,0,4.25h4.26c0,1.41-.03,2.83,0,4.24-2.81-.02-5.68-.13-8.48,.04l-.03,.06c-1.2-.34-2.99-.1-4.25-.09h-4.25s0-4.25,0-4.25v-4.25s-.12,.01-.12,.01c-1.37-.05-2.76-.02-4.13-.02-.02-1.41,0-2.83,0-4.25l.02-4.25v-4.08c1.38,0,2.76-.01,4.14-.05Z"/>
    <path class="cls-21" d="M152.91,165.75l.06-.03c1.43,.04,2.85,.05,4.28,.03,0,1.41-.06,2.88,.03,4.28l-.03,.06c-1.2-.34-2.99-.1-4.25-.09h-4.25s0-4.25,0-4.25h4.15Z"/>
    <path class="cls-22" d="M148.76,165.75h4.15c.27,1.31,.09,2.89,.09,4.25h-4.25s0-4.25,0-4.25Z"/>
    <path class="cls-17" d="M144.5,157.25c1.42,0,2.84-.02,4.26,0v4.26s-.12,.01-.12,.01c-1.37-.05-2.76-.02-4.13-.02-.02-1.41,0-2.83,0-4.25Z"/>
    <path class="cls-17" d="M148.75,161.5c1.42-.01,2.84-.02,4.25-.01,0,1.4,.08,2.83-.04,4.22l-.06,.03h-4.15s0-4.24,0-4.24Z"/>
    <path class="cls-6" d="M178.5,186.97c1.42,0,2.83-.04,4.25,0,1.42,.03,2.83,.04,4.25,.02v4.26s4.25,0,4.25,0v4.26s4.25,0,4.25,0c0,1.41-.03,2.84,0,4.25h-4.27s-4.24,0-4.24,0h-4.25s-4.24,0-4.24,0c-1.42,.02-2.85,.03-4.28,0,0-1.42,0-2.84,.02-4.26v-4.24s4.25,0,4.25,0v-4.28Z"/>
    <path class="cls-21" d="M178.5,191.25h4.25s0,4.25,0,4.25v4.25s-4.24,0-4.24,0c-1.42,.02-2.85,.03-4.28,0,0-1.42,0-2.84,.02-4.26v-4.24s4.25,0,4.25,0Z"/>
    <path class="cls-17" d="M174.25,195.49h4.25s.01,4.25,.01,4.25c-1.42,.02-2.85,.03-4.28,0,0-1.42,0-2.84,.02-4.26Z"/>
    <path class="cls-18" d="M174.25,191.25h4.25s0,4.25,0,4.25h-4.25s0-4.25,0-4.25Z"/>
    <path class="cls-22" d="M178.5,195.5h4.25s0,4.25,0,4.25h-4.24s-.01-4.25-.01-4.25Z"/>
    <path class="cls-21" d="M182.75,195.5h4.25s0,4.25,0,4.25h-4.25s0-4.25,0-4.25Z"/>
    <path class="cls-17" d="M170,161.49h4.26s4.24,0,4.24,0h4.25s0,4.25,0,4.25h4.25s0,4.25,0,4.25v4.24s4.25,0,4.25,0l.03,4.24-.02,4.26h-4.26s0-4.25,0-4.25h-4.25s0-8.5,0-8.5l-8.5,.02v-4.26s-4.25,.01-4.25,.01v-4.27Z"/>
    <path class="cls-18" d="M182.74,165.75h4.25s0,4.25,0,4.25h-4.24s-.01-4.25-.01-4.25Z"/>
    <path class="cls-18" d="M178.49,161.5h4.25s0,4.25,0,4.25h-4.24s-.01-4.25-.01-4.25Z"/>
    <path class="cls-21" d="M174.24,178.49h4.25s0,4.26,0,4.26h4.26s0,4.23,0,4.23c-1.42-.04-2.83-.02-4.25,0v4.28s-4.25,0-4.25,0v-4.26c-1.4,.03-2.81,0-4.21,0,.01-1.41,0-2.82-.02-4.23l-.02-4.27c1.41-.03,2.83,0,4.24,0Z"/>
    <path class="cls-21" d="M174.25,186.99c1.39,0,2.87,.1,4.25-.02v4.28s-4.25,0-4.25,0v-4.26Z"/>
    <path class="cls-17" d="M195.49,186.98c1.43-.02,2.86-.02,4.3,0,1.35,0,2.82-.1,4.15,.04l.05,.07c1.22-.33,2.97-.1,4.25-.09v4.24s.01,4.25,.01,4.25c-2.84,.04-5.68,0-8.52,0v-4.25s-4.25,.01-4.25,.01v-4.28Z"/>
    <path class="cls-22" d="M204,187.09c1.22-.33,2.97-.1,4.25-.09v4.24s-4.23,0-4.23,0v-4.16Z"/>
    <path class="cls-17" d="M153.01,140.24h4.24c0,1.42-.02,2.84,.02,4.25l-.03,4.26-4.26,.02v-4.26s-4.23,0-4.23,0c0,1.35,.18,2.93-.09,4.24h-4.17s0-4.25,0-4.25h4.24s0-4.25,0-4.25h4.27Z"/>
    <path class="cls-6" d="M165.76,169.99h4.24s0,4.26,0,4.26h4.25s0,4.24,0,4.24c-1.41,0-2.83-.03-4.24,0h-4.26c.05-2.82,0-5.66,0-8.49Z"/>
    <path class="cls-17" d="M165.75,152.91c1.32,.26,2.88,.09,4.24,.09v4.16s-.02,.08-.02,.08h-4.23s-4.26,.01-4.26,.01v-4.26c1.42,0,2.84-.03,4.25,0l.02-.08Z"/>
    <path class="cls-7" d="M165.75,152.91c1.32,.26,2.88,.09,4.24,.09v4.16s-.02,.08-.02,.08h-4.23c.03-1.42,.02-2.84,0-4.26l.02-.08Z"/>
    <path class="cls-9" d="M157.27,144.49c1.38,0,2.77-.03,4.15,.03l.06,.07c.02,1.36,.02,2.72,0,4.08,1.35,.22,2.89,.08,4.26,.08v4.16s-.02,.08-.02,.08c-1.41-.02-2.83,0-4.24,0,.01-1.41,.04-2.83-.03-4.24-1.39-.07-2.83,0-4.23,0l.03-4.26Z"/>
    <path class="cls-17" d="M157.24,148.75c1.4,0,2.83-.07,4.23,0,.07,1.41,.04,2.83,.03,4.24l-4.26,.02v-4.27Z"/>
    <path class="cls-17" d="M165.74,157.25h4.23c.05,1.42,.03,2.83,.02,4.25-1.42,.02-2.84,.01-4.26,.02v-4.26Z"/>
    <path class="cls-13" d="M216.75,203.98h4.25s0,4.26,0,4.26h-4.26s0-4.26,0-4.26Z"/>
    <path class="cls-22" d="M212.49,195.5h4.25s0,4.25,0,4.25h-4.24s0-4.25,0-4.25Z"/>
    <path class="cls-18" d="M195.49,178.5h4.25c0,1.39,.03,2.79,0,4.17l-.06,.05c-1.38,.05-2.79,.02-4.17,.02v-4.24Z"/>
    <path class="cls-7" d="M220.99,93.48l8.51,.02h4.25c0,1.38-.12,2.88,0,4.25-1.29,0-3.04-.23-4.27,.09v4.16s0,4.25,0,4.25h-4.25c0,1.11,.03,2.25-.02,3.37l.03,.88c0,1.4,.07,2.87-.04,4.27l.04,.07v4.15s0,22.94,0,22.94v7.09c.02,1.32,.09,2.69-.03,4h-4.22s0,8.48,0,8.48h-4.26v12.74h-4.26s0,8.5,0,8.5h-4.25s0,4.26,0,4.26c-1.27,0-3.03-.24-4.25,.09l-.05-.07c-1.33-.14-2.81-.04-4.15-.04-.13-1.4,.15-2.88-.12-4.25l.06-.05c.03-1.38,0-2.78,0-4.16h-4.25c-.02-1.42,0-2.85,0-4.26h4.24s.01-4.25,.01-4.25h4.24s0-4.24,0-4.24v-4.26s.01-8.49,.01-8.49c0-1.4,.1-2.87-.06-4.26h-4.19s-4.25,0-4.25,0v-4.25s8.51,0,8.51,0h4.24s4.25-.01,4.25-.01v-8.5s0-8.48,0-8.48h-4.25c-.05-1.43,0-2.88,0-4.31v-4.1s.02-.09,.02-.09c-.02-1.42-.03-2.84,.01-4.27l-.04-.08c-1.23,.32-2.96,.09-4.24,.08,0-1.41,0-2.82-.02-4.23-.07-1.4,0-2.84,.01-4.25l-.08-.02h-4.16s0-4.24,0-4.24v-4.26s4.25,0,4.25,0c1.42,0,2.84,0,4.25,0h4.31s4.17,0,4.17,0h4.26s0-4.27,0-4.27Z"/>
    <path class="cls-17" d="M195.5,144.5h8.51s4.24,0,4.24,0h4.25s0,17,0,17h-4.25s0,8.5,0,8.5h-4.25s0,4.25,0,4.25h-4.24s0,4.27,0,4.27h-4.25c-.02-1.42,0-2.85,0-4.26h4.24s.01-4.25,.01-4.25h4.24s0-4.24,0-4.24v-4.26s.01-8.49,.01-8.49c0-1.4,.1-2.87-.06-4.26h-4.19s-4.25,0-4.25,0v-4.25Z"/>
    <path class="cls-13" d="M195.5,144.5h8.51s4.24,0,4.24,0v4.22s-.01,4.3-.01,4.3c-1.41-.05-2.83-.01-4.24,0,0-1.4,.1-2.87-.06-4.26h-4.19s-4.25,0-4.25,0v-4.25Z"/>
    <path class="cls-8" d="M204.02,148.72c1.41,.04,2.81,.04,4.22,0v4.3c-1.41-.05-2.83-.01-4.24,0,0-1.4,.1-2.87-.06-4.26l.08-.03Z"/>
    <path class="cls-20" d="M204.01,144.5h4.24s0,4.22,0,4.22c-1.41,.05-2.81,.05-4.22,0-.05-1.41-.02-2.82-.01-4.22Z"/>
    <path class="cls-18" d="M204,153.01c1.41,0,2.83-.05,4.24,0v8.48s-4.24,0-4.24,0v-8.49Z"/>
    <path class="cls-19" d="M208.25,97.74h4.31s4.17,0,4.17,0v4.25s-8.5,0-8.5,0v4.23s-4.25,.02-4.25,.02l-.08-.02h-4.16s0-4.24,0-4.24v-4.26s4.25,0,4.25,0c1.42,0,2.84,0,4.25,0Z"/>
    <path class="cls-22" d="M199.75,102h4.25c0,1.28,.23,3-.09,4.24h-4.16s0-4.24,0-4.24Z"/>
    <path class="cls-17" d="M203.99,106.26l4.26-.02v4.26s4.25,0,4.25,0v4.26c-1.41,0-2.83,.05-4.23-.02l-.04-.08c-1.23,.32-2.96,.09-4.24,.08,0-1.41,0-2.82-.02-4.23-.07-1.4,0-2.84,.01-4.25Z"/>
    <path class="cls-18" d="M203.98,110.51h4.26s0,4.15,0,4.15c-1.23,.32-2.96,.09-4.24,.08,0-1.41,0-2.82-.02-4.23Z"/>
    <path class="cls-18" d="M225.26,102h4.24s0,4.25,0,4.25h-4.25c0,1.11,.03,2.25-.02,3.37l.03,.88c-1.33,0-2.85,.17-4.15-.1h-.1c-.05-2.79,0-5.6,0-8.4h4.25Z"/>
    <path class="cls-18" d="M221.15,106.29c1.32-.07,2.66-.04,3.99-.04-.03,1.12-.06,2.26,.08,3.38l.03,.88c-1.33,0-2.85,.17-4.15-.1,.09-1.36,.04-2.75,.05-4.12Z"/>
    <path class="cls-17" d="M208.26,119h4.23c0,2.83,.11,5.69,0,8.51h-4.25c-.05-1.43,0-2.88,0-4.31v-4.1s.02-.09,.02-.09Z"/>
    <path class="cls-6" d="M233.76,93.5c0,1.38-.12,2.88,0,4.25-1.29,0-3.04-.23-4.27,.09l-.03-.07c.13-1.39,.04-2.87,.04-4.27h4.25Z"/>
    <path class="cls-19" d="M221.01,110.41h.1c1.29,.26,2.82,.09,4.15,.09,0,1.4,.07,2.87-.04,4.27-1.37-.11-2.83-.02-4.21-.02v-4.33Z"/>
    <path class="cls-19" d="M225.25,97.75h4.22s.03,.08,.03,.08v4.16s-4.24,0-4.24,0v-4.25Z"/>
    <path class="cls-1" d="M199.73,182.67c1.34,.22,2.91,.07,4.27,.05,0,1.42,.06,2.88-.06,4.29-1.33-.14-2.81-.04-4.15-.04-.13-1.4,.15-2.88-.12-4.25l.06-.05Z"/>
    <path class="cls-19" d="M203.91,106.24l.08,.02c0,1.41-.08,2.85-.01,4.25,.02,1.41,.03,2.82,.02,4.23,1.28,.01,3.01,.24,4.24-.08l.04,.08c-.04,1.42-.04,2.84-.01,4.27l-.03,.09v4.1c0,1.43-.04,2.88,.01,4.31h4.25s0,8.49,0,8.49v8.5s-4.25,0-4.25,0h-4.24s-8.51,0-8.51,0v4.25s-4.25,0-4.25,0v-4.25s-12.75,0-12.75,0h-4.25s-8.5,0-8.5,0v-4.26s-4.25,0-4.25,0v-8.5s8.5,0,8.5,0v-4.25s0-4.26,0-4.26h4.25s4.24,0,4.24,0v-4.25s4.25,0,4.25,0v-4.24s4.25,0,4.25,0v-4.24s4.25,0,4.25,0v-4.24s8.51,0,8.51,0h4.16Z"/>
    <path class="cls-9" d="M203.91,106.24l.08,.02c0,1.41-.08,2.85-.01,4.25,.02,1.41,.03,2.82,.02,4.23,1.28,.01,3.01,.24,4.24-.08l.04,.08c-.04,1.42-.04,2.84-.01,4.27l-.03,.09v4.1c-1.39,.14-2.83,.06-4.24,.05h-12.75s0,4.26,0,4.26h-4.26s0-4.26,0-4.26h-8.5s0-4.25,0-4.25h4.25s0-4.25,0-4.25h4.25s0-4.25,0-4.25h4.25s0-4.25,0-4.25h8.51s4.16,0,4.16,0Z"/>
    <path class="cls-15" d="M204,114.74c1.28,.01,3.01,.24,4.24-.08l.04,.08c-.04,1.42-.04,2.84-.01,4.27l-.03,.09v4.1c-1.39,.14-2.83,.06-4.24,.05v-4.2s0-4.3,0-4.3Z"/>
    <path class="cls-9" d="M178.49,123.25h8.5s0,4.26,0,4.26h4.26s0,4.24,0,4.24h-21.24s0-4.25,0-4.25v-4.26s4.26,0,4.26,0h4.24Z"/>
    <path class="cls-5" d="M170,123.24h4.25s0,4.25,0,4.25h-4.25s0-4.25,0-4.25Z"/>
    <path class="cls-15" d="M191.25,123.25h12.75s0,4.25,0,4.25h-4.25s0,4.24,0,4.24h-8.51s0-4.25,0-4.25v-4.25Z"/>
    <path class="cls-20" d="M178.49,140.25h17s0,4.25,0,4.25v4.25s-4.25,0-4.25,0v-4.25s-12.75,0-12.75,0v-4.25Z"/>
    <path class="cls-11" d="M191.25,144.5h4.25s0,4.25,0,4.25h-4.24s0-4.25,0-4.25Z"/>
    <path class="cls-11" d="M212.5,135.99v8.5s-4.25,0-4.25,0v-8.5s4.25,0,4.25,0Z"/>
    <path class="cls-20" d="M212.5,127.51v8.48s-4.25,0-4.25,0v-8.49s4.25,0,4.25,0Z"/>
    <path class="cls-17" d="M187,42.5h4.26s0,4.25,0,4.25h-4.24s0,4.25,0,4.25h-8.5s0,33.99,0,33.99h-4.24s0,4.25,0,4.25h-4.24s0,4.25,0,4.25h-4.25s0,4.25,0,4.25h-4.24s0,4.25,0,4.25h-4.25s0,4.25,0,4.25h-4.24s0,4.25,0,4.25h-4.25s0,4.24,0,4.24h-4.25s0,4.25,0,4.25c-1.39,0-2.82,.07-4.21-.02l-.04-.06c-.01-1.39-.01-2.78,0-4.16h4.24s0-4.25,0-4.25v-8.48c1.42,0,2.84-.02,4.26-.04-.25-7.03-.02-14.26-.02-21.31v-8.41s0-4.25,0-4.25v-4.24s4.25,0,4.25,0h4.25s0,4.26,0,4.26c2.83,0,5.67-.04,8.49,.01l4.19-.02,.09-.02c-.08-1.39-.02-2.83-.02-4.22v-8.51s4.24,0,4.24,0c0-1.42,0-2.84,0-4.26h4.24s0-4.24,0-4.24h4.26s4.23-.01,4.23-.01v-4.24Z"/>
    <path class="cls-19" d="M157.25,63.75v4.26c2.83,0,5.66-.04,8.49,.01l4.19-.02c.12,1.4,.06,2.84,.06,4.25v4.23s.01,4.27,.01,4.27h-4.25s.01,4.25,.01,4.25h-4.21c-.27,2.78-.03,5.7-.06,8.5h-4.25c-.02,1.42-.03,2.83,.01,4.24h-4.28s0,4.27,0,4.27h-4.12s-.1-.04-.1-.04c-.25-7.03-.02-14.26-.02-21.31v-8.41s0-4.25,0-4.25v-4.24s4.25,0,4.25,0h4.25Z"/>
    <path class="cls-9" d="M157.24,72.25h12.75s0,4.23,0,4.23v4.27s-4.25,0-4.25,0v4.25s-4.19,0-4.19,0c-.27,2.78-.03,5.7-.06,8.5h-4.25s-4.27,0-4.27,0v-16.99s4.26,0,4.26,0v-4.25Z"/>
    <path class="cls-22" d="M157.25,63.75v4.26s-4.26,0-4.26,0v4.25s-4.25,0-4.25,0v-4.25s0-4.24,0-4.24h4.25s4.25,0,4.25,0Z"/>
    <path class="cls-8" d="M157.25,63.75v4.26s-4.26,0-4.26,0v-4.26s4.26,0,4.26,0Z"/>
    <path class="cls-18" d="M170,55.25h4.24s0,12.74,0,12.74c-1.4,0-2.82,.05-4.22,0-.08-1.39-.02-2.83-.02-4.22v-8.51Z"/>
    <path class="cls-18" d="M148.76,101.97l.1,.03h4.12s0,4.15,0,4.15c-1.33,.24-2.89,.09-4.25,.09v4.24s-4.24,0-4.24,0v-8.48c1.42,0,2.84-.02,4.26-.04Z"/>
    <path class="cls-22" d="M148.86,102h4.12s0,4.15,0,4.15c-1.37-.18-2.84-.07-4.22-.05-.04-1.17-.31-3.02,.09-4.1Z"/>
    <path class="cls-6" d="M174.24,67.99v8.49c-1.41,.04-2.82,.05-4.24,.01v-4.23c-.01-1.41,.05-2.85-.07-4.25l.09-.02c1.4,.06,2.82,.02,4.22,0Z"/>
    <path class="cls-22" d="M170.01,80.75h4.23s0,4.24,0,4.24h-8.48s-.01-4.24-.01-4.24h4.25Z"/>
    <path class="cls-22" d="M165.76,85l-.06,.69c.18,2.57,.05,5.22,.04,7.79h-4.24c.03-2.79-.21-5.71,.06-8.49h4.21Z"/>
    <path class="cls-18" d="M165.76,85l-.06,.69c-.36,.61-.12,2.72-.12,3.49-1.29,.09-2.61,.06-3.91,.07,0-1.42,0-2.84-.11-4.25h4.21Z"/>
    <path class="cls-21" d="M174.24,76.47v4.28s-4.23,0-4.23,0v-4.27c1.41,.04,2.82,.03,4.23-.01Z"/>
    <path class="cls-11" d="M161.5,93.5v4.24s-4.23,0-4.23,0c-.04-1.41-.03-2.82-.01-4.24h4.25Z"/>
    <path class="cls-19" d="M135.99,161.5h8.51c1.37,0,2.76-.02,4.13,.02h.12s0,4.23,0,4.23v4.25s0,17,0,17h4.25c0,4.23-.12,8.49,.02,12.73l-.03,.08c-1.3-.25-2.91-.07-4.24-.06v4.26s-4.27,0-4.27,0h-12.7s-4.27,0-4.27,0v-8.51s-4.25,0-4.25,0v-17s0-4.25,0-4.25v-4.25s4.24,0,4.24,0h4.26s0-4.25,0-4.25h4.25s0-4.25,0-4.25Z"/>
    <path class="cls-8" d="M144.5,161.49c1.37,0,2.76-.02,4.13,.02h.12s0,4.23,0,4.23v4.25s0,17,0,17h4.25c0,4.23-.12,8.49,.02,12.73l-.03,.08c-1.3-.25-2.91-.07-4.24-.06h-4.25s0-34.02,0-34.02v-4.23Z"/>
    <path class="cls-13" d="M144.5,161.49c1.37,0,2.76-.02,4.13,.02-.02,1.4-.08,2.82,.02,4.22-1.37,0-2.78,.08-4.15-.01v-4.23Z"/>
    <path class="cls-9" d="M127.49,170h4.26s0,21.25,0,21.25h-4.25s0,4.24,0,4.24h-4.25s0-17,0-17v-4.25s0-4.25,0-4.25h4.25Z"/>
    <path class="cls-19" d="M123.25,170h4.25s0,4.25,0,4.25h-4.25s0-4.25,0-4.25Z"/>
    <path class="cls-13" d="M136,144.5c1.4,0,2.81,0,4.21,.02l.03,.07v4.16s4.24,0,4.24,0h4.17s-.01,.12-.01,.12c-1.38,.03-2.76,.05-4.14,.05v4.08s-.01,4.25-.01,4.25c0,1.41-.02,2.83,0,4.25h-8.51s0,4.25,0,4.25h-4.25s0,4.25,0,4.25h-4.26s-4.25,0-4.25,0v4.25s0,4.25,0,4.25v17s-4.25,.01-4.25,.01v4.25s-4.25,0-4.25,0v4.25s-4.24,0-4.24,0c-2.83-.07-5.67,0-8.5,0,0-1.42,0-2.83,0-4.25h-4.24c0-1.42,0-2.83,0-4.25v-4.25c0-1.33-.21-2.97,.09-4.25,1.36,0,2.73,.03,4.09-.02l.05-.06c.02-1.34-.15-2.88,.11-4.18h4.16s0-4.24,0-4.24h4.25s0-4.16,0-4.16l-.03-.07c.1-1.42,.04-2.85,.03-4.27,1.42,.01,2.85,.05,4.27-.03l.07,.03h4.17c-.02-1.42-.01-2.84,.02-4.26h4.22s0-4.25,0-4.25h4.25s0-4.16,0-4.16l-.03-.07c.1-1.41,.04-2.86,.03-4.27-.03-1.41,0-2.83,0-4.25h4.24s.13,.02,.13,.02h4.01s.1-.04,.1-.04c.06-1.4,.01-2.83,0-4.23Z"/>
    <path class="cls-2" d="M123.25,178.49v17s-4.25,.01-4.25,.01v4.25s-4.25,0-4.25,0v4.25s-4.24,0-4.24,0c-2.83-.07-5.67,0-8.5,0,0-1.42,0-2.83,0-4.25v-4.24s4.25,0,4.25,0v-4.25h4.25s0-4.25,0-4.25h4.25v-4.25s4.25,0,4.25,0v-4.25s4.25,0,4.25,0Z"/>
    <path class="cls-21" d="M144.49,148.74h4.17s-.01,.12-.01,.12c-1.38,.03-2.76,.05-4.14,.05v4.08c-1.42-.03-2.85,0-4.27,0v-4.25s4.25,0,4.25,0Z"/>
    <path class="cls-17" d="M140.24,152.99c1.42,0,2.85-.02,4.27,0l-.02,4.25h-4.26s0-4.26,0-4.26Z"/>
    <path class="cls-17" d="M127.5,148.75h4.24s0,4.25,0,4.25c-1.42,0-2.83,0-4.25,0-.03-1.41,0-2.83,0-4.25Z"/>
    <path class="cls-7" d="M127.5,152.99c1.42,.01,2.83,.01,4.25,0v4.25c-1.28,0-3.03-.24-4.25,.09l-.03-.07c.1-1.41,.04-2.86,.03-4.27Z"/>
    <path class="cls-18" d="M123.25,161.5h4.25s0,4.25,0,4.25h-4.25s0-4.25,0-4.25Z"/>
    <path class="cls-21" d="M114.77,169.97l.07,.03c-.27,1.32-.09,2.9-.09,4.25-1.28,0-3.03-.24-4.25,.09l-.03-.07c.1-1.42,.04-2.85,.03-4.27,1.42,.01,2.85,.05,4.27-.03Z"/>
    <path class="cls-18" d="M110.5,174.34c1.22-.32,2.97-.1,4.25-.09v4.25s-4.25,0-4.25,0v-4.16Z"/>
    <path class="cls-18" d="M102.09,182.74h4.16c0,1.41,.03,2.82-.02,4.22l-.13,.04c-1.34-.01-2.79,.12-4.11-.08,.02-1.34-.15-2.88,.11-4.18Z"/>
    <path class="cls-21" d="M136,144.5c1.4,0,2.81,0,4.21,.02l.03,.07v4.16c-1.42,0-2.84,0-4.26-.02,.06-1.4,.01-2.83,0-4.23Z"/>
    <path class="cls-20" d="M131.88,148.76h4.01c.36,.9,.12,3.18,.11,4.24h-4.12c.05-1.41,0-2.83,0-4.24Z"/>
    <path class="cls-19" d="M97.75,123.25h4.26s4.23,0,4.23,0h4.25s0,4.25,0,4.25h4.25s0,4.25,0,4.25v4.26s0,4.24,0,4.24h-4.25s0,4.25,0,4.25c-.01,1.41-.02,2.83-.01,4.24h-4.24s-4.25,.01-4.25,.01v-4.25s-4.25-.01-4.25-.01h-4.25s-21.26,.01-21.26,.01v4.26c-1.4,0-2.82-.04-4.22,0-.09-1.41-.02-2.88-.02-4.3v-16.96s0-4.24,0-4.24c1.42,0,2.84-.03,4.26,0h4.24s0,4.25,0,4.25h4.25s0,4.26,0,4.26h12.76s0-4.26,0-4.26h4.25s0-4.26,0-4.26Z"/>
    <path class="cls-18" d="M72.25,140.25h21.25s0,4.25,0,4.25h-21.26s0-4.25,0-4.25Z"/>
    <path class="cls-20" d="M106.25,140.25h4.26s0,4.25,0,4.25c-.01,1.41-.02,2.83-.01,4.24h-4.24s0-8.49,0-8.49Z"/>
    <path class="cls-5" d="M68,123.26c1.42,0,2.84-.03,4.26,0v4.26s-4.26,0-4.26,0v-4.24Z"/>
    <path class="cls-20" d="M106.25,123.25h4.25s0,4.25,0,4.25h-4.25s0-4.25,0-4.25Z"/>
    <path class="cls-18" d="M110.5,127.5h4.25s0,4.25,0,4.25h-4.25s0-4.25,0-4.25Z"/>
    <path class="cls-9" d="M72.24,144.5h21.26s4.25-.01,4.25-.01h4.25s0,4.27,0,4.27v4.24s-4.27,0-4.27,0v4.25s-4.25,0-4.25,0v4.26s-4.23,0-4.23,0h-4.26s0,4.24,0,4.24v4.26s0,4.15,0,4.15c-1.3,.26-2.83,.09-4.16,.08l-.08,.02c-1.42-.03-2.84-.04-4.26-.02v4.24s-4.24,0-4.24,0c.04-2.83,0-5.67,0-8.5h-4.26c.02-2.83,.01-5.67,0-8.5v-8.04s0-4.62,0-4.62l.03-.07c1.4-.05,2.83,0,4.23,0v-4.26Z"/>
    <path class="cls-5" d="M72.24,144.5h21.26s4.25-.01,4.25-.01h4.25s0,4.27,0,4.27v4.24s-4.27,0-4.27,0h-4.23s0-4.24,0-4.24h-17s0,4.25,0,4.25h-4.25s0,12.75,0,12.75h4.25s0,4.25,0,4.25h4.25s4.24,0,4.24,0v4.15c-1.29,.26-2.83,.09-4.15,.08l-.08,.02c-1.42-.03-2.84-.04-4.26-.02v4.24s-4.24,0-4.24,0c.04-2.83,0-5.67,0-8.5h-4.26c.02-2.83,.01-5.67,0-8.5v-8.04s0-4.62,0-4.62l.03-.07c1.4-.05,2.83,0,4.23,0v-4.26Z"/>
    <path class="cls-20" d="M97.75,144.48h4.25s0,4.27,0,4.27h-4.25s0-4.27,0-4.27Z"/>
    <path class="cls-18" d="M80.75,170h4.24s0,4.16,0,4.16c-1.3,.26-2.83,.09-4.16,.08-.31-1.23-.09-2.96-.08-4.24Z"/>
    <path class="cls-17" d="M131.76,123.27c1.41-.06,2.83-.04,4.24-.04v4.27s-4.25,0-4.25,0v4.25s-4.25,0-4.25,0v4.25s-4.24,0-4.24,0v8.5s-8.5,0-8.5,0v4.25c-1.42,0-2.83,.02-4.25,0v4.26s-4.24,0-4.24,0v4.25s-4.25,0-4.25,0v4.25s-4.25,0-4.25,0v4.25s-4.25,0-4.25,0v4.25c-1.42,0-2.84,.02-4.25,0v4.24c-1.41,0-2.84,.07-4.24-.02l-.04-.08v-4.15s0-4.26,0-4.26v-4.24s4.26,0,4.26,0h4.24s0-4.25,0-4.25h4.25s0-4.25,0-4.25h4.28s-.01-4.24-.01-4.24h4.25s4.24-.01,4.24-.01c0-1.41,0-2.83,.01-4.24v-4.25s4.25,0,4.25,0v-4.24s0-4.26,0-4.26v-4.25s4.26,0,4.26,0h4.24s4.25,0,4.25,0h4.24s0-4.16,0-4.16l.02-.07Z"/>
    <path class="cls-17" d="M114.75,127.5h4.25s0,4.25,0,4.25h-4.25s0-4.25,0-4.25Z"/>
    <path class="cls-7" d="M119,127.49h4.24s0,4.24,0,4.24h-4.26s0-4.24,0-4.24Z"/>
    <path class="cls-8" d="M114.75,131.75h4.25s0,4.27,0,4.27c-1.4-.06-2.83,0-4.24,0v-4.26Z"/>
    <path class="cls-6" d="M85,161.5h4.26c0,1.4-.04,2.83,0,4.23h-4.26s0-4.23,0-4.23Z"/>
    <path class="cls-18" d="M110.5,140.25h4.25s0,4.24,0,4.24h-4.24s0-4.24,0-4.24Z"/>
    <path class="cls-22" d="M127.5,127.5v4.24s-4.24,0-4.24,0v-4.24s4.24,0,4.24,0Z"/>
    <path class="cls-22" d="M102,148.75h4.25s0,4.24,0,4.24h-4.23s-.01-4.24-.01-4.24Z"/>
    <path class="cls-18" d="M114.75,136.01c1.41,0,2.84-.05,4.24,0v4.23s-4.24,0-4.24,0v-4.24Z"/>
    <path class="cls-22" d="M89.25,161.5h4.24s0,4.24,0,4.24h-4.23c-.05-1.41,0-2.83,0-4.24Z"/>
    <path class="cls-19" d="M216.75,46.75h4.25c0,1.42,.05,2.85-.02,4.27l.03,.07v4.16s0,4.24,0,4.24h-4.25s-.01,4.25-.01,4.25h-4.24s0,4.27,0,4.27h-4.24s0,4.23,0,4.23h-4.25s-4.92,0-4.92,0h-3.58s0-4.2,0-4.2v-4.37s0-8.42,0-8.42h4.25v-4.25s12.75,0,12.75,0c1.29,.01,3,.22,4.24-.08v-4.17Z"/>
    <path class="cls-17" d="M216.75,46.75h4.25c0,1.42,.05,2.85-.02,4.27-1.4-.02-2.8-.02-4.2-.02l-.02-.08v-4.17Z"/>
    <path class="cls-4" d="M195.5,63.67c1.36,.23,2.89,.08,4.27,.08l-.04,4.23c-1.36,0-2.91-.12-4.24,.06v-4.37Z"/>
    <path class="cls-21" d="M216.77,51c1.4,0,2.8,0,4.2,.02l.03,.07v4.16s-4.25,0-4.25,0c-.01-1.42,0-2.84,.02-4.26Z"/>
    <path class="cls-18" d="M204,68h4.25s0,4.24,0,4.24h-4.25s0-4.24,0-4.24Z"/>
    <path class="cls-18" d="M216.75,55.25h4.25s0,4.24,0,4.24h-4.25s0-4.24,0-4.24Z"/>
    <path class="cls-22" d="M208.25,63.75h4.25s0,4.26,0,4.26h-4.24s0-4.26,0-4.26Z"/>
    <path class="cls-18" d="M212.5,59.5h4.25s-.01,4.24-.01,4.24h-4.24s0-4.24,0-4.24Z"/>
    <path class="cls-18" d="M204,55.25h4.25s0,4.25,0,4.25h-4.25s0-4.25,0-4.25Z"/>
    <path class="cls-18" d="M199.75,59.5h4.25s0,4.25,0,4.25h-4.25s0-4.25,0-4.25Z"/>
    <path class="cls-4" d="M191.28,93.5h4.22s0,4.25,0,4.25h4.25s0,4.25,0,4.25v4.24s-8.51,0-8.51,0v4.24s-4.25,0-4.25,0v4.24s-4.25,0-4.25,0v4.24s-4.25,0-4.25,0v4.25s-4.24-.01-4.24-.01h-4.25s0-4.24,0-4.24v-4.27c1.41,.06,2.84,.01,4.25,.01v-4.15c1.31-.25,2.93-.08,4.27-.09v-4.25c1.4,.03,2.82,.03,4.23,0h4.25s0-4.26,0-4.26v-4.24s0-4.17,0-4.17l.17-.06c1.37-.02,2.74-.03,4.11-.02Z"/>
    <path class="cls-22" d="M191.28,93.5h4.22s0,4.25,0,4.25h-4.26s-4.08,0-4.08,0v-4.24c1.37-.02,2.74-.03,4.11-.02Z"/>
    <path class="cls-18" d="M187.16,93.52v4.24s4.08,0,4.08,0v4.25s-4.24,0-4.24,0v-4.24s0-4.17,0-4.17l.17-.06Z"/>
    <path class="cls-22" d="M195.5,97.75h4.25s0,4.25,0,4.25h-4.25s0-4.25,0-4.25Z"/>
    <path class="cls-13" d="M165.77,118.96l.06,.04h4.16s0,4.24,0,4.24v4.26s0,4.25,0,4.25h-8.5s0,8.5,0,8.5h4.26s0,4.26,0,4.26c-1.33-.01-2.98-.21-4.26,.08l-.06-.07c-1.38-.05-2.77-.02-4.15-.03-.04-1.41-.02-2.83-.02-4.24h-4.24s-.02-4.25-.02-4.25h-4.24s-.01-4.25-.01-4.25h4.14s.1-.02,.1-.02c.06-1.4,.01-2.82,0-4.23,1.42,0,2.85,.05,4.27-.02l.07,.03h4.16s0-4.26,0-4.26c-.04-1.38,0-2.77,0-4.15,1.26,.05,2.61,.12,3.86-.08l.41-.06Z"/>
    <path class="cls-19" d="M157.27,127.48l.07,.03c-.28,1.31-.09,2.89-.09,4.24-1.4,0-2.86,.07-4.26-.02,.06-1.4,.01-2.82,0-4.23,1.42,0,2.85,.05,4.27-.02Z"/>
    <path class="cls-20" d="M148.75,131.75h4.14c.39,1.06,.12,3.09,.11,4.25h-4.24s-.01-4.25-.01-4.25Z"/>
    <path class="cls-22" d="M157.25,140.25h4.24c0,1.34,.19,2.96-.08,4.27-1.38-.05-2.77-.02-4.15-.03-.04-1.41-.02-2.83-.02-4.24Z"/>
    <path class="cls-7" d="M165.77,118.96l.06,.04c-.27,1.32-.09,2.9-.09,4.25h-4.25c-.04-1.38,0-2.77,0-4.15,1.26,.05,2.61,.12,3.86-.08l.41-.06Z"/>
    <path class="cls-21" d="M51,199.75h4.25s0,4.25,0,4.25h8.5s0,4.26,0,4.26h4.26c0,1.4-.05,2.83,0,4.24v4.25s-4.24,0-4.24,0h-4.27s-4.24,0-4.24,0h-4.25s0-8.51,0-8.51v-4.25s0-4.25,0-4.25Z"/>
    <path class="cls-7" d="M63.74,212.5h4.25s0,4.25,0,4.25h-4.24s-.01-4.25-.01-4.25Z"/>
    <path class="cls-22" d="M51,199.75h4.25s0,4.25,0,4.25h-4.25s0-4.25,0-4.25Z"/>
    <path class="cls-21" d="M102.02,182.71l.07,.03c-.26,1.3-.08,2.84-.11,4.18l-.05,.06c-1.36,.04-2.73,.01-4.09,.02-.3,1.28-.1,2.92-.09,4.25v4.25c0,1.42,.01,2.83,0,4.25-1.42,0-2.84,.01-4.26,0h-4.24s0,4.24,0,4.24c0,1.42,.02,2.85,0,4.27l-4.25-.02h-4.24v-4.16s-.02-.06-.02-.06c.07-1.37,.03-2.75,.02-4.12,1.27,0,2.67,.12,3.92-.12l.19-.06c.35-.52,.15-3.46,.14-4.23,1.4,0,2.81,0,4.21,.02,.1-1.42,.05-2.85,.04-4.27-.04-1.41,0-2.84,0-4.25h4.25c1.42,0,2.85,.06,4.27-.03v-4.22c1.4,0,2.84,.07,4.25-.04Z"/>
    <path class="cls-17" d="M89.25,187h4.25s0,4.26,0,4.26c-1.41,0-2.84,.03-4.25,0-.04-1.41,0-2.84,0-4.25Z"/>
    <path class="cls-17" d="M85,203.99h4.25c0,1.42,.02,2.84,0,4.27l-4.25-.02v-4.25Z"/>
    <path class="cls-17" d="M93.5,195.5h4.25c0,1.41,.01,2.83,0,4.24-1.42,0-2.84,.01-4.26,0v-4.25Z"/>
    <path class="cls-18" d="M93.5,191.25h4.25s0,4.25,0,4.25h-4.25s0-4.25,0-4.25Z"/>
    <path class="cls-18" d="M80.75,204.09c1.2-.34,2.99-.1,4.25-.09v4.25h-4.25v-4.16Z"/>
    <path class="cls-22" d="M85,199.75h4.25s0,4.24,0,4.24h-4.25s0-4.24,0-4.24Z"/>
    <path class="cls-22" d="M89.25,195.58c1.23-.32,2.97-.1,4.25-.09v4.25s-4.25,0-4.25,0v-4.16Z"/>
    <path class="cls-19" d="M233.75,80.75h4.25s0,4.25,0,4.25v4.25s0,8.49,0,8.49h-4.23c-.13-1.37-.02-2.86,0-4.25h-4.25s-8.51-.02-8.51-.02v-4.24s0-4.25,0-4.25h4.25s4.24,0,4.24,0v-4.25s4.26,0,4.26,0Z"/>
    <path class="cls-13" d="M233.75,80.75h4.25s0,4.25,0,4.25h-4.24s-4.26,0-4.26,0v-4.25s4.26,0,4.26,0Z"/>
    <path class="cls-22" d="M233.75,80.75h4.25s0,4.25,0,4.25h-4.24s0-4.25,0-4.25Z"/>
    <path class="cls-19" d="M233.75,89.25h4.24s0,8.49,0,8.49h-4.23c-.13-1.37-.02-2.86,0-4.25-.05-1.41,0-2.84,0-4.25Z"/>
    <path class="cls-7" d="M233.75,85h4.24s0,4.25,0,4.25h-4.24s0-4.25,0-4.25Z"/>
    <path class="cls-7" d="M229.49,89.26h4.26c0,1.4-.05,2.83,0,4.24h-4.25s0-4.24,0-4.24Z"/>
    <path class="cls-22" d="M221,85h4.25s0,4.25,0,4.25h-4.25v-4.25Z"/>
    <path class="cls-17" d="M76.49,174.24c1.42-.02,2.84-.01,4.26,.02v4.21s0,4.28,0,4.28h-4.25s0,4.25,0,4.25h-4.24s0,4.25,0,4.25h-4.24s0,4.25,0,4.25h-4.24s0,4.25,0,4.25c-1.4,0-2.87,.09-4.27,0v-4.26s.01-4.25,.01-4.25h4.25s0-4.25,0-4.25h4.25s4.24-.01,4.24-.01v-4.24c-.02-1.42,0-2.84,0-4.26h4.24s0-4.25,0-4.25Z"/>
    <path class="cls-22" d="M59.5,191.25h4.25s-.01,4.24-.01,4.24h-4.24s0-4.24,0-4.24Z"/>
    <path class="cls-22" d="M63.75,187h4.25s0,4.24,0,4.24h-4.24s0-4.24,0-4.24Z"/>
    <path class="cls-19" d="M225.26,80.72l.07,.03h4.16s0,4.25,0,4.25h-4.24s-4.25,0-4.25,0v4.25s0,4.24,0,4.24v4.26s-4.25,0-4.25,0h-4.17c-.21-1.25-.2-3,0-4.25-.17-1.37-.05-2.86-.04-4.24-.13-1.38-.03-2.87-.04-4.25h8.51s0-4.25,0-4.25c1.42,0,2.84,.01,4.27-.03Z"/>
    <path class="cls-22" d="M216.75,89.25h4.25s0,4.23,0,4.23v4.26s-4.25,0-4.25,0h-4.17c-.21-1.25-.2-3,0-4.25h4.18s0-4.25,0-4.25Z"/>
    <path class="cls-22" d="M225.33,80.75h4.16s0,4.25,0,4.25h-4.24c0-1.36-.18-2.93,.09-4.25Z"/>
    <path class="cls-21" d="M182.74,97.75c1.42,.01,2.84,.02,4.26,0v4.24s0,4.25,0,4.25h-4.25c-1.41,.04-2.83,.04-4.24,.01v4.25c-1.32,0-2.95-.16-4.25,.09l-.03-.09c.06-1.42,.02-2.85,.01-4.26v-4.24s0-4.25,0-4.25h4.25s4.24,0,4.24,0Z"/>
    <path class="cls-8" d="M174.25,97.75h4.25s0,4.25,0,4.25h-4.25s0-4.25,0-4.25Z"/>
    <path class="cls-20" d="M182.75,102h4.25s0,4.25,0,4.25h-4.25s0-4.25,0-4.25Z"/>
    <path class="cls-21" d="M148.76,135.99h4.24s.02,4.24,.02,4.24h-4.27s0,4.25,0,4.25h-4.24s0,4.26,0,4.26h-4.24s0-4.16,0-4.16l-.03-.07c.1-1.42,.04-2.85,.03-4.27-.03-1.41,0-2.83,0-4.25h4.25c1.42,.04,2.84,0,4.26,0Z"/>
    <path class="cls-17" d="M140.25,136h4.25s0,4.25,0,4.25c-1.42,0-2.84,.02-4.26,0-.03-1.41,0-2.83,0-4.25Z"/>
    <path class="cls-22" d="M140.25,144.59c1.22-.32,2.97-.1,4.25-.09v4.25s-4.25,0-4.25,0v-4.16Z"/>
    <path class="cls-22" d="M144.5,140.25h4.24s0,4.24,0,4.24h-4.24s0-4.24,0-4.24Z"/>
    <path class="cls-17" d="M204,72.25h4.25c0,1.41,0,2.83,0,4.26h-4.24s0,4.25,0,4.25h-8.51c0-1.4-.04-2.82,0-4.23v-4.27s3.58,0,3.58,0h4.92Z"/>
    <path class="cls-22" d="M199.08,72.25h4.92s0,4.24,0,4.24c-2.58,0-5.19,.08-7.77-.01l-.72,.05v-4.27s3.58,0,3.58,0Z"/>
    <path class="cls-6" d="M204,89.25h8.53c-.01,1.39-.14,2.87,.04,4.24-.2,1.25-.21,3,0,4.25h-4.31c-1.42,0-2.84,.01-4.25,0v-4.25s0-4.25,0-4.25Z"/>
    <path class="cls-21" d="M204,93.5h4.25s0,4.24,0,4.24c-1.42,.01-2.84,.02-4.25,0v-4.25Z"/>
    <path class="cls-18" d="M208.25,93.5h4.32c-.2,1.25-.21,3,0,4.25h-4.31s0-4.25,0-4.25Z"/>
    <path class="cls-17" d="M76.49,204.01c1.39-.02,2.86-.12,4.25,.01l.02,.06v4.16s0,4.25,0,4.25h-4.25s-4.16,0-4.16,0l-.07-.03-.02-4.22c-.04-1.41,0-2.84,0-4.25h4.16s.07,.02,.07,.02Z"/>
    <path class="cls-1" d="M76.49,204.01c1.39-.02,2.86-.12,4.25,.01l.02,.06v4.16s-4.16,0-4.16,0l-.07-.03-.03-4.21Z"/>
    <path class="cls-22" d="M76.59,208.25h4.16s0,4.24,0,4.24h-4.25c0-1.35-.18-2.93,.09-4.24Z"/>
    <path class="cls-19" d="M76.52,208.22l.07,.03c-.27,1.31-.09,2.89-.09,4.24h-4.16s-.07-.03-.07-.03l-.02-4.22c1.42,.01,2.85,.05,4.27-.02Z"/>
    <path class="cls-17" d="M225.24,51c1.42-.01,2.84,0,4.26,0v8.48s0,4.27,0,4.27h-4.25v-8.51s-.01-4.24-.01-4.24Z"/>
    <path class="cls-21" d="M106.24,174.25l4.22,.02,.03,.07v4.16s-4.25,0-4.25,0v4.25s-4.16,0-4.16,0l-.07-.03c-.04-1.4-.01-2.81-.02-4.21v-4.25s4.24,0,4.24,0Z"/>
    <path class="cls-21" d="M169.99,110.5h4.24s.03,.1,.03,.1v4.15c-1.42,0-2.86,.04-4.27-.01v4.27s-4.16,0-4.16,0l-.06-.04c0-1.4-.02-2.79-.04-4.19l-.07-.02c.31-1.24,.09-2.96,.08-4.25h4.24Z"/>
    <path class="cls-1" d="M165.73,114.77c1.42-.03,2.84-.04,4.26-.04v4.27s-4.16,0-4.16,0l-.06-.04c0-1.4-.02-2.79-.04-4.19Z"/>
    <path class="cls-6" d="M191.24,89.25h8.5s0,4.25,0,4.25v4.25s-4.25,0-4.25,0v-4.26s-4.22,0-4.22,0c-.03-1.42-.04-2.83-.04-4.25Z"/>
    <path class="cls-7" d="M195.5,93.5h4.25s0,4.25,0,4.25h-4.25s0-4.25,0-4.25Z"/>
    <path class="cls-1" d="M123.24,157.24c1.4,0,2.83-.03,4.23,.02l.03,.07v4.16h-4.25s0,4.24,0,4.24h-4.22c.01-1.41,.01-2.83,0-4.24-.11-1.4-.04-2.85-.03-4.25h4.24Z"/>
    <path class="cls-1" d="M161.49,118.99c1.29,0,2.58-.02,3.87,.03-1.25,.2-2.6,.14-3.86,.08,0,1.38-.05,2.78,0,4.15v4.25s-4.16,0-4.16,0l-.07-.03-.02-4.24v-4.24s4.24,0,4.24,0Z"/>
    <path class="cls-17" d="M216.75,59.5h4.25s0,4.25,0,4.25h-4.24s0,4.25,0,4.25c-1.41,0-2.85,.07-4.26,0v-4.26s4.25,0,4.25,0v-4.24Z"/>
    <path class="cls-21" d="M114.75,161.5h4.28c0,1.42,0,2.83,0,4.25-.03,1.42-.04,2.84-.02,4.26h-4.17s-.07-.03-.07-.03l-.02-4.23v-4.24Z"/>
    <path class="cls-7" d="M140.25,118.91l.04,.06c-.11,1.42-.05,2.85-.04,4.28-1.4,0-2.85,.08-4.24-.02-1.41,0-2.83-.02-4.24,.04-.09-1.39-.09-2.88-.02-4.27h4.24c1.36,0,2.93,.17,4.26-.09Z"/>
    <path class="cls-18" d="M229.5,72.25h4.25s0,8.5,0,8.5h-4.25s0-4.26,0-4.26v-4.24Z"/>
    <path class="cls-21" d="M80.74,199.74c1.3,0,2.64-.05,3.93,.05-1.25,.24-2.65,.12-3.92,.12,0,1.37,.05,2.75-.02,4.12-1.38-.13-2.85-.03-4.25-.01l-.07-.02c.32-1.22,.09-2.97,.09-4.25h4.24Z"/>
    <path class="cls-17" d="M68,208.24h4.25s.02,4.22,.02,4.22c-1.42,.09-2.85,.04-4.27,.03-.04-1.41,0-2.84,0-4.25Z"/>
    <path class="cls-17" d="M85,191.25h4.25c0,1.42,.06,2.85-.04,4.27-1.4-.01-2.81-.02-4.21-.02-.04-1.41,0-2.84,0-4.25Z"/>
    <path class="cls-17" d="M148.75,127.5h4.25c0,1.4,.05,2.82,0,4.23l-.1,.03h-4.14c-.03-1.42,0-2.84,0-4.26Z"/>
    <path class="cls-17" d="M106.25,170h4.25c0,1.42,.06,2.85-.03,4.27l-4.22-.02v-4.25Z"/>
    <path class="cls-17" d="M131.75,144.5h4.25c0,1.4,.05,2.83,0,4.23l-.1,.03h-4.01s-.13-.01-.13-.01v-4.25Z"/>
    <path class="cls-17" d="M136,140.25h4.25c0,1.42,.06,2.85-.03,4.27-1.4-.02-2.81-.02-4.21-.02-.03-1.41,0-2.83,0-4.25Z"/>
    <path class="cls-17" d="M110.5,165.75h4.25s.02,4.22,.02,4.22c-1.42,.08-2.85,.04-4.27,.03-.04-1.41,0-2.83,0-4.25Z"/>
    <path class="cls-17" d="M144.5,131.75c1.41,0,2.84-.03,4.25,0v4.25c-1.41,0-2.83,.04-4.25,0-.03-1.41,0-2.83,0-4.25Z"/>
    <path class="cls-17" d="M153,123.25h4.25s.02,4.23,.02,4.23c-1.42,.07-2.85,.03-4.27,.02-.04-1.41,0-2.84,0-4.25Z"/>
    <path class="cls-17" d="M170,106.25h4.25c0,1.41,.05,2.84-.01,4.26h-4.24s0-4.26,0-4.26Z"/>
    <path class="cls-17" d="M80.75,195.5h4.25c0,.77,.22,3.71-.14,4.23l-.19,.06c-1.29-.1-2.63-.04-3.93-.05v-4.24Z"/>
    <path class="cls-17" d="M123.25,153h4.25c0,1.41,.07,2.86-.03,4.27-1.4-.06-2.82-.02-4.23-.02v-4.25Z"/>
    <path class="cls-17" d="M182.75,93.5c1.38,0,2.8-.07,4.18,.02l.07,.07v4.17c-1.41,0-2.83,0-4.25,0v-4.25Z"/>
    <path class="cls-17" d="M93.5,182.75h4.26s.01,4.21,.01,4.21c-1.41,.09-2.85,.04-4.27,.03-.02-1.41,0-2.83,0-4.24Z"/>
    <path class="cls-17" d="M161.5,114.75h4.17s.07,.02,.07,.02c.02,1.4,.03,2.79,.04,4.19l-.41,.06c-1.29-.04-2.58-.02-3.87-.03v-4.24Z"/>
    <path class="cls-11" d="M187,89.25h4.24c0,1.42,.01,2.83,.04,4.25-1.37,0-2.74,0-4.11,.02l-.17,.06-.07-.07c.25-1.33,.08-2.92,.08-4.27Z"/>
    <path class="cls-4" d="M229.5,67.86c1.17,.4,2.99,.16,4.25,.15v4.24s-4.25,0-4.25,0v-4.39Z"/>
    <path class="cls-7" d="M97.75,178.5h4.25c0,1.4-.03,2.81,.02,4.21-1.41,.1-2.85,.04-4.26,.04v-4.25Z"/>
    <path class="cls-21" d="M229.5,76.49v4.25s-4.16,0-4.16,0l-.07-.03c-.04-1.4-.01-2.82-.02-4.22h4.25Z"/>
    <path class="cls-9" d="M84.99,174.16l.04,.08c-.04,1.42-.04,2.84-.02,4.26-1.4,0-2.86,.07-4.25-.02v-4.21s.08-.02,.08-.02c1.33,.01,2.86,.18,4.16-.08Z"/>
    <path class="cls-18" d="M199.75,93.5h4.25s0,4.25,0,4.25h-4.25s0-4.25,0-4.25Z"/>
    <path class="cls-18" d="M221,51.09c1.32-.26,2.88-.09,4.24-.09v4.24s-4.24,0-4.24,0v-4.16Z"/>
    <path class="cls-20" d="M119,157.25c0,1.41-.07,2.85,.03,4.25h-4.28s0-4.25,0-4.25h4.25Z"/>
    <path class="cls-13" d="M178.5,93.5h4.25s0,4.25,0,4.25h-4.24s0-4.25,0-4.25Z"/>
    <path class="cls-13" d="M97.75,174.25h4.25s0,4.24,0,4.24h-4.25s0-4.24,0-4.24Z"/>
    <path class="cls-13" d="M182.75,89.25h4.26c0,1.35,.17,2.94-.08,4.27-1.38-.09-2.79-.03-4.18-.02v-4.25Z"/>
    <path class="cls-13" d="M153,119h4.25s0,4.24,0,4.24h-4.25s0-4.24,0-4.24Z"/>
    <path class="cls-18" d="M212.5,46.75h4.25s0,4.17,0,4.17c-1.24,.3-2.95,.09-4.24,.08v-4.24Z"/>
    <path class="cls-8" d="M97.75,178.5v4.25s-4.25,0-4.25,0v-4.24h4.25Z"/>
    <path class="cls-13" d="M157.25,114.75h4.25s0,4.24,0,4.24h-4.24s0-4.24,0-4.24Z"/>
    <path class="cls-13" d="M170,102h4.25s0,4.24,0,4.24h-4.25s0-4.24,0-4.24Z"/>
    <path class="cls-13" d="M110.5,161.5h4.25s0,4.24,0,4.24h-4.25s0-4.24,0-4.24Z"/>
    <path class="cls-13" d="M165.75,110.5c0,1.29,.22,3.01-.08,4.25h-4.17s0-4.24,0-4.24h4.25Z"/>
    <path class="cls-8" d="M170,106.25v4.25s-4.25,0-4.25,0v-4.25s4.25,0,4.25,0Z"/>
    <path class="cls-16" d="M72.25,199.75h4.25c0,1.28,.23,3.02-.09,4.24h-4.16s0-4.24,0-4.24Z"/>
    <path class="cls-16" d="M76.5,195.5h4.25s0,4.24,0,4.24h-4.24s0-4.24,0-4.24Z"/>
    <path class="cls-8" d="M144.5,127.5h4.25c0,1.41-.03,2.83,0,4.25-1.41-.03-2.83,0-4.25,0v-4.25Z"/>
    <path class="cls-13" d="M136,136h4.25c0,1.41-.02,2.83,0,4.24h-4.25s0-4.24,0-4.24Z"/>
    <path class="cls-8" d="M148.75,123.25h4.25c0,1.41-.04,2.83,0,4.25h-4.25s0-4.25,0-4.25Z"/>
    <path class="cls-13" d="M140.25,131.75h4.25c0,1.41-.03,2.83,0,4.24h-4.25s0-4.24,0-4.24Z"/>
    <path class="cls-13" d="M106.25,170v4.25s-4.25,0-4.25,0v-4.24s4.25,0,4.25,0Z"/>
    <path class="cls-13" d="M119,153h4.25s0,4.24,0,4.24h-4.24s0-4.24,0-4.24Z"/>
    <path class="cls-8" d="M85,187h4.25c0,1.41-.04,2.83,0,4.25h-4.25s0-4.25,0-4.25Z"/>
    <path class="cls-13" d="M131.75,140.25h4.25c0,1.41-.03,2.83,0,4.25h-4.25s0-4.25,0-4.25Z"/>
    <path class="cls-13" d="M89.25,182.75h4.25c0,1.41-.02,2.83,0,4.24h-4.25s0-4.24,0-4.24Z"/>
    <path class="cls-8" d="M80.75,191.25h4.25c0,1.41-.04,2.83,0,4.24h-4.25s0-4.24,0-4.24Z"/>
    <path class="cls-13" d="M127.5,144.5h4.25s0,4.24,0,4.24h-4.24s0-4.24,0-4.24Z"/>
    <path class="cls-13" d="M68,204h4.25c0,1.41-.04,2.83,0,4.24h-4.25s0-4.24,0-4.24Z"/>
    <path class="cls-13" d="M123.25,148.75h4.25c0,1.41-.03,2.83,0,4.24h-4.25s0-4.24,0-4.24Z"/>
    <path class="cls-13" d="M106.25,165.75h4.25c0,1.41-.04,2.83,0,4.24h-4.25s0-4.24,0-4.24Z"/>
  </g>
</svg>