<?xml version="1.0" encoding="UTF-8"?>
<svg id="Capa_2" data-name="Capa 2" xmlns="http://www.w3.org/2000/svg" viewBox="0 0 20.17 20.18">
  <defs>
    <style>
      .cls-1 {
        fill: #1f1f1f;
        stroke: #1f1f1f;
        stroke-miterlimit: 10;
        stroke-width: .5px;
      }
    </style>
  </defs>
  <g id="Capa_1-2" data-name="Capa 1">
    <path class="cls-1" d="M19.92,2.75v14.68s-.03.04-.04.06c-.24,1.24-.97,2.03-2.19,2.36-.09.02-.18.05-.27.07h-5.57v-7h2.96c.13-.77.25-1.52.38-2.31h-3.34s-.01-.05-.01-.06c0-.73,0-1.46,0-2.19,0-.71.49-1.2,1.21-1.2.68,0,1.36,0,2.04,0,.07,0,.14,0,.2,0v-2.3c-1,0-1.99,0-2.97,0-.14,0-.28.02-.42.05-1.41.29-2.35,1.43-2.36,2.88,0,.87,0,1.74,0,2.61,0,.07,0,.14,0,.22h-2.3v2.3h2.3v6.99H2.75s-.04-.03-.06-.04c-1.43-.24-2.43-1.42-2.43-2.87,0-4.63,0-9.26,0-13.89,0-1.61,1.28-2.89,2.89-2.89,4.63,0,9.27,0,13.9,0,1.2,0,2.07.59,2.6,1.65.13.26.19.56.28.84ZM13.02,14.09v4.68s.05,0,.07,0c1.3,0,2.6,0,3.9,0,.16,0,.32-.02.47-.07.83-.23,1.31-.88,1.31-1.76,0-4.57,0-9.13,0-13.7,0-.18-.02-.36-.07-.53-.23-.84-.88-1.31-1.78-1.31-4.55,0-9.11,0-13.66,0-.18,0-.37.02-.55.07-.83.23-1.31.88-1.31,1.76,0,4.57,0,9.15,0,13.72,0,.17.02.35.07.51.23.83.88,1.31,1.76,1.31,1.66,0,3.33,0,4.99,0,.05,0,.11,0,.16-.01v-4.68h-2.28v-4.61h2.29c0-.53,0-1.04,0-1.55,0-.23,0-.46.04-.69.29-2.07,1.96-3.52,4.04-3.52,1.26,0,2.52,0,3.78,0,.06,0,.12,0,.19,0v4.62h-3.44v1.15h3.56c-.26,1.55-.51,3.08-.77,4.61h-2.78Z"/>
  </g>
</svg>