<?xml version="1.0" encoding="UTF-8"?>
<svg id="Capa_1" data-name="Capa 1" xmlns="http://www.w3.org/2000/svg" viewBox="0 0 24 24">
  <defs>
    <style>
      .cls-1 {
        fill: #1f1f1f;
        stroke-width: 0px;
      }
    </style>
  </defs>
  <path class="cls-1" d="M8.99,1.04c2.02,0,4.04,0,6.07,0,.16.01.31.03.47.04.91.01,1.82.05,2.71.26,1.75.42,3.1,1.35,3.9,3,.51,1.04.72,2.16.73,3.3.02,2.89.02,5.78,0,8.67,0,.63-.1,1.28-.25,1.9-.44,1.91-1.52,3.32-3.37,4.09-1.02.42-2.1.55-3.19.57-2.47.03-4.94.06-7.41.04-.91,0-1.82-.1-2.71-.26-1.73-.31-3.07-1.23-3.95-2.77-.55-.95-.75-2-.84-3.08-.03-.34-.06-.68-.09-1.02,0-2.58,0-5.16,0-7.73.01-.11.03-.22.04-.33.09-.67.12-1.35.27-2,.46-2.02,1.67-3.42,3.62-4.15.96-.36,1.96-.45,2.97-.47.35,0,.7-.03,1.04-.04ZM20.91,11.65s0,0,.01,0c0-.82,0-1.64,0-2.46-.01-.94,0-1.88-.18-2.81-.29-1.52-1.12-2.56-2.64-3.01-.99-.29-2-.36-3.02-.37-1.74-.02-3.47-.01-5.21,0-1.17,0-2.33-.02-3.49.17-1.67.28-2.73,1.25-3.12,2.91-.26,1.06-.28,2.14-.29,3.22-.01,1.94-.01,3.89,0,5.83,0,.87.04,1.75.25,2.61.37,1.51,1.27,2.54,2.81,2.88.79.18,1.62.25,2.43.27,2.06.04,4.13.03,6.19.03,1.02,0,2.05-.01,3.06-.23,1.5-.33,2.49-1.21,2.91-2.71.2-.72.27-1.46.28-2.19.02-1.38,0-2.76,0-4.14Z"/>
  <path class="cls-1" d="M17.6,11.98c0,3.09-2.52,5.61-5.62,5.61-3.1,0-5.62-2.51-5.61-5.62,0-3.1,2.52-5.63,5.62-5.62,3.1,0,5.62,2.53,5.62,5.62ZM11.99,8.34c-2.01,0-3.64,1.61-3.64,3.6,0,2.03,1.61,3.67,3.62,3.67,2.02,0,3.64-1.61,3.65-3.61,0-2.03-1.6-3.65-3.63-3.65Z"/>
  <path class="cls-1" d="M17.82,7.45c-.73,0-1.31-.58-1.31-1.31,0-.73.58-1.31,1.31-1.31.73,0,1.32.59,1.32,1.32,0,.73-.59,1.31-1.32,1.31Z"/>
</svg>