<?xml version="1.0" encoding="UTF-8"?>
<svg id="Capa_1" data-name="Capa 1" xmlns="http://www.w3.org/2000/svg" viewBox="0 0 24 24">
  <defs>
    <style>
      .cls-1 {
        fill: none;
        stroke: #1f1f1f;
        stroke-miterlimit: 10;
        stroke-width: 2px;
      }

      .cls-2 {
        opacity: .96;
      }

      .cls-3 {
        fill: #fff;
        stroke-width: 0px;
      }
    </style>
  </defs>
  <g class="cls-2">
    <path class="cls-1" d="M11.35,2.18c.43,0,.86,0,1.29,0,.06.01.12.03.18.04.51.08,1.02.13,1.51.25,5.01,1.24,8.17,6.17,7.23,11.25-.81,4.39-4.57,7.7-9.05,7.93-2.41.12-4.6-.55-6.5-2.04-1.96-1.53-3.17-3.54-3.61-5.99-.06-.35-.1-.7-.15-1.05,0-.44,0-.89,0-1.33.03-.22.06-.44.09-.65.27-1.89,1.02-3.57,2.27-5.01,1.51-1.74,3.41-2.83,5.69-3.24.35-.06.7-.1,1.05-.15ZM11.16,10.46c-.63,0-1.33.16-1.83.42-1.65.85-2.21,2.89-1.26,4.58.88,1.56,2.76,2.04,4.27,1.09,1.09-.69,1.63-1.72,1.67-2.99.04-1.06.02-2.12.02-3.17,0-.07,0-.14,0-.24.11.06.17.1.24.13.6.33,1.22.59,1.92.57.14,0,.2-.04.2-.2-.01-.42,0-.85,0-1.27,0-.15-.05-.19-.19-.21-.98-.12-1.67-.62-2-1.57-.09-.26-.15-.53-.22-.81h-1.66c0,.08,0,.15,0,.22,0,2.08.02,4.16,0,6.24,0,.34-.06.7-.16,1.03-.14.48-.44.85-.96.98-.76.19-1.53-.19-1.84-.91-.34-.79.05-1.63.93-1.93.28-.1.57-.17.86-.25v-1.7Z"/>
    <path class="cls-3" d="M11.16,10.46v1.7c-.29.08-.58.15-.86.25-.88.31-1.28,1.14-.93,1.93.31.72,1.08,1.11,1.84.91.52-.13.82-.5.96-.98.1-.33.16-.68.16-1.03,0-2.08,0-4.16,0-6.24,0-.07,0-.14,0-.22h1.66c.07.27.13.55.22.81.33.95,1.02,1.45,2,1.57.14.02.19.06.19.21,0,.42-.01.85,0,1.27,0,.16-.06.19-.2.2-.7.02-1.32-.24-1.92-.57-.07-.04-.13-.07-.24-.13,0,.1,0,.17,0,.24,0,1.06.01,2.12-.02,3.17-.04,1.27-.58,2.3-1.67,2.99-1.51.96-3.4.47-4.27-1.09-.95-1.69-.39-3.73,1.26-4.58.5-.26,1.21-.42,1.83-.42Z"/>
  </g>
</svg>