<?xml version="1.0" encoding="UTF-8"?>
<svg id="Capa_1" data-name="Capa 1" xmlns="http://www.w3.org/2000/svg" viewBox="0 0 24 24">
  <defs>
    <style>
      .cls-1 {
        fill: #1f1f1f;
        stroke-width: 0px;
      }
    </style>
  </defs>
  <path class="cls-1" d="M22.4,11.57v.69c-.01.09-.03.18-.04.28-.07.54-.1,1.09-.23,1.62-1.02,4.41-4.76,7.66-9.25,8.02-1.87.15-3.66-.18-5.36-.99-.1-.05-.24-.06-.34-.04-1.35.3-2.7.61-4.06.92-.44.1-.87.21-1.3.32h-.12c0-.05,0-.11.02-.16.38-1.74.77-3.48,1.16-5.22.04-.16.01-.29-.06-.44-1.07-2.11-1.42-4.32-.95-6.65.47-2.31,1.6-4.24,3.39-5.76,2.54-2.15,5.47-2.93,8.74-2.33,2.6.47,4.69,1.83,6.29,3.91,1.09,1.42,1.77,3.01,2.01,4.79.05.35.08.69.12,1.04ZM3.81,20.24c1.23-.28,2.42-.55,3.61-.81.1-.02.23,0,.32.05,2.3,1.23,4.7,1.44,7.17.61,4.13-1.39,6.58-5.77,5.63-10.02-1.07-4.77-5.93-7.75-10.66-6.53-2.75.71-4.72,2.39-5.89,4.97-.66,1.46-.86,3-.63,4.59.17,1.17.58,2.25,1.17,3.27.05.09.08.22.06.32-.17.82-.35,1.63-.53,2.45-.08.36-.16.72-.24,1.11Z"/>
  <path class="cls-1" d="M8.98,7.4c.43-.1.65.15.81.54.22.55.45,1.1.68,1.64.06.15.08.31-.02.44-.17.24-.35.48-.54.7-.24.27-.25.32-.06.63.76,1.26,1.82,2.18,3.18,2.73.24.1.35.08.52-.12.24-.29.48-.58.71-.88.13-.18.29-.24.49-.15.68.32,1.35.64,2.02.98.08.04.15.2.15.3,0,.68-.22,1.25-.83,1.65-.74.48-1.5.5-2.32.3-2.33-.57-4.06-1.95-5.4-3.89-.43-.63-.85-1.25-1.01-2.01-.22-1.04.05-1.93.83-2.66.22-.21.49-.24.81-.21Z"/>
</svg>