<svg version="1.1" id="Capa_1" xmlns="http://www.w3.org/2000/svg" x="0" y="0" viewBox="0 0 542 490" xml:space="preserve"><style>.st0{fill:#1f1f1f}.st1,.st4{fill:#333;stroke:#333;stroke-miterlimit:10}.st4{fill:none;stroke-width:6}.st8{fill:#d4d4d4}</style><path class="st0" d="M352 239v74l-1 11c-1 8-8 12-17 12H205c-12 0-18-6-18-19v-78H89c-8 0-15-2-18-10s0-14 6-20L255 31c10-11 18-11 29 0l179 178c5 6 8 12 5 20-3 7-8 10-18 10h-98z"/><path class="st1" d="m333 468-3 2h-26c1-13-1-25-8-35l6-4c13-5 27 5 30 21l1 3v13zM204 457l2-7c4-12 13-19 23-18 4 0 8 2 12 5-7 10-9 22-8 35h-25c-2 0-3-1-3-2l-1-13z"/><path class="st1" d="M269 482h-33c-2 0-4-2-4-5l1-19c2-15 8-27 20-33 19-12 42-1 50 23l2 16v13c0 3-1 5-4 5h-32zM284 401c0 9-7 16-16 16-8 0-15-7-15-16s7-16 16-16c8 0 15 8 15 16zM322 410c0 7-6 13-13 13-6 0-12-6-12-13s6-12 13-12c6 0 12 6 12 12zM228 424c-7 0-13-6-13-13s6-12 13-12c6 0 12 5 12 12s-6 13-12 13z"/><path d="M356 424h-28v-81H210v81h-28V322l46-15a5451 5451 0 0 1 44-12l83 27h1v102z" fill="#333" stroke="#333" stroke-width="6" stroke-miterlimit="10"/><path class="st1" d="M219 361v-8h100v8H219zM219 381v-9h100v9H219z"/><path d="M262 269v-9l2-1h13c1 0 2 0 2 2v8h10l2 1-1 2-18 18h-3l-19-18v-2l2-1h10z" fill="#333"/><path class="st4" d="M187 166h165M213 106s50 50 114 1M326 228s-50-50-113-1"/><circle cx="269.4" cy="165.8" r="82.1" fill="none" stroke="#333" stroke-width="7" stroke-miterlimit="10"/><path class="st4" d="M269 248s-93-77 1-164M270 85s93 77-1 164"/><path class="st0" d="M163 71V58l1-1h14v37l-1 1h-40V81h16l-40-40 10-10 40 40zM387 81h13l1 1v13h-37l-1-1V55h14v15l40-39 10 10-40 40zM378 274v13l-1 1h-13v-37l1-1h39v14h-15l39 40-10 10-40-40zM151 264h-13v-14h37l1 1v39h-15v-15l-39 39-10-10 39-40z"/></svg>