<?xml version="1.0" encoding="utf-8"?>
<!-- Generator: Adobe Illustrator 28.3.0, SVG Export Plug-In . SVG Version: 6.00 Build 0)  -->
<svg version="1.1" id="Capa_1" xmlns="http://www.w3.org/2000/svg" xmlns:xlink="http://www.w3.org/1999/xlink" x="0px" y="0px"
	 viewBox="0 0 542.1 489.5" style="enable-background:new 0 0 542.1 489.5;" xml:space="preserve">
<style type="text/css">
	.st0{fill:#1F1F1F;}
	.st1{fill:#333333;stroke:#333333;stroke-miterlimit:10;}
	.st2{fill:#333333;stroke:#333333;stroke-width:6;stroke-miterlimit:10;}
	.st3{fill:#333333;}
	.st4{fill:none;stroke:#333333;stroke-width:6;stroke-miterlimit:10;}
	.st5{fill:none;stroke:#333333;stroke-width:7;stroke-miterlimit:10;}
	.st6{display:none;}
	.st7{display:inline;}
	.st8{fill:#D4D4D4;}
</style>
<path class="st0" d="M352.2,239.1c0,2.6,0,4.6,0,6.6c0,72.3,0-4.4,0,67.8c0,3.4,0.1,7-0.7,10.3c-1.8,7.7-8.2,12-17.3,12.1
	c-30.9,0-61.9,0-92.8,0c-12,0-24,0-36,0c-12.5,0-18.8-6.3-18.8-18.8c0-73.2,0,2.6,0-70.5c0-2.3,0-4.6,0-7.4c-2.4,0-4.2,0-5.9,0
	c-30.6,0-61.2-0.1-91.8,0.1c-8.2,0-14.8-2.2-18-10.3c-3.3-8.1,0.1-14.2,5.8-20c59.4-59.3,118.6-118.7,177.9-178
	c10.8-10.8,18.9-10.7,29.8,0.2C343.8,90.5,403.2,150,462.6,209.4c5.7,5.7,8.3,11.9,5.4,19.7c-2.6,6.8-8.3,10-17.6,10
	c-30.4,0-60.8,0-91.2,0C357.2,239.1,355.2,239.1,352.2,239.1z"/>
<g>
	<g>
		<path class="st1" d="M332.8,467.9c-0.7,1.5-1.7,2-3.1,2c-8-0.1-16,0-23.9,0c-0.4,0-0.7,0-1.4,0c0.7-12.9-1.6-24.5-8.6-34.4
			c2.1-1.9,4.3-3.2,6.6-4.2c12.7-5.3,26.6,4.2,29.8,20.4c0.2,1.2,0.4,2.4,0.6,3.7C332.8,459.5,332.8,463.7,332.8,467.9z"/>
		<path class="st1" d="M204.4,457.2c0.6-2.5,1-5.2,1.8-7.6c3.6-11.1,12.9-18.4,22.5-17.7c4.3,0.3,8.2,1.8,12,4.8
			c-6.8,10.2-8.5,22.2-7.7,35.3c-0.6,0-1.1,0-1.5,0c-7.9,0-15.9,0-23.8,0c-1.4,0-2.5-0.6-3.2-2.2
			C204.4,465.6,204.4,461.4,204.4,457.2z"/>
		<path class="st1" d="M268.6,481.7c-10.8,0-21.5,0-32.3,0c-2.8,0-3.9-1.3-3.9-4.8c0.1-6.3-0.2-12.6,0.5-18.8
			c1.7-15.5,8.5-26.7,19.6-33.5c19-11.8,42.1-0.9,50,23.7c1.6,5,2.4,10.2,2.4,15.6c0,4.5,0,8.9,0,13.4c0,3.1-1.2,4.5-3.7,4.5
			C290.3,481.7,279.4,481.7,268.6,481.7z"/>
		<path class="st1" d="M284,401c-0.1,8.7-7.1,15.7-15.8,15.6c-8.6-0.1-15.5-7.1-15.4-16c0-8.7,7.2-15.6,16-15.5
			C277.1,385.2,284,392.5,284,401z"/>
		<path class="st1" d="M321.8,410.3c0,6.9-5.5,12.4-12.4,12.3c-6.8-0.1-12.2-5.6-12.1-12.5s5.6-12.3,12.5-12.2
			C316.4,397.9,321.8,403.5,321.8,410.3z"/>
		<path class="st1" d="M227.5,423.7c-6.7,0-12.2-5.5-12.2-12.3c0-6.9,5.4-12.4,12.2-12.5c6.8,0,12.4,5.6,12.4,12.4
			C239.9,418.2,234.4,423.7,227.5,423.7z"/>
	</g>
	<g>
		<path class="st2" d="M356.1,424c-9.6,0-18.7,0-28.3,0c0-27.2,0-54.2,0-81.5c-39.5,0-78.5,0-117.9,0c0,27.2,0,54.2,0,81.4
			c-9.7,0-18.9,0-28.3,0c0-33.8,0-67.6,0-101.6c15.5-5,31-10.1,46.5-15.1c12.5-4.1,25-8.2,37.5-12.2c1.9-0.6,4.4-0.6,6.3,0
			c27.6,8.9,55.1,17.9,82.7,26.9c0.5,0.2,0.9,0.4,1.5,0.6C356.1,356.3,356.1,390,356.1,424z"/>
		<path class="st1" d="M218.6,361.4c0-3,0-5.7,0-8.7c33.3,0,66.6,0,100.2,0c0,2.8,0,5.6,0,8.7C285.6,361.4,252.3,361.4,218.6,361.4z
			"/>
		<path class="st1" d="M218.7,380.8c0-3.1,0-5.9,0-8.8c33.5,0,66.8,0,100.3,0c0,3,0,5.8,0,8.8C285.6,380.8,252.3,380.8,218.7,380.8z
			"/>
	</g>
</g>
<path class="st3" d="M261.7,268.9c0-0.3,0-0.5,0-0.7c0-7.4,0,0.5,0-7c0-0.4,0-0.7,0.1-1.1c0.2-0.8,0.8-1.2,1.8-1.2
	c3.2,0,6.3,0,9.5,0c1.2,0,2.5,0,3.7,0c1.3,0,1.9,0.6,1.9,1.9c0,7.5,0-0.3,0,7.2c0,0.2,0,0.5,0,0.8c0.2,0,0.4,0,0.6,0
	c3.1,0,6.3,0,9.4,0c0.8,0,1.5,0.2,1.9,1.1c0.3,0.8,0,1.5-0.6,2c-6.1,6.1-12.2,12.2-18.2,18.2c-1.1,1.1-1.9,1.1-3.1,0
	c-6.1-6.1-12.2-12.2-18.3-18.3c-0.6-0.6-0.9-1.2-0.5-2c0.3-0.7,0.9-1,1.8-1c3.1,0,6.2,0,9.3,0C261.2,268.9,261.4,268.9,261.7,268.9z
	"/>
<g>
	<line class="st4" x1="187.3" y1="165.8" x2="351.5" y2="165.8"/>
	<path class="st4" d="M269.4,247.8"/>
	<path class="st4" d="M269.4,83.7"/>
	<path class="st4" d="M322,102.8"/>
	<path class="st4" d="M212.9,106.2c0,0,49.9,49.5,113.6,0.7"/>
	<path class="st4" d="M326.2,227.7c0,0-49.9-49.5-113.6-0.7"/>
	<circle class="st5" cx="269.4" cy="165.8" r="82.1"/>
</g>
<path class="st4" d="M269.3,247.9c0,0-93.3-77,0.8-164.1"/>
<path class="st4" d="M269.7,84.6c0,0,93.3,77-0.8,164.1"/>
<g>
	<path class="st0" d="M163.1,70.5c0-0.5,0-0.7,0-0.9c0-3.9,0-7.9,0-11.8c0-0.6,0.1-0.8,0.8-0.8c4.3,0,8.6,0,12.9,0
		c0.2,0,0.4,0,0.7,0c0,0.3,0,0.5,0,0.7c0,12.2,0,24.4,0,36.6c0,0.6-0.1,0.8-0.8,0.8c-12.9,0-25.8,0-38.7,0c-0.2,0-0.4,0-0.7,0
		c0-4.8,0-9.5,0-14.4c5.1,0,10.1,0,15.3,0c-13.2-13.2-26.4-26.4-39.5-39.5c3.5-3.5,6.9-6.9,10.3-10.3
		C136.6,44,149.7,57.2,163.1,70.5z"/>
</g>
<g>
	<path class="st0" d="M387.3,80.7c0.5,0,0.7,0,0.9,0c3.9,0,7.9,0,11.8,0c0.6,0,0.8,0.1,0.8,0.8c0,4.3,0,8.6,0,12.9
		c0,0.2,0,0.4,0,0.7c-0.3,0-0.5,0-0.7,0c-12.2,0-24.4,0-36.6,0c-0.6,0-0.8-0.1-0.8-0.8c0-12.9,0-25.8,0-38.7c0-0.2,0-0.4,0-0.7
		c4.8,0,9.5,0,14.4,0c0,5.1,0,10.1,0,15.3c13.2-13.2,26.4-26.4,39.5-39.5c3.5,3.5,6.9,6.9,10.3,10.3
		C413.8,54.3,400.6,67.4,387.3,80.7z"/>
</g>
<g>
	<path class="st0" d="M378.2,274.3c0,0.5,0,0.7,0,0.9c0,3.9,0,7.9,0,11.8c0,0.6-0.1,0.8-0.8,0.8c-4.3,0-8.6,0-12.9,0
		c-0.2,0-0.4,0-0.7,0c0-0.3,0-0.5,0-0.7c0-12.2,0-24.4,0-36.6c0-0.6,0.1-0.8,0.8-0.8c12.9,0,25.8,0,38.7,0c0.2,0,0.4,0,0.7,0
		c0,4.8,0,9.5,0,14.4c-5.1,0-10.1,0-15.3,0c13.2,13.2,26.4,26.4,39.5,39.5c-3.5,3.5-6.9,6.9-10.3,10.3
		C404.7,300.8,391.5,287.6,378.2,274.3z"/>
</g>
<g>
	<path class="st0" d="M151.2,264.1c-0.5,0-0.7,0-0.9,0c-3.9,0-7.9,0-11.8,0c-0.6,0-0.8-0.1-0.8-0.8c0-4.3,0-8.6,0-12.9
		c0-0.2,0-0.4,0-0.7c0.3,0,0.5,0,0.7,0c12.2,0,24.4,0,36.6,0c0.6,0,0.8,0.1,0.8,0.8c0,12.9,0,25.8,0,38.7c0,0.2,0,0.4,0,0.7
		c-4.8,0-9.5,0-14.4,0c0-5.1,0-10.1,0-15.3c-13.2,13.2-26.4,26.4-39.5,39.5c-3.5-3.5-6.9-6.9-10.3-10.3
		C124.7,290.6,137.9,277.4,151.2,264.1z"/>
</g>
<g id="Capa_3" class="st6">
	<g class="st7">
		<path class="st8" d="M445.3,32.4v40.7c-14.8-20.6-35.6-36.6-59.7-45.6v-27C408.4,5.7,428.9,16.9,445.3,32.4z"/>
		<path class="st8" d="M452,214.6c11.3-19.2,17.8-41.7,17.8-65.6c0-17.5-3.5-34.3-9.8-49.5V48.8c16.4,21.7,26.2,48.8,26.2,78.1
			C486.2,160.7,473.3,191.5,452,214.6L452,214.6z"/>
		<path class="st8" d="M180.8,450.6v8.7c-2.1,0.1-4.1,0.1-6.2,0.1c-96.5,0-174.7-78.2-174.7-174.6c0-8.2,0.6-16.2,1.7-24.1
			l25.5,25.5C27.1,373.5,94.9,445,180.8,450.6L180.8,450.6z"/>
		<path class="st8" d="M353.2,288.9c0.4,85-67.9,154.7-153.1,155.9C114.3,446,43.8,377.5,42.6,291.7c-0.6-41.5,15.2-79.4,41.2-107.6
			H105c-26.4,25.4-39.3,64.3-38.7,103.8c1.1,75.8,63.4,136.4,139.2,135.3c71.9-1,130.1-57.2,134.9-127.7l0.2-10.9l12.3-4.1
			c33.4-22.5,55.3-60.6,55.3-103.9c0-69.1-54.2-131.4-123.4-131.4c-3.3,0-6.6,0.1-9.9,0.4c0.1,0.7,0-9.3,0-17.4c0,0,5.4-0.2,8.1-0.2
			c77.3,0,139.9,62.7,139.9,139.9C423,219.5,394.9,264.7,353.2,288.9L353.2,288.9z"/>
		<path class="st8" d="M28,268.9L4.4,245.3c17.9-77.4,87.3-135.2,170.1-135.2c2.1,0,4.2,0,6.2,0.1v11.5
			C100.7,127.1,36.2,189.6,28,268.9L28,268.9z"/>
		<path class="st8" d="M540.5,444.3c-25.9,12.8-60.9,27-103.7,36.1c-36.1,7.7-68.9,9.9-96.5,9.5l-14.9-31.6l4.7-6.5
			c36.4-4.4,69.1-20.6,94.3-44.6l47.6-8.4l-8.7-48.8c7.8-19.2,12.1-40.2,12.1-62.1c0-11.1-1.1-21.9-3.2-32.4l5.1-7.1l36,3.9
			c10,26,19.3,57.6,24.5,94.3C543.1,384.4,542.7,417.8,540.5,444.3L540.5,444.3z"/>
	</g>
</g>
</svg>
