<?xml version="1.0" encoding="UTF-8"?>
<svg id="Capa_1" data-name="Capa 1" xmlns="http://www.w3.org/2000/svg" viewBox="0 0 542.13 489.44">
  <defs>
    <style>
      .cls-1 {
        stroke-width: 0px;
      }

      .cls-1, .cls-2 {
        fill: #fffcf2;
      }

      .cls-3, .cls-4, .cls-5, .cls-6, .cls-7, .cls-2 {
        stroke-miterlimit: 10;
      }

      .cls-3, .cls-5, .cls-2 {
        stroke-width: 6px;
      }

      .cls-3, .cls-7 {
        fill: none;
        stroke: #fffcf2;
      }

      .cls-4, .cls-5, .cls-6 {
        fill: #eb5e28;
        stroke: #eb5e28;
      }

      .cls-6 {
        stroke-width: 9px;
      }

      .cls-7 {
        stroke-width: 7px;
      }

      .cls-2 {
        stroke: #eb5e28;
      }
    </style>
  </defs>
  <path class="cls-6" d="M352.3,238.6v6.6c0,72.3,0-4.4,0,67.8,0,3.4.1,7-.7,10.3-1.8,7.7-8.2,12-17.3,12.1h-128.8c-12.5,0-18.8-6.3-18.8-18.8,0-73.2,0,2.6,0-70.5v-7.4h-5.9c-30.6,0-61.2-.1-91.8.1-8.2,0-14.8-2.2-18-10.3-3.3-8.1.1-14.2,5.8-20,59.4-59.3,118.6-118.7,177.9-178,10.8-10.8,18.9-10.7,29.8.2,59.4,59.3,118.8,118.8,178.2,178.2,5.7,5.7,8.3,11.9,5.4,19.7-2.6,6.8-8.3,10-17.6,10h-91.2c-2,0-4,0-7,0Z"/>
  <g>
    <g>
      <path class="cls-4" d="M332.85,467.42c-.7,1.5-1.7,2-3.1,2-8-.1-16,0-23.9,0h-1.4c.7-12.9-1.6-24.5-8.6-34.4,2.1-1.9,4.3-3.2,6.6-4.2,12.7-5.3,26.6,4.2,29.8,20.4.2,1.2.4,2.4.6,3.7v12.5Z"/>
      <path class="cls-4" d="M204.55,456.72c.6-2.5,1-5.2,1.8-7.6,3.6-11.1,12.9-18.4,22.5-17.7,4.3.3,8.2,1.8,12,4.8-6.8,10.2-8.5,22.2-7.7,35.3h-25.3c-1.4,0-2.5-.6-3.2-2.2-.1-4.2-.1-8.4-.1-12.6Z"/>
      <path class="cls-4" d="M268.75,481.22h-32.3c-2.8,0-3.9-1.3-3.9-4.8.1-6.3-.2-12.6.5-18.8,1.7-15.5,8.5-26.7,19.6-33.5,19-11.8,42.1-.9,50,23.7,1.6,5,2.4,10.2,2.4,15.6v13.4c0,3.1-1.2,4.5-3.7,4.5-10.9-.1-21.8-.1-32.6-.1Z"/>
      <path class="cls-4" d="M284.15,400.52c-.1,8.7-7.1,15.7-15.8,15.6-8.6-.1-15.5-7.1-15.4-16,0-8.7,7.2-15.6,16-15.5,8.3.1,15.2,7.4,15.2,15.9Z"/>
      <path class="cls-4" d="M321.95,409.82c0,6.9-5.5,12.4-12.4,12.3-6.8-.1-12.2-5.6-12.1-12.5s5.6-12.3,12.5-12.2c6.6,0,12,5.6,12,12.4Z"/>
      <path class="cls-4" d="M227.65,423.22c-6.7,0-12.2-5.5-12.2-12.3s5.4-12.4,12.2-12.5c6.8,0,12.4,5.6,12.4,12.4s-5.5,12.4-12.4,12.4Z"/>
    </g>
    <g>
      <path class="cls-2" d="M356.25,423.52h-28.3v-81.5h-117.9v81.4h-28.3v-101.6c15.5-5,31-10.1,46.5-15.1,12.5-4.1,25-8.2,37.5-12.2,1.9-.6,4.4-.6,6.3,0,27.6,8.9,55.1,17.9,82.7,26.9.5.2.9.4,1.5.6,0,33.8,0,67.5,0,101.5Z"/>
      <path class="cls-4" d="M218.75,360.92v-8.7h100.2v8.7h-100.2Z"/>
      <path class="cls-4" d="M218.85,380.32v-8.8h100.3v8.8h-100.3Z"/>
    </g>
  </g>
  <path class="cls-1" d="M261.8,268.4v-.7c0-7.4,0,.5,0-7,0-.4,0-.7.1-1.1.2-.8.8-1.2,1.8-1.2h13.2c1.3,0,1.9.6,1.9,1.9,0,7.5,0-.3,0,7.2v.8h10c.8,0,1.5.2,1.9,1.1.3.8,0,1.5-.6,2l-18.2,18.2c-1.1,1.1-1.9,1.1-3.1,0-6.1-6.1-12.2-12.2-18.3-18.3-.6-.6-.9-1.2-.5-2,.3-.7.9-1,1.8-1h9.3c.2.1.4.1.7.1Z"/>
  <g>
    <line class="cls-3" x1="187.4" y1="165.3" x2="351.6" y2="165.3"/>
    <path class="cls-5" d="M213,105.7s49.9,49.5,113.6.7"/>
    <path class="cls-5" d="M326.3,227.2s-49.9-49.5-113.6-.7"/>
    <circle class="cls-7" cx="269.5" cy="165.3" r="82.1"/>
  </g>
  <path class="cls-3" d="M269.4,247.4s-93.3-77,.8-164.1"/>
  <path class="cls-3" d="M269.8,84.1s93.3,77-.8,164.1"/>
  <path class="cls-4" d="M163.2,70v-12.7c0-.6.1-.8.8-.8h13.6v37.3c0,.6-.1.8-.8.8h-39.4v-14.4h15.3l-39.5-39.5c3.5-3.5,6.9-6.9,10.3-10.3,13.2,13.1,26.3,26.3,39.7,39.6Z"/>
  <path class="cls-4" d="M387.4,80.2h12.7c.6,0,.8.1.8.8v13.6h-37.3c-.6,0-.8-.1-.8-.8v-39.4h14.4v15.3c13.2-13.2,26.4-26.4,39.5-39.5,3.5,3.5,6.9,6.9,10.3,10.3-13.1,13.3-26.3,26.4-39.6,39.7Z"/>
  <path class="cls-4" d="M378.3,273.8v12.7c0,.6-.1.8-.8.8h-13.6v-37.3c0-.6.1-.8.8-.8h39.4v14.4h-15.3l39.5,39.5-10.3,10.3c-13.2-13.1-26.4-26.3-39.7-39.6Z"/>
  <path class="cls-4" d="M151.3,263.6h-12.7c-.6,0-.8-.1-.8-.8v-13.6h37.3c.6,0,.8.1.8.8v39.4h-14.4v-15.3c-13.2,13.2-26.4,26.4-39.5,39.5-3.5-3.5-6.9-6.9-10.3-10.3,13.1-13.2,26.3-26.4,39.6-39.7Z"/>
</svg>