<?xml version="1.0" encoding="UTF-8"?>
<svg id="Capa_4" data-name="Capa 4" xmlns="http://www.w3.org/2000/svg" viewBox="0 0 542.13 489.55">
  <defs>
    <style>
      .cls-1 {
        fill: #831331; /* Cambio de color */
        stroke-width: 0px;
      }
    </style>
  </defs>
  <path class="cls-1" d="M445.42,31.87v40.69c-14.85-20.53-35.59-36.56-59.72-45.58V0c22.79,5.2,43.28,16.41,59.72,31.87Z"/>
  <path class="cls-1" d="M452.14,214.11c11.32-19.25,17.81-41.69,17.81-65.64,0-17.54-3.48-34.29-9.8-49.54v-50.65c16.43,21.72,26.17,48.79,26.17,78.11,0,33.83-12.97,64.64-34.18,87.73Z"/>
  <path class="cls-1" d="M180.87,450.14v8.66c-2.07.08-4.13.11-6.22.11C78.19,458.91,0,380.72,0,284.26c0-8.16.56-16.2,1.66-24.06l25.5,25.5c0,87.3,67.87,158.75,153.71,164.44Z"/>
  <path class="cls-1" d="M353.28,288.39c.36,85.03-67.87,154.7-153.1,155.92-85.75,1.22-156.28-67.3-157.5-153.07-.6-41.49,15.15-79.41,41.25-107.65h21.19c-26.39,25.44-39.28,64.29-38.72,103.81,1.08,75.79,63.4,136.36,139.18,135.28,71.94-1.03,130.15-57.21,134.95-127.74l.19-10.9,12.28-4.15c33.35-22.48,55.29-60.6,55.29-103.86,0-69.12-54.24-131.44-123.36-131.44-3.34,0-6.64.13-9.91.39.12.72-.02-9.32,0-17.35,0,0,5.4-.25,8.13-.25,77.28,0,139.91,62.65,139.91,139.93,0,51.7-28.05,96.87-69.78,121.09Z"/>
  <path class="cls-1" d="M28.07,268.36l-23.57-23.59C22.38,167.34,91.77,109.61,174.65,109.61c2.08,0,4.17.03,6.22.13v11.54c-80.08,5.31-144.53,67.83-152.8,147.09Z"/>
  <path class="cls-1" d="M540.57,443.83c-25.89,12.83-60.85,27-103.73,36.13-36.12,7.67-68.9,9.88-96.48,9.55l-14.88-31.59,4.67-6.45c36.37-4.39,69.1-20.58,94.26-44.65l47.57-8.44-8.66-48.82c7.8-19.17,12.09-40.16,12.09-62.13,0-11.09-1.1-21.94-3.18-32.42l5.12-7.08,35.99,3.87c9.96,25.97,19.26,57.65,24.48,94.32,5.37,37.81,5.01,71.14,2.76,97.72Z"/>
</svg>
