<?xml version="1.0" encoding="utf-8"?>
<!-- Generator: Adobe Illustrator 28.3.0, SVG Export Plug-In . SVG Version: 6.00 Build 0)  -->
<svg version="1.1" id="Capa_4" xmlns="http://www.w3.org/2000/svg" xmlns:xlink="http://www.w3.org/1999/xlink" x="0px" y="0px"
	 viewBox="0 0 542.1 489.5" style="enable-background:new 0 0 542.1 489.5;" xml:space="preserve">
<style type="text/css">
	.st0{fill:#57534E;}
</style>
<path class="st0" d="M445.4,31.9v40.7C430.6,52,409.8,36,385.7,27V0C408.5,5.2,429,16.4,445.4,31.9z"/>
<path class="st0" d="M452.1,214.1c11.3-19.2,17.8-41.7,17.8-65.6c0-17.5-3.5-34.3-9.8-49.5V48.3c16.4,21.7,26.2,48.8,26.2,78.1
	C486.3,160.2,473.4,191,452.1,214.1L452.1,214.1z"/>
<path class="st0" d="M180.9,450.1v8.7c-2.1,0.1-4.1,0.1-6.2,0.1C78.2,458.9,0,380.7,0,284.3c0-8.2,0.6-16.2,1.7-24.1l25.5,25.5
	C27.2,373,95,444.5,180.9,450.1L180.9,450.1z"/>
<path class="st0" d="M353.3,288.4c0.4,85-67.9,154.7-153.1,155.9C114.4,445.5,43.9,377,42.7,291.2c-0.6-41.5,15.2-79.4,41.2-107.6
	h21.2C78.7,209,65.8,247.9,66.4,287.4c1.1,75.8,63.4,136.4,139.2,135.3c71.9-1,130.1-57.2,134.9-127.7l0.2-10.9l12.3-4.1
	c33.4-22.5,55.3-60.6,55.3-103.9c0-69.1-54.2-131.4-123.4-131.4c-3.3,0-6.6,0.1-9.9,0.4c0.1,0.7,0-9.3,0-17.4c0,0,5.4-0.2,8.1-0.2
	c77.3,0,139.9,62.7,139.9,139.9C423.1,219,395,264.2,353.3,288.4L353.3,288.4z"/>
<path class="st0" d="M28.1,268.4L4.5,244.8c17.9-77.4,87.3-135.2,170.1-135.2c2.1,0,4.2,0,6.2,0.1v11.5
	C100.8,126.6,36.3,189.1,28.1,268.4L28.1,268.4z"/>
<path class="st0" d="M540.6,443.8c-25.9,12.8-60.9,27-103.7,36.1c-36.1,7.7-68.9,9.9-96.5,9.5l-14.9-31.6l4.7-6.5
	c36.4-4.4,69.1-20.6,94.3-44.6l47.6-8.4l-8.7-48.8c7.8-19.2,12.1-40.2,12.1-62.1c0-11.1-1.1-21.9-3.2-32.4l5.1-7.1l36,3.9
	c10,26,19.3,57.6,24.5,94.3C543.2,383.9,542.8,417.3,540.6,443.8L540.6,443.8z"/>
</svg>
