<?xml version="1.0" encoding="utf-8"?>
<!-- Generator: Adobe Illustrator 28.3.0, SVG Export Plug-In . SVG Version: 6.00 Build 0)  -->
<svg version="1.1" id="Capa_1" xmlns="http://www.w3.org/2000/svg" xmlns:xlink="http://www.w3.org/1999/xlink" x="0px" y="0px"
	 viewBox="0 0 595.3 595.3" style="enable-background:new 0 0 595.3 595.3;" xml:space="preserve">
<style type="text/css">
	.st0{fill:#8E8E8E;}
</style>
<g>
	<path class="st0" d="M301.3,482.8c-46.4,0.2-90.8-13-133.6-36.3C111,415.8,61.1,371.1,15.5,317.3c-10.2-12-10.9-26.3-1.4-37.7
		c47.1-56.7,99.4-102.7,158.6-133.9c44-23.2,89.6-35.8,137-33.2c37.3,2.1,73.3,13.2,108.2,30.9c54.8,27.7,103.6,68.6,148.2,118.8
		c5.3,6,10.6,12.1,15.6,18.5c8.1,10.4,8.1,23.9-0.1,33.9C529,379,469.6,428.9,401.6,459.5C369.2,474.1,335.7,482.5,301.3,482.8z
		 M298.5,130.3c-66.2-1.9-124.6,72.2-126.8,159.2c-2.4,95.9,52.7,174.6,125.1,175.4c68.4,0.8,124.6-70.2,126.7-162.4
		C425.6,207.6,370.5,132.3,298.5,130.3z M380.7,447.5c1.9,0,2.4,0.1,2.8,0c70.8-27.7,131.7-78.4,186.6-143.1
		c4.8-5.7,3.5-9.1-0.7-14.1c-47.6-56.7-100.4-101.9-160.4-131.8c-8.9-4.4-18.1-7.9-27.1-11.9c35.5,39.7,55.4,89.2,55.4,150.6
		C437.3,358.7,417.8,408.4,380.7,447.5z M213.8,146.7c-1.8,0.6-3.7,1.2-5.5,1.9c-39.7,16.4-77.3,39.1-111.6,70
		c-24.2,21.9-46.8,46.9-70.2,70.6c-5.2,5.2-6.4,9.7-0.3,16c11,11.3,21.2,24,32.2,35.4c43.1,44.9,90.4,79.4,142.3,102.7
		c3.5,1.6,7.2,2.3,10.8,3.5c-34.7-40.5-53.8-89.8-53.4-151.1C158.6,234.3,178.8,185.8,213.8,146.7z"/>
	<path class="st0" d="M299.5,394.5c-40.1,1.2-74-41-74.5-94.4c-0.5-54.6,29.9-98.7,72.3-99.1c39.2-0.4,72,38.3,73.1,97
		C371.4,348.1,338,393.3,299.5,394.5z M344.1,267.4c0.1-18-9.8-31.2-23.4-31.3c-11.4-0.1-22.2,14.6-22.1,30.3
		c0,17.3,10.5,30.5,24.1,30.6C334.1,297,344,283.4,344.1,267.4z"/>
</g>
</svg>
