<svg id="Layer_1" data-name="Layer 1" xmlns="http://www.w3.org/2000/svg" viewBox="0 0 22.85 22.55"><defs><style>.cls-1,.cls-2{fill:#f5fafe;}.cls-2{fill-rule:evenodd;}</style></defs><title>ICONOS WEB- PUBLICIDAD</title><path class="cls-1" d="M22.82,79.38H1A0.48,0.48,0,0,1,.49,78.9V57.31A0.48,0.48,0,0,1,1,56.83H22.85a0.48,0.48,0,0,1,.49.48V78.93A0.5,0.5,0,0,1,22.82,79.38ZM1.44,78.44H22.36V57.76H1.44V78.44Z" transform="translate(-0.49 -56.83)"/><path class="cls-1" d="M22.82,62.46H1A0.48,0.48,0,0,1,.49,62V57.31A0.48,0.48,0,0,1,1,56.83H22.85a0.48,0.48,0,0,1,.49.48V62A0.51,0.51,0,0,1,22.82,62.46ZM1.44,61.53H22.36V57.76H1.44v3.77Z" transform="translate(-0.49 -56.83)"/><path class="cls-1" d="M6.69,62.46A0.48,0.48,0,0,1,6.2,62V57.31a0.49,0.49,0,0,1,1,0V62A0.52,0.52,0,0,1,6.69,62.46Z" transform="translate(-0.49 -56.83)"/><path class="cls-1" d="M2.87,60.11h0a0.48,0.48,0,0,1-.49-0.48h0a0.48,0.48,0,0,1,.49-0.48h0a0.48,0.48,0,0,1,.49.48h0A0.5,0.5,0,0,1,2.87,60.11Z" transform="translate(-0.49 -56.83)"/><path class="cls-1" d="M4.8,60.11h0a0.48,0.48,0,0,1-.49-0.48h0a0.48,0.48,0,0,1,.49-0.48h0a0.48,0.48,0,0,1,.49.48h0A0.52,0.52,0,0,1,4.8,60.11Z" transform="translate(-0.49 -56.83)"/><g id="Megaphone"><path class="cls-2" d="M17.65,65.25a0.82,0.82,0,0,0-.79.61L6.37,69a0.82,0.82,0,0,0-1.56.34V71a0.82,0.82,0,0,0,1.56.36l2.17,0.76-0.21.58a1.22,1.22,0,0,0,.77,1.54l1.13,0.38a1.21,1.21,0,0,0,1.54-.77l0.18-.53L16.85,75a0.82,0.82,0,0,0,1.61-.2V66.07A0.82,0.82,0,0,0,17.65,65.25ZM5.9,71a0.27,0.27,0,1,1-.55,0V69.35a0.27,0.27,0,1,1,.55,0V71Zm5.34,2.67a0.67,0.67,0,0,1-.85.42L9.27,73.7a0.67,0.67,0,0,1-.42-0.84l0.21-.58,2.37,0.83Zm5.58,0.77L6.45,70.8V69.55l10.38-3.11v8Zm1.09,0.38a0.27,0.27,0,0,1-.55,0V66.07a0.27,0.27,0,0,1,.55,0v8.74Z" transform="translate(-0.49 -56.83)"/></g></svg>