<svg id="Layer_1" data-name="Layer 1" xmlns="http://www.w3.org/2000/svg" viewBox="0 0 23.31 23.01"><defs><style>.cls-1,.cls-2{fill:#f5fafe;}.cls-2{fill-rule:evenodd;}</style></defs><title>ICONOS WEB- DISEÑO DE PRODUCTOS</title><path class="cls-1" d="M23.09,51.64H0.81a0.49,0.49,0,0,1-.5-0.49v-22a0.49,0.49,0,0,1,.5-0.49H23.12a0.49,0.49,0,0,1,.5.49V51.18A0.51,0.51,0,0,1,23.09,51.64Zm-21.81-1H22.62V29.58H1.28v21.1Z" transform="translate(-0.31 -28.63)"/><path class="cls-1" d="M23.09,34.38H0.81a0.49,0.49,0,0,1-.5-0.49V29.12a0.49,0.49,0,0,1,.5-0.49H23.12a0.49,0.49,0,0,1,.5.49v4.77A0.52,0.52,0,0,1,23.09,34.38Zm-21.81-1H22.62V29.58H1.28v3.85Z" transform="translate(-0.31 -28.63)"/><path class="cls-1" d="M6.63,34.38a0.49,0.49,0,0,1-.5-0.49V29.12a0.5,0.5,0,0,1,1,0v4.77A0.53,0.53,0,0,1,6.63,34.38Z" transform="translate(-0.31 -28.63)"/><path class="cls-1" d="M2.74,32h0a0.49,0.49,0,0,1-.5-0.49h0A0.49,0.49,0,0,1,2.74,31h0a0.49,0.49,0,0,1,.5.49h0A0.51,0.51,0,0,1,2.74,32Z" transform="translate(-0.31 -28.63)"/><path class="cls-1" d="M4.7,32h0a0.49,0.49,0,0,1-.5-0.49h0A0.49,0.49,0,0,1,4.7,31h0a0.49,0.49,0,0,1,.5.49h0A0.53,0.53,0,0,1,4.7,32Z" transform="translate(-0.31 -28.63)"/><path class="cls-1" d="M17.47,48.74H5.84a0.49,0.49,0,0,1-.5-0.49V36.75a0.49,0.49,0,0,1,.5-0.49H17.47a0.49,0.49,0,0,1,.5.49V48.25A0.47,0.47,0,0,1,17.47,48.74Zm-11.14-1H17V37.24H6.33V47.79Z" transform="translate(-0.31 -28.63)"/><g id="Coffee_To_Go" data-name="Coffee To Go"><path class="cls-2" d="M11.67,42.31a1.21,1.21,0,0,0,0,2.38A1.21,1.21,0,0,0,11.67,42.31Zm0,2a0.83,0.83,0,0,1,0-1.59A0.83,0.83,0,0,1,11.67,44.29Zm3-5.75h0l0-.29a0.66,0.66,0,0,0-.64-0.5H9.41a0.66,0.66,0,0,0-.64.51l0,0.28h0c-0.61,0-1,.61-1,1.59a0.2,0.2,0,0,0,.2.2H8.13l1,6.91a0.53,0.53,0,0,0,.53.42H13.7a0.53,0.53,0,0,0,.53-0.42l1-6.91h0.23a0.2,0.2,0,0,0,.2-0.2C15.63,39.15,15.25,38.54,14.64,38.54Zm-5.48-.21a0.26,0.26,0,0,1,.25-0.18h4.52a0.27,0.27,0,0,1,.25.17l0,0.22H9.13Zm4.68,8.85a0.14,0.14,0,0,1-.14.08H9.64a0.14,0.14,0,0,1-.13-0.08L9.12,44.49H9.87a2,2,0,0,0,1.8,1.39,2,2,0,0,0,1.8-1.39h0.75Zm0.44-3.09H13.33a0.2,0.2,0,0,0-.19.14,1.63,1.63,0,0,1-1.47,1.25,1.63,1.63,0,0,1-1.47-1.25A0.2,0.2,0,0,0,10,44.09H9.07L8.9,42.9H10a0.2,0.2,0,0,0,.19-0.14,1.63,1.63,0,0,1,1.47-1.25,1.63,1.63,0,0,1,1.47,1.25,0.2,0.2,0,0,0,.19.14h1.11ZM14.5,42.5h-1a2,2,0,0,0-1.8-1.39,2,2,0,0,0-1.8,1.39h-1L8.53,40.32h6.28ZM8.11,39.93c0-.35.13-1,0.59-1h5.95c0.45,0,.56.64,0.59,1H8.11Z" transform="translate(-0.31 -28.63)"/></g></svg>