<svg id="Layer_1" data-name="Layer 1" xmlns="http://www.w3.org/2000/svg" viewBox="0 0 22.94 22.94"><defs><style>.cls-1{fill:#f5fafe;fill-rule:evenodd;}</style></defs><title>ICONOS WEB-  DESAROLLO WEB</title><g id="Template"><path class="cls-1" d="M22.52,0.5H1.41a0.92,0.92,0,0,0-.92.92V22.52a0.92,0.92,0,0,0,.92.92H22.52a0.92,0.92,0,0,0,.92-0.92V1.41A0.92,0.92,0,0,0,22.52.5Zm0,22H1.41V5.09h21.1V22.52Zm0-18.35H1.42V1.41h0v0H22.52V4.17Zm-19.27,6H20.68a0.46,0.46,0,0,0,.46-0.46V6.92a0.46,0.46,0,0,0-.46-0.46H3.25a0.46,0.46,0,0,0-.46.46V9.67A0.46,0.46,0,0,0,3.25,10.13ZM3.71,7.38H20.23V9.21H3.71V7.38Zm16.52,4.13H13.34a0.92,0.92,0,0,0-.92.92v8.26a0.92,0.92,0,0,0,.92.92h6.88a0.92,0.92,0,0,0,.92-0.92V12.43A0.92,0.92,0,0,0,20.23,11.51Zm-6.88.92v0h0Zm6.88,8.26H13.34V12.43h6.88v8.26ZM3.71,21.6h6.88a0.92,0.92,0,0,0,.92-0.92V12.43a0.92,0.92,0,0,0-.92-0.92H3.71a0.92,0.92,0,0,0-.92.92v8.26A0.92,0.92,0,0,0,3.71,21.6Zm6.88-9.18v8.26H3.71V12.43h6.88Z" transform="translate(-0.5 -0.5)"/></g></svg>