<svg id="Layer_1" data-name="Layer 1" xmlns="http://www.w3.org/2000/svg" viewBox="0 0 22.5 22.21"><defs><style>.cls-1,.cls-2{fill:#f5fafe;}.cls-2{fill-rule:evenodd;}</style></defs><title>ICONOS WEB- DISEÑO DE INTERIORISMO</title><path class="cls-1" d="M50.77,51.31H29.26a0.47,0.47,0,0,1-.48-0.48V29.57a0.47,0.47,0,0,1,.48-0.48H50.8a0.47,0.47,0,0,1,.48.48V50.86A0.49,0.49,0,0,1,50.77,51.31Zm-21.06-.92H50.32V30H29.71V50.39Z" transform="translate(-28.78 -29.09)"/><path class="cls-1" d="M50.77,34.65H29.26a0.47,0.47,0,0,1-.48-0.48v-4.6a0.47,0.47,0,0,1,.48-0.48H50.8a0.47,0.47,0,0,1,.48.48v4.6A0.5,0.5,0,0,1,50.77,34.65Zm-21.06-.92H50.32V30H29.71v3.71Z" transform="translate(-28.78 -29.09)"/><path class="cls-1" d="M34.88,34.65a0.47,0.47,0,0,1-.48-0.48v-4.6a0.48,0.48,0,0,1,1,0v4.6A0.51,0.51,0,0,1,34.88,34.65Z" transform="translate(-28.78 -29.09)"/><path class="cls-1" d="M31.13,32.33h0a0.47,0.47,0,0,1-.48-0.48h0a0.47,0.47,0,0,1,.48-0.48h0a0.47,0.47,0,0,1,.48.48h0A0.49,0.49,0,0,1,31.13,32.33Z" transform="translate(-28.78 -29.09)"/><path class="cls-1" d="M33,32.33h0a0.47,0.47,0,0,1-.48-0.48h0A0.47,0.47,0,0,1,33,31.38h0a0.47,0.47,0,0,1,.48.48h0A0.51,0.51,0,0,1,33,32.33Z" transform="translate(-28.78 -29.09)"/><path class="cls-1" d="M45.35,48.52H34.11A0.47,0.47,0,0,1,33.63,48V36.93a0.47,0.47,0,0,1,.48-0.48H45.35a0.47,0.47,0,0,1,.48.48V48A0.45,0.45,0,0,1,45.35,48.52ZM34.6,47.6H44.9V37.41H34.6V47.6Z" transform="translate(-28.78 -29.09)"/><g id="Office_Lamp" data-name="Office Lamp"><path class="cls-2" d="M44.48,42.63a1,1,0,0,0-.78-0.93l-1.89-2.19a1,1,0,0,0,0-.11,1,1,0,0,0-1.71-.57L38.35,39a1,1,0,0,0-.95-0.73H37.31a1,1,0,0,0-1,1v0.95A2.92,2.92,0,0,0,35,42.65a0.19,0.19,0,0,0,0,.13c0.06,0.06.59,0.61,2.33,0.61s2.28-.55,2.33-0.62a0.19,0.19,0,0,0,0-.12,2.91,2.91,0,0,0-1.33-2.4V40.13L40.12,40a1,1,0,0,0,.76.38H41l1.64,1.9a0.95,0.95,0,0,0,0,.87l-2.06,3.14H39.32a0.94,0.94,0,0,0-.92,1v0.38a0.19,0.19,0,0,0,.19.19h5.13a0.19,0.19,0,0,0,.19-0.19V47.19a0.94,0.94,0,0,0-.92-1H42l1.75-2.69A1,1,0,0,0,44.48,42.63ZM36.69,39.3a0.66,0.66,0,0,1,.64-0.66h0.05a0.66,0.66,0,0,1,.63.57h0a0.66,0.66,0,0,1,0,.08v1a7.06,7.06,0,0,1-1.33,0v-1Zm2.66,3.27a3.3,3.3,0,0,1-2,.44,3.31,3.31,0,0,1-2-.44,2.59,2.59,0,0,1,1-1.91,7.06,7.06,0,0,0,2,0A2.58,2.58,0,0,1,39.35,42.57ZM38.4,39.75V39.36l1.54-.14a1,1,0,0,0,0,.38ZM40.87,40a0.57,0.57,0,0,1-.49-0.28h0a0.57,0.57,0,0,1,0-.56h0a0.57,0.57,0,0,1,1,.41v0A0.57,0.57,0,0,1,40.87,40Zm0.53,0.22a1,1,0,0,0,.27-0.27l1.56,1.81a1,1,0,0,0-.34.2ZM43,46.62a0.56,0.56,0,0,1,.54.57v0.19H38.78V47.19a0.56,0.56,0,0,1,.54-0.57H43Zm-1.43-.38H41.11L43,43.4a1,1,0,0,0,.34.16Zm2.06-3H43.53a0.57,0.57,0,1,1,0-1.14H43.6a0.57,0.57,0,0,1,0,1.13h0Z" transform="translate(-28.78 -29.09)"/></g></svg>