<svg id="Layer_1" data-name="Layer 1" xmlns="http://www.w3.org/2000/svg" viewBox="0 0 22.5 22.21"><defs><style>.cls-1{fill:#f5fafe;}</style></defs><title>ICONOS WEB- MARKETING DIGITAL</title><path class="cls-1" d="M78.74,51H57.23a0.47,0.47,0,0,1-.48-0.48V29.28a0.47,0.47,0,0,1,.48-0.48H78.77a0.47,0.47,0,0,1,.48.48V50.58A0.49,0.49,0,0,1,78.74,51ZM57.68,50.1H78.29V29.73H57.68V50.1Z" transform="translate(-56.75 -28.81)"/><path class="cls-1" d="M78.74,34.36H57.23a0.47,0.47,0,0,1-.48-0.48v-4.6a0.47,0.47,0,0,1,.48-0.48H78.77a0.47,0.47,0,0,1,.48.48v4.6A0.5,0.5,0,0,1,78.74,34.36Zm-21.06-.92H78.29V29.73H57.68v3.71Z" transform="translate(-56.75 -28.81)"/><path class="cls-1" d="M62.85,34.36a0.47,0.47,0,0,1-.48-0.48v-4.6a0.48,0.48,0,0,1,1,0v4.6A0.51,0.51,0,0,1,62.85,34.36Z" transform="translate(-56.75 -28.81)"/><path class="cls-1" d="M59.09,32h0a0.47,0.47,0,0,1-.48-0.48h0a0.47,0.47,0,0,1,.48-0.48h0a0.47,0.47,0,0,1,.48.48h0A0.49,0.49,0,0,1,59.09,32Z" transform="translate(-56.75 -28.81)"/><path class="cls-1" d="M61,32h0a0.47,0.47,0,0,1-.48-0.48h0A0.47,0.47,0,0,1,61,31.09h0a0.47,0.47,0,0,1,.48.48h0A0.51,0.51,0,0,1,61,32Z" transform="translate(-56.75 -28.81)"/><path class="cls-1" d="M73.32,48.23H62.08a0.47,0.47,0,0,1-.48-0.48V36.65a0.47,0.47,0,0,1,.48-0.48H73.32a0.47,0.47,0,0,1,.48.48V47.75A0.45,0.45,0,0,1,73.32,48.23Zm-10.75-.92H72.87V37.12H62.56V47.31Z" transform="translate(-56.75 -28.81)"/><path class="cls-1" d="M62.6,42.12a6.5,6.5,0,0,1,4.76-2.62,2.71,2.71,0,0,1,.8,0A6.27,6.27,0,0,1,73,42.12a0.13,0.13,0,0,1,0,.15,6.27,6.27,0,0,1-4.83,2.63,2.73,2.73,0,0,1-.8,0,6.5,6.5,0,0,1-4.77-2.62,0.13,0.13,0,0,1,0-.16h0Zm6.7-2.21L69.39,40a0.13,0.13,0,0,1,0,.18,0.13,0.13,0,0,1-.07,0,0.63,0.63,0,0,0-.26.15,0.62,0.62,0,1,0,1,.74A0.13,0.13,0,0,1,70.25,41a0.13,0.13,0,0,1,.06.07,2.73,2.73,0,0,1,.22.94,2.76,2.76,0,0,1-.12,1h0a2.73,2.73,0,0,1-1.11,1.48,6,6,0,0,0,2.17-1,6.1,6.1,0,0,0,1.27-1.28,6.1,6.1,0,0,0-1.27-1.28,6,6,0,0,0-2.16-1h0Zm-3.05,4.54a2.74,2.74,0,0,1-1.06-3.06h0a2.72,2.72,0,0,1,1.06-1.45,6.23,6.23,0,0,0-3.38,2.25,6.33,6.33,0,0,0,1.33,1.29,6.27,6.27,0,0,0,2.05,1h0Zm2.1-2.54a0.62,0.62,0,0,0-.36-0.3h0a0.62,0.62,0,0,0-.77.41h0a0.62,0.62,0,0,0,.41.77h0a0.62,0.62,0,0,0,.77-0.41h0a0.62,0.62,0,0,0,0-.47h0Z" transform="translate(-56.75 -28.81)"/></svg>