<svg id="Layer_1" data-name="Layer 1" xmlns="http://www.w3.org/2000/svg" viewBox="0 0 23.13 20.27"><defs><style>.cls-1{fill:#f5fafe;}</style></defs><title>ICONOS WEB- DISEÑO ENTORNO 3D</title><path class="cls-1" d="M30.5,58.78h19V74.87h0.89V58.39A0.42,0.42,0,0,0,49.9,58H30.09a0.42,0.42,0,0,0-.44.42V75.11H30.5V58.78Z" transform="translate(-28.47 -57.97)"/><path class="cls-1" d="M47.49,72.8H32.71a0.55,0.55,0,0,1-.59-0.56V61.42a0.55,0.55,0,0,1,.59-0.56H47.49a0.55,0.55,0,0,1,.59.56V72.25A0.64,0.64,0,0,1,47.49,72.8ZM33.27,71.69H46.91V62H33.27v9.71Z" transform="translate(-28.47 -57.97)"/><path class="cls-1" d="M48.65,78.24H31.37a2.83,2.83,0,0,1-2.9-2.76V75a0.47,0.47,0,0,1,.5-0.47H51.1a0.47,0.47,0,0,1,.5.47v0.42A2.93,2.93,0,0,1,48.65,78.24ZM29.41,75.5a1.9,1.9,0,0,0,2,1.81H48.62a1.92,1.92,0,0,0,2-1.81H29.41Z" transform="translate(-28.47 -57.97)"/><rect class="cls-1" x="15.87" y="18.46" width="1.46" height="1.39"/><rect class="cls-1" x="12.49" y="18.46" width="1.46" height="1.39"/><path class="cls-1" d="M39,67.16a1,1,0,0,1,.24.68,1.12,1.12,0,0,1-.19.63,1.35,1.35,0,0,1-.59.47,2.41,2.41,0,0,1-1,.18A4,4,0,0,1,36.61,69a2.61,2.61,0,0,1-.71-0.25l0.44-.93a2.11,2.11,0,0,0,.51.2,2.16,2.16,0,0,0,.53.07A0.77,0.77,0,0,0,37.75,68a0.23,0.23,0,0,0,.14-0.21q0-.26-0.46-0.26H36.91V66.8l0.57-.56H36.09v-1H39v0.78l-0.72.71A1.27,1.27,0,0,1,39,67.16Z" transform="translate(-28.47 -57.97)"/><path class="cls-1" d="M39.66,65.29h1.92a2.74,2.74,0,0,1,1.15.23,1.8,1.8,0,0,1,0,3.29,2.74,2.74,0,0,1-1.15.23H39.66V65.29ZM41.52,68a1,1,0,0,0,.68-0.23,1,1,0,0,0,0-1.31,1,1,0,0,0-.68-0.23H41V68h0.55Z" transform="translate(-28.47 -57.97)"/></svg>