<svg id="Layer_1" data-name="Layer 1" xmlns="http://www.w3.org/2000/svg" viewBox="0 0 22.12 23.13"><defs><style>.cls-1{fill:#f5fafe;}</style></defs><title>ICONOS WEB- DISEÑO GRAFICO</title><g id="_503_Pen_Drawing_Art_Design_Draw" data-name="503, Pen, Drawing, Art, Design, Draw"><path class="cls-1" d="M67.59,20.19A0.32,0.32,0,0,1,67.27,20l-5.5-6.15a0.42,0.42,0,0,1-.13-0.43l1-4.93a0.44,0.44,0,0,1,.44-0.36H72a0.45,0.45,0,0,1,.44.36l1,4.93a0.49,0.49,0,0,1-.09.43L67.94,20A0.56,0.56,0,0,1,67.59,20.19Zm-5-6.78,5,5.59,5-5.59-0.92-4.3H63.51Z" transform="translate(-56.94 -0.44)"/><path class="cls-1" d="M71.51,6.69H63.64a0.38,0.38,0,0,1-.32-0.17,0.51,0.51,0,0,1-.13-0.36l0.54-5.29A0.46,0.46,0,0,1,64.21.44H71a0.49,0.49,0,0,1,.47.43L72,6.16a0.49,0.49,0,0,1-.09.36A0.82,0.82,0,0,1,71.51,6.69Zm-7.33-1H71L70.56,1.33H64.62Z" transform="translate(-56.94 -0.44)"/><path class="cls-1" d="M73.53,9.11h-12a0.48,0.48,0,0,1-.47-0.5V6.19a0.48,0.48,0,0,1,.47-0.5h12a0.48,0.48,0,0,1,.47.5V8.61A0.5,0.5,0,0,1,73.53,9.11ZM62,8.11H73.06V6.66H62V8.11Z" transform="translate(-56.94 -0.44)"/><path class="cls-1" d="M67.52,20.19a0.48,0.48,0,0,1-.47-0.5V13.41a0.48,0.48,0,0,1,.47-0.5,0.46,0.46,0,0,1,.47.5v6.29A0.46,0.46,0,0,1,67.52,20.19Z" transform="translate(-56.94 -0.44)"/><path class="cls-1" d="M67.52,13.9A1.92,1.92,0,1,1,69.36,12,1.86,1.86,0,0,1,67.52,13.9Zm0-2.88a1,1,0,1,0,.92,1A0.92,0.92,0,0,0,67.52,11Z" transform="translate(-56.94 -0.44)"/><path class="cls-1" d="M69.39,23.56h-3.7a0.48,0.48,0,0,1-.47-0.5V19.69a0.48,0.48,0,0,1,.47-0.5h3.7a0.48,0.48,0,0,1,.47.5v3.37A0.5,0.5,0,0,1,69.39,23.56Zm-3.22-1h2.78V20.19H66.17V22.6Z" transform="translate(-56.94 -0.44)"/><path class="cls-1" d="M78.59,19.69h-3.7a0.48,0.48,0,0,1-.47-0.5V15.82a0.48,0.48,0,0,1,.47-0.5h3.7a0.48,0.48,0,0,1,.47.5V19.2A0.46,0.46,0,0,1,78.59,19.69Zm-3.22-1h2.78V16.32H75.36v2.42Z" transform="translate(-56.94 -0.44)"/><path class="cls-1" d="M61.11,19.69h-3.7a0.48,0.48,0,0,1-.47-0.5V15.82a0.48,0.48,0,0,1,.47-0.5h3.7a0.48,0.48,0,0,1,.47.5V19.2A0.52,0.52,0,0,1,61.11,19.69Zm-3.26-1h2.78V16.32H57.85v2.42Z" transform="translate(-56.94 -0.44)"/><path class="cls-1" d="M65.69,22.14a0.35,0.35,0,0,1-.25-0.1l-4.61-3.37A0.54,0.54,0,0,1,60.7,18a0.44,0.44,0,0,1,.63-0.1L66,21.25a0.54,0.54,0,0,1,.13.66A0.66,0.66,0,0,1,65.69,22.14Z" transform="translate(-56.94 -0.44)"/><path class="cls-1" d="M69.39,22.14a0.44,0.44,0,0,1-.38-0.2,0.49,0.49,0,0,1,.13-0.66l5.53-3.87a0.44,0.44,0,0,1,.63.13,0.49,0.49,0,0,1-.13.66L69.64,22A0.8,0.8,0,0,1,69.39,22.14Z" transform="translate(-56.94 -0.44)"/></g></svg>