<svg id="Layer_1" data-name="Layer 1" xmlns="http://www.w3.org/2000/svg" viewBox="0 0 22.82 22.53"><defs><style>.cls-1,.cls-2{fill:#f5fafe;}.cls-2{fill-rule:evenodd;}</style></defs><title>ICONOS WEB- DISEÑO ASSETS</title><path class="cls-1" d="M79,79.26H57.16a0.48,0.48,0,0,1-.49-0.48V57.22a0.48,0.48,0,0,1,.49-0.48H79a0.48,0.48,0,0,1,.49.48V78.81A0.5,0.5,0,0,1,79,79.26Zm-21.36-.93h20.9V57.67H57.62V78.33Z" transform="translate(-56.68 -56.74)"/><path class="cls-1" d="M79,62.37H57.16a0.48,0.48,0,0,1-.49-0.48V57.22a0.48,0.48,0,0,1,.49-0.48H79a0.48,0.48,0,0,1,.49.48v4.67A0.5,0.5,0,0,1,79,62.37Zm-21.36-.93h20.9V57.67H57.62v3.77Z" transform="translate(-56.68 -56.74)"/><path class="cls-1" d="M62.86,62.37a0.48,0.48,0,0,1-.49-0.48V57.22a0.49,0.49,0,0,1,1,0v4.67A0.52,0.52,0,0,1,62.86,62.37Z" transform="translate(-56.68 -56.74)"/><path class="cls-1" d="M59.05,60h0a0.48,0.48,0,0,1-.49-0.48h0a0.48,0.48,0,0,1,.49-0.48h0a0.48,0.48,0,0,1,.49.48h0A0.5,0.5,0,0,1,59.05,60Z" transform="translate(-56.68 -56.74)"/><path class="cls-1" d="M61,60h0a0.48,0.48,0,0,1-.49-0.48h0A0.48,0.48,0,0,1,61,59.05h0a0.48,0.48,0,0,1,.49.48h0A0.52,0.52,0,0,1,61,60Z" transform="translate(-56.68 -56.74)"/><path class="cls-1" d="M73.48,76.43H62.08a0.48,0.48,0,0,1-.49-0.48V64.69a0.48,0.48,0,0,1,.49-0.48H73.48a0.48,0.48,0,0,1,.49.48V75.95A0.46,0.46,0,0,1,73.48,76.43ZM62.57,75.5H73V65.17H62.57V75.5Z" transform="translate(-56.68 -56.74)"/><g id="Centre_Of_Gravity" data-name="Centre Of Gravity"><path class="cls-2" d="M73.76,69.94H71.53a3.71,3.71,0,0,0-.46-1.56A3.64,3.64,0,0,0,70.84,68a0.25,0.25,0,1,0-.4.29A3.08,3.08,0,0,1,71,69.94h-3V67a3.22,3.22,0,0,1,1.61.59,0.25,0.25,0,1,0,.29-0.4,3.71,3.71,0,0,0-1.9-.68V64.24a0.25,0.25,0,0,0-.5,0v2.24a3.73,3.73,0,0,0-1.56.46,2.25,2.25,0,0,0-.25.17l-0.08.06a0.25,0.25,0,1,0,.29.4l0.09-.07,0.2-.13a3.23,3.23,0,0,1,1.32-.4v3h-3a3.26,3.26,0,0,1,.12-0.64,3.19,3.19,0,0,1,.48-1,0.25,0.25,0,1,0-.4-0.29,3.62,3.62,0,0,0-.69,1.9H61.86a0.25,0.25,0,1,0,0,.5H64.1a3.58,3.58,0,0,0,.68,1.9,0.25,0.25,0,1,0,.4-0.29,3.16,3.16,0,0,1-.19-0.3,3.22,3.22,0,0,1-.4-1.32h3v3A3.22,3.22,0,0,1,66,72.81a0.25,0.25,0,0,0-.29.4,3.71,3.71,0,0,0,1.9.68v2.24a0.25,0.25,0,0,0,.5,0V73.9a3.73,3.73,0,0,0,1.56-.46,2.3,2.3,0,0,0,.25-0.17L70,73.21a0.25,0.25,0,0,0-.29-0.4l-0.09.07-0.2.13a3.24,3.24,0,0,1-1.32.4v-3h3a3.26,3.26,0,0,1-.12.64,3.19,3.19,0,0,1-.48,1,0.25,0.25,0,0,0,.4.29,3.62,3.62,0,0,0,.69-1.9h2.24A0.25,0.25,0,1,0,73.76,69.94Z" transform="translate(-56.68 -56.74)"/></g></svg>