<?xml version="1.0" encoding="UTF-8"?>
<svg id="Capa_2" data-name="Capa 2" xmlns="http://www.w3.org/2000/svg" viewBox="0 0 23.4 23.1">
  <defs>
    <style>
      .cls-1 {
        fill: #f5fafe;
        stroke-width: 0px;
      }
    </style>
  </defs>
  <g id="Layer_1" data-name="Layer 1">
    <g id="_519_Graphics_Design_Layout" data-name="519, Graphics Design, Layout">
      <g>
        <path class="cls-1" d="M22.86,23.1H.5c-.27,0-.5-.2-.5-.49V.49c0-.26.2-.49.5-.49h22.4c.27,0,.5.2.5.49v22.14c-.03.26-.23.46-.53.46ZM.97,22.14h21.43V.96H.97v21.18Z"/>
        <path class="cls-1" d="M22.86,5.77H.5c-.27,0-.5-.2-.5-.49V.49c0-.26.2-.49.5-.49h22.4c.27,0,.5.2.5.49v4.78c-.03.3-.23.49-.53.49ZM.97,4.82h21.43V.96H.97v3.86Z"/>
        <path class="cls-1" d="M6.34,5.77c-.27,0-.5-.2-.5-.49V.49c0-.26.2-.49.5-.49s.5.2.5.49v4.78c-.03.3-.27.49-.5.49Z"/>
        <path class="cls-1" d="M2.44,3.37h0c-.27,0-.5-.2-.5-.49h0c0-.26.2-.49.5-.49h0c.27,0,.5.2.5.49h0c-.03.3-.23.49-.5.49Z"/>
        <path class="cls-1" d="M4.41,3.37h0c-.27,0-.5-.2-.5-.49h0c0-.26.2-.49.5-.49h0c.27,0,.5.2.5.49h0c-.03.3-.27.49-.5.49Z"/>
        <path class="cls-1" d="M20.93,13.46H2.44c-.27,0-.5-.2-.5-.49v-5.77c0-.26.2-.49.5-.49h18.49c.27,0,.5.2.5.49v5.77c0,.3-.23.49-.5.49ZM2.9,12.5h17.52v-4.78H2.9v4.78Z"/>
        <path class="cls-1" d="M5.84,21.18h-3.4c-.27,0-.5-.2-.5-.49v-5.77c0-.26.2-.49.5-.49h3.4c.27,0,.5.2.5.49v5.77c0,.26-.23.49-.5.49ZM2.9,20.19h2.44v-4.78h-2.44v4.78Z"/>
        <path class="cls-1" d="M13.15,21.18h-3.4c-.27,0-.5-.2-.5-.49v-4.32c0-.26.2-.49.5-.49h3.4c.27,0,.5.2.5.49v4.36c-.03.23-.23.46-.5.46ZM10.25,20.19h2.44v-3.37h-2.44v3.37Z"/>
        <path class="cls-1" d="M20.93,21.18h-3.4c-.27,0-.5-.2-.5-.49v-5.77c0-.26.2-.49.5-.49h3.4c.27,0,.5.2.5.49v5.77c0,.26-.23.49-.5.49ZM18.02,20.19h2.44v-4.78h-2.44v4.78Z"/>
      </g>
    </g>
  </g>
</svg>